<svg xmlns="http://www.w3.org/2000/svg" width="53" height="54" fill="none"><path fill="#F3BA2F" d="m16.07 23.011 10.204-10.3L36.482 23.02l5.933-5.997L26.274.716 10.132 17.018l5.938 5.993ZM0 27.247l5.936-5.995 5.936 5.995-5.936 5.995L0 27.247ZM16.07 31.481l10.203 10.305 10.208-10.31 5.938 5.99-.004.004-16.142 16.306-16.142-16.298-.008-.008 5.946-5.989ZM40.664 27.248l5.936-5.994 5.936 5.994-5.936 5.995-5.936-5.995Z"/><path fill="#F3BA2F" d="m32.294 27.244-6.02-6.085-4.453 4.497-.515.515-1.054 1.064-.008.009.008.012 6.021 6.077 6.021-6.085.004-.004h-.004Z"/></svg>