<svg xmlns="http://www.w3.org/2000/svg" width="112" height="25" fill="none"><path fill="#fff" d="M108.888 1.904c0-.765.567-1.349 1.284-1.349.705 0 1.272.584 1.272 1.349 0 .778-.567 1.362-1.272 1.362-.717 0-1.284-.584-1.284-1.362Zm1.284 1.621c.856 0 1.587-.687 1.587-1.621 0-.92-.731-1.621-1.587-1.621-.869 0-1.599.7-1.599 1.62 0 .935.73 1.622 1.599 1.622Zm-.34-1.491h.315l.478.804h.315l-.516-.817c.264-.04.466-.182.466-.52 0-.362-.214-.518-.642-.518h-.693v1.855h.277v-.804Zm0-.247v-.57h.378c.189 0 .39.038.39.272 0 .285-.201.298-.428.298h-.34ZM64.127 4.044c7.253 0 8.31-.234 8.31 7.782v.026c0 8.028-1.07 7.716-8.322 7.716H55.83l.013-15.524h8.284Zm2.594 10.48V9.114h-5.25v5.408h5.25Zm10.954 5.045h-5.93l7.038-15.512H84.6l7.038 15.511h-5.93l-.83-1.79h-6.372l-.83 1.79Zm4.017-9.974L80.03 13.29h3.324l-1.662-3.696ZM41.766 4.044c-3.853.065-3.828 2.659-3.828 4.863 0 2.231-.1 4.942 3.828 4.994V4.044Zm0 9.857h7.68v1.063H38.53v4.604h12c3.94-.064 3.827-2.775 3.827-4.993 0-2.23.1-4.928-3.828-4.993h-8.008v-1.05h10.69V4.056l-11.47-.013.025 9.857ZM5.609 12.293l7.06 7.276h5.099V4.056H12.39l-.012 7.263-7.061-7.263H.23v15.511h5.378v-7.275Zm85.324-.493c0 8.067 1.083 7.846 8.348 7.846 7.265 0 8.323.22 8.323-7.846v-.013c0-8.08-1.058-7.847-8.323-7.847-7.265 0-8.348-.233-8.348 7.847v.013Zm5.717 2.697V9.09h5.25v5.408h-5.25Zm10.337 10.207V19.44h-5.1v5.265h5.1ZM24.995 17.78h6.383l.831 1.79h5.918L31.09 4.056h-5.817l-7.026 15.511h5.93l.819-1.79Zm4.847-4.488h-3.311l1.662-3.696 1.65 3.696Z"/></svg>