<svg xmlns="http://www.w3.org/2000/svg" width="91" height="23" fill="none"><path fill="#fff" fill-rule="evenodd" d="M25.127 8.533a2.937 2.937 0 0 1 2.931 2.93 2.937 2.937 0 0 1-2.931 2.932c-.26 0-.519-.035-.77-.103l-5.976 5.977a11.038 11.038 0 0 0 6.746 2.297c6.114 0 11.101-4.987 11.101-11.102 0-6.114-4.987-11.1-11.101-11.1-.377 0-.75.018-1.116.056l-9.862 9.86c.16.363.251.763.251 1.184a2.937 2.937 0 0 1-2.931 2.931 2.937 2.937 0 0 1-2.931-2.931 2.937 2.937 0 0 1 3.75-2.814l5.963-5.963A11.038 11.038 0 0 0 11.469.363C5.355.363.367 5.35.367 11.463c0 6.116 4.987 11.103 11.102 11.103.4 0 .796-.023 1.186-.065l8.917-8.916.894-.894a2.907 2.907 0 0 1-.27-1.227 2.938 2.938 0 0 1 2.93-2.931Zm33.539.781c0 2.535-.777 4.63-2.328 6.297-1.752 1.878-4.191 2.818-7.328 2.818-3.141 0-5.586-.94-7.337-2.818-1.551-1.667-2.327-3.762-2.327-6.297 0-2.53.776-4.625 2.327-6.292C43.424 1.142 45.87.203 49.01.203c3.137 0 5.577.94 7.328 2.819 1.551 1.667 2.328 3.762 2.328 6.292Zm-6.312 0c0-1.151-.343-2.087-1.024-2.796-.641-.666-1.413-1-2.32-1-.92 0-1.7.334-2.34 1-.682.709-1.024 1.645-1.024 2.796 0 1.156.342 2.091 1.024 2.8.64.667 1.42 1 2.34 1 .907 0 1.678-.333 2.32-1 .681-.709 1.024-1.644 1.024-2.8Zm23.865 0c0 2.481-.723 4.486-2.173 6.016-1.62 1.7-3.932 2.554-6.94 2.554h-7.48V.749h7.48c3.294 0 5.723.947 7.283 2.841 1.22 1.482 1.83 3.387 1.83 5.724Zm-6.312.004c0-1.182-.328-2.095-.983-2.731-.594-.576-1.397-.864-2.403-.864h-.794v7.179h.794c.788 0 1.45-.171 1.996-.512.927-.583 1.39-1.606 1.39-3.072Zm20.725 3.205c0 1.853-.668 3.307-1.996 4.375-1.266 1.02-2.924 1.531-4.968 1.531-2.433 0-4.73-.614-6.884-1.84l1.71-4.612c1.626 1.118 3.012 1.679 4.16 1.679 1.119 0 1.677-.212 1.677-.633 0-.356-.185-.667-.554-.932-.463-.326-1.506-.845-3.133-1.553-2.098-.917-3.145-2.493-3.145-4.717 0-1.784.655-3.178 1.966-4.186C80.7.681 82.32.203 84.33.203c1.992 0 3.875.53 5.648 1.588L88.5 6.45c-1.3-.98-2.543-1.474-3.717-1.474-.742 0-1.115.205-1.115.61 0 .209.154.417.463.622.362.254 1.164.682 2.407 1.288 1.506.739 2.564 1.473 3.167 2.197.617.747.927 1.694.927 2.83Zm-50.016 7.31v2.875h.91v-1.065l-.027-.47.998 1.535h.91v-2.875h-.945v1.03l.035.465-.998-1.495h-.883Zm6.702 0v2.875h2.409v-.684h-1.429v-.416h1.153v-.683h-1.153v-.382h1.371v-.71h-2.351Zm6.081 0v.777h.834v2.098h.967V20.61h.852v-.777h-2.653Zm6.383 0 .745 2.875h.932l.314-1.655.346 1.654h.936l.693-2.874h-.901l-.32 1.748-.314-1.748h-.875l-.275 1.748-.323-1.748h-.958Zm9.234-.098c-.337.012-.619.096-.845.25a1.497 1.497 0 0 0-.51.572c-.114.228-.17.472-.17.733 0 .262.057.505.171.728.116.223.289.41.52.557.23.147.519.221.865.221.257 0 .482-.042.676-.128a1.384 1.384 0 0 0 .772-.83c.064-.183.095-.372.095-.568a1.747 1.747 0 0 0-.12-.558 1.517 1.517 0 0 0-.79-.843 1.568 1.568 0 0 0-.664-.134Zm.032.755c.062 0 .126.014.19.04.065.027.123.07.173.13.05.061.091.138.124.233.032.094.05.209.05.341 0 .27-.046.478-.136.626a.441.441 0 0 1-.401.223.476.476 0 0 1-.404-.205c-.1-.136-.15-.338-.15-.608 0-.263.052-.459.159-.588a.495.495 0 0 1 .395-.192Zm6.324.053h.52c.103 0 .18.027.23.08.05.053.076.111.076.175a.262.262 0 0 1-.163.237.255.255 0 0 1-.108.018h-.554v-.51Zm-.945-.71v2.875h.972v-.972c.11 0 .216-.003.32-.009a.559.559 0 0 1 .27.044c.065.024.11.062.13.113a.595.595 0 0 1 .043.193c.006.077.009.168.009.272 0 .106.012.225.036.357h1.002v-.093c-.06-.014-.094-.047-.105-.097a1.134 1.134 0 0 1-.014-.217l-.002-.31a.803.803 0 0 0-.043-.251.542.542 0 0 0-.13-.205.9.9 0 0 0-.27-.17.396.396 0 0 0 .243-.133.802.802 0 0 0 .172-.292.915.915 0 0 0 .05-.364.665.665 0 0 0-.133-.359.886.886 0 0 0-.375-.274c-.169-.073-.393-.11-.675-.11h-1.5v.002Zm6.618 0v2.875h.972v-.936l.19-.19.683 1.125h1.163l-1.163-1.782 1.043-1.092h-1.127l-.79.865v-.865h-.97Zm8.352.838h.91a1.27 1.27 0 0 0-.135-.456.788.788 0 0 0-.257-.28 1.084 1.084 0 0 0-.375-.146 2.85 2.85 0 0 0-.488-.053c-.382.006-.672.083-.87.231a.827.827 0 0 0-.346.55c-.03.22-.007.392.069.522a.844.844 0 0 0 .324.31c.14.079.3.14.481.182l.541.13c.083.028.14.066.172.118a.189.189 0 0 1 .03.154.24.24 0 0 1-.1.132.326.326 0 0 1-.208.053.65.65 0 0 1-.275-.064c-.092-.044-.153-.126-.182-.246h-.91c0 .177.037.329.111.454a.874.874 0 0 0 .297.306c.124.078.268.136.43.173.163.037.33.055.502.055.165 0 .326-.023.484-.07a1.35 1.35 0 0 0 .414-.196.98.98 0 0 0 .287-.321.832.832 0 0 0 .004-.782.76.76 0 0 0-.224-.248A1.439 1.439 0 0 0 89.74 21a3.781 3.781 0 0 0-.449-.13 16.59 16.59 0 0 0-.259-.056.944.944 0 0 1-.232-.072.163.163 0 0 1-.082-.078.113.113 0 0 1 0-.095.196.196 0 0 1 .077-.087.336.336 0 0 1 .15-.047.729.729 0 0 1 .312.036c.085.032.133.1.141.2Z" clip-rule="evenodd"/></svg>