<svg xmlns="http://www.w3.org/2000/svg" width="57" height="57" fill="none"><path fill="#C4C4C4" d="M46.313 38a8.313 8.313 0 1 1-7.968 10.69l-7.672-.002.694.695a2.375 2.375 0 0 1-3.135 3.556l-.224-.197-4.75-4.75-.174-.194a.996.996 0 0 1-.012-.016l.186.21a2.4 2.4 0 0 1-.578-.94 2.463 2.463 0 0 1-.108-.526 2.51 2.51 0 0 1-.01-.214v-.043c.002-.056.005-.112.01-.169l-.01.212a2.386 2.386 0 0 1 .347-1.236 2.5 2.5 0 0 1 .35-.443l4.75-4.75a2.375 2.375 0 0 1 3.555 3.135l-.197.224-.696.696h7.673a8.318 8.318 0 0 1 7.512-5.926l.456-.012ZM10.687 23.75h.046l.095.004.083.006.053.006.064.008a2.329 2.329 0 0 1 .204.039l.075.019.074.02a2.693 2.693 0 0 1 .188.067 2.36 2.36 0 0 1 .355.178l.037.023.124.084a2.368 2.368 0 0 1 .088.068l.194.174 4.75 4.75a2.375 2.375 0 0 1-3.135 3.556l-.224-.198-.695-.693.002 6.484a8.318 8.318 0 0 1 5.923 7.511l.012.456a8.313 8.313 0 1 1-10.687-7.968v-6.486l-.696.696A2.375 2.375 0 0 1 4.06 29.42l.197-.223 4.75-4.75.194-.174.016-.013-.21.187a2.401 2.401 0 0 1 .94-.578l.046-.015.074-.021.075-.02.063-.013a2.329 2.329 0 0 1 .205-.033l.053-.005.083-.007.095-.004h.046ZM46.313 2.375a8.313 8.313 0 0 1 2.377 16.28l-.002 6.482.695-.691a2.375 2.375 0 0 1 3.556 3.135l-.197.223-4.75 4.75a2.4 2.4 0 0 1-.21.187l.21-.187a2.408 2.408 0 0 1-.798.527 2.329 2.329 0 0 1-.141.051l-.047.015a2.346 2.346 0 0 1-.149.04l-.063.014a2.329 2.329 0 0 1-.481.049l-.077-.001a2.389 2.389 0 0 1-.128-.008l-.072-.007-.064-.008a2.329 2.329 0 0 1-.204-.039l-.075-.019a2.346 2.346 0 0 1-.074-.02l-.047-.016a2.364 2.364 0 0 1-.939-.578l-4.75-4.75a2.375 2.375 0 0 1 3.135-3.556l.224.198.696.693v-6.483a8.318 8.318 0 0 1-5.926-7.512L38 10.687a8.313 8.313 0 0 1 8.313-8.312Zm-35.626 0a8.316 8.316 0 0 1 7.969 5.938h6.483l-.693-.696A2.375 2.375 0 0 1 27.58 4.06l.223.197 4.75 4.75c.067.066.129.136.187.21l-.187-.21a2.398 2.398 0 0 1 .578.94 2.441 2.441 0 0 1 .118.74l-.001.079a2.423 2.423 0 0 1-.008.123l.009-.203a2.386 2.386 0 0 1-.347 1.237l-.023.037-.084.124a2.675 2.675 0 0 1-.068.088l-.174.194-4.75 4.75a2.375 2.375 0 0 1-3.556-3.135l.198-.224.691-.695-6.482.002a8.318 8.318 0 0 1-7.511 5.923l-.457.012a8.313 8.313 0 0 1 0-16.625Z"/><path fill="url(#a)" d="M46.313 38a8.313 8.313 0 1 1-7.968 10.69l-7.672-.002.694.695a2.375 2.375 0 0 1-3.135 3.556l-.224-.197-4.75-4.75-.174-.194a.996.996 0 0 1-.012-.016l.186.21a2.4 2.4 0 0 1-.578-.94 2.463 2.463 0 0 1-.108-.526 2.51 2.51 0 0 1-.01-.214v-.043c.002-.056.005-.112.01-.169l-.01.212a2.386 2.386 0 0 1 .347-1.236 2.5 2.5 0 0 1 .35-.443l4.75-4.75a2.375 2.375 0 0 1 3.555 3.135l-.197.224-.696.696h7.673a8.318 8.318 0 0 1 7.512-5.926l.456-.012ZM10.687 23.75h.046l.095.004.083.006.053.006.064.008a2.329 2.329 0 0 1 .204.039l.075.019.074.02a2.693 2.693 0 0 1 .188.067 2.36 2.36 0 0 1 .355.178l.037.023.124.084a2.368 2.368 0 0 1 .088.068l.194.174 4.75 4.75a2.375 2.375 0 0 1-3.135 3.556l-.224-.198-.695-.693.002 6.484a8.318 8.318 0 0 1 5.923 7.511l.012.456a8.313 8.313 0 1 1-10.687-7.968v-6.486l-.696.696A2.375 2.375 0 0 1 4.06 29.42l.197-.223 4.75-4.75.194-.174.016-.013-.21.187a2.401 2.401 0 0 1 .94-.578l.046-.015.074-.021.075-.02.063-.013a2.329 2.329 0 0 1 .205-.033l.053-.005.083-.007.095-.004h.046ZM46.313 2.375a8.313 8.313 0 0 1 2.377 16.28l-.002 6.482.695-.691a2.375 2.375 0 0 1 3.556 3.135l-.197.223-4.75 4.75a2.4 2.4 0 0 1-.21.187l.21-.187a2.408 2.408 0 0 1-.798.527 2.329 2.329 0 0 1-.141.051l-.047.015a2.346 2.346 0 0 1-.149.04l-.063.014a2.329 2.329 0 0 1-.481.049l-.077-.001a2.389 2.389 0 0 1-.128-.008l-.072-.007-.064-.008a2.329 2.329 0 0 1-.204-.039l-.075-.019a2.346 2.346 0 0 1-.074-.02l-.047-.016a2.364 2.364 0 0 1-.939-.578l-4.75-4.75a2.375 2.375 0 0 1 3.135-3.556l.224.198.696.693v-6.483a8.318 8.318 0 0 1-5.926-7.512L38 10.687a8.313 8.313 0 0 1 8.313-8.312Zm-35.626 0a8.316 8.316 0 0 1 7.969 5.938h6.483l-.693-.696A2.375 2.375 0 0 1 27.58 4.06l.223.197 4.75 4.75c.067.066.129.136.187.21l-.187-.21a2.398 2.398 0 0 1 .578.94 2.441 2.441 0 0 1 .118.74l-.001.079a2.423 2.423 0 0 1-.008.123l.009-.203a2.386 2.386 0 0 1-.347 1.237l-.023.037-.084.124a2.675 2.675 0 0 1-.068.088l-.174.194-4.75 4.75a2.375 2.375 0 0 1-3.556-3.135l.198-.224.691-.695-6.482.002a8.318 8.318 0 0 1-7.511 5.923l-.457.012a8.313 8.313 0 0 1 0-16.625Z"/><defs><linearGradient id="a" x1="9.532" x2="48.837" y1="11.331" y2="47.781" gradientUnits="userSpaceOnUse"><stop stop-color="#00FFA3" stop-opacity=".6"/><stop offset="1" stop-color="#4B48F1"/></linearGradient></defs></svg>