<svg xmlns="http://www.w3.org/2000/svg" width="57" height="57" fill="none"><path fill="#C4C4C4" fill-rule="evenodd" d="M11.044 39.9a1.78 1.78 0 0 1 1.425-.712h8.906a1.781 1.781 0 0 1 0 3.562h-8.016L5.344 53.438h46.312L43.641 42.75h-8.016a1.781 1.781 0 0 1 0-3.563h8.906a1.781 1.781 0 0 1 1.425.713l10.688 14.25A1.78 1.78 0 0 1 55.219 57H1.78a1.781 1.781 0 0 1-1.425-2.85L11.044 39.9Z" clip-rule="evenodd"/><path fill="url(#a)" fill-rule="evenodd" d="M11.044 39.9a1.78 1.78 0 0 1 1.425-.712h8.906a1.781 1.781 0 0 1 0 3.562h-8.016L5.344 53.438h46.312L43.641 42.75h-8.016a1.781 1.781 0 0 1 0-3.563h8.906a1.781 1.781 0 0 1 1.425.713l10.688 14.25A1.78 1.78 0 0 1 55.219 57H1.78a1.781 1.781 0 0 1-1.425-2.85L11.044 39.9Z" clip-rule="evenodd"/><path fill="#C4C4C4" fill-rule="evenodd" d="M14.25 14.25a14.25 14.25 0 1 1 16.031 14.14v19.704a1.781 1.781 0 0 1-3.562 0v-19.7A14.25 14.25 0 0 1 14.25 14.246v.003Z" clip-rule="evenodd"/><path fill="url(#b)" fill-rule="evenodd" d="M14.25 14.25a14.25 14.25 0 1 1 16.031 14.14v19.704a1.781 1.781 0 0 1-3.562 0v-19.7A14.25 14.25 0 0 1 14.25 14.246v.003Z" clip-rule="evenodd"/><defs><linearGradient id="a" x1="7.808" x2="15.94" y1="42.241" y2="66.375" gradientUnits="userSpaceOnUse"><stop stop-color="#00FFA3" stop-opacity=".6"/><stop offset="1" stop-color="#4B48F1"/></linearGradient><linearGradient id="b" x1="18.154" x2="49.287" y1="8.55" y2="25.049" gradientUnits="userSpaceOnUse"><stop stop-color="#00FFA3" stop-opacity=".6"/><stop offset="1" stop-color="#4B48F1"/></linearGradient></defs></svg>