<svg width="324" height="317" fill="none" xmlns="http://www.w3.org/2000/svg"><path fill-rule="evenodd" clip-rule="evenodd" d="M108.609 15.662 81.813.157l-.006-.004L81.8.148l-.006-.004-.007-.005-.007-.005-.005-.001-.002-.002-.007-.005-.008-.005-.006-.003-.007-.005-.007-.003-.008-.004L81.723.1 81.718.1l-.003-.002-.007-.004L81.7.091h-.002l-.005-.004-.008-.004-.005-.001-.002-.001-.008-.004-.008-.003-.004-.001-.003-.002-.007-.004-.004-.002h-.005V.062l-.008-.002-.007-.003-.006-.002h-.002L81.61.051 81.602.05l-.004-.001-.004-.002-.008-.003-.007-.003h-.002L81.57.04l-.008-.002-.006-.002-.002-.001-.008-.002-.009-.002h-.003l-.005-.002-.008-.002-.008-.002h-.001l-.007-.002-.01-.002-.005-.002h-.002L81.48.017 81.47.015h-.003l-.005-.001-.009-.002-.008-.001-.008-.002h-.009l-.006-.002h-.012l-.003-.002h-.014l-.008-.001-.009-.001-.008-.001h-.009L81.354 0h-.011L81.333 0H81.262l-.006.002h-.017l-.01.002H81.216l-.008.001-.004.002h-.011l-.006.001-.01.001-.006.002h-.001l-.008.001-.01.002h-.008l-.008.003-.008.001h-.002l-.006.002-.01.002-.006.002h-.001l-.008.002-.009.002-.004.002h-.004l-.008.002-.008.002-.002.001-.006.002-.008.002-.007.002-.009.003-.008.003-.005.002h-.003l-.008.003-.008.003-.001.001-.007.002-.007.003-.007.002v.001l-.004.001-.005.002-.007.004-.004.002h-.003l-.008.004-.008.004h-.002l-.006.002-.007.004-.005.004h-.002l-.008.003-.007.004-.003.002L80.89.1l-.007.005-.007.003V.11l-.007.003-.007.005-.006.003-.008.005-.007.005-.002.002-.005.001-.007.005-.007.005-.007.004-.006.005-.006.003-.001.001-26.796 15.505a.91.91 0 0 0-.493.667l-.002.007-.003.022-.002.014-.002.01v.019l-.002.003v.012l-.001.029-.001.005v29.074c0 .358.206.665.505.812l26.797 15.505.001.001.006.004.006.004.006.003.001.001.006.005.008.004.004.002.003.002.007.005.007.003.001.001h.002l.004.004.007.003.006.004.008.004.007.004.005.003h.003l.007.004.007.004h.002l.006.003.007.004.007.003.008.004.008.003.004.002.003.001.007.003.009.003v.001l.008.002.007.003.006.003h.002l.007.003.008.003h.004l.004.003.009.003.008.002.007.002.008.003.006.002h.002l.009.002.008.002.003.001.005.002.008.002.008.002h.001l.007.002.01.001.005.002h.002l.009.002.008.002h.008l.01.003h.008l.007.002.01.001.006.001h.002l.008.001.009.001H81.22l.008.002h.009l.008.002H81.271l.01.002H81.333l.01-.001h.01l.006-.001h.01l.008-.001.009-.001.008-.001h.005l.004-.001h.008l.01-.002h.007l.01-.002.007-.002h.009l.009-.002.004-.001h.004l.008-.002.008-.002h.002l.006-.002.01-.002.006-.001h.001l.008-.002.009-.002.004-.002.004-.001.008-.002.008-.002h.002l.006-.002.009-.003.006-.002h.002l.007-.002.008-.003.005-.002h.004l.008-.004.007-.002.001-.001.007-.003.007-.003.007-.002.009-.004.007-.003.004-.001.003-.002.008-.003.008-.004.008-.003.007-.004.005-.002.002-.001.007-.004.007-.004h.004l.004-.003.008-.004.007-.003v-.001l.007-.004.007-.003.004-.003.002-.001.008-.004.007-.005.002-.002.005-.002.007-.004.006-.005h.001l.006-.004.007-.005.005-.003h.002l26.796-15.506a.909.909 0 0 0 .493-.667l.002-.007.002-.021.001-.001.001-.014.002-.009v-.005l.001-.015.001-.003v-.012l.002-.029.001-.005V16.474a.904.904 0 0 0-.506-.812ZM84.255 27.971a3.895 3.895 0 0 0-1.879-1.087V2.138l23.53 14.12L84.904 28.86a4.141 4.141 0 0 0-.649-.89ZM55.638 43.825Zm0 0 21.39-12.577a4.19 4.19 0 0 1-.01-.298l.005-.204-21.385-12.575v25.654ZM85.59 30.76l.004.19c0 .095-.003.19-.01.282l21.392 12.593V18.171L85.59 30.761Zm-1.331 2.118c.232-.242.437-.514.605-.81l21.042 12.615-23.53 14.107V33.967a3.892 3.892 0 0 0 1.883-1.089Zm-4.022 2.154a3.884 3.884 0 0 1-1.905-1.093c-.23-.24-.433-.51-.601-.803l-21.024 12.61 23.53 14.113V35.032Zm-1.908-7.046a4.08 4.08 0 0 0-.64.874L56.708 16.264l23.53-14.126v24.751a3.89 3.89 0 0 0-1.908 1.097Zm4.492 1.499a2.139 2.139 0 0 0-1.514-.625 2.136 2.136 0 0 0-2.14 2.138c0 .592.24 1.128.625 1.514.387.384.923.624 1.515.624.591 0 1.128-.239 1.514-.624a2.14 2.14 0 0 0 .625-1.514c0-.591-.239-1.127-.625-1.513Z" fill="#E7E7E7"/><path fill-rule="evenodd" clip-rule="evenodd" d="M162.086 15.662 135.29.157h.001-.002l-.006-.004-.006-.005-.006-.004h-.001l-.006-.005-.007-.005-.005-.001-.003-.002-.007-.005-.007-.005h-.001l-.005-.003-.007-.005-.007-.003h-.001l-.007-.004L135.2.1 135.195.1l-.003-.002-.007-.004-.008-.003h-.001l-.006-.004-.007-.004-.005-.001-.002-.001h-.001l-.007-.004-.008-.003-.004-.001-.003-.002-.008-.004-.003-.002h-.005l-.001-.002-.007-.002-.007-.003-.006-.002h-.002l-.007-.004-.008-.002-.004-.001-.004-.002-.009-.003-.007-.003h-.002l-.006-.002-.008-.002-.006-.002-.002-.001-.009-.002-.008-.002h-.003l-.005-.002-.008-.002-.008-.002h-.001l-.007-.002-.009-.002-.007-.002h-.001l-.009-.001-.008-.002h-.003l-.005-.001-.009-.002-.008-.001h-.001l-.007-.002h-.009l-.007-.002H134.889l-.004-.002h-.014l-.008-.001-.009-.001-.008-.001h-.009L134.83 0h-.01L134.811 0H134.738l-.006.002h-.018l-.009.002H134.692l-.009.001-.003.002h-.011l-.006.001-.009.001-.008.002-.009.001-.009.002h-.008l-.008.003-.008.001h-.002l-.006.002-.009.002-.008.002-.009.002-.008.002-.004.002h-.004l-.008.002-.008.002-.002.001-.006.002-.009.002-.006.002h-.001l-.008.003-.008.003-.005.002h-.003l-.009.003-.007.003-.002.001-.006.002-.007.003-.007.002-.001.001-.004.001-.004.002-.007.004-.004.002h-.003l-.009.004-.007.004h-.003l-.005.002-.007.004-.006.004h-.002l-.007.003-.007.004-.003.002-.005.001-.007.005-.007.003-.001.001-.006.003-.007.005-.006.003h-.001l-.007.005-.007.005-.003.002-.004.001-.008.005-.006.005h-.001l-.006.004-.006.005-.006.003-.001.001-26.796 15.505a.91.91 0 0 0-.494.667l-.001.007-.003.022h-.001l-.001.014-.002.01v.005l-.001.014-.001.003v.012l-.002.029v29.079c0 .358.206.665.505.812l26.796 15.505.002.001.006.004.006.004.006.003.001.001.006.005.007.004.005.002.003.002.007.005.007.003.001.001h.002l.003.004.007.003.007.004h.001l.007.004.007.004.004.003h.004l.007.004.007.004h.002l.006.003.007.004.007.003h.001l.007.004.008.003.004.002.003.001.007.003.008.003.001.001.007.002.007.003.007.003h.002l.007.003.008.003h.004l.004.003.008.003.009.002h.001l.006.002.008.003.006.002h.002l.008.002.009.002.003.001.005.002.008.002.008.002h.001l.007.002.009.001.006.002h.002l.008.002.009.002h.008l.009.003H134.646l.007.002.009.001.006.001h.002l.009.001.009.001H134.697l.008.002h.009l.008.002h.026l.009.002H134.81l.009-.001h.011l.006-.001h.009l.008-.001.01-.001.008-.001h.005l.004-.001h.008l.009-.002h.008l.009-.002.007-.002H134.93l.009-.002.005-.001h.004l.008-.002.008-.002h.002l.006-.002.009-.002.007-.001h.001l.008-.002.008-.002.005-.002.004-.001.008-.002.008-.002h.002l.006-.002.009-.003.006-.002h.002l.007-.002.008-.003.005-.002h.003l.009-.004.007-.002.001-.001.007-.003.007-.003.007-.002h.001l.008-.004.007-.003.004-.001.003-.002.008-.003.007-.004h.002l.007-.003.007-.004.005-.002.002-.001.007-.004.007-.004h.004l.004-.003.007-.004.008-.003.001-.001.006-.004.007-.003.004-.003.001-.001h.001l.007-.004.008-.005.002-.002.005-.002.007-.004.006-.005h.001l.006-.004.007-.005.005-.003h.002l26.796-15.506a.909.909 0 0 0 .493-.667l.002-.007.002-.021.001-.001.001-.014.002-.009v-.005l.001-.015.001-.003v-.012l.001-.029.001-.005V16.474a.903.903 0 0 0-.505-.812Zm-24.354 12.309a3.894 3.894 0 0 0-1.879-1.087V2.138l23.53 14.12-21.002 12.602a4.184 4.184 0 0 0-.649-.89Zm-28.617 15.854Zm0 0 21.39-12.577a4.192 4.192 0 0 1-.01-.298l.005-.204-21.385-12.575v25.654Zm29.952-13.065.004.19c0 .095-.003.19-.009.282l21.39 12.593V18.171l-21.385 12.59Zm-1.332 2.118c.233-.242.438-.514.606-.81l21.042 12.615-23.53 14.107V33.967a3.89 3.89 0 0 0 1.882-1.089Zm-4.021 2.154a3.88 3.88 0 0 1-1.905-1.093 4.143 4.143 0 0 1-.602-.803l-21.023 12.61 23.53 14.113V35.032Zm-1.909-7.046c-.249.26-.464.554-.639.874l-20.982-12.596 23.53-14.126v24.751a3.89 3.89 0 0 0-1.909 1.097Zm4.493 1.499a2.14 2.14 0 0 0-1.514-.625 2.136 2.136 0 0 0-2.14 2.138c0 .592.24 1.128.625 1.514.387.384.923.624 1.515.624.591 0 1.128-.239 1.514-.624a2.14 2.14 0 0 0 .625-1.514c0-.591-.239-1.127-.625-1.513Z" fill="#E7E7E7"/><path fill-rule="evenodd" clip-rule="evenodd" d="M215.563 15.662 188.766.157h.001-.001l-.006-.004-.006-.005-.006-.004h-.001l-.007-.005-.007-.005-.004-.001-.003-.002-.007-.005-.007-.005h-.001l-.006-.003-.007-.005-.006-.003h-.001l-.007-.004-.007-.005-.005-.001-.004-.002-.007-.004-.007-.003h-.001l-.006-.004-.007-.004-.005-.001-.002-.001h-.001l-.007-.004-.009-.003-.003-.001-.004-.002-.007-.004-.003-.002h-.005l-.001-.002-.007-.002-.007-.003-.006-.002h-.002l-.007-.004-.008-.002-.004-.001-.005-.002-.008-.003-.007-.003h-.002l-.006-.002-.008-.002-.007-.002-.002-.001-.008-.002-.008-.002h-.004l-.004-.002-.008-.002-.009-.002-.008-.002-.009-.002-.006-.002h-.002l-.008-.001-.008-.002h-.004l-.004-.001-.009-.002-.008-.001h-.001l-.007-.002h-.009l-.007-.002h-.011l-.003-.002h-.014l-.008-.001-.009-.001-.008-.001h-.009L188.307 0h-.011L188.287 0H188.215l-.007.002h-.017l-.009.002h-.014l-.008.001-.003.002h-.011l-.007.001-.009.001-.007.002h-.001l-.008.001-.009.002h-.008l-.008.003-.008.001h-.002l-.007.002-.009.002-.007.002h-.001l-.008.002-.008.002-.004.002h-.004l-.008.002-.008.002-.002.001-.007.002-.008.002-.006.002h-.001l-.008.003-.008.003-.005.002h-.004l-.008.003-.007.003-.002.001-.006.002-.007.003-.007.002-.001.001-.004.001-.004.002-.008.004-.003.002h-.004l-.008.004-.007.004h-.003l-.005.002-.007.004-.006.004h-.002l-.007.003-.007.004-.004.002-.004.001-.007.005-.007.003-.001.001-.007.003-.007.005-.005.003h-.001l-.007.005-.007.005-.003.002-.005.001-.007.005-.006.005h-.001l-.006.004-.006.005-.006.003-.002.001-26.796 15.505a.91.91 0 0 0-.493.667l-.002.007-.002.022h-.001l-.001.014-.002.01v.005l-.001.014-.001.003v.012l-.002.029-.001.005v29.074c0 .358.207.665.506.812l26.796 15.505.002.001.005.004.007.004.006.003.001.001.006.005.007.004.005.002.003.002.007.005.007.003.001.001h.002l.003.004.007.003.006.004h.001l.007.004.008.004.004.003h.004l.007.004.007.004h.002l.005.003.008.004.007.003.008.004.008.003.003.002.004.001.007.003.008.003.001.001.007.002.007.003.007.003h.002l.007.003.008.003h.003l.005.003.008.003.008.002h.001l.007.002.008.003.006.002h.002l.008.002.008.002.004.001.004.002.009.002.008.002h.001l.007.002.009.001.006.002h.002l.008.002.008.002H188.105l.009.003H188.123l.007.002.009.001.006.001h.002l.009.001.008.001H188.173l.009.002h.009l.008.002h.026l.009.002H188.287l.009-.001h.011l.006-.001h.009l.008-.001.009-.001.009-.001h.005l.004-.001h.008l.009-.002h.008l.009-.002.007-.002H188.407l.009-.002.005-.001h.003l.009-.002.008-.002h.002l.006-.002.009-.002.007-.001h.001l.008-.002.008-.002.005-.002.003-.001.009-.002.008-.002h.002l.006-.002.008-.003.007-.002h.002l.007-.002.008-.003.005-.002h.003l.008-.004.007-.002.002-.001.006-.003.007-.003.008-.002.009-.004.007-.003.003-.001.004-.002.008-.003.007-.004h.001l.007-.003.008-.004.005-.002.002-.001.007-.004.007-.004h.003l.005-.003.007-.004.007-.003.001-.001.007-.004.007-.003.003-.003.002-.001h.001l.007-.004.007-.005.003-.002.005-.002.007-.004.006-.005h.001l.006-.004.006-.005.006-.003h.001l26.797-15.506a.911.911 0 0 0 .493-.667l.001-.007.003-.021.001-.001.001-.014.002-.009v-.02l.002-.003v-.012l.001-.029.001-.005V16.474a.903.903 0 0 0-.505-.812Zm-24.354 12.309a3.894 3.894 0 0 0-1.879-1.087V2.138l23.53 14.12-21.003 12.602a4.145 4.145 0 0 0-.648-.89Zm-28.617 15.854h-.001.001Zm0 0 21.39-12.577a4.192 4.192 0 0 1-.01-.298l.005-.204-21.385-12.575v25.654Zm29.952-13.065.004.19c0 .095-.003.19-.01.282l21.391 12.593V18.171l-21.385 12.59Zm-1.332 2.118a4.08 4.08 0 0 0 .606-.81l21.042 12.615-23.53 14.107V33.967a3.89 3.89 0 0 0 1.882-1.089Zm-4.021 2.154a3.88 3.88 0 0 1-1.905-1.093 4.143 4.143 0 0 1-.602-.803l-21.023 12.61 23.53 14.113V35.032Zm-1.909-7.046c-.249.26-.464.554-.639.874l-20.982-12.596 23.53-14.126v24.751a3.89 3.89 0 0 0-1.909 1.097Zm4.493 1.499a2.14 2.14 0 0 0-1.515-.625 2.136 2.136 0 0 0-2.139 2.138c0 .592.24 1.128.625 1.514.387.384.923.624 1.514.624.592 0 1.129-.239 1.515-.624.385-.387.624-.922.624-1.514 0-.591-.238-1.127-.624-1.513Z" fill="#E7E7E7"/><path fill-rule="evenodd" clip-rule="evenodd" d="M269.039 15.662 242.243.157h.001-.002l-.005-.004-.006-.005-.007-.004-.007-.005-.007-.005-.004-.001-.003-.002-.007-.005-.007-.005h-.001l-.006-.003-.007-.005-.006-.003h-.001l-.007-.004-.008-.005-.004-.001-.004-.002-.007-.004-.007-.003h-.002l-.005-.004-.007-.004-.006-.001-.001-.001h-.001l-.008-.004-.008-.003-.003-.001-.004-.002-.007-.004-.004-.002h-.004l-.001-.002-.007-.002-.007-.003-.007-.002h-.001l-.007-.004-.009-.002-.003-.001-.005-.002-.008-.003-.007-.003h-.002l-.006-.002-.009-.002-.006-.002-.002-.001-.008-.002-.008-.002h-.004l-.004-.002-.009-.002-.008-.002h-.001l-.007-.002-.009-.002-.006-.002h-.002l-.008-.001-.008-.002h-.004l-.004-.001-.009-.002-.009-.001-.008-.002h-.009l-.006-.002h-.011l-.003-.002H241.825l-.008-.001-.009-.001-.009-.001h-.009L241.784 0h-.011L241.764 0H241.692l-.007.002h-.017l-.009.002h-.014l-.008.001-.003.002h-.011l-.007.001-.009.001-.007.002h-.001l-.008.001-.009.002h-.008l-.008.003-.009.001h-.002l-.006.002-.009.002-.007.002h-.001l-.008.002-.008.002-.005.002h-.003l-.008.002-.009.002-.002.001-.006.002-.008.002-.006.002h-.001l-.008.003-.009.003-.004.002h-.004l-.008.003-.007.003-.002.001-.006.002-.007.003-.008.002v.001l-.004.001-.005.002-.007.004-.003.002h-.004l-.008.004-.007.004h-.003l-.005.002-.008.004-.005.004h-.002l-.007.003-.007.004-.004.002-.004.001-.007.005-.008.003V.11l-.007.003-.007.005-.005.003h-.001l-.007.005-.007.005-.003.002-.005.001-.007.005-.006.005h-.001l-.006.004-.007.005-.005.003-.002.001-26.796 15.505a.91.91 0 0 0-.493.667l-.002.007-.003.022-.001.014-.002.01v.005l-.001.014-.001.003v.012l-.002.029-.001.005v29.074c0 .358.207.665.506.812l26.796 15.505.002.001.005.004.006.004.007.003.001.001.006.005.007.004.005.002.002.002.007.005.008.003v.001h.002l.004.004.007.003.006.004h.001l.007.004.007.004.005.003h.004l.007.004.007.004h.002l.005.003.007.004.007.003h.001l.007.004.009.003.003.002.004.001.007.003.008.003.001.001.007.002.007.003.006.003h.002l.007.003.009.003h.003l.005.003.008.003.008.002h.001l.006.002.009.003.006.002h.002l.008.002.008.002.004.001.004.002.008.002.009.002.008.002.009.001.006.002h.002l.008.002.008.002h.008l.01.003H241.6l.007.002.009.001.006.001h.002l.009.001.008.001H241.65l.008.002h.009l.009.002h.026l.009.002H241.764l.009-.001h.011l.006-.001h.009l.008-.001.009-.001.008-.001h.006l.003-.001h.009l.009-.002h.008l.009-.002.007-.002H241.884l.009-.002.005-.001h.003l.009-.002.008-.002h.001l.007-.002.009-.002.007-.001h.001l.008-.002.008-.002.005-.002.003-.001.009-.002.008-.002h.002l.006-.002.008-.003.006-.002h.002l.007-.002.009-.003.004-.002h.004l.008-.004.007-.002.002-.001.006-.003.007-.003.007-.002h.001l.008-.004.008-.003.003-.001.004-.002.008-.003.007-.004h.001l.007-.003.007-.004.006-.002.001-.001.008-.004.007-.004h.003l.005-.003.007-.004.007-.003.001-.001.007-.004.007-.003.003-.003.002-.001h.001l.007-.004.007-.005.003-.002.004-.002.007-.004.007-.005h.001l.006-.004.006-.005.006-.003h.001l26.796-15.506a.906.906 0 0 0 .493-.667l.002-.007.003-.021.001-.001.001-.014.001-.009v-.005l.001-.015.001-.003v-.012l.002-.029.001-.005V16.474a.902.902 0 0 0-.506-.812Zm-24.353 12.309a3.898 3.898 0 0 0-1.879-1.087V2.138l23.529 14.12-21.002 12.602a4.145 4.145 0 0 0-.648-.89Zm-28.617 15.854h-.001.001Zm0 0 21.39-12.577a4.192 4.192 0 0 1-.01-.298l.005-.204-21.385-12.575v25.654ZM246.02 30.76l.005.19c0 .095-.004.19-.01.282l21.391 12.593V18.171l-21.385 12.59h-.001Zm-1.331 2.118c.232-.242.437-.514.606-.81l21.041 12.615-23.529 14.107V33.967a3.89 3.89 0 0 0 1.882-1.089Zm-4.021 2.154a3.887 3.887 0 0 1-1.906-1.093 4.18 4.18 0 0 1-.601-.803l-21.023 12.61 23.53 14.113V35.032Zm-1.909-7.046c-.249.26-.465.554-.639.874l-20.982-12.596 23.53-14.126v24.751a3.89 3.89 0 0 0-1.909 1.097Zm4.493 1.499a2.14 2.14 0 0 0-1.515-.625 2.136 2.136 0 0 0-2.139 2.138c0 .592.24 1.128.625 1.514.386.384.923.624 1.514.624a2.14 2.14 0 0 0 1.515-.624c.385-.387.624-.922.624-1.514 0-.591-.239-1.127-.624-1.513ZM55.132 76.59 28.336 61.085v-.001l-.006-.004-.006-.004-.007-.004-.007-.005-.007-.005-.004-.002-.003-.002-.007-.004-.007-.005h-.002l-.005-.004-.007-.004-.006-.003h-.002l-.007-.004-.007-.005-.004-.002-.004-.002-.007-.003-.007-.004h-.002l-.005-.003-.007-.004-.006-.002h-.002l-.008-.004-.008-.004h-.003l-.004-.002-.007-.004-.004-.002-.004-.001h-.001l-.007-.004-.008-.002-.006-.002-.001-.001-.008-.003-.008-.003h-.003l-.005-.002-.008-.003-.007-.003H28.1l-.007-.003-.008-.001-.006-.002-.002-.001-.008-.002-.008-.003h-.004l-.005-.002-.008-.002-.008-.001-.008-.002-.009-.002-.006-.002h-.002l-.008-.002-.008-.001h-.004l-.005-.002-.009-.001-.008-.001-.008-.002-.009-.001h-.008l-.01-.002h-.003l-.008-.002H27.91l-.01-.002h-.017l-.006-.001h-.011l-.01-.001H27.785l-.006.002h-.017l-.01.001-.008.001h-.005l-.008.001-.004.001-.009.001h-.002l-.006.001-.009.001-.007.002h-.01l-.008.002-.005.002h-.003l-.009.002-.008.001h-.002l-.006.002-.01.002-.006.002h-.001l-.008.002-.009.002-.004.001h-.003l-.009.003-.008.002h-.002l-.006.003-.008.001-.007.003-.009.003-.008.003-.005.001-.003.001-.008.003-.007.003h-.002l-.007.003-.007.002-.007.003-.004.002-.005.002-.007.004-.003.002h-.004l-.008.004-.007.003h-.001l-.002.001-.006.002-.007.004-.005.003h-.002l-.007.004-.007.003-.004.002-.005.002-.007.005-.007.003v.001l-.007.003-.007.005-.006.003-.008.005-.007.004-.002.002-.005.002-.007.005-.006.004-.001.001-.007.004-.006.004-.005.004h-.002L.528 76.59a.91.91 0 0 0-.493.666l-.002.008-.003.021v.001l-.001.014-.002.009v.005l-.001.015-.001.003v.012l-.002.029-.001.005v29.074c0 .358.206.665.506.812l26.796 15.505.001.001.006.003.006.005.006.003.001.001.007.005.007.003.004.003.003.002.007.004.007.004.001.001.002.001.004.002.007.004.006.003v.002l.008.003.007.004.005.002.003.001.008.004.007.003.002.001.005.003.007.004.007.003h.001l.007.004.008.002.004.002.003.002.008.003.008.003v.001l.008.002.007.003.006.002.002.001.007.003.008.003.004.001.005.002.008.002.008.003.007.002.008.003.007.001h.002l.008.003.008.002.004.001.004.001.008.002.008.002h.001l.007.002.01.002.006.002h.002l.008.002.008.001h.004l.004.001.01.002.008.001.007.002.01.001.006.001h.002l.009.001.008.001.003.001h.006l.008.001h.01l.007.002h.027l.009.001H27.856l.01-.001H27.891l.008-.002h.009l.008-.001h.006l.003-.001.008-.001.01-.001h.001l.007-.001.009-.001.007-.002.009-.001.009-.002.005-.001h.003l.008-.001.009-.002h.001l.006-.002.01-.002.007-.002.009-.002.008-.002.005-.001.003-.001.008-.002.008-.003h.002l.007-.001.008-.003.006-.002h.002l.007-.003.008-.002.005-.002.004-.001.008-.003.007-.003.002-.001.006-.002.007-.003.007-.002.001-.001.008-.003.007-.003.004-.002.004-.002.008-.002.007-.004.008-.003.007-.004.006-.003.001-.001.007-.003.008-.004.003-.001.005-.002.007-.004.007-.003.001-.002.006-.003.008-.004.003-.002.002-.001v-.001l.008-.004.007-.004.003-.002.004-.003.007-.003.006-.005.001-.001.007-.003.006-.005.005-.003.002-.001 26.796-15.505a.908.908 0 0 0 .493-.667l.002-.007.003-.022v-.001l.001-.013.002-.009v-.006l.001-.014.001-.003v-.012l.002-.029V77.402a.903.903 0 0 0-.505-.812ZM30.778 88.898a3.895 3.895 0 0 0-1.878-1.087V63.066l23.53 14.12-21.003 12.603a4.143 4.143 0 0 0-.649-.89ZM2.161 104.753Zm0 0 21.39-12.578a4.193 4.193 0 0 1-.01-.297l.006-.204L2.16 79.099v25.654Zm29.952-13.065.005.19c0 .094-.004.189-.01.282l21.39 12.593V79.099L32.114 91.69v-.001Zm-1.331 2.118c.232-.242.437-.514.605-.811L52.43 105.61 28.9 119.717V94.895a3.892 3.892 0 0 0 1.883-1.09Zm-4.022 2.153a3.884 3.884 0 0 1-1.905-1.092c-.23-.24-.433-.51-.601-.803L3.23 106.673l23.53 14.113V95.959Zm-1.908-7.045a4.08 4.08 0 0 0-.64.874L3.232 77.192l23.53-14.126v24.751a3.89 3.89 0 0 0-1.91 1.097Zm4.492 1.498a2.138 2.138 0 0 0-1.514-.624 2.135 2.135 0 0 0-2.14 2.138c0 .591.24 1.127.626 1.513.386.385.922.625 1.514.625s1.128-.239 1.515-.624a2.14 2.14 0 0 0 .624-1.514c0-.591-.239-1.127-.625-1.514ZM162.086 76.59 135.29 61.085h.001l-.002-.001-.006-.004-.006-.004-.006-.004h-.001l-.006-.005-.007-.005-.005-.002-.003-.002-.007-.004-.007-.005h-.001l-.005-.004-.007-.004-.007-.003h-.001l-.007-.004-.007-.005-.005-.002-.003-.002-.007-.003-.008-.004h-.001l-.006-.003-.007-.004-.005-.002h-.003l-.007-.004-.008-.004h-.004l-.003-.002-.008-.004-.003-.002-.005-.001h-.001l-.007-.004-.007-.002-.006-.002-.002-.001-.007-.003-.008-.003h-.004l-.004-.002-.009-.003-.007-.003h-.002l-.006-.003-.008-.001-.006-.002-.002-.001-.009-.002-.008-.003h-.003l-.005-.002-.008-.002-.008-.001h-.001l-.007-.002-.009-.002-.007-.002h-.001l-.009-.002-.008-.001h-.003l-.005-.002-.009-.001-.008-.001h-.001l-.007-.002-.009-.001h-.008l-.009-.002h-.004l-.008-.002h-.014l-.009-.002h-.017l-.007-.001h-.01l-.009-.001H134.738l-.006.002h-.018l-.009.001-.008.001h-.005l-.009.001-.003.001-.009.001h-.002l-.006.001-.009.001-.008.002h-.009l-.009.002-.004.002h-.004l-.008.002-.008.001h-.002l-.006.002-.009.002-.008.002-.009.002-.008.002-.004.001h-.004l-.008.003-.008.002h-.002l-.006.003-.009.001-.006.003h-.001l-.008.003-.008.003-.005.001-.003.001-.009.003-.007.003h-.002l-.006.003-.007.002-.007.003h-.001l-.004.002-.004.002-.007.004-.004.002h-.003l-.009.004-.007.003h-.001l-.002.001-.005.002-.007.004-.006.003h-.002l-.007.004-.007.003-.003.002-.005.002-.007.005-.007.003-.001.001-.006.003-.007.005-.006.003h-.001l-.007.005-.007.004-.003.002-.004.002-.008.005-.006.004-.001.001-.006.004-.006.004-.006.004h-.001L107.482 76.59a.91.91 0 0 0-.494.666l-.001.008-.003.021-.001.001-.001.014-.002.009v.005l-.001.015-.001.003v.012l-.002.029v29.079c0 .358.206.665.505.812l26.796 15.505.002.001.006.003.006.005.006.003.001.001.006.005.007.003.005.003.003.002.007.004.007.004.001.001.002.001.003.002.007.004.007.003.001.002.007.003.007.004.004.002.004.001.007.004.007.003.002.001.006.003.007.004.007.003h.001l.007.004.008.002.004.002.003.002.007.003.008.003.001.001.007.002.007.003.007.002.002.001.007.003.008.003.004.001.004.002.008.002.009.003h.001l.006.002.008.003.006.001h.002l.008.003.009.002.003.001.005.001.008.002.008.002h.001l.007.002.009.002.006.002h.002l.008.002.009.001h.003l.005.001.009.002.008.001h.001l.007.002.009.001.006.001h.002l.009.001.009.001.003.001h.006l.008.001h.009l.008.002h.026l.009.001H134.81l.009-.001H134.845l.008-.002h.01l.008-.001h.005l.004-.001.008-.001.009-.001h.002l.006-.001.009-.001.007-.002h.001l.008-.001.009-.002.005-.001h.004l.008-.001.008-.002h.002l.006-.002.009-.002.007-.002h.001l.008-.002.008-.002.005-.001.004-.001.008-.002.008-.003h.002l.006-.001.009-.003.006-.002h.002l.007-.003.008-.002.005-.002.003-.001.009-.003.007-.003.001-.001.007-.002.007-.003.007-.002.001-.001.008-.003.007-.003.004-.002.003-.002.008-.002.007-.004h.002l.007-.003.007-.004.005-.003.002-.001.007-.003.007-.004.004-.001.004-.002.007-.004.008-.003.001-.002.006-.003.007-.004.004-.002.001-.001.001-.001.007-.004.008-.004.002-.002.005-.003.007-.003.006-.005.001-.001.006-.003.007-.005.005-.003.002-.001 26.796-15.505a.908.908 0 0 0 .493-.667l.002-.007.002-.022.001-.001.001-.013.002-.009v-.006l.001-.014.001-.003v-.012l.001-.029.001-.005V77.402a.903.903 0 0 0-.505-.812Zm-24.354 12.308a3.894 3.894 0 0 0-1.879-1.087V63.066l23.53 14.12-21.002 12.603a4.182 4.182 0 0 0-.649-.89Zm-28.617 15.855Zm0 0 21.39-12.578a4.194 4.194 0 0 1-.01-.297l.005-.204-21.385-12.575v25.654Zm29.952-13.065.004.19c0 .094-.003.189-.009.282l21.39 12.593V79.099l-21.385 12.59v-.001Zm-1.332 2.118c.233-.242.438-.514.606-.811l21.042 12.615-23.53 14.107V94.895a3.89 3.89 0 0 0 1.882-1.09Zm-4.021 2.153a3.88 3.88 0 0 1-1.905-1.092 4.146 4.146 0 0 1-.602-.803l-21.023 12.609 23.53 14.113V95.959Zm-1.909-7.045c-.249.26-.464.553-.639.874l-20.982-12.596 23.53-14.126v24.751a3.889 3.889 0 0 0-1.909 1.097Zm4.493 1.498a2.139 2.139 0 0 0-1.514-.624 2.136 2.136 0 0 0-2.14 2.138c0 .591.24 1.127.625 1.513.387.385.923.625 1.515.625.591 0 1.128-.239 1.514-.624a2.14 2.14 0 0 0 .625-1.514c0-.591-.239-1.127-.625-1.514Z" fill="#E7E7E7"/><path fill-rule="evenodd" clip-rule="evenodd" d="m215.563 76.59-26.797-15.505h.001l-.001-.001-.006-.004-.006-.004-.006-.004h-.001l-.007-.005-.007-.005-.004-.002-.003-.002-.007-.004-.007-.005h-.001l-.006-.004-.007-.004-.006-.003h-.001l-.007-.004-.007-.005-.005-.002-.004-.002-.007-.003-.007-.004h-.001l-.006-.003-.007-.004-.005-.002h-.003l-.007-.004-.009-.004h-.003l-.004-.002-.007-.004-.003-.002-.005-.001h-.001l-.007-.004-.007-.002-.006-.002-.002-.001-.007-.003-.008-.003h-.004l-.005-.002-.008-.003-.007-.003h-.002l-.006-.003-.008-.001-.007-.002-.002-.001-.008-.002-.008-.003h-.004l-.004-.002-.008-.002-.009-.001-.008-.002-.009-.002-.006-.002h-.002l-.008-.002-.008-.001h-.004l-.004-.002-.009-.001-.008-.001h-.001l-.007-.002-.009-.001H188.374l-.009-.002h-.003l-.008-.002h-.014l-.009-.002h-.017l-.007-.001h-.011l-.009-.001H188.215l-.007.002h-.017l-.009.001-.008.001h-.006l-.008.001-.003.001-.009.001h-.002l-.007.001-.009.001-.007.002H188.114l-.009.002-.004.002h-.004l-.008.002-.008.001h-.002l-.007.002-.009.002-.007.002h-.001l-.008.002-.008.002-.004.001h-.004l-.008.003-.008.002h-.002l-.007.003-.008.001-.006.003h-.001l-.008.003-.008.003-.005.001-.004.001-.008.003-.007.003h-.002l-.006.003-.007.002-.007.003h-.001l-.004.002-.004.002-.008.004-.003.002h-.004l-.008.004-.007.003h-.001l-.002.001-.005.002-.007.004-.006.003h-.002l-.007.004-.007.003-.004.002-.004.002-.007.005-.007.003-.001.001-.007.003-.007.005-.005.003h-.001l-.007.005-.007.004-.003.002-.005.002-.007.005-.006.004-.001.001-.006.004-.006.004-.006.004h-.002L160.958 76.59a.91.91 0 0 0-.493.666l-.002.008-.002.021-.001.001-.001.014-.002.009v.005l-.001.015-.001.003v.012l-.002.029-.001.005v29.074c0 .358.207.665.506.812l26.796 15.505.002.001.005.003.007.005.006.003.001.001.006.005.007.003.005.003.003.002.007.004.007.004.001.001.002.001.003.002.007.004.006.003.001.002.007.003.008.004.004.002.004.001.007.004.007.003.002.001.005.003.008.004.007.003.008.004.008.002.003.002.004.002.007.003.008.003.001.001.007.002.007.003.007.002.002.001.007.003.008.003.003.001.005.002.008.002.008.003h.001l.007.002.008.003.006.001h.002l.008.003.008.002.004.001.004.001.009.002.008.002h.001l.007.002.009.002.006.002h.002l.008.002.008.001h.004l.005.001.009.002.008.001h.001l.007.002.009.001.006.001h.002l.009.001.008.001.004.001h.005l.009.001h.009l.008.002h.026l.009.001H188.287l.009-.001H188.322l.008-.002h.009l.009-.001h.005l.004-.001.008-.001.009-.001h.002l.006-.001.009-.001.007-.002h.001l.008-.001.009-.002.005-.001h.003l.009-.001.008-.002h.002l.006-.002.009-.002.007-.002h.001l.008-.002.008-.002.005-.001.003-.001.009-.002.008-.003h.002l.006-.001.008-.003.007-.002h.002l.007-.003.008-.002.005-.002.003-.001.008-.003.007-.003.002-.001.006-.002.007-.003.008-.002v-.001l.009-.003.007-.003.003-.002.004-.002.008-.002.007-.004h.001l.007-.003.008-.004.005-.003.002-.001.007-.003.007-.004.003-.001.005-.002.007-.004.007-.003.001-.002.007-.003.007-.004.003-.002.002-.001.001-.001.007-.004.007-.004.003-.002.005-.003.007-.003.006-.005.001-.001.006-.003.006-.005.006-.003.001-.001 26.797-15.505a.91.91 0 0 0 .493-.667l.001-.007.003-.022.001-.001.001-.013.002-.009v-.02l.002-.003v-.012l.001-.029.001-.005V77.402a.903.903 0 0 0-.505-.812Zm-24.354 12.308a3.894 3.894 0 0 0-1.879-1.087V63.066l23.53 14.12-21.003 12.603a4.144 4.144 0 0 0-.648-.89Zm-28.617 15.855h-.001.001Zm0 0 21.39-12.578a4.194 4.194 0 0 1-.01-.297l.005-.204-21.385-12.575v25.654Zm29.952-13.065.004.19c0 .094-.003.189-.01.282l21.391 12.593V79.099l-21.385 12.59v-.001Zm-1.332 2.118c.232-.242.438-.514.606-.811l21.042 12.615-23.53 14.107V94.895a3.89 3.89 0 0 0 1.882-1.09Zm-4.021 2.153a3.88 3.88 0 0 1-1.905-1.092 4.146 4.146 0 0 1-.602-.803l-21.023 12.609 23.53 14.113V95.959Zm-1.909-7.045c-.249.26-.464.553-.639.874l-20.982-12.596 23.53-14.126v24.751a3.889 3.889 0 0 0-1.909 1.097Zm4.493 1.498a2.14 2.14 0 0 0-1.515-.624 2.136 2.136 0 0 0-2.139 2.138c0 .591.24 1.127.625 1.513.387.385.923.625 1.514.625.592 0 1.129-.239 1.515-.624a2.14 2.14 0 0 0 .624-1.514c0-.591-.238-1.127-.624-1.514Z" fill="#E7E7E7"/><path fill-rule="evenodd" clip-rule="evenodd" d="m269.039 76.59-26.796-15.505h.001l-.002-.001-.005-.004-.006-.004-.007-.004-.007-.005-.007-.005-.004-.002-.003-.002-.007-.004-.007-.005h-.001l-.006-.004-.007-.004-.006-.003h-.001l-.007-.004-.008-.005-.004-.002-.004-.002-.007-.003-.007-.004h-.002l-.005-.003-.007-.004-.006-.002h-.002l-.008-.004-.008-.004h-.003l-.004-.002-.007-.004-.004-.002-.004-.001h-.001l-.007-.004-.007-.002-.007-.002-.001-.001-.007-.003-.009-.003h-.003l-.005-.002-.008-.003-.007-.003h-.002l-.006-.003-.009-.001-.006-.002-.002-.001-.008-.002-.008-.003h-.004l-.004-.002-.009-.002-.008-.001h-.001l-.007-.002-.009-.002-.006-.002h-.002l-.008-.002-.008-.001h-.004l-.004-.002-.009-.001-.009-.001-.008-.002-.009-.001h-.008l-.009-.002h-.003l-.009-.002H241.817l-.009-.002h-.018l-.006-.001h-.011l-.009-.001H241.692l-.007.002h-.017l-.009.001-.008.001h-.006l-.008.001-.003.001-.01.001h-.001l-.007.001-.009.001-.007.002H241.591l-.009.002-.005.002h-.003l-.008.002-.009.001h-.002l-.006.002-.009.002-.007.002h-.001l-.008.002-.008.002-.005.001h-.003l-.008.003-.009.002h-.002l-.006.003-.008.001-.006.003h-.001l-.008.003-.009.003-.004.001-.004.001-.008.003-.007.003h-.002l-.006.003-.007.002-.008.003-.004.002-.005.002-.007.004-.003.002h-.004l-.008.004-.007.003h-.001l-.002.001-.005.002-.008.004-.005.003h-.002l-.007.004-.007.003-.004.002-.004.002-.007.005-.008.003v.001l-.007.003-.007.005-.005.003h-.001l-.007.005-.007.004-.003.002-.005.002-.007.005-.006.004-.001.001-.006.004-.007.004-.005.004h-.002L214.435 76.59a.91.91 0 0 0-.493.666l-.002.008-.003.021v.001l-.001.014-.002.009v.005l-.001.015-.001.003v.012l-.002.029-.001.005v29.074c0 .358.207.665.506.812l26.796 15.505.002.001.005.003.006.005.007.003.001.001.006.005.007.003.005.003.002.002.007.004.008.004v.001l.002.001.004.002.007.004.006.003.001.002.007.003.007.004.005.002.004.001.007.004.007.003.002.001.005.003.007.004.007.003h.001l.007.004.009.002.003.002.004.002.007.003.008.003.001.001.007.002.007.003.006.002.002.001.007.003.009.003.003.001.005.002.008.002.008.003h.001l.006.002.009.003.006.001h.002l.008.003.008.002.004.001.004.001.008.002.009.002.008.002.009.002.006.002h.002l.008.002.008.001h.004l.004.001.01.002.008.001h.001l.007.002.009.001.006.001h.002l.009.001.008.001.004.001h.005l.008.001h.009l.009.002h.026l.009.001H241.764l.009-.001H241.799l.008-.002h.009l.008-.001h.006l.003-.001.009-.001.009-.001h.002l.006-.001.009-.001.007-.002h.001l.008-.001.009-.002.005-.001h.003l.009-.001.008-.002h.001l.007-.002.009-.002.007-.002h.001l.008-.002.008-.002.005-.001.003-.001.009-.002.008-.003h.002l.006-.001.008-.003.006-.002h.002l.007-.003.009-.002.004-.002.004-.001.008-.003.007-.003.002-.001.006-.002.007-.003.007-.002.001-.001.008-.003.008-.003.003-.002.004-.002.008-.002.007-.004h.001l.007-.003.007-.004.006-.003.001-.001.008-.003.007-.004.003-.001.005-.002.007-.004.007-.003.001-.002.007-.003.007-.004.003-.002.002-.001.001-.001.007-.004.007-.004.003-.002.004-.003.007-.003.007-.005.001-.001.006-.003.006-.005.006-.003.001-.001 26.796-15.505a.905.905 0 0 0 .493-.667l.002-.007.003-.022.001-.001.001-.013.001-.009v-.006l.001-.014.001-.003v-.012l.002-.029.001-.005V77.402a.902.902 0 0 0-.506-.812Zm-24.353 12.308a3.898 3.898 0 0 0-1.879-1.087V63.066l23.529 14.12-21.002 12.603a4.144 4.144 0 0 0-.648-.89Zm-28.617 15.855h-.001.001Zm0 0 21.39-12.578a4.194 4.194 0 0 1-.01-.297l.005-.204-21.385-12.575v25.654Zm29.951-13.065.005.19c0 .094-.004.189-.01.282l21.391 12.593V79.099l-21.385 12.59-.001-.001Zm-1.331 2.118a4.12 4.12 0 0 0 .606-.811l21.041 12.615-23.529 14.107V94.895a3.89 3.89 0 0 0 1.882-1.09Zm-4.021 2.153a3.887 3.887 0 0 1-1.906-1.092c-.23-.24-.432-.51-.601-.803l-21.023 12.609 23.53 14.113V95.959Zm-1.909-7.045c-.249.26-.465.553-.639.874l-20.982-12.596 23.53-14.126v24.751a3.889 3.889 0 0 0-1.909 1.097Zm4.493 1.498a2.14 2.14 0 0 0-1.515-.624 2.136 2.136 0 0 0-2.139 2.138c0 .591.24 1.127.625 1.513.386.385.923.625 1.514.625a2.14 2.14 0 0 0 1.515-.624 2.14 2.14 0 0 0 .624-1.514c0-.591-.239-1.127-.624-1.514Z" fill="#E7E7E7"/><path fill-rule="evenodd" clip-rule="evenodd" d="M322.516 76.59 295.72 61.085h.001l-.002-.001-.005-.004-.006-.004-.007-.004h-.001l-.006-.005-.007-.005-.004-.002-.003-.002-.007-.004-.007-.005h-.001l-.006-.004-.007-.004-.006-.003h-.001l-.008-.004-.007-.005-.004-.002-.004-.002-.007-.003-.007-.004h-.002l-.005-.003-.007-.004-.006-.002h-.003l-.007-.004-.008-.004h-.004l-.003-.002-.007-.004-.004-.002-.004-.001h-.001l-.007-.004-.007-.002-.007-.002-.001-.001-.008-.003-.008-.003h-.003l-.005-.002-.008-.003-.007-.003h-.002l-.006-.003-.009-.001-.006-.002-.002-.001-.008-.002-.008-.003h-.004l-.005-.002-.008-.002-.008-.001h-.001l-.007-.002-.009-.002-.006-.002h-.002l-.008-.002-.008-.001h-.004l-.005-.002-.009-.001-.008-.001h-.001l-.007-.002-.009-.001h-.008l-.009-.002h-.004l-.008-.002H295.293l-.009-.002h-.017l-.006-.001h-.011l-.009-.001H295.168l-.006.002h-.017l-.009.001-.008.001h-.006l-.008.001-.004.001-.009.001h-.002l-.006.001-.009.001-.007.002H295.068l-.009.002-.005.002h-.003l-.009.002-.008.001h-.002l-.006.002-.009.002-.007.002h-.001l-.008.002-.008.002-.005.001h-.003l-.009.003-.008.002h-.002l-.006.003-.008.001-.007.003-.009.003-.008.003-.004.001-.004.001-.008.003-.007.003h-.002l-.007.003-.007.002-.007.003h-.001l-.003.002-.005.002-.007.004-.003.002h-.004l-.008.004-.007.003h-.001l-.002.001-.006.002-.007.004-.005.003h-.002l-.007.004-.007.003-.004.002-.005.002-.007.005-.007.003-.001.001-.006.003-.007.005-.006.003-.007.005-.008.004-.002.002-.005.002-.007.005-.006.004-.001.001-.007.004-.006.004-.005.004h-.002L267.912 76.59a.91.91 0 0 0-.493.666l-.002.008-.003.021-.001.001v.014l-.002.009v.005l-.001.015-.001.003v.012l-.002.029-.001.005v29.074c0 .358.206.665.506.812l26.796 15.505.001.001.006.003.006.005.007.003v.001l.007.005.007.003.004.003.003.002.007.004.007.004.001.001.002.001.004.002.007.004.006.003.001.002.007.003.007.004.005.002.003.001.007.004.008.003.002.001.005.003.007.004.007.003h.001l.007.004.008.002.004.002.004.002.007.003.008.003.001.001.007.002.007.003.006.002.002.001.007.003.008.003.004.001.005.002.008.002.008.003h.001l.006.002.008.003.007.001h.002l.008.003.008.002.004.001.004.001.008.002.008.002h.001l.007.002.009.002.007.002h.002l.008.002.008.001h.004l.004.001.009.002.009.001.007.002.01.001.006.001h.002l.009.001.008.001.004.001h.005l.008.001h.009l.008.002h.027l.009.001H295.24l.009-.001H295.276l.008-.002h.009l.008-.001h.006l.003-.001.008-.001.009-.001h.002l.007-.001.009-.001.007-.002h.001l.008-.001.009-.002.005-.001h.003l.008-.001.009-.002h.001l.006-.002.01-.002.007-.002.009-.002.008-.002.005-.001.003-.001.008-.002.009-.003h.001l.007-.001.008-.003.006-.002h.002l.007-.003.009-.002.004-.002.004-.001.008-.003.007-.003.002-.001.006-.002.007-.003.007-.002.001-.001.008-.003.007-.003.004-.002.004-.002.008-.002.007-.004h.001l.007-.003.007-.004.006-.003.001-.001.007-.003.008-.004.003-.001.005-.002.007-.004.007-.003.001-.002.006-.003.007-.004.004-.002.002-.001.001-.001.007-.004.007-.004.003-.002.004-.003.007-.003.007-.005v-.001l.007-.003.006-.005.005-.003.002-.001 26.796-15.505a.905.905 0 0 0 .493-.667l.002-.007.003-.022.001-.001v-.013l.002-.009v-.006l.001-.014.001-.003v-.012l.002-.029.001-.005V77.402a.904.904 0 0 0-.506-.812Zm-24.354 12.308a3.894 3.894 0 0 0-1.879-1.087V63.066l23.53 14.12-21.002 12.603a4.114 4.114 0 0 0-.649-.89Zm-28.617 15.855Zm0 0 21.391-12.578a4.192 4.192 0 0 1-.011-.297l.006-.204-21.386-12.575v25.654Zm29.952-13.065.005.19c0 .094-.004.189-.01.282l21.391 12.593V79.099l-21.386 12.59v-.001Zm-1.331 2.118c.232-.242.437-.514.605-.811l21.042 12.615-23.53 14.107V94.895a3.894 3.894 0 0 0 1.883-1.09Zm-4.022 2.153a3.884 3.884 0 0 1-1.905-1.092c-.23-.24-.433-.51-.601-.803l-21.023 12.609 23.529 14.113V95.959Zm-1.908-7.045c-.249.26-.465.553-.639.874l-20.982-12.596 23.529-14.126v24.751a3.89 3.89 0 0 0-1.908 1.097Zm4.493 1.498a2.14 2.14 0 0 0-1.515-.624 2.136 2.136 0 0 0-2.139 2.138 2.135 2.135 0 0 0 2.139 2.138 2.14 2.14 0 0 0 1.515-.624 2.143 2.143 0 0 0 0-3.028ZM108.609 137.517l-26.796-15.505v-.001l-.006-.003-.007-.005-.006-.004v-.001l-.007-.004-.007-.005-.005-.001-.002-.002-.007-.005-.008-.005-.006-.003-.007-.005-.007-.003v-.001l-.008-.003-.007-.005-.005-.001-.003-.002-.007-.004-.007-.003h-.002l-.005-.004-.008-.004-.005-.002h-.002l-.008-.004-.008-.003-.004-.001-.003-.002-.007-.004-.004-.002-.005-.001v-.001l-.008-.002-.007-.003-.006-.002-.002-.001-.007-.003-.008-.002-.004-.001-.004-.002-.008-.003-.007-.003h-.002l-.007-.002-.008-.002-.006-.002-.002-.001-.008-.002-.009-.002h-.003l-.005-.002-.008-.002-.008-.002h-.001l-.007-.002-.01-.002-.005-.002h-.002l-.008-.001-.009-.002h-.003l-.005-.001-.009-.002-.008-.001-.008-.002-.009-.001-.006-.001h-.012l-.003-.002h-.014l-.008-.001-.009-.001-.008-.001h-.009l-.006-.001h-.011l-.01-.001H81.282l-.009.001h-.011l-.006.001h-.01l-.007.001-.01.001-.008.001H81.207l-.004.002h-.011l-.006.001-.01.001-.006.002h-.001l-.008.001-.01.002-.004.001h-.004l-.008.002-.008.001h-.002l-.006.002-.01.002-.006.002h-.001l-.008.002-.009.002-.004.002h-.004l-.008.002-.008.002-.002.001-.006.002-.008.002-.007.002-.009.003-.008.003-.005.002-.003.001-.008.002-.008.003-.001.001-.007.002-.007.003-.007.002v.001l-.004.001-.005.002-.007.004-.004.002-.003.001-.008.003-.008.004h-.002l-.006.002-.007.004-.005.004h-.002l-.008.003-.007.004-.003.002-.005.001-.007.005-.007.003v.001l-.007.003-.007.005-.006.003-.008.005-.007.005-.002.002-.005.001-.007.005-.007.004v.001l-.007.004-.006.005-.006.003-.001.001-26.796 15.505a.908.908 0 0 0-.493.667l-.002.007-.003.022-.002.014-.002.009v.02l-.002.003v.012l-.001.029-.001.005v29.075c0 .357.206.664.505.811l26.797 15.505.001.001.006.004.006.004.006.003.001.001.006.005.008.004.004.002.003.002.007.005.007.003.001.001.002.001.004.003.007.003.006.004v.001l.008.003.007.004.005.003h.003l.007.004.007.004h.002l.006.003.007.004.007.003.008.004.008.003.004.002.003.001.007.003.009.004.008.002.007.003.006.003.002.001.007.002.008.003.004.001.004.002.009.003.008.002.007.002.008.003.006.002h.002l.009.002.008.002.003.001.005.002.008.002.008.002h.001l.007.001.01.002.005.002h.002l.009.002.008.002h.003l.005.001.01.002h.008l.007.002.01.001.006.001h.002l.008.001.009.001.003.001h.006l.008.001.009.001.008.001h.01l.006.001H81.353l.006-.001h.01l.008-.001.009-.001.008-.001h.005l.004-.001.008-.001.01-.001h.001l.006-.001.01-.001.007-.002h.009l.009-.002.004-.001h.004l.008-.002.008-.002h.002l.006-.002.01-.002.006-.001h.001l.008-.002.009-.002.004-.002.004-.001.008-.002.008-.002h.002l.006-.002.009-.003.006-.002h.002l.007-.002.008-.003.005-.002.004-.001.008-.003.007-.002.001-.001.007-.003.007-.003.007-.002.009-.004.007-.003.004-.001.003-.002.008-.003.008-.004.008-.003.007-.004.005-.003h.002l.007-.004.007-.004h.004l.004-.003.008-.004.007-.003v-.001l.007-.004.007-.003.004-.003.002-.001v-.001l.008-.003.007-.005.002-.002.005-.002.007-.004.006-.005.001-.001.006-.003.007-.004.005-.004.002-.001 26.796-15.505a.908.908 0 0 0 .493-.667l.002-.007.002-.021.001-.001.001-.014.002-.009v-.006l.001-.014.001-.003v-.012l.002-.029.001-.005v-29.074a.906.906 0 0 0-.506-.812Zm-24.354 12.308a3.89 3.89 0 0 0-1.879-1.086v-24.746l23.53 14.119-21.002 12.603a4.164 4.164 0 0 0-.649-.89ZM55.638 165.68Zm0 0 21.39-12.577a4.217 4.217 0 0 1-.01-.298l.005-.204-21.385-12.575v25.654Zm29.952-13.065.004.19c0 .095-.003.189-.01.282l21.392 12.593v-25.654L85.59 152.615Zm-1.331 2.118a4.08 4.08 0 0 0 .605-.811l21.042 12.616-23.53 14.107v-24.823a3.883 3.883 0 0 0 1.883-1.089Zm-4.022 2.154a3.888 3.888 0 0 1-1.905-1.093c-.23-.24-.433-.51-.601-.803L56.707 167.6l23.53 14.114v-24.827Zm-1.908-7.046c-.25.26-.465.554-.64.874l-20.982-12.596 23.53-14.126v24.751a3.894 3.894 0 0 0-1.908 1.097Zm4.492 1.499a2.138 2.138 0 0 0-1.514-.625 2.134 2.134 0 0 0-2.14 2.138c0 .591.24 1.128.625 1.514.387.384.923.624 1.515.624a2.14 2.14 0 0 0 1.514-.624 2.143 2.143 0 0 0 0-3.027Z" fill="#E7E7E7"/><path fill-rule="evenodd" clip-rule="evenodd" d="m162.086 137.517-26.796-15.505h.001l-.002-.001-.006-.003-.006-.005-.006-.004-.001-.001-.006-.004-.007-.005-.005-.001-.003-.002-.007-.005-.007-.005h-.001l-.005-.003-.007-.005-.007-.003-.001-.001-.007-.003-.007-.005-.005-.001-.003-.002-.007-.004-.008-.003h-.001l-.006-.004-.007-.004-.005-.002h-.003l-.007-.004-.008-.003-.004-.001-.003-.002-.008-.004-.003-.002-.005-.001-.001-.001-.007-.002-.007-.003-.006-.002-.002-.001-.007-.003-.008-.002-.004-.001-.004-.002-.009-.003-.007-.003h-.002l-.006-.002-.008-.002-.006-.002-.002-.001-.009-.002-.008-.002h-.003l-.005-.002-.008-.002-.008-.002h-.001l-.007-.002-.009-.002-.007-.002h-.001l-.009-.001-.008-.002h-.003l-.005-.001-.009-.002-.008-.001h-.001l-.007-.002-.009-.001-.007-.001H134.889l-.004-.002h-.014l-.008-.001-.009-.001-.008-.001h-.009l-.007-.001h-.01l-.009-.001H134.758l-.009.001h-.011l-.006.001h-.009l-.009.001-.009.001-.008.001H134.683l-.003.002h-.011l-.006.001-.009.001-.008.002-.009.001-.009.002-.004.001h-.004l-.008.002-.008.001h-.002l-.006.002-.009.002-.008.002-.009.002-.008.002-.004.002h-.004l-.008.002-.008.002-.002.001-.006.002-.009.002-.006.002h-.001l-.008.003-.008.003-.005.002-.003.001-.009.002-.007.003-.002.001-.006.002-.007.003-.007.002-.001.001-.004.001-.004.002-.007.004-.004.002-.003.001-.009.003-.007.004h-.003l-.005.002-.007.004-.006.004h-.002l-.007.003-.007.004-.003.002-.005.001-.007.005-.007.003-.001.001-.006.003-.007.005-.006.003h-.001l-.007.005-.007.005-.003.002-.004.001-.008.005-.006.004-.001.001-.006.004-.006.005-.006.003-.001.001-26.796 15.505a.909.909 0 0 0-.494.667l-.001.007-.003.022h-.001l-.001.014-.002.009v.006l-.001.014-.001.003v.012l-.002.029v29.08c0 .357.206.664.505.811l26.796 15.505.002.001.006.004.006.004.006.003.001.001.006.005.007.004.005.002.003.002.007.005.007.003.001.001.002.001.003.003.007.003.007.004.001.001.007.003.007.004.004.003h.004l.007.004.007.004h.002l.006.003.007.004.007.003h.001l.007.004.008.003.004.002.003.001.007.003.008.004h.001l.007.002.007.003.007.003.002.001.007.002.008.003.004.001.004.002.008.003.009.002h.001l.006.002.008.003.006.002h.002l.008.002.009.002.003.001.005.002.008.002.008.002h.001l.007.001.009.002.006.002h.002l.008.002.009.002h.003l.005.001.009.002H134.646l.007.002.009.001.006.001h.002l.009.001.009.001.003.001h.006l.008.001.009.001.008.001h.009l.006.001h.093l.006-.001h.009l.008-.001.01-.001.008-.001h.005l.004-.001.008-.001.009-.001h.002l.006-.001.009-.001.007-.002H134.93l.009-.002.005-.001h.004l.008-.002.008-.002h.002l.006-.002.009-.002.007-.001h.001l.008-.002.008-.002.005-.002.004-.001.008-.002.008-.002h.002l.006-.002.009-.003.006-.002h.002l.007-.002.008-.003.005-.002.003-.001.009-.003.007-.002.001-.001.007-.003.007-.003.007-.002h.001l.008-.004.007-.003.004-.001.003-.002.008-.003.007-.004h.002l.007-.003.007-.004.005-.003h.002l.007-.004.007-.004h.004l.004-.003.007-.004.008-.003.001-.001.006-.004.007-.003.004-.003.001-.001.001-.001.007-.003.008-.005.002-.002.005-.002.007-.004.006-.005.001-.001.006-.003.007-.004.005-.004.002-.001 26.796-15.505a.908.908 0 0 0 .493-.667l.002-.007.002-.021.001-.001.001-.014.002-.009v-.006l.001-.014.001-.003v-.012l.001-.029.001-.005v-29.074a.905.905 0 0 0-.505-.812Zm-24.354 12.308a3.89 3.89 0 0 0-1.879-1.086v-24.746l23.53 14.119-21.002 12.603a4.207 4.207 0 0 0-.649-.89Zm-28.617 15.855Zm0 0 21.39-12.577a4.217 4.217 0 0 1-.01-.298l.005-.204-21.385-12.575v25.654Zm29.952-13.065.004.19c0 .095-.003.189-.009.282l21.39 12.593v-25.654l-21.385 12.589Zm-1.332 2.118c.233-.242.438-.514.606-.811l21.042 12.616-23.53 14.107v-24.823a3.881 3.881 0 0 0 1.882-1.089Zm-4.021 2.154a3.884 3.884 0 0 1-1.905-1.093 4.14 4.14 0 0 1-.602-.803L110.184 167.6l23.53 14.114v-24.827Zm-1.909-7.046c-.249.26-.464.554-.639.874l-20.982-12.596 23.53-14.126v24.751a3.893 3.893 0 0 0-1.909 1.097Zm4.493 1.499a2.138 2.138 0 0 0-1.514-.625 2.134 2.134 0 0 0-2.14 2.138c0 .591.24 1.128.625 1.514a2.146 2.146 0 0 0 3.029 0 2.143 2.143 0 0 0 0-3.027Z" fill="#E7E7E7"/><path fill-rule="evenodd" clip-rule="evenodd" d="m215.563 137.517-26.797-15.505h.001l-.001-.001-.006-.003-.006-.005-.006-.004-.001-.001-.007-.004-.007-.005-.004-.001-.003-.002-.007-.005-.007-.005h-.001l-.006-.003-.007-.005-.006-.003-.001-.001-.007-.003-.007-.005-.005-.001-.004-.002-.007-.004-.007-.003h-.001l-.006-.004-.007-.004-.005-.002h-.003l-.007-.004-.009-.003-.003-.001-.004-.002-.007-.004-.003-.002-.005-.001-.001-.001-.007-.002-.007-.003-.006-.002-.002-.001-.007-.003-.008-.002-.004-.001-.005-.002-.008-.003-.007-.003h-.002l-.006-.002-.008-.002-.007-.002-.002-.001-.008-.002-.008-.002h-.004l-.004-.002-.008-.002-.009-.002-.008-.002-.009-.002-.006-.002h-.002l-.008-.001-.008-.002h-.004l-.004-.001-.009-.002-.008-.001h-.001l-.007-.002-.009-.001-.007-.001h-.011l-.003-.002h-.014l-.008-.001-.009-.001-.008-.001h-.009l-.007-.001h-.011l-.009-.001H188.235l-.009.001h-.011l-.007.001h-.009l-.008.001-.009.001-.008.001h-.014l-.003.002h-.011l-.007.001-.009.001-.007.002h-.001l-.008.001-.009.002-.004.001h-.004l-.008.002-.008.001h-.002l-.007.002-.009.002-.007.002h-.001l-.008.002-.008.002-.004.002h-.004l-.008.002-.008.002-.002.001-.007.002-.008.002-.006.002h-.001l-.008.003-.008.003-.005.002-.004.001-.008.002-.007.003-.002.001-.006.002-.007.003-.007.002-.001.001-.004.001-.004.002-.008.004-.003.002-.004.001-.008.003-.007.004h-.003l-.005.002-.007.004-.006.004h-.002l-.007.003-.007.004-.004.002-.004.001-.007.005-.007.003-.001.001-.007.003-.007.005-.005.003h-.001l-.007.005-.007.005-.003.002-.005.001-.007.005-.006.004-.001.001-.006.004-.006.005-.006.003-.002.001-26.796 15.505a.908.908 0 0 0-.493.667l-.002.007-.002.022h-.001l-.001.014-.002.009v.006l-.001.014-.001.003v.012l-.002.029-.001.005v29.075c0 .357.207.664.506.811l26.796 15.505.002.001.005.004.007.004.006.003.001.001.006.005.007.004.005.002.003.002.007.005.007.003.001.001.002.001.003.003.007.003.006.004.001.001.007.003.008.004.004.003h.004l.007.004.007.004h.002l.005.003.008.004.007.003.008.004.008.003.003.002.004.001.007.003.008.004h.001l.007.002.007.003.007.003.002.001.007.002.008.003.003.001.005.002.008.003.008.002h.001l.007.002.008.003.006.002h.002l.008.002.008.002.004.001.004.002.009.002.008.002h.001l.007.001.009.002.006.002h.002l.008.002.008.002h.004l.005.001.009.002H188.123l.007.002.009.001.006.001h.002l.009.001.008.001.004.001h.005l.009.001.009.001.008.001h.009l.006.001h.093l.006-.001h.009l.008-.001.009-.001.009-.001h.005l.004-.001.008-.001.009-.001h.002l.006-.001.009-.001.007-.002H188.407l.009-.002.005-.001h.003l.009-.002.008-.002h.002l.006-.002.009-.002.007-.001h.001l.008-.002.008-.002.005-.002.003-.001.009-.002.008-.002h.002l.006-.002.008-.003.007-.002h.002l.007-.002.008-.003.005-.002.003-.001.008-.003.007-.002.002-.001.006-.003.007-.003.008-.002.009-.004.007-.003.003-.001.004-.002.008-.003.007-.004h.001l.007-.003.008-.004.005-.003h.002l.007-.004.007-.004h.003l.005-.003.007-.004.007-.003.001-.001.007-.004.007-.003.003-.003.002-.001.001-.001.007-.003.007-.005.003-.002.005-.002.007-.004.006-.005.001-.001.006-.003.006-.004.006-.004.001-.001 26.797-15.505a.91.91 0 0 0 .493-.667l.001-.007.003-.021.001-.001.001-.014.002-.009v-.02l.002-.003v-.012l.001-.029.001-.005v-29.074a.905.905 0 0 0-.505-.812Zm-24.354 12.308a3.89 3.89 0 0 0-1.879-1.086v-24.746l23.53 14.119-21.003 12.603a4.168 4.168 0 0 0-.648-.89Zm-28.617 15.855h-.001.001Zm0 0 21.39-12.577a4.217 4.217 0 0 1-.01-.298l.005-.204-21.385-12.575v25.654Zm29.952-13.065.004.19c0 .095-.003.189-.01.282l21.391 12.593v-25.654l-21.385 12.589Zm-1.332 2.118c.232-.242.438-.514.606-.811l21.042 12.616-23.53 14.107v-24.823a3.881 3.881 0 0 0 1.882-1.089Zm-4.021 2.154a3.884 3.884 0 0 1-1.905-1.093 4.14 4.14 0 0 1-.602-.803L163.661 167.6l23.53 14.114v-24.827Zm-1.909-7.046c-.249.26-.464.554-.639.874l-20.982-12.596 23.53-14.126v24.751a3.893 3.893 0 0 0-1.909 1.097Zm4.493 1.499a2.139 2.139 0 0 0-1.515-.625 2.134 2.134 0 0 0-2.139 2.138c0 .591.24 1.128.625 1.514a2.146 2.146 0 0 0 3.029 0c.385-.387.624-.923.624-1.514s-.238-1.127-.624-1.513Z" fill="#E7E7E7"/><path fill-rule="evenodd" clip-rule="evenodd" d="m269.039 137.517-26.796-15.505h.001l-.002-.001-.005-.003-.006-.005-.007-.004v-.001l-.007-.004-.007-.005-.004-.001-.003-.002-.007-.005-.007-.005h-.001l-.006-.003-.007-.005-.006-.003-.001-.001-.007-.003-.008-.005-.004-.001-.004-.002-.007-.004-.007-.003h-.002l-.005-.004-.007-.004-.006-.002h-.002l-.008-.004-.008-.003-.003-.001-.004-.002-.007-.004-.004-.002-.004-.001-.001-.001-.007-.002-.007-.003-.007-.002-.001-.001-.007-.003-.009-.002-.003-.001-.005-.002-.008-.003-.007-.003h-.002l-.006-.002-.009-.002-.006-.002-.002-.001-.008-.002-.008-.002h-.004l-.004-.002-.009-.002-.008-.002h-.001l-.007-.002-.009-.002-.006-.002h-.002l-.008-.001-.008-.002h-.004l-.004-.001-.009-.002-.009-.001-.008-.002-.009-.001-.006-.001h-.011l-.003-.002H241.825l-.008-.001-.009-.001-.009-.001h-.009l-.006-.001h-.011l-.009-.001H241.712l-.009.001h-.011l-.007.001h-.009l-.008.001-.009.001-.008.001h-.014l-.003.002h-.011l-.007.001-.009.001-.007.002h-.001l-.008.001-.009.002-.005.001h-.003l-.008.002-.009.001h-.002l-.006.002-.009.002-.007.002h-.001l-.008.002-.008.002-.005.002h-.003l-.008.002-.009.002-.002.001-.006.002-.008.002-.006.002h-.001l-.008.003-.009.003-.004.002-.004.001-.008.002-.007.003-.002.001-.006.002-.007.003-.008.002v.001l-.004.001-.005.002-.007.004-.003.002-.004.001-.008.003-.007.004h-.003l-.005.002-.008.004-.005.004h-.002l-.007.003-.007.004-.004.002-.004.001-.007.005-.008.003v.001l-.007.003-.007.005-.005.003h-.001l-.007.005-.007.005-.003.002-.005.001-.007.005-.006.004-.001.001-.006.004-.007.005-.005.003-.002.001-26.796 15.505a.908.908 0 0 0-.493.667l-.002.007-.003.022-.001.014-.002.009v.006l-.001.014-.001.003v.012l-.002.029-.001.005v29.075c0 .357.207.664.506.811l26.796 15.505.002.001.005.004.006.004.007.003.001.001.006.005.007.004.005.002.002.002.007.005.008.003v.001l.002.001.004.003.007.003.006.004.001.001.007.003.007.004.005.003h.004l.007.004.007.004h.002l.005.003.007.004.007.003h.001l.007.004.009.003.003.002.004.001.007.003.008.004h.001l.007.002.007.003.006.003.002.001.007.002.009.003.003.001.005.002.008.003.008.002h.001l.006.002.009.003.006.002h.002l.008.002.008.002.004.001.004.002.008.002.009.002.008.001.009.002.006.002h.002l.008.002.008.002h.004l.004.001.01.002H241.6l.007.002.009.001.006.001h.002l.009.001.008.001.004.001h.005l.008.001.009.001.009.001h.009l.006.001h.093l.006-.001h.009l.008-.001.009-.001.008-.001h.006l.003-.001.009-.001.009-.001h.002l.006-.001.009-.001.007-.002H241.884l.009-.002.005-.001h.003l.009-.002.008-.002h.001l.007-.002.009-.002.007-.001h.001l.008-.002.008-.002.005-.002.003-.001.009-.002.008-.002h.002l.006-.002.008-.003.006-.002h.002l.007-.002.009-.003.004-.002.004-.001.008-.003.007-.002.002-.001.006-.003.007-.003.007-.002h.001l.008-.004.008-.003.003-.001.004-.002.008-.003.007-.004h.001l.007-.003.007-.004.006-.003h.001l.008-.004.007-.004h.003l.005-.003.007-.004.007-.003.001-.001.007-.004.007-.003.003-.003.002-.001.001-.001.007-.003.007-.005.003-.002.004-.002.007-.004.007-.005.001-.001.006-.003.006-.004.006-.004.001-.001 26.796-15.505a.905.905 0 0 0 .493-.667l.002-.007.003-.021.001-.001.001-.014.001-.009v-.006l.001-.014.001-.003v-.012l.002-.029.001-.005v-29.074a.904.904 0 0 0-.506-.812Zm-24.353 12.308a3.894 3.894 0 0 0-1.879-1.086v-24.746l23.529 14.119-21.002 12.603a4.168 4.168 0 0 0-.648-.89Zm-28.617 15.855h-.001.001Zm0 0 21.39-12.577a4.217 4.217 0 0 1-.01-.298l.005-.204-21.385-12.575v25.654Zm29.951-13.065.005.19c0 .095-.004.189-.01.282l21.391 12.593v-25.654l-21.385 12.589h-.001Zm-1.331 2.118c.232-.242.437-.514.606-.811l21.041 12.616-23.529 14.107v-24.823a3.881 3.881 0 0 0 1.882-1.089Zm-4.021 2.154a3.891 3.891 0 0 1-1.906-1.093c-.23-.24-.432-.51-.601-.803L217.138 167.6l23.53 14.114v-24.827Zm-1.909-7.046a4.09 4.09 0 0 0-.639.874l-20.982-12.596 23.53-14.126v24.751a3.893 3.893 0 0 0-1.909 1.097Zm4.493 1.499a2.139 2.139 0 0 0-1.515-.625 2.134 2.134 0 0 0-2.139 2.138c0 .591.24 1.128.625 1.514.386.384.923.624 1.514.624.592 0 1.128-.239 1.515-.624.385-.387.624-.923.624-1.514s-.239-1.127-.624-1.513Z" fill="#E7E7E7"/><path fill-rule="evenodd" clip-rule="evenodd" d="m322.516 137.517-26.796-15.505h.001l-.002-.001-.005-.003-.006-.005-.007-.004-.001-.001-.006-.004-.007-.005-.004-.001-.003-.002-.007-.005-.007-.005h-.001l-.006-.003-.007-.005-.006-.003-.001-.001-.008-.003-.007-.005-.004-.001-.004-.002-.007-.004-.007-.003h-.002l-.005-.004-.007-.004-.006-.002h-.003l-.007-.004-.008-.003-.004-.001-.003-.002-.007-.004-.004-.002-.004-.001-.001-.001-.007-.002-.007-.003-.007-.002-.001-.001-.008-.003-.008-.002-.003-.001-.005-.002-.008-.003-.007-.003h-.002l-.006-.002-.009-.002-.006-.002-.002-.001-.008-.002-.008-.002h-.004l-.005-.002-.008-.002-.008-.002h-.001l-.007-.002-.009-.002-.006-.002h-.002l-.008-.001-.008-.002h-.004l-.005-.001-.009-.002-.008-.001h-.001l-.007-.002-.009-.001-.006-.001h-.011l-.004-.002H295.302l-.009-.001-.009-.001-.008-.001h-.009l-.006-.001h-.011l-.009-.001H295.188l-.009.001h-.011l-.006.001h-.009l-.008.001-.009.001-.008.001h-.014l-.004.002h-.011l-.006.001-.009.001-.007.002h-.001l-.008.001-.009.002-.005.001h-.003l-.009.002-.008.001h-.002l-.006.002-.009.002-.007.002h-.001l-.008.002-.008.002-.005.002h-.003l-.009.002-.008.002-.002.001-.006.002-.008.002-.007.002-.009.003-.008.003-.004.002-.004.001-.008.002-.007.003-.002.001-.007.002-.007.003-.007.002-.001.001-.003.001-.005.002-.007.004-.003.002-.004.001-.008.003-.007.004h-.003l-.006.002-.007.004-.005.004h-.002l-.007.003-.007.004-.004.002-.005.001-.007.005-.007.003-.001.001-.006.003-.007.005-.006.003-.007.005-.008.005-.002.002-.005.001-.007.005-.006.004-.001.001-.007.004-.006.005-.005.003-.002.001-26.796 15.505a.908.908 0 0 0-.493.667l-.002.007-.003.022h-.001v.014l-.002.009v.006l-.001.014-.001.003v.012l-.002.029-.001.005v29.075c0 .357.206.664.506.811l26.796 15.505.001.001.006.004.006.004.007.003v.001l.007.005.007.004.004.002.003.002.007.005.007.003.001.001.002.001.004.003.007.003.006.004.001.001.007.003.007.004.005.003h.003l.007.004.008.004h.002l.005.003.007.004.007.003h.001l.007.004.008.003.004.002.004.001.007.003.008.004h.001l.007.002.007.003.006.003.002.001.007.002.008.003.004.001.005.002.008.003.008.002h.001l.006.002.008.003.007.002h.002l.008.002.008.002.004.001.004.002.008.002.008.002h.001l.007.001.009.002.007.002h.002l.008.002.008.002h.004l.004.001.009.002h.009l.007.002.01.001.006.001h.002l.009.001.008.001.004.001h.005l.008.001.009.001.008.001h.01l.006.001h.092l.007-.001h.009l.008-.001.009-.001.008-.001h.006l.003-.001.008-.001.009-.001h.002l.007-.001.009-.001.007-.002H295.361l.009-.002.005-.001h.003l.008-.002.009-.002h.001l.006-.002.01-.002.007-.001.009-.002.008-.002.005-.002.003-.001.008-.002.009-.002h.001l.007-.002.008-.003.006-.002h.002l.007-.002.009-.003.004-.002.004-.001.008-.003.007-.002.002-.001.006-.003.007-.003.007-.002h.001l.008-.004.007-.003.004-.001.004-.002.008-.003.007-.004h.001l.007-.003.007-.004.006-.003h.001l.007-.004.008-.004h.003l.005-.003.007-.004.007-.003.001-.001.006-.004.007-.003.004-.003.002-.001.001-.001.007-.003.007-.005.003-.002.004-.002.007-.004.007-.005v-.001l.007-.003.006-.004.005-.004.002-.001 26.796-15.505a.905.905 0 0 0 .493-.667l.002-.007.003-.021.001-.001v-.014l.002-.009v-.006l.001-.014.001-.003v-.012l.002-.029.001-.005v-29.074a.906.906 0 0 0-.506-.812Zm-24.354 12.308a3.89 3.89 0 0 0-1.879-1.086v-24.746l23.53 14.119-21.002 12.603a4.139 4.139 0 0 0-.649-.89Zm-28.617 15.855Zm0 0 21.391-12.577a4.216 4.216 0 0 1-.011-.298l.006-.204-21.386-12.575v25.654Zm29.952-13.065.005.19c0 .095-.004.189-.01.282l21.391 12.593v-25.654l-21.386 12.589Zm-1.331 2.118a4.07 4.07 0 0 0 .605-.811l21.042 12.616-23.53 14.107v-24.823a3.884 3.884 0 0 0 1.883-1.089Zm-4.022 2.154a3.888 3.888 0 0 1-1.905-1.093c-.23-.24-.433-.51-.601-.803L270.615 167.6l23.529 14.114v-24.827Zm-1.908-7.046a4.09 4.09 0 0 0-.639.874l-20.982-12.596 23.529-14.126v24.751a3.894 3.894 0 0 0-1.908 1.097Zm4.493 1.499a2.139 2.139 0 0 0-1.515-.625 2.134 2.134 0 0 0-2.139 2.138c0 .591.239 1.128.625 1.514.386.384.922.624 1.514.624s1.128-.239 1.515-.624a2.146 2.146 0 0 0 0-3.027ZM108.609 197.376l-26.796-15.505v-.001l-.006-.004-.007-.004-.006-.004v-.001l-.007-.004-.007-.005-.005-.002-.002-.002-.007-.004-.008-.005-.006-.003-.007-.005-.007-.003v-.001l-.008-.003-.007-.005-.005-.002-.003-.001-.007-.004-.007-.004h-.002l-.005-.003-.008-.004-.005-.002h-.002l-.008-.004-.008-.004h-.004l-.003-.002-.007-.004-.004-.002-.005-.001v-.001l-.008-.002-.007-.003-.006-.002-.002-.001-.007-.003-.008-.002-.004-.002-.004-.001-.008-.003-.007-.003h-.002l-.007-.002-.008-.002-.006-.002-.002-.001-.008-.002-.009-.002h-.003l-.005-.002-.008-.002-.008-.002h-.001l-.007-.002-.01-.002-.005-.002h-.002l-.008-.001-.009-.002h-.003l-.005-.001-.009-.002-.008-.001-.008-.002-.009-.001-.006-.001h-.002l-.01-.001-.003-.001h-.014l-.008-.002h-.009l-.008-.001h-.009l-.006-.001h-.011l-.01-.001H81.282l-.009.001h-.011l-.006.001h-.01l-.007.001h-.01l-.008.002H81.207l-.004.001-.009.001h-.002l-.006.001-.01.001-.006.002h-.001l-.008.001-.01.002-.004.001h-.004l-.008.002-.008.001h-.002l-.006.002-.01.002-.006.002h-.001l-.008.002-.009.002-.004.002h-.004l-.008.002-.008.002-.002.001-.006.002-.008.002-.007.002-.009.003-.008.003-.005.001-.003.002-.008.002-.008.003-.001.001-.007.002-.007.003-.007.002v.001l-.004.001-.005.002-.007.004-.004.002h-.003l-.008.004-.008.004h-.002l-.006.002-.007.004-.005.003h-.002l-.008.004-.007.004-.003.001-.005.002-.007.005-.007.003v.001l-.007.003-.007.005-.006.003-.008.005-.007.004-.002.002-.005.002-.007.005-.007.004v.001l-.007.004-.006.004-.006.004-.001.001-26.796 15.505a.908.908 0 0 0-.493.667l-.002.007-.003.021v.001l-.002.014-.002.009v.02l-.002.003v.012l-.001.029-.001.005v29.075c0 .357.206.664.505.811l26.797 15.505.001.001.006.003.006.005.006.003.001.001.006.005.008.003.004.003.003.002.007.004.007.004.001.001.002.001.004.002.007.004.006.004v.001l.008.003.007.004.005.003h.003l.007.004.007.004h.002l.006.003.007.004.007.003.008.004.008.003.004.001.003.002.007.003.009.003v.001l.008.002.007.003.006.003h.002l.007.003.008.003.004.001.004.002.009.002.008.003.007.002.008.003.006.001h.002l.009.003.008.002.003.001.005.002.008.002.008.001h.001l.007.002.01.002.005.002h.002l.009.002.008.002h.003l.005.001.01.002h.008l.007.002.01.001.006.001h.002l.008.001.009.001.003.001h.006l.008.001.009.001.008.001h.01l.006.001H81.353l.006-.001h.01l.008-.001.009-.001.008-.001h.005l.004-.001.008-.001.01-.001h.001l.006-.001.01-.001.007-.002h.009l.009-.002.004-.001h.004l.008-.002.008-.002h.002l.006-.002.01-.002.006-.002h.001l.008-.001.009-.002.004-.002.004-.001.008-.002.008-.003h.002l.006-.001.009-.003.006-.002h.002l.007-.003.008-.002.005-.002.004-.001.008-.003.007-.003h.001l.007-.003.007-.003.007-.002v-.001l.009-.003.007-.003.004-.002.003-.001.008-.003.008-.004.008-.003.007-.004.005-.003h.002l.007-.004.007-.004h.004l.004-.003.008-.004.007-.003v-.001l.007-.004.007-.004.004-.002.002-.001v-.001l.008-.004.007-.004.002-.002.005-.003.007-.003.006-.005.001-.001.006-.003.007-.005.005-.003.002-.001 26.796-15.505a.908.908 0 0 0 .493-.667l.002-.007.002-.022h.001l.001-.014.002-.009v-.006l.001-.014.001-.003v-.012l.002-.029.001-.005v-29.075a.903.903 0 0 0-.506-.811Zm-24.354 12.308a3.89 3.89 0 0 0-1.879-1.086v-24.746l23.53 14.119-21.002 12.603a4.164 4.164 0 0 0-.649-.89Zm-28.617 15.855Zm0 0 21.39-12.578a4.168 4.168 0 0 1-.01-.297l.005-.204-21.385-12.575v25.654Zm29.952-13.065.004.19c0 .094-.003.189-.01.282l21.392 12.593v-25.654L85.59 212.474Zm-1.331 2.118a4.08 4.08 0 0 0 .605-.811l21.042 12.616-23.53 14.107v-24.823a3.883 3.883 0 0 0 1.883-1.089Zm-4.022 2.153a3.886 3.886 0 0 1-1.905-1.092c-.23-.24-.433-.51-.601-.803l-21.024 12.609 23.53 14.114v-24.828ZM78.33 209.7c-.25.26-.465.554-.64.874l-20.982-12.596 23.53-14.126v24.751a3.894 3.894 0 0 0-1.908 1.097Zm4.492 1.499a2.138 2.138 0 0 0-1.514-.625 2.134 2.134 0 0 0-2.14 2.138c0 .591.24 1.127.625 1.514.387.384.923.624 1.515.624a2.14 2.14 0 0 0 1.514-.624 2.143 2.143 0 0 0 0-3.027Z" fill="#E7E7E7"/><path fill-rule="evenodd" clip-rule="evenodd" d="m162.086 197.376-26.796-15.505h.001l-.002-.001-.006-.004-.006-.004-.006-.004-.001-.001-.006-.004-.007-.005-.005-.002-.003-.002-.007-.004-.007-.005h-.001l-.005-.003-.007-.005-.007-.003-.001-.001-.007-.003-.007-.005-.005-.002-.003-.001-.007-.004-.008-.004h-.001l-.006-.003-.007-.004-.005-.002h-.003l-.007-.004-.008-.004h-.004l-.003-.002-.008-.004-.003-.002-.005-.001-.001-.001-.007-.002-.007-.003-.006-.002-.002-.001-.007-.003-.008-.002-.004-.002-.004-.001-.009-.003-.007-.003h-.002l-.006-.002-.008-.002-.006-.002-.002-.001-.009-.002-.008-.002h-.003l-.005-.002-.008-.002-.008-.002h-.001l-.007-.002-.009-.002-.007-.002h-.001l-.009-.001-.008-.002h-.003l-.005-.001-.009-.002-.008-.001h-.001l-.007-.002-.009-.001-.007-.001h-.001l-.009-.001-.004-.001h-.014l-.008-.002h-.009l-.008-.001h-.009l-.007-.001h-.01l-.009-.001H134.758l-.009.001h-.011l-.006.001h-.009l-.009.001h-.009l-.008.002H134.683l-.003.001-.009.001h-.002l-.006.001-.009.001-.008.002-.009.001-.009.002-.004.001h-.004l-.008.002-.008.001h-.002l-.006.002-.009.002-.008.002-.009.002-.008.002-.004.002h-.004l-.008.002-.008.002-.002.001-.006.002-.009.002-.006.002h-.001l-.008.003-.008.003-.005.001-.003.002-.009.002-.007.003-.002.001-.006.002-.007.003-.007.002-.001.001-.004.001-.004.002-.007.004-.004.002h-.003l-.009.004-.007.004h-.003l-.005.002-.007.004-.006.003h-.002l-.007.004-.007.004-.003.001-.005.002-.007.005-.007.003-.001.001-.006.003-.007.005-.006.003h-.001l-.007.005-.007.004-.003.002-.004.002-.008.005-.006.004-.001.001-.006.004-.006.004-.006.004-.001.001-26.796 15.505a.909.909 0 0 0-.494.667l-.001.007-.003.021-.001.001-.001.014-.002.009v.006l-.001.014-.001.003v.012l-.002.029v29.08c0 .357.206.664.505.811l26.796 15.505.002.001.006.003.006.005.006.003.001.001.006.005.007.003.005.003.003.002.007.004.007.004.001.001.002.001.003.002.007.004.007.004.001.001.007.003.007.004.004.003h.004l.007.004.007.004h.002l.006.003.007.004.007.003h.001l.007.004.008.003.004.001.003.002.007.003.008.003.001.001.007.002.007.003.007.003h.002l.007.003.008.003.004.001.004.002.008.002.009.003h.001l.006.002.008.003.006.001h.002l.008.003.009.002.003.001.005.002.008.002.008.001h.001l.007.002.009.002.006.002h.002l.008.002.009.002h.003l.005.001.009.002H134.646l.007.002.009.001.006.001h.002l.009.001.009.001.003.001h.006l.008.001.009.001.008.001h.009l.006.001h.093l.006-.001h.009l.008-.001.01-.001.008-.001h.005l.004-.001.008-.001.009-.001h.002l.006-.001.009-.001.007-.002H134.93l.009-.002.005-.001h.004l.008-.002.008-.002h.002l.006-.002.009-.002.007-.002h.001l.008-.001.008-.002.005-.002.004-.001.008-.002.008-.003h.002l.006-.001.009-.003.006-.002h.002l.007-.003.008-.002.005-.002.003-.001.009-.003.007-.003h.001l.007-.003.007-.003.007-.002.001-.001.008-.003.007-.003.004-.002.003-.001.008-.003.007-.004h.002l.007-.003.007-.004.005-.003h.002l.007-.004.007-.004h.004l.004-.003.007-.004.008-.003.001-.001.006-.004.007-.004.004-.002.001-.001.001-.001.007-.004.008-.004.002-.002.005-.003.007-.003.006-.005.001-.001.006-.003.007-.005.005-.003.002-.001 26.796-15.505a.908.908 0 0 0 .493-.667l.002-.007.002-.022h.001l.001-.014.002-.009v-.006l.001-.014.001-.003v-.012l.001-.029.001-.005v-29.075a.902.902 0 0 0-.505-.811Zm-24.354 12.308a3.89 3.89 0 0 0-1.879-1.086v-24.746l23.53 14.119-21.002 12.603a4.207 4.207 0 0 0-.649-.89Zm-28.617 15.855Zm0 0 21.39-12.578a4.169 4.169 0 0 1-.01-.297l.005-.204-21.385-12.575v25.654Zm29.952-13.065.004.19c0 .094-.003.189-.009.282l21.39 12.593v-25.654l-21.385 12.589Zm-1.332 2.118c.233-.242.438-.514.606-.811l21.042 12.616-23.53 14.107v-24.823a3.881 3.881 0 0 0 1.882-1.089Zm-4.021 2.153a3.882 3.882 0 0 1-1.905-1.092 4.14 4.14 0 0 1-.602-.803l-21.023 12.609 23.53 14.114v-24.828Zm-1.909-7.045c-.249.26-.464.554-.639.874l-20.982-12.596 23.53-14.126v24.751a3.893 3.893 0 0 0-1.909 1.097Zm4.493 1.499a2.138 2.138 0 0 0-1.514-.625 2.134 2.134 0 0 0-2.14 2.138c0 .591.24 1.127.625 1.514a2.146 2.146 0 0 0 3.029 0 2.143 2.143 0 0 0 0-3.027Z" fill="#E7E7E7"/><path fill-rule="evenodd" clip-rule="evenodd" d="m215.563 197.376-26.797-15.505h.001l-.001-.001-.006-.004-.006-.004-.006-.004-.001-.001-.007-.004-.007-.005-.004-.002-.003-.002-.007-.004-.007-.005h-.001l-.006-.003-.007-.005-.006-.003-.001-.001-.007-.003-.007-.005-.005-.002-.004-.001-.007-.004-.007-.004h-.001l-.006-.003-.007-.004-.005-.002h-.003l-.007-.004-.009-.004h-.003l-.004-.002-.007-.004-.003-.002-.005-.001-.001-.001-.007-.002-.007-.003-.006-.002-.002-.001-.007-.003-.008-.002-.004-.002-.005-.001-.008-.003-.007-.003h-.002l-.006-.002-.008-.002-.007-.002-.002-.001-.008-.002-.008-.002h-.004l-.004-.002-.008-.002-.009-.002-.008-.002-.009-.002-.006-.002h-.002l-.008-.001-.008-.002h-.004l-.004-.001-.009-.002-.008-.001h-.001l-.007-.002-.009-.001-.007-.001h-.002l-.009-.001-.003-.001h-.014l-.008-.002h-.009l-.008-.001h-.009l-.007-.001h-.011l-.009-.001H188.235l-.009.001h-.011l-.007.001h-.009l-.008.001h-.009l-.008.002h-.014l-.003.001-.009.001h-.002l-.007.001-.009.001-.007.002h-.001l-.008.001-.009.002-.004.001h-.004l-.008.002-.008.001h-.002l-.007.002-.009.002-.007.002h-.001l-.008.002-.008.002-.004.002h-.004l-.008.002-.008.002-.002.001-.007.002-.008.002-.006.002h-.001l-.008.003-.008.003-.005.001-.004.002-.008.002-.007.003-.002.001-.006.002-.007.003-.007.002-.001.001-.004.001-.004.002-.008.004-.003.002h-.004l-.008.004-.007.004h-.003l-.005.002-.007.004-.006.003h-.002l-.007.004-.007.004-.004.001-.004.002-.007.005-.007.003-.001.001-.007.003-.007.005-.005.003h-.001l-.007.005-.007.004-.003.002-.005.002-.007.005-.006.004-.001.001-.006.004-.006.004-.006.004-.002.001-26.796 15.505a.908.908 0 0 0-.493.667l-.002.007-.002.021-.001.001-.001.014-.002.009v.006l-.001.014-.001.003v.012l-.002.029-.001.005v29.075c0 .357.207.664.506.811l26.796 15.505.002.001.005.003.007.005.006.003.001.001.006.005.007.003.005.003.003.002.007.004.007.004.001.001.002.001.003.002.007.004.006.004.001.001.007.003.008.004.004.003h.004l.007.004.007.004h.002l.005.003.008.004.007.003.008.004.008.003.003.001.004.002.007.003.008.003.001.001.007.002.007.003.007.003h.002l.007.003.008.003.003.001.005.002.008.002.008.003h.001l.007.002.008.003.006.001h.002l.008.003.008.002.004.001.004.002.009.002.008.001h.001l.007.002.009.002.006.002h.002l.008.002.008.002h.004l.005.001.009.002H188.123l.007.002.009.001.006.001h.002l.009.001.008.001.004.001h.005l.009.001.009.001.008.001h.009l.006.001h.093l.006-.001h.009l.008-.001.009-.001.009-.001h.005l.004-.001.008-.001.009-.001h.002l.006-.001.009-.001.007-.002H188.407l.009-.002.005-.001h.003l.009-.002.008-.002h.002l.006-.002.009-.002.007-.002h.001l.008-.001.008-.002.005-.002.003-.001.009-.002.008-.003h.002l.006-.001.008-.003.007-.002h.002l.007-.003.008-.002.005-.002.003-.001.008-.003.007-.003h.002l.006-.003.007-.003.008-.002v-.001l.009-.003.007-.003.003-.002.004-.001.008-.003.007-.004h.001l.007-.003.008-.004.005-.003h.002l.007-.004.007-.004h.003l.005-.003.007-.004.007-.003.001-.001.007-.004.007-.004.003-.002.002-.001.001-.001.007-.004.007-.004.003-.002.005-.003.007-.003.006-.005.001-.001.006-.003.006-.005.006-.003.001-.001 26.797-15.505a.91.91 0 0 0 .493-.667l.001-.007.003-.022h.001l.001-.014.002-.009v-.02l.002-.003v-.012l.001-.029.001-.005v-29.075a.902.902 0 0 0-.505-.811Zm-24.354 12.308a3.89 3.89 0 0 0-1.879-1.086v-24.746l23.53 14.119-21.003 12.603a4.168 4.168 0 0 0-.648-.89Zm-28.617 15.855h-.001.001Zm0 0 21.39-12.578a4.169 4.169 0 0 1-.01-.297l.005-.204-21.385-12.575v25.654Zm29.952-13.065.004.19c0 .094-.003.189-.01.282l21.391 12.593v-25.654l-21.385 12.589Zm-1.332 2.118c.232-.242.438-.514.606-.811l21.042 12.616-23.53 14.107v-24.823a3.881 3.881 0 0 0 1.882-1.089Zm-4.021 2.153a3.882 3.882 0 0 1-1.905-1.092 4.14 4.14 0 0 1-.602-.803l-21.023 12.609 23.53 14.114v-24.828Zm-1.909-7.045c-.249.26-.464.554-.639.874l-20.982-12.596 23.53-14.126v24.751a3.893 3.893 0 0 0-1.909 1.097Zm4.493 1.499a2.139 2.139 0 0 0-1.515-.625 2.134 2.134 0 0 0-2.139 2.138c0 .591.24 1.127.625 1.514a2.146 2.146 0 0 0 3.029 0c.385-.387.624-.923.624-1.514s-.238-1.127-.624-1.513Z" fill="#E7E7E7"/><path fill-rule="evenodd" clip-rule="evenodd" d="m269.039 197.376-26.796-15.505h.001l-.002-.001-.005-.004-.006-.004-.007-.004v-.001l-.007-.004-.007-.005-.004-.002-.003-.002-.007-.004-.007-.005h-.001l-.006-.003-.007-.005-.006-.003-.001-.001-.007-.003-.008-.005-.004-.002-.004-.001-.007-.004-.007-.004h-.002l-.005-.003-.007-.004-.006-.002h-.002l-.008-.004-.008-.004h-.003l-.004-.002-.007-.004-.004-.002-.004-.001-.001-.001-.007-.002-.007-.003-.007-.002-.001-.001-.007-.003-.009-.002-.003-.002-.005-.001-.008-.003-.007-.003h-.002l-.006-.002-.009-.002-.006-.002-.002-.001-.008-.002-.008-.002h-.004l-.004-.002-.009-.002-.008-.002h-.001l-.007-.002-.009-.002-.006-.002h-.002l-.008-.001-.008-.002h-.004l-.004-.001-.009-.002-.009-.001-.008-.002-.009-.001-.006-.001h-.002l-.009-.001-.003-.001H241.825l-.008-.002h-.009l-.009-.001h-.009l-.006-.001h-.011l-.009-.001H241.712l-.009.001h-.011l-.007.001h-.009l-.008.001h-.009l-.008.002h-.014l-.003.001-.01.001h-.001l-.007.001-.009.001-.007.002h-.001l-.008.001-.009.002-.005.001h-.003l-.008.002-.009.001h-.002l-.006.002-.009.002-.007.002h-.001l-.008.002-.008.002-.005.002h-.003l-.008.002-.009.002-.002.001-.006.002-.008.002-.006.002h-.001l-.008.003-.009.003-.004.001-.004.002-.008.002-.007.003-.002.001-.006.002-.007.003-.008.002v.001l-.004.001-.005.002-.007.004-.003.002h-.004l-.008.004-.007.004h-.003l-.005.002-.008.004-.005.003h-.002l-.007.004-.007.004-.004.001-.004.002-.007.005-.008.003v.001l-.007.003-.007.005-.005.003h-.001l-.007.005-.007.004-.003.002-.005.002-.007.005-.006.004-.001.001-.006.004-.007.004-.005.004-.002.001-26.796 15.505a.908.908 0 0 0-.493.667l-.002.007-.003.021v.001l-.001.014-.002.009v.006l-.001.014-.001.003v.012l-.002.029-.001.005v29.075c0 .357.207.664.506.811l26.796 15.505.002.001.005.003.006.005.007.003.001.001.006.005.007.003.005.003.002.002.007.004.008.004v.001l.002.001.004.002.007.004.006.004.001.001.007.003.007.004.005.003h.004l.007.004.007.004h.002l.005.003.007.004.007.003h.001l.007.004.009.003.003.001.004.002.007.003.008.003.001.001.007.002.007.003.006.003h.002l.007.003.009.003.003.001.005.002.008.002.008.003h.001l.006.002.009.003.006.001h.002l.008.003.008.002.004.001.004.002.008.002.009.001.008.002.009.002.006.002h.002l.008.002.008.002h.004l.004.001.01.002H241.6l.007.002.009.001.006.001h.002l.009.001.008.001.004.001h.005l.008.001.009.001.009.001h.009l.006.001h.093l.006-.001h.009l.008-.001.009-.001.008-.001h.006l.003-.001.009-.001.009-.001h.002l.006-.001.009-.001.007-.002H241.884l.009-.002.005-.001h.003l.009-.002.008-.002h.001l.007-.002.009-.002.007-.002h.001l.008-.001.008-.002.005-.002.003-.001.009-.002.008-.003h.002l.006-.001.008-.003.006-.002h.002l.007-.003.009-.002.004-.002.004-.001.008-.003.007-.003h.002l.006-.003.007-.003.007-.002.001-.001.008-.003.008-.003.003-.002.004-.001.008-.003.007-.004h.001l.007-.003.007-.004.006-.003h.001l.008-.004.007-.004h.003l.005-.003.007-.004.007-.003.001-.001.007-.004.007-.004.003-.002.002-.001.001-.001.007-.004.007-.004.003-.002.004-.003.007-.003.007-.005.001-.001.006-.003.006-.005.006-.003.001-.001 26.796-15.505a.905.905 0 0 0 .493-.667l.002-.007.003-.022h.001l.001-.014.001-.009v-.006l.001-.014.001-.003v-.012l.002-.029.001-.005v-29.075a.901.901 0 0 0-.506-.811Zm-24.353 12.308a3.894 3.894 0 0 0-1.879-1.086v-24.746l23.529 14.119-21.002 12.603a4.168 4.168 0 0 0-.648-.89Zm-28.617 15.855h-.001.001Zm0 0 21.39-12.578a4.169 4.169 0 0 1-.01-.297l.005-.204-21.385-12.575v25.654Zm29.951-13.065.005.19c0 .094-.004.189-.01.282l21.391 12.593v-25.654l-21.385 12.589h-.001Zm-1.331 2.118c.232-.242.437-.514.606-.811l21.041 12.616-23.529 14.107v-24.823a3.881 3.881 0 0 0 1.882-1.089Zm-4.021 2.153a3.89 3.89 0 0 1-1.906-1.092c-.23-.24-.432-.51-.601-.803l-21.023 12.609 23.53 14.114v-24.828Zm-1.909-7.045a4.09 4.09 0 0 0-.639.874l-20.982-12.596 23.53-14.126v24.751a3.893 3.893 0 0 0-1.909 1.097Zm4.493 1.499a2.139 2.139 0 0 0-1.515-.625 2.134 2.134 0 0 0-2.139 2.138c0 .591.24 1.127.625 1.514.386.384.923.624 1.514.624.592 0 1.128-.239 1.515-.624.385-.387.624-.923.624-1.514s-.239-1.127-.624-1.513ZM82.086 242.234 55.29 226.73v-.001l-.001-.001-.006-.003-.006-.005-.006-.003-.001-.001-.006-.005-.007-.005-.005-.001-.003-.002-.007-.005-.007-.004-.006-.004-.008-.005-.006-.002v-.001l-.008-.004-.007-.004-.005-.002-.003-.002-.008-.004-.007-.003h-.001l-.006-.004-.007-.003-.005-.002-.002-.001h-.001l-.007-.004-.008-.003-.004-.001-.004-.002-.007-.004-.003-.001-.005-.002-.008-.003-.007-.003-.006-.002-.002-.001-.007-.002-.008-.003-.004-.001-.004-.002-.009-.003-.007-.002h-.002l-.006-.003-.008-.002-.006-.002-.002-.001-.009-.001-.008-.003h-.003l-.005-.002-.008-.002-.008-.002h-.001l-.007-.002-.01-.001-.006-.002h-.001l-.009-.002-.008-.002h-.003l-.005-.001-.009-.002-.008-.001h-.001l-.007-.001-.01-.002h-.007l-.01-.001-.003-.001-.008-.001h-.006l-.008-.001-.009-.001-.008-.001h-.01l-.005-.001h-.012l-.009-.001H54.758l-.01.001h-.01l-.006.001h-.01l-.008.001-.009.001-.008.001h-.005l-.008.001-.004.001-.01.001h-.007l-.01.002-.006.001h-.001l-.008.001-.01.002-.004.001h-.004l-.008.002-.008.002h-.002l-.006.002-.01.001-.007.002-.009.002-.008.002-.004.002h-.004l-.008.003-.008.001-.002.001-.006.002-.009.002-.006.003-.009.002-.008.003-.005.002-.003.001-.009.003-.007.002-.002.001-.006.002-.007.003-.007.003h-.001l-.004.002-.004.001-.007.004-.004.002-.004.001-.008.003-.007.004-.002.001-.006.002-.007.003-.006.004h-.002l-.007.003-.007.004-.003.002-.005.002-.007.004-.007.004-.001.001-.006.002-.008.005-.005.004-.008.004-.007.005-.003.002-.004.001-.008.005-.006.005v.001l-.007.003-.006.005-.006.003-.001.001-26.796 15.505a.91.91 0 0 0-.494.667l-.002.007-.002.022-.001.001v.013l-.003.009v.02l-.002.003v.012l-.002.029v29.08c0 .357.206.664.505.811l26.796 15.505.002.001.005.004.007.004.006.004v.001l.007.004.007.004.005.003.003.001.007.005.007.003v.001l.003.001.003.003.007.003.007.004v.001l.008.004.007.003.004.003.004.001.007.003.007.004.002.001.006.002.007.004.007.004.008.003.008.003.004.002.003.001.007.003.008.004.001.001.007.002.008.002.006.003.002.001.007.003.008.002.004.001.004.002.008.003.009.003.007.001.008.003.006.002h.002l.008.003.009.001.003.001.005.002.008.002.008.002.008.002.009.001.006.002h.002l.008.002.009.002h.003l.005.001.009.002.008.001.008.002.01.001h.007l.01.001.008.001.003.001h.006l.008.001.009.001.008.001h.01l.005.001h.011l.01.001H54.81l.009-.001h.011l.006-.001h.01l.008-.001.008-.001.009-.001h.005l.004-.001.008-.001.009-.001h.008l.01-.001.006-.002h.001l.008-.001.01-.002.004-.001h.004l.008-.002.008-.002h.002l.006-.002.01-.001.006-.002h.001l.008-.002.008-.002.005-.002.004-.001.008-.001.008-.003h.002l.006-.002.009-.003.006-.001h.002l.007-.003.008-.003.005-.002.003-.001.008-.002.008-.003.001-.001.007-.003.007-.002.007-.002v-.001l.009-.004.007-.003.004-.001.003-.002.008-.003.007-.003h.002l.007-.004.007-.004.005-.002.002-.001.007-.004.007-.003.004-.001.004-.003.007-.003.008-.004v-.001l.007-.004.007-.003.004-.003.001-.001.001-.001.008-.003.007-.005.002-.001.005-.003.007-.004.006-.004.001-.001.006-.004.007-.004.005-.004.002-.001 26.796-15.505a.908.908 0 0 0 .493-.666l.002-.007.002-.022.001-.001v-.014l.003-.009v-.02l.002-.003v-.011l.001-.029.001-.006V243.046a.905.905 0 0 0-.505-.812Zm-24.354 12.309a3.892 3.892 0 0 0-1.879-1.087V228.71l23.53 14.12-21.002 12.603a4.14 4.14 0 0 0-.649-.89Zm-28.617 15.854Zm0 0 21.39-12.577a4.256 4.256 0 0 1-.01-.298l.005-.204-21.385-12.574v25.653Zm29.952-13.064.004.189c0 .095-.003.19-.01.283l21.391 12.592v-25.653l-21.385 12.589Zm-1.332 2.117c.233-.242.438-.514.606-.811l21.042 12.616-23.53 14.107V260.54a3.892 3.892 0 0 0 1.882-1.09Zm-4.021 2.154a3.88 3.88 0 0 1-1.905-1.093c-.23-.24-.433-.51-.601-.803l-21.024 12.61 23.53 14.113v-24.827Zm-1.909-7.045c-.249.26-.464.553-.639.874l-20.982-12.597 23.53-14.126v24.752a3.887 3.887 0 0 0-1.909 1.097Zm4.493 1.498a2.137 2.137 0 0 0-1.514-.624 2.134 2.134 0 0 0-2.14 2.137c0 .592.24 1.128.625 1.514.387.385.923.624 1.515.624.591 0 1.128-.238 1.514-.624a2.14 2.14 0 0 0 .625-1.514c0-.591-.24-1.127-.625-1.513Z" fill="#E7E7E7"/><path fill-rule="evenodd" clip-rule="evenodd" d="M136.086 270.234 109.29 254.73l.001-.001-.002-.001-.006-.003-.006-.005-.006-.003-.001-.001-.006-.005-.007-.005-.005-.001-.003-.002-.007-.005-.007-.004h-.001l-.005-.004-.007-.005-.007-.002-.001-.001-.007-.004-.007-.004-.005-.002-.003-.002-.007-.004-.008-.003h-.001l-.006-.004-.007-.003-.005-.002-.002-.001h-.001l-.007-.004-.008-.003-.004-.001-.003-.002-.008-.004-.003-.001-.005-.002h-.001l-.007-.003-.007-.003-.006-.002-.002-.001-.007-.002-.008-.003-.004-.001-.004-.002-.009-.003-.007-.002h-.002l-.006-.003-.008-.002-.006-.002-.002-.001-.009-.001-.008-.003h-.003l-.005-.002-.008-.002-.008-.002h-.001l-.007-.002-.009-.001-.007-.002h-.001l-.009-.002-.008-.002h-.003l-.005-.001-.009-.002-.008-.001h-.001l-.007-.001-.009-.002h-.008l-.009-.001-.004-.001-.008-.001h-.006l-.008-.001-.009-.001-.008-.001h-.009l-.007-.001h-.01l-.009-.001H108.758l-.009.001h-.011l-.006.001h-.009l-.009.001-.009.001-.008.001h-.005l-.009.001-.003.001-.009.001h-.008l-.009.002-.008.001-.009.001-.009.002-.004.001h-.004l-.008.002-.008.002h-.002l-.006.002-.009.001-.008.002-.009.002-.008.002-.004.002h-.004l-.008.003-.008.001-.002.001-.006.002-.009.002-.006.003h-.001l-.008.002-.008.003-.005.002-.003.001-.009.003-.007.002-.002.001-.006.002-.007.003-.007.003h-.001l-.004.002-.004.001-.007.004-.004.002-.003.001-.009.003-.007.004h-.001l-.002.001-.005.002-.007.003-.006.004h-.002l-.007.003-.007.004-.003.002-.005.002-.007.004-.007.004-.001.001-.006.002-.007.005-.006.004h-.001l-.007.004-.007.005-.003.002-.004.001-.008.005-.006.005-.001.001-.006.003-.006.005-.006.003-.001.001-26.796 15.505a.91.91 0 0 0-.493.667l-.002.007-.003.022-.001.001v.013l-.003.009v.02l-.002.003v.012l-.002.029v29.08c0 .357.206.664.505.811l26.796 15.505.002.001.006.004.006.004.006.004.001.001.006.004.007.004.005.003.003.001.007.005.007.003.001.001.002.001.003.003.007.003.007.004.001.001.007.004.007.003.004.003.004.001.007.003.007.004.002.001.006.002.007.004.007.004h.001l.007.003.008.003.004.002.003.001.007.003.008.004.001.001.007.002.007.002.007.003.002.001.007.003.008.002.004.001.004.002.008.003.009.003h.001l.006.001.008.003.006.002h.002l.008.003.009.001.003.001.005.002.008.002.008.002h.001l.007.002.009.001.006.002h.002l.008.002.009.002h.003l.005.001.009.002.008.001h.001l.007.002.009.001h.008l.009.001.009.001.003.001h.006l.008.001.009.001.008.001h.009l.006.001h.011l.009.001H108.81l.009-.001h.011l.006-.001h.009l.008-.001.01-.001.008-.001h.005l.004-.001.008-.001.009-.001h.008l.009-.001.007-.002h.001l.008-.001.009-.002.005-.001h.004l.008-.002.008-.002h.002l.006-.002.009-.001.007-.002h.001l.008-.002.008-.002.005-.002.004-.001.008-.001.008-.003h.002l.006-.002.009-.003.006-.001h.002l.007-.003.008-.003.005-.002.003-.001.009-.002.007-.003.001-.001.007-.003.007-.002.007-.002.001-.001.008-.004.007-.003.004-.001.003-.002.008-.003.007-.003h.002l.007-.004.007-.004.005-.002.002-.001.007-.004.007-.003.004-.001.004-.003.007-.003.008-.004.001-.001.006-.004.007-.003.004-.003.001-.001.001-.001.007-.003.008-.005.002-.001.005-.003.007-.004.006-.004.001-.001.006-.004.007-.004.005-.004.002-.001 26.796-15.505a.908.908 0 0 0 .493-.666l.002-.007.002-.022.001-.001.001-.014.002-.009v-.005l.001-.015.001-.003v-.011l.001-.029.001-.006V271.046a.905.905 0 0 0-.505-.812Zm-24.354 12.309a3.891 3.891 0 0 0-1.879-1.087V256.71l23.53 14.12-21.002 12.603a4.182 4.182 0 0 0-.649-.89Zm-28.617 15.854Zm0 0 21.39-12.577a4.197 4.197 0 0 1-.01-.298l.005-.204-21.385-12.574v25.653Zm29.952-13.064.004.189c0 .095-.003.19-.009.283l21.39 12.592v-25.653l-21.385 12.589Zm-1.332 2.117c.233-.242.438-.514.606-.811l21.042 12.616-23.53 14.107V288.54a3.891 3.891 0 0 0 1.882-1.09Zm-4.021 2.154a3.876 3.876 0 0 1-1.905-1.093 4.14 4.14 0 0 1-.602-.803l-21.023 12.61 23.53 14.113v-24.827Zm-1.909-7.045a4.1 4.1 0 0 0-.639.874l-20.982-12.597 23.53-14.126v24.752a3.885 3.885 0 0 0-1.909 1.097Zm4.493 1.498a2.137 2.137 0 0 0-1.514-.624 2.134 2.134 0 0 0-2.14 2.137c0 .592.24 1.128.625 1.514.387.385.923.624 1.515.624a2.136 2.136 0 0 0 2.139-2.138c0-.591-.239-1.127-.625-1.513Z" fill="#E7E7E7"/></svg>