<svg width="324" height="304" fill="none" xmlns="http://www.w3.org/2000/svg"><path fill-rule="evenodd" clip-rule="evenodd" d="m214.435 287.907 26.796 15.505h-.001l.002.001.005.003.007.005.006.004h.001l.006.005.007.005.005.001.002.002.007.005.008.005h.001l.005.003.007.005.007.003h.001l.007.004.007.005.005.001.003.002.007.004.007.003h.002l.005.004.008.003.005.002.002.001h.001l.007.004.008.003.004.001.003.002.007.004.004.002.005.001.008.003.007.003.006.002.002.001.007.002.008.003.003.001.005.002.008.003.007.002h.002l.007.003.008.002.006.002.002.001.008.001.009.003h.003l.005.002.008.002.008.002h.001l.007.002.009.002.006.001h.002l.008.002.009.002h.003l.005.001.009.002.008.001h.001l.007.002.009.001h.008l.009.001.004.001.008.001h.005l.009.001.009.001.008.001h.009l.006.001h.011l.009.001H241.763l.009-.001h.011l.006-.001h.009l.008-.001.009-.001.009-.001h.005l.008-.001.004-.001.009-.001h.008l.009-.001.007-.002h.001l.008-.001.009-.002.005-.001h.004l.008-.002.008-.002h.002l.006-.001.009-.002.007-.002h.001l.008-.002.009-.002.004-.002h.004l.008-.003.008-.001.002-.001.006-.002.008-.002.007-.003h.001l.008-.002.008-.003.005-.002.003-.001.008-.003.007-.002.002-.001.007-.002.007-.003.007-.003h.001l.003-.001.005-.002.007-.004.004-.002.003-.001.008-.003.008-.004.002-.001.006-.002.007-.003.005-.004h.002l.007-.003.008-.004.003-.002.005-.001.007-.005.007-.004h.001l.006-.003.007-.005.006-.003h.001l.007-.005.007-.005.002-.002.005-.001.007-.005.007-.005.007-.004.006-.005.005-.003.002-.001 26.796-15.505a.907.907 0 0 0 .493-.667l.002-.007.003-.022.001-.001.001-.013.002-.009v-.006l.001-.014v-.015l.002-.029.001-.005v-29.075a.901.901 0 0 0-.506-.811l-26.796-15.505-.001-.001-.006-.004-.006-.004-.006-.004h-.001l-.006-.005-.008-.004-.004-.002-.003-.002-.007-.005-.007-.003-.001-.001-.002-.001-.004-.003-.007-.003-.006-.004-.001-.001-.007-.004-.007-.003-.005-.003-.003-.001-.007-.003-.007-.004-.002-.001-.006-.002-.007-.004-.007-.003h-.001l-.007-.004-.008-.003-.004-.002-.003-.001-.007-.003-.009-.004-.001-.001-.007-.001-.007-.003-.006-.003-.002-.001-.007-.002-.008-.003-.004-.001-.005-.002-.008-.003-.008-.002h-.001l-.006-.002-.008-.003-.007-.002h-.001l-.009-.003-.008-.001-.003-.001-.005-.002-.008-.002-.008-.002h-.001l-.007-.002-.009-.001-.007-.002h-.001l-.009-.002-.008-.002h-.003l-.005-.001-.009-.002-.008-.001h-.001l-.007-.002h-.009l-.007-.001h-.002l-.009-.001-.008-.001-.003-.001h-.006l-.008-.001-.009-.001-.008-.001h-.009l-.007-.001h-.011l-.009-.001H241.711l-.009.001h-.011l-.006.001h-.01l-.008.001-.009.001-.008.001h-.005l-.004.001-.008.001-.009.001h-.002l-.006.001h-.01l-.007.002-.009.001-.009.002-.004.001h-.004l-.008.002-.008.002h-.002l-.006.002-.009.001-.007.002h-.001l-.008.002-.009.002-.004.002-.004.001-.008.001-.008.003h-.002l-.007.002-.008.003-.006.002h-.002l-.007.002-.008.003-.005.002-.004.001-.008.003-.007.002-.002.001-.006.003-.007.003-.007.001-.001.001-.008.004-.007.003-.004.001-.003.002-.009.003-.007.004h-.001l-.007.003-.007.004-.005.002-.002.001-.007.004-.007.003-.004.001-.005.003-.007.003-.007.004-.001.001-.006.004-.007.003-.004.003-.002.001-.001.001-.007.003-.007.005-.003.002-.004.002-.007.004-.006.005h-.001l-.007.004-.006.004-.005.004-.002.001-26.796 15.505a.908.908 0 0 0-.493.666l-.002.008-.003.021v.001l-.001.014-.002.009v.005l-.001.015-.001.003v.011l-.002.03-.001.005V287.095c0 .357.207.664.506.812Zm24.354-12.309a3.891 3.891 0 0 0 1.879 1.087v24.746l-23.53-14.12 21.002-12.603c.177.327.395.626.649.89Zm28.617-15.854Zm0 0-21.391 12.577c.007.099.011.198.011.298l-.006.204 21.386 12.574v-25.653Zm-29.952 13.065-.005-.19c0-.095.004-.189.01-.283l-21.391-12.592v25.653l21.386-12.589v.001Zm1.331-2.118a4.07 4.07 0 0 0-.605.811l-21.042-12.616 23.53-14.107v24.822a3.894 3.894 0 0 0-1.883 1.09Zm4.022-2.154a3.88 3.88 0 0 1 1.905 1.093c.231.24.433.51.601.803l21.024-12.61-23.53-14.113v24.827Zm1.908 7.045a4.04 4.04 0 0 0 .639-.874l20.983 12.597-23.53 14.126V276.68a3.896 3.896 0 0 0 1.908-1.098Zm-4.492-1.498c.386.386.922.624 1.514.624s1.128-.239 1.515-.624c.385-.386.624-.922.624-1.513 0-.592-.239-1.128-.624-1.514a2.142 2.142 0 0 0-1.515-.624 2.134 2.134 0 0 0-2.139 2.138c0 .591.239 1.127.625 1.513Z" fill="#E7E7E7"/><path fill-rule="evenodd" clip-rule="evenodd" d="m160.958 287.907 26.796 15.505h-.001l.002.001.006.003.006.005.006.004h.001l.006.005.007.005.005.001.003.002.007.005.007.005h.001l.005.003.007.005.007.003h.001l.007.004.007.005.005.001.003.002.007.004.008.003h.001l.006.004.007.003.005.002.002.001h.001l.007.004.008.003.004.001.003.002.008.004.003.002.005.001h.001l.007.003.007.003.006.002.002.001.007.002.008.003.004.001.004.002.009.003.007.002h.002l.006.003.008.002.006.002.002.001.009.001.008.003h.003l.005.002.008.002.008.002h.001l.007.002.009.002.007.001h.001l.008.002.009.002h.003l.005.001.009.002.008.001h.001l.007.002.009.001h.008l.009.001.004.001.008.001h.006l.008.001.009.001.008.001h.009l.006.001h.011l.009.001H188.286l.009-.001h.011l.006-.001h.009l.009-.001.009-.001.008-.001h.005l.008-.001.004-.001.009-.001h.008l.009-.001.007-.002h.001l.008-.001.01-.002.004-.001h.004l.008-.002.008-.002h.002l.006-.001.009-.002.008-.002.009-.002.008-.002.004-.002h.004l.008-.003.008-.001.002-.001.006-.002.009-.002.006-.003h.001l.008-.002.008-.003.005-.002.003-.001.009-.003.007-.002.002-.001.006-.002.007-.003.007-.003h.001l.004-.001.004-.002.007-.004.004-.002.003-.001.009-.003.007-.004h.001l.001-.001.006-.002.007-.003.006-.004h.001l.008-.003.007-.004.003-.002.005-.001.007-.005.007-.004h.001l.006-.003.007-.005.006-.003h.001l.007-.005.007-.005.003-.002.004-.001.007-.005.007-.005h.001l.006-.004.006-.005.006-.003.001-.001 26.796-15.505a.907.907 0 0 0 .493-.667l.002-.007.003-.022.001-.001.001-.013.002-.009v-.006l.001-.014.001-.003v-.012l.002-.029v-29.08a.902.902 0 0 0-.505-.811l-26.796-15.505-.002-.001-.006-.004-.006-.004-.006-.004h-.001l-.006-.005-.007-.004-.005-.002-.003-.002-.007-.005-.007-.003-.001-.001-.002-.001-.003-.003-.007-.003-.007-.004-.001-.001-.007-.004-.007-.003-.004-.003-.004-.001-.007-.003-.007-.004-.002-.001-.006-.002-.007-.004-.007-.003h-.001l-.007-.004-.008-.003-.004-.002-.003-.001-.007-.003-.008-.004-.001-.001-.007-.001-.008-.003-.006-.003-.002-.001-.007-.002-.008-.003-.004-.001-.004-.002-.009-.003-.008-.002h-.001l-.006-.002-.008-.003-.006-.002h-.002l-.009-.003-.008-.001-.003-.001-.005-.002-.008-.002-.008-.002h-.001l-.007-.002-.009-.001-.006-.002h-.002l-.008-.002-.009-.002h-.003l-.005-.001-.009-.002-.008-.001h-.001l-.007-.002h-.009l-.006-.001h-.002l-.009-.001-.009-.001-.003-.001h-.006l-.008-.001-.009-.001-.008-.001h-.009l-.006-.001h-.011l-.009-.001H188.234l-.009.001h-.011l-.006.001h-.009l-.009.001-.009.001-.008.001h-.005l-.004.001-.008.001-.009.001h-.002l-.006.001h-.009l-.007.002h-.001l-.008.001-.01.002-.004.001h-.004l-.008.002-.008.002h-.002l-.006.002-.009.001-.007.002h-.001l-.008.002-.009.002-.004.002-.004.001-.008.001-.008.003h-.002l-.006.002-.009.003-.006.002h-.002l-.007.002-.008.003-.005.002-.003.001-.009.003-.007.002-.001.001-.007.003-.007.003-.007.001-.001.001-.008.004-.007.003-.004.001-.003.002-.008.003-.007.004h-.002l-.007.003-.007.004-.005.002-.002.001-.007.004-.007.003-.004.001-.004.003-.007.003-.008.004-.001.001-.006.004-.007.003-.004.003-.001.001-.001.001-.008.003-.007.005-.002.002-.005.002-.007.004-.006.005h-.001l-.006.004-.007.004-.005.004-.002.001-26.796 15.505a.908.908 0 0 0-.493.666l-.002.008-.002.021-.001.001-.001.014-.002.009v.005l-.001.015-.001.003v.011l-.001.03-.002.005V287.095c0 .357.207.664.506.812Zm24.354-12.309a3.891 3.891 0 0 0 1.879 1.087v24.746l-23.53-14.12 21.002-12.603c.178.327.396.626.649.89Zm28.617-15.854Zm0 0-21.39 12.577c.006.099.01.198.01.298l-.005.204 21.385 12.574v-25.653Zm-29.952 13.065-.004-.19c0-.095.003-.189.009-.283l-21.39-12.592v25.653l21.385-12.589v.001Zm1.332-2.118a4.036 4.036 0 0 0-.606.811l-21.042-12.616 23.53-14.107v24.822a3.891 3.891 0 0 0-1.882 1.09Zm4.021-2.154a3.876 3.876 0 0 1 1.905 1.093c.231.24.433.51.601.803l21.024-12.61-23.53-14.113v24.827Zm1.909 7.045c.249-.259.464-.553.638-.874l20.983 12.597-23.53 14.126V276.68a3.9 3.9 0 0 0 1.909-1.098Zm-4.493-1.498c.386.386.923.624 1.514.624a2.133 2.133 0 0 0 2.139-2.137c0-.592-.239-1.128-.624-1.514a2.142 2.142 0 0 0-1.515-.624 2.136 2.136 0 0 0-2.139 2.138c0 .591.239 1.127.625 1.513Z" fill="#E7E7E7"/><path fill-rule="evenodd" clip-rule="evenodd" d="m107.481 287.907 26.796 15.505.001.001.006.003.006.005.006.004h.001l.006.005.008.005.004.001.003.002.007.005.007.005h.001l.006.003.007.005.006.003h.001l.007.004.007.005.005.001.003.002.008.004.007.003h.001l.006.004.007.003.005.002.002.001h.001l.007.004.009.003.003.001.004.002.007.004.003.002.005.001h.001l.007.003.007.003.006.002.002.001.007.002.008.003.004.001.005.002.008.003.007.002h.002l.006.003.008.002.007.002.001.001.009.001.008.003h.003l.005.002.008.002.009.002.007.002.01.002.006.001h.001l.009.002.008.002h.003l.005.001.009.002.008.001h.001l.007.002.009.001H134.67l.009.001.003.001.008.001h.006l.008.001.009.001.008.001h.009l.007.001h.011l.009.001H134.809l.009-.001h.011l.006-.001h.01l.008-.001.009-.001.008-.001h.005l.009-.001.003-.001.009-.001h.008l.01-.001.007-.002.009-.001.009-.002.004-.001h.004l.008-.002.008-.002h.002l.007-.001.009-.002.007-.002h.001l.008-.002.008-.002.004-.002h.004l.008-.003.008-.001.002-.001.007-.002.008-.002.006-.003h.001l.008-.002.008-.003.005-.002.004-.001.008-.003.007-.002.002-.001.006-.002.007-.003.007-.003h.001l.004-.001.004-.002.007-.004.004-.002.004-.001.008-.003.007-.004h.001l.002-.001.005-.002.007-.003.006-.004h.002l.007-.003.007-.004.003-.002.005-.001.007-.005.007-.004h.001l.006-.003.008-.005.005-.003h.001l.007-.005.007-.005.003-.002.005-.001.007-.005.006-.005h.001l.006-.004.006-.005.006-.003.001-.001 26.797-15.505a.912.912 0 0 0 .493-.667l.002-.007.002-.022.001-.001.001-.013.002-.009v-.006l.001-.014.001-.003v-.012l.002-.029.001-.005v-29.075a.903.903 0 0 0-.506-.811l-26.796-15.505-.002-.001-.005-.004-.007-.004-.006-.004h-.001l-.006-.005-.007-.004-.005-.002-.003-.002-.007-.005-.007-.003-.001-.001-.002-.001-.003-.003-.007-.003-.007-.004v-.001l-.007-.004-.008-.003-.004-.003-.004-.001-.007-.003-.007-.004-.002-.001-.005-.002-.008-.004-.007-.003h-.001l-.007-.004-.008-.003-.003-.002-.004-.001-.007-.003-.008-.004-.001-.001-.007-.001-.007-.003-.007-.003-.002-.001-.007-.002-.008-.003-.003-.001-.005-.002-.008-.003-.009-.002-.007-.002-.008-.003-.006-.002h-.002l-.008-.003-.009-.001-.003-.001-.004-.002-.009-.002-.008-.002h-.001l-.007-.002-.009-.001-.006-.002h-.002l-.008-.002-.009-.002h-.003l-.005-.001-.009-.002-.008-.001h-.001l-.007-.002h-.009l-.006-.001h-.002l-.009-.001-.008-.001-.004-.001h-.005l-.009-.001-.009-.001-.008-.001h-.009l-.006-.001h-.011l-.009-.001H134.757l-.009.001h-.011l-.006.001h-.009l-.008.001-.009.001-.009.001h-.005l-.004.001-.008.001-.009.001h-.002l-.006.001h-.009l-.007.002h-.001l-.008.001-.009.002-.005.001h-.004l-.008.002-.008.002h-.002l-.006.002-.009.001-.007.002h-.001l-.008.002-.008.002-.005.002-.004.001-.008.001-.008.003h-.002l-.006.002-.008.003-.007.002h-.002l-.007.002-.008.003-.005.002-.003.001-.008.003-.007.002-.002.001-.006.003-.008.003-.007.001v.001l-.009.004-.007.003-.003.001-.004.002-.008.003-.007.004h-.001l-.007.003-.008.004-.005.002-.002.001-.007.004-.007.003-.004.001-.004.003-.007.003-.007.004-.002.001-.006.004-.007.003-.003.003-.002.001-.001.001-.007.003-.007.005-.003.002-.005.002-.007.004-.006.005h-.001l-.006.004-.006.004-.006.004-.002.001-26.796 15.505a.908.908 0 0 0-.493.666l-.001.008-.003.021-.001.001-.001.014-.002.009v.005l-.001.015-.001.003v.011l-.001.03-.001.005V287.095c0 .357.206.664.505.812Zm24.354-12.309a3.891 3.891 0 0 0 1.879 1.087v24.746l-23.53-14.12 21.003-12.603c.177.327.395.626.648.89Zm28.617-15.854Zm0 0-21.39 12.577c.007.099.01.198.01.298l-.005.204 21.385 12.574v-25.653ZM130.5 272.809l-.004-.19c0-.095.003-.189.009-.283l-21.39-12.592v25.653l21.385-12.589v.001Zm1.332-2.118a4.074 4.074 0 0 0-.606.811l-21.042-12.616 23.53-14.107v24.822a3.891 3.891 0 0 0-1.882 1.09Zm4.021-2.154a3.876 3.876 0 0 1 1.905 1.093c.231.24.433.51.602.803l21.023-12.61-23.53-14.113v24.827Zm1.909 7.045c.249-.259.464-.553.639-.874l20.982 12.597-23.53 14.126V276.68a3.895 3.895 0 0 0 1.909-1.098Zm-4.493-1.498c.387.386.923.624 1.514.624a2.134 2.134 0 0 0 2.14-2.137c0-.592-.24-1.128-.625-1.514a2.142 2.142 0 0 0-1.515-.624c-.591 0-1.128.238-1.514.624a2.14 2.14 0 0 0-.624 1.514c0 .591.238 1.127.624 1.513Z" fill="#E7E7E7"/><path fill-rule="evenodd" clip-rule="evenodd" d="M54.005 287.907 80.8 303.412H80.8l.002.001.005.003.006.005.007.004.007.005.007.005.004.001.003.002.007.005.007.005h.001l.006.003.007.005.006.003h.001l.007.004.008.005.004.001.004.002.007.004.007.003h.002l.005.004.007.003.006.002.001.001h.001l.007.004.009.003.003.001.004.002.007.004.004.002.004.001h.001l.007.003.007.003.007.002.001.001.007.002.008.003.004.001.005.002.008.003.007.002h.002l.006.003.008.002.007.002.002.001.008.001.008.003h.004l.004.002.008.002.009.002.008.002.009.002.006.001h.002l.008.002.008.002h.004l.004.001.01.002.008.001.007.002.01.001h.008l.009.001.003.001.009.001h.005l.008.001.01.001.008.001h.008l.007.001h.011l.009.001H81.332l.01-.001h.01l.007-.001h.009l.008-.001.009-.001.008-.001h.006l.008-.001.003-.001.01-.001h.008l.009-.001.007-.002.009-.001.009-.002.005-.001h.003l.008-.002.009-.002h.002l.006-.001.009-.002.007-.002.009-.002.008-.002.005-.002h.003l.008-.003.008-.001.002-.001.007-.002.008-.002.006-.003h.001l.008-.002.008-.003.005-.002.004-.001.008-.003.007-.002.002-.001.006-.002.007-.003.007-.003h.001l.004-.001.005-.002.007-.004.003-.002.004-.001.008-.003.007-.004h.001l.002-.001.005-.002.007-.003.006-.004h.002l.007-.003.007-.004.004-.002.004-.001.007-.005.008-.004.007-.003.007-.005.005-.003h.001l.007-.005.007-.005.003-.002.005-.001.007-.005.006-.005h.001l.006-.004.007-.005.005-.003.002-.001 26.796-15.505a.91.91 0 0 0 .493-.667l.002-.007.003-.022v-.001l.001-.013.002-.009v-.006l.001-.014.001-.003v-.012l.002-.029.001-.005v-29.075a.903.903 0 0 0-.506-.811l-26.796-15.505-.002-.001-.005-.004-.007-.004-.006-.004-.007-.005-.007-.004-.005-.002-.002-.002-.008-.005-.007-.003v-.001l-.002-.001-.004-.003-.007-.003-.006-.004-.001-.001-.007-.004-.007-.003-.005-.003-.004-.001-.007-.003-.007-.004-.002-.001-.005-.002-.007-.004-.008-.003-.007-.004-.009-.003-.003-.002-.004-.001-.007-.003-.008-.004v-.001l-.008-.001-.007-.003-.007-.003-.001-.001-.008-.002-.008-.003-.003-.001-.005-.002-.008-.003-.008-.002h-.001l-.006-.002-.009-.003-.006-.002h-.002l-.008-.003-.008-.001-.004-.001-.004-.002-.008-.002-.009-.002-.008-.002-.009-.001-.006-.002h-.002l-.008-.002-.008-.002h-.004l-.004-.001-.01-.002-.008-.001-.008-.002h-.009l-.006-.001h-.002l-.009-.001-.008-.001-.004-.001h-.005l-.009-.001-.009-.001-.008-.001h-.009l-.006-.001h-.011l-.01-.001H81.28l-.009.001h-.011l-.006.001h-.009l-.008.001-.01.001-.007.001h-.006l-.003.001-.009.001-.009.001h-.002l-.006.001h-.009l-.007.002-.01.001-.008.002-.005.001h-.003l-.009.002-.008.002h-.001l-.007.002-.009.001-.007.002-.009.002-.008.002-.005.002-.003.001-.009.001-.008.003h-.002l-.006.002-.008.003-.007.002h-.001l-.008.002-.008.003-.004.002-.004.001-.008.003-.007.002-.002.001-.006.003-.007.003-.007.001-.001.001-.008.004-.008.003-.003.001-.004.002-.008.003-.007.004h-.001l-.007.003-.007.004-.006.002-.002.001-.007.004-.007.003-.003.001-.005.003-.007.003-.007.004-.001.001-.007.004-.007.003-.003.003-.002.001-.001.001-.007.003-.007.005-.003.002-.004.002-.007.004-.007.005-.007.004-.006.004-.006.004-.001.001-26.796 15.505a.908.908 0 0 0-.494.666l-.001.008-.003.021v.001l-.002.014-.002.009v.02l-.001.003v.011l-.002.03-.001.005V287.095c0 .357.206.664.506.812Zm24.353-12.309c.51.528 1.156.911 1.88 1.087v24.746l-23.53-14.12 21.002-12.603c.177.327.395.626.648.89Zm28.617-15.854h.001-.001Zm0 0-21.39 12.577c.007.099.01.198.01.298l-.005.204 21.385 12.574v-25.653Zm-29.951 13.065-.005-.19c0-.095.003-.189.01-.283l-21.391-12.592v25.653l21.385-12.589v.001Zm1.33-2.118a4.075 4.075 0 0 0-.605.811l-21.041-12.616 23.53-14.107v24.822a3.892 3.892 0 0 0-1.883 1.09Zm4.022-2.154a3.88 3.88 0 0 1 1.906 1.093c.23.24.432.51.6.803l21.024-12.61-23.53-14.113v24.827Zm1.909 7.045c.249-.259.465-.553.639-.874l20.982 12.597-23.53 14.126V276.68a3.896 3.896 0 0 0 1.909-1.098Zm-4.493-1.498c.387.386.923.624 1.515.624a2.134 2.134 0 0 0 2.14-2.137c-.001-.592-.24-1.128-.626-1.514a2.141 2.141 0 0 0-1.514-.624c-.592 0-1.128.238-1.515.624a2.14 2.14 0 0 0-.624 1.514c0 .591.238 1.127.624 1.513ZM267.912 226.979l26.796 15.505h-.001l.002.001.005.004.006.004.007.004.001.001.006.004.007.005.004.002.003.001.007.005.007.005h.001l.006.003.007.005.006.003.001.001.008.003.007.005.004.002.004.001.007.004.007.004h.002l.005.003.007.004.006.002h.003l.007.004.008.004h.003l.004.002.007.004.004.002.004.001.001.001.007.002.007.003.007.002.001.001.007.003.009.002.003.002.005.001.008.003.007.003h.002l.006.002.009.002.006.002.002.001.008.002.008.002h.004l.005.002.008.002.008.002h.001l.007.002.009.002.006.002h.002l.008.001.008.002h.004l.005.001.009.002.008.001h.001l.007.002.009.001.006.001h.002l.009.001.004.001H295.126l.008.002h.01l.008.001h.009l.006.001h.011l.009.001H295.24l.009-.001h.011l.006-.001h.009l.008-.001h.009l.008-.002h.014l.004-.001.009-.001h.002l.006-.001.009-.001.007-.002h.001l.008-.001.009-.002.005-.001h.003l.009-.002.008-.001h.002l.006-.002.009-.002.007-.002h.001l.008-.002.008-.002.005-.002h.003l.009-.002.008-.002.002-.001.006-.002.008-.002.007-.002.009-.003.008-.003.004-.001.004-.002.008-.002.007-.003.002-.001.007-.002.007-.003.007-.002.001-.001.003-.001.005-.002.007-.004.003-.002h.004l.008-.004.007-.004h.003l.006-.002.007-.004.005-.003h.002l.007-.004.007-.004.004-.001.005-.002.007-.005.007-.003.001-.001.006-.003.007-.005.005-.003h.001l.007-.005.008-.005.002-.001.005-.002.007-.005.006-.004.001-.001.006-.004.007-.004.005-.004.002-.001 26.796-15.505a.908.908 0 0 0 .493-.667l.002-.007.003-.021.001-.001v-.014l.002-.009v-.006l.001-.014.001-.003v-.012l.002-.029.001-.005v-29.075a.901.901 0 0 0-.506-.811L295.72 180.8l-.001-.001-.006-.003-.006-.005-.007-.003v-.001l-.007-.005-.007-.003-.004-.003-.003-.002-.007-.004-.007-.004-.001-.001-.002-.001-.004-.002-.007-.004-.006-.004-.001-.001-.007-.003-.007-.004-.005-.003h-.003l-.008-.004-.007-.004h-.002l-.005-.003-.007-.004-.007-.003h-.001l-.007-.004-.008-.003-.004-.001-.004-.002-.007-.003-.008-.003-.001-.001-.007-.002-.007-.003-.006-.003h-.002l-.007-.003-.008-.003-.004-.001-.005-.002-.008-.002-.008-.003h-.001l-.006-.002-.008-.003-.007-.002h-.002l-.008-.002-.008-.002-.004-.001-.004-.002-.008-.002-.008-.001h-.001l-.007-.002-.009-.002-.007-.002h-.002l-.008-.002-.008-.002h-.004l-.004-.001-.009-.002h-.009l-.008-.002-.009-.001-.006-.001h-.002l-.009-.001-.008-.001-.004-.001h-.005l-.008-.001-.009-.001-.009-.001h-.009l-.006-.001h-.092l-.007.001h-.009l-.008.001-.009.001-.008.001h-.006l-.003.001-.008.001-.009.001h-.002l-.007.001-.009.001-.007.002H295.067l-.009.002-.005.001h-.003l-.008.002-.009.002h-.001l-.006.002-.01.002-.007.002-.009.001-.008.002-.005.002-.003.001-.008.002-.009.002h-.001l-.007.002-.008.003-.006.002h-.002l-.007.003-.009.002-.004.002-.004.001-.008.003-.007.003h-.002l-.006.003-.007.003-.007.002-.001.001-.008.003-.007.003-.004.002-.004.001-.008.003-.007.004h-.001l-.007.003-.007.004-.006.003h-.001l-.007.004-.008.004h-.003l-.005.003-.007.004-.007.003-.001.001-.006.004-.008.004-.003.002-.002.001-.001.001-.007.004-.007.004-.003.002-.004.003-.007.003-.007.005v.001l-.007.003-.006.005-.005.003-.002.001-26.796 15.505a.905.905 0 0 0-.493.667l-.002.007-.003.022h-.001v.014l-.002.009v.006l-.001.014-.001.003v.012l-.002.029-.001.005v29.074c0 .357.207.665.506.812Zm24.354-12.308a3.89 3.89 0 0 0 1.878 1.086v24.746l-23.529-14.119 21.002-12.603c.177.326.395.625.649.89Zm28.617-15.855Zm0 0-21.391 12.577c.007.099.011.198.011.298l-.006.204 21.386 12.575v-25.654Zm-29.952 13.065-.005-.19c0-.094.004-.189.01-.282l-21.391-12.593v25.654l21.386-12.589Zm1.331-2.118a4.07 4.07 0 0 0-.605.811l-21.042-12.616 23.529-14.107v24.823a3.886 3.886 0 0 0-1.882 1.089Zm4.022-2.153a3.887 3.887 0 0 1 1.905 1.092c.23.24.433.51.601.803l21.023-12.609-23.529-14.114v24.828Zm1.908 7.045a4.09 4.09 0 0 0 .639-.874l20.982 12.596-23.529 14.126v-24.751a3.894 3.894 0 0 0 1.908-1.097Zm-4.493-1.499c.387.386.923.625 1.515.625a2.134 2.134 0 0 0 2.139-2.138c0-.591-.239-1.127-.625-1.514a2.142 2.142 0 0 0-1.514-.624c-.592 0-1.128.239-1.515.624a2.146 2.146 0 0 0 0 3.027ZM160.958 226.979l26.796 15.505h-.001l.002.001.006.004.006.004.006.004.001.001.006.004.007.005.005.002.003.001.007.005.007.005h.001l.005.003.007.005.007.003.001.001.007.003.007.005.005.002.003.001.007.004.008.004h.001l.006.003.007.004.005.002h.003l.007.004.008.004h.004l.003.002.008.004.003.002.005.001.001.001.007.002.007.003.006.002.002.001.007.003.008.002.004.002.004.001.009.003.007.003h.002l.006.002.008.002.006.002.002.001.009.002.008.002h.003l.005.002.008.002.008.002h.001l.007.002.009.002.007.002h.001l.008.001.009.002h.003l.005.001.009.002.008.001h.001l.007.002.009.001.006.001h.002l.009.001.004.001h.014l.008.002h.009l.008.001h.009l.006.001h.011l.009.001H188.286l.009-.001h.011l.006-.001h.009l.009-.001h.009l.008-.002H188.36l.004-.001.009-.001h.002l.006-.001.009-.001.007-.002h.001l.008-.001.01-.002.004-.001h.004l.008-.002.008-.001h.002l.006-.002.009-.002.008-.002.009-.002.008-.002.004-.002h.004l.008-.002.008-.002.002-.001.006-.002.009-.002.006-.002h.001l.008-.003.008-.003.005-.001.003-.002.009-.002.007-.003.002-.001.006-.002.007-.003.007-.002.001-.001.004-.001.004-.002.007-.004.004-.002h.003l.009-.004.007-.004h.002l.006-.002.007-.004.006-.003h.001l.008-.004.007-.004.003-.001.005-.002.007-.005.007-.003.001-.001.006-.003.007-.005.006-.003h.001l.007-.005.007-.005.003-.001.004-.002.007-.005.007-.004.001-.001.006-.004.006-.004.006-.004.001-.001 26.796-15.505a.905.905 0 0 0 .493-.667l.002-.007.003-.021.001-.001.001-.014.002-.009v-.006l.001-.014.001-.003v-.012l.002-.029v-29.08a.902.902 0 0 0-.505-.811L188.767 180.8l-.002-.001-.006-.003-.006-.005-.006-.003-.001-.001-.006-.005-.007-.003-.005-.003-.003-.002-.007-.004-.007-.004-.001-.001-.002-.001-.003-.002-.007-.004-.007-.004-.001-.001-.007-.003-.007-.004-.004-.003h-.004l-.007-.004-.007-.004h-.002l-.006-.003-.007-.004-.007-.003h-.001l-.007-.004-.008-.003-.004-.001-.003-.002-.007-.003-.008-.003-.001-.001-.007-.002-.008-.003-.006-.003h-.002l-.007-.003-.008-.003-.004-.001-.004-.002-.009-.002-.008-.003h-.001l-.006-.002-.008-.003-.006-.002h-.002l-.009-.002-.008-.002-.003-.001-.005-.002-.008-.002-.008-.001h-.001l-.007-.002-.009-.002-.006-.002h-.002l-.008-.002-.009-.002h-.003l-.005-.001-.009-.002H188.398l-.007-.002-.009-.001-.006-.001h-.002l-.009-.001-.009-.001-.003-.001h-.006l-.008-.001-.009-.001-.008-.001h-.009l-.006-.001h-.093l-.006.001h-.009l-.009.001-.009.001-.008.001h-.005l-.004.001-.008.001-.009.001h-.002l-.006.001-.009.001-.007.002H188.114l-.01.002-.004.001h-.004l-.008.002-.008.002h-.002l-.006.002-.009.002-.007.002h-.001l-.008.001-.009.002-.004.002-.004.001-.008.002-.008.002h-.002l-.006.002-.009.003-.006.002h-.002l-.007.003-.008.002-.005.002-.003.001-.009.003-.007.003h-.001l-.007.003-.007.003-.007.002-.001.001-.008.003-.007.003-.004.002-.003.001-.008.003-.007.004h-.002l-.007.003-.007.004-.005.003h-.002l-.007.004-.007.004h-.004l-.004.003-.007.004-.008.003-.001.001-.006.004-.007.004-.004.002-.001.001-.001.001-.008.004-.007.004-.002.002-.005.003-.007.003-.006.005-.001.001-.006.003-.007.005-.005.003-.002.001-26.796 15.505a.908.908 0 0 0-.493.667l-.002.007-.002.022h-.001l-.001.014-.002.009v.006l-.001.014-.001.003v.012l-.001.029-.002.005v29.074c0 .357.207.665.506.812Zm24.354-12.308a3.89 3.89 0 0 0 1.879 1.086v24.746l-23.53-14.119 21.002-12.603c.178.326.396.625.649.89Zm28.617-15.855Zm0 0-21.39 12.577c.006.099.01.198.01.298l-.005.204 21.385 12.575v-25.654Zm-29.952 13.065-.004-.19c0-.094.003-.189.009-.282l-21.39-12.593v25.654l21.385-12.589Zm1.332-2.118a4.036 4.036 0 0 0-.606.811l-21.042-12.616 23.53-14.107v24.823a3.881 3.881 0 0 0-1.882 1.089Zm4.021-2.153a3.882 3.882 0 0 1 1.905 1.092c.231.24.433.51.601.803l21.024-12.609-23.53-14.114v24.828Zm1.909 7.045c.249-.26.464-.554.638-.874l20.983 12.596-23.53 14.126v-24.751a3.897 3.897 0 0 0 1.909-1.097Zm-4.493-1.499c.386.386.923.625 1.514.625a2.133 2.133 0 0 0 2.139-2.138c0-.591-.239-1.127-.624-1.514a2.146 2.146 0 0 0-3.029 0 2.143 2.143 0 0 0 0 3.027Z" fill="#E7E7E7"/><path fill-rule="evenodd" clip-rule="evenodd" d="m107.481 226.979 26.796 15.505.001.001.006.004.006.004.006.004.001.001.006.004.008.005.004.002.003.001.007.005.007.005h.001l.006.003.007.005.006.003.001.001.007.003.007.005.005.002.003.001.008.004.007.004h.001l.006.003.007.004.005.002h.003l.007.004.009.004h.003l.004.002.007.004.003.002.005.001.001.001.007.002.007.003.006.002.002.001.007.003.008.002.004.002.005.001.008.003.007.003h.002l.006.002.008.002.007.002.001.001.009.002.008.002h.003l.005.002.008.002.009.002.007.002.01.002.006.002h.001l.009.001.008.002h.003l.005.001.009.002.008.001h.001l.007.002.009.001.007.001h.002l.009.001.003.001h.014l.008.002h.009l.008.001h.009l.007.001h.011l.009.001H134.809l.009-.001h.011l.006-.001h.01l.008-.001h.009l.008-.002H134.884l.003-.001.009-.001h.002l.006-.001.01-.001.007-.002.009-.001.009-.002.004-.001h.004l.008-.002.008-.001h.002l.007-.002.009-.002.007-.002h.001l.008-.002.008-.002.004-.002h.004l.008-.002.008-.002.002-.001.007-.002.008-.002.006-.002h.001l.008-.003.008-.003.005-.001.004-.002.008-.002.007-.003.002-.001.006-.002.007-.003.007-.002.001-.001.004-.001.004-.002.007-.004.004-.002h.004l.008-.004.007-.004h.003l.005-.002.007-.004.006-.003h.002l.007-.004.007-.004.003-.001.005-.002.007-.005.007-.003.001-.001.006-.003.008-.005.005-.003h.001l.007-.005.007-.005.003-.001.005-.002.007-.005.006-.004.001-.001.006-.004.006-.004.006-.004.001-.001 26.797-15.505a.91.91 0 0 0 .493-.667l.002-.007.002-.021.001-.001.001-.014.002-.009v-.006l.001-.014.001-.003v-.012l.002-.029.001-.005v-29.075a.903.903 0 0 0-.506-.811L135.29 180.8l-.002-.001-.005-.003-.007-.005-.006-.003-.001-.001-.006-.005-.007-.003-.005-.003-.003-.002-.007-.004-.007-.004-.001-.001-.002-.001-.003-.002-.007-.004-.007-.004v-.001l-.007-.003-.008-.004-.004-.003h-.004l-.007-.004-.007-.004h-.002l-.005-.003-.008-.004-.007-.003h-.001l-.007-.004-.008-.003-.003-.001-.004-.002-.007-.003-.008-.003-.001-.001-.007-.002-.007-.003-.007-.003h-.002l-.007-.003-.008-.003-.003-.001-.005-.002-.008-.002-.009-.003-.007-.002-.008-.003-.006-.002h-.002l-.008-.002-.009-.002-.003-.001-.004-.002-.009-.002-.008-.001h-.001l-.007-.002-.009-.002-.006-.002h-.002l-.008-.002-.009-.002h-.003l-.005-.001-.009-.002H134.921l-.007-.002-.009-.001-.006-.001h-.002l-.009-.001-.008-.001-.004-.001h-.005l-.009-.001-.009-.001-.008-.001h-.009l-.006-.001h-.093l-.006.001h-.009l-.008.001-.009.001-.009.001h-.005l-.004.001-.008.001-.009.001h-.002l-.006.001-.009.001-.007.002H134.637l-.009.002-.005.001h-.004l-.008.002-.008.002h-.002l-.006.002-.009.002-.007.002h-.001l-.008.001-.008.002-.005.002-.004.001-.008.002-.008.002h-.002l-.006.002-.008.003-.007.002h-.002l-.007.003-.008.002-.005.002-.003.001-.008.003-.007.003h-.002l-.006.003-.008.003-.007.002v.001l-.009.003-.007.003-.003.002-.004.001-.008.003-.007.004h-.001l-.007.003-.008.004-.005.003h-.002l-.007.004-.007.004h-.004l-.004.003-.007.004-.007.003-.002.001-.006.004-.007.004-.003.002-.002.001-.001.001-.007.004-.007.004-.003.002-.005.003-.007.003-.006.005-.001.001-.006.003-.006.005-.006.003-.002.001-26.796 15.505a.908.908 0 0 0-.493.667l-.001.007-.003.022h-.001l-.001.014-.002.009v.006l-.001.014-.001.003v.012l-.001.029-.001.005v29.074c0 .357.206.665.505.812Zm24.354-12.308a3.89 3.89 0 0 0 1.879 1.086v24.746l-23.53-14.119 21.003-12.603c.177.326.395.625.648.89Zm28.617-15.855Zm0 0-21.39 12.577c.007.099.01.198.01.298l-.005.204 21.385 12.575v-25.654ZM130.5 211.881l-.004-.19c0-.094.003-.189.009-.282l-21.39-12.593v25.654l21.385-12.589Zm1.332-2.118a4.074 4.074 0 0 0-.606.811l-21.042-12.616 23.53-14.107v24.823a3.881 3.881 0 0 0-1.882 1.089Zm4.021-2.153a3.882 3.882 0 0 1 1.905 1.092c.231.24.433.51.602.803l21.023-12.609-23.53-14.114v24.828Zm1.909 7.045c.249-.26.464-.554.639-.874l20.982 12.596-23.53 14.126v-24.751a3.893 3.893 0 0 0 1.909-1.097Zm-4.493-1.499c.387.386.923.625 1.514.625a2.134 2.134 0 0 0 2.14-2.138c0-.591-.24-1.127-.625-1.514a2.146 2.146 0 0 0-3.029 0 2.142 2.142 0 0 0-.624 1.514c0 .591.238 1.127.624 1.513Z" fill="#E7E7E7"/><path fill-rule="evenodd" clip-rule="evenodd" d="M54.005 226.979 80.8 242.484H80.8l.002.001.005.004.006.004.007.004v.001l.007.004.007.005.004.002.003.001.007.005.007.005h.001l.006.003.007.005.006.003.001.001.007.003.008.005.004.002.004.001.007.004.007.004h.002l.005.003.007.004.006.002h.002l.007.004.009.004h.003l.004.002.007.004.004.002.004.001.001.001.007.002.007.003.007.002.001.001.007.003.008.002.004.002.005.001.008.003.007.003h.002l.006.002.008.002.007.002.002.001.008.002.008.002h.004l.004.002.008.002.009.002.008.002.009.002.006.002h.002l.008.001.008.002h.004l.004.001.01.002.008.001.007.002.01.001.006.001h.002l.009.001.003.001H81.22l.008.002h.01l.008.001h.008l.007.001h.011l.009.001H81.332l.01-.001h.01l.007-.001h.009l.008-.001h.009l.008-.002h.014l.003-.001.01-.001h.001l.007-.001.009-.001.007-.002.009-.001.009-.002.005-.001h.003l.008-.002.009-.001h.002l.006-.002.009-.002.007-.002.009-.002.008-.002.005-.002h.003l.008-.002.008-.002.002-.001.007-.002.008-.002.006-.002h.001l.008-.003.008-.003.005-.001.004-.002.008-.002.007-.003.002-.001.006-.002.007-.003.007-.002.001-.001.004-.001.005-.002.007-.004.003-.002h.004l.008-.004.007-.004h.003l.005-.002.007-.004.006-.003h.002l.007-.004.007-.004.004-.001.004-.002.007-.005.008-.003v-.001l.007-.003.007-.005.005-.003h.001l.007-.005.007-.005.003-.001.005-.002.007-.005.006-.004.001-.001.006-.004.007-.004.005-.004.002-.001 26.796-15.505a.908.908 0 0 0 .493-.667l.002-.007.003-.021v-.001l.001-.014.002-.009v-.006l.001-.014.001-.003v-.012l.002-.029.001-.005v-29.075a.903.903 0 0 0-.506-.811L81.813 180.8l-.002-.001-.005-.003-.007-.005-.006-.003v-.001l-.007-.005-.007-.003-.005-.003-.002-.002-.008-.004-.007-.004v-.001l-.002-.001-.004-.002-.007-.004-.006-.004-.001-.001-.007-.003-.007-.004-.005-.003h-.004l-.007-.004-.007-.004h-.002l-.005-.003-.007-.004-.008-.003-.007-.004-.009-.003-.003-.001-.004-.002-.007-.003-.008-.003v-.001l-.008-.002-.007-.003-.007-.003h-.001l-.008-.003-.008-.003-.003-.001-.005-.002-.008-.002-.008-.003h-.001l-.006-.002-.009-.003-.006-.002h-.002l-.008-.002-.008-.002-.004-.001-.004-.002-.008-.002-.009-.001-.008-.002-.009-.002-.006-.002h-.002l-.008-.002-.008-.002h-.004l-.004-.001-.01-.002h-.008l-.008-.002-.009-.001-.006-.001h-.002l-.009-.001-.008-.001-.004-.001h-.005l-.009-.001-.009-.001-.008-.001h-.009l-.006-.001h-.093l-.006.001h-.009l-.008.001-.01.001-.007.001h-.006l-.003.001-.009.001-.009.001h-.002l-.006.001-.009.001-.007.002h-.01l-.008.002-.005.001h-.003l-.009.002-.008.002h-.001l-.007.002-.009.002-.007.002-.009.001-.008.002-.005.002-.003.001-.009.002-.008.002h-.002l-.006.002-.008.003-.007.002h-.001l-.008.003-.008.002-.004.002-.004.001-.008.003-.007.003h-.002l-.006.003-.007.003-.007.002-.001.001-.008.003-.008.003-.003.002-.004.001-.008.003-.007.004h-.001l-.007.003-.007.004-.006.003h-.002l-.007.004-.007.004h-.003l-.005.003-.007.004-.007.003-.001.001-.007.004-.007.004-.003.002-.002.001-.001.001-.007.004-.007.004-.003.002-.004.003-.007.003-.007.005v.001l-.007.003-.006.005-.006.003-.001.001-26.796 15.505a.908.908 0 0 0-.494.667l-.001.007-.003.022-.002.014-.002.009v.02l-.001.003v.012l-.002.029-.001.005v29.074c0 .357.206.665.506.812Zm24.353-12.308a3.89 3.89 0 0 0 1.88 1.086v24.746l-23.53-14.119 21.002-12.603c.177.326.395.625.648.89Zm28.617-15.855h.001-.001Zm0 0-21.39 12.577c.007.099.01.198.01.298l-.005.204 21.385 12.575v-25.654Zm-29.951 13.065-.005-.19c0-.094.003-.189.01-.282l-21.391-12.593v25.654l21.385-12.589Zm1.33-2.118a4.075 4.075 0 0 0-.605.811l-21.041-12.616 23.53-14.107v24.823a3.883 3.883 0 0 0-1.883 1.089Zm4.022-2.153a3.886 3.886 0 0 1 1.906 1.092c.23.24.432.51.6.803l21.024-12.609-23.53-14.114v24.828Zm1.909 7.045c.249-.26.465-.554.639-.874l20.982 12.596-23.53 14.126v-24.751a3.894 3.894 0 0 0 1.909-1.097Zm-4.493-1.499c.387.386.923.625 1.515.625a2.134 2.134 0 0 0 2.14-2.138c-.001-.591-.24-1.127-.626-1.514a2.145 2.145 0 0 0-1.514-.624 2.14 2.14 0 0 0-1.515.624 2.143 2.143 0 0 0 0 3.027Z" fill="#E7E7E7"/><path fill-rule="evenodd" clip-rule="evenodd" d="m.528 226.979 26.796 15.505h-.001l.002.001.005.004.006.004.007.004v.001l.007.004.007.005.004.002.003.001.007.005.007.005h.001l.006.003.007.005.006.003.001.001.008.003.007.005.004.002.004.001.007.004.007.004h.002l.005.003.007.004.006.002h.002l.008.004.008.004h.003l.004.002.007.004.004.002.004.001.001.001.007.002.007.003.007.002.001.001.008.003.008.002.003.002.005.001.008.003.007.003h.002l.006.002.009.002.006.002.002.001.008.002.008.002h.004l.005.002.008.002.008.002.008.002.009.002.006.002h.002l.008.001.008.002h.004l.005.001.009.002.008.001.008.002.009.001.006.001h.002l.009.001.003.001H27.742l.008.002h.01l.008.001h.009l.006.001h.011l.009.001H27.856l.009-.001h.011l.006-.001h.009l.008-.001h.01l.007-.002h.014l.004-.001.009-.001h.002l.006-.001.009-.001.007-.002.01-.001.008-.002.005-.001h.003l.009-.002.008-.001h.002l.006-.002.009-.002.007-.002.01-.002.007-.002.005-.002h.003l.008-.002.009-.002.002-.001.006-.002.008-.002.007-.002.009-.003.008-.003.004-.001.004-.002.008-.002.007-.003.002-.001.007-.002.007-.003.007-.002v-.001l.004-.001.005-.002.007-.004.003-.002h.004l.008-.004.007-.004h.003l.006-.002.007-.004.005-.003h.002l.007-.004.007-.004.004-.001.005-.002.007-.005.007-.003v-.001l.007-.003.007-.005.005-.003h.001l.007-.005.008-.005.002-.001.005-.002.007-.005.006-.004.001-.001.007-.004.006-.004.005-.004.002-.001 26.796-15.505a.908.908 0 0 0 .493-.667l.002-.007.003-.021v-.001l.001-.014.002-.009v-.006l.001-.014.001-.003v-.012l.002-.029v-29.08a.902.902 0 0 0-.505-.811L28.336 180.8l-.002-.001-.005-.003-.006-.005-.007-.003v-.001l-.007-.005-.007-.003-.005-.003-.002-.002-.007-.004-.007-.004-.001-.001-.002-.001-.004-.002-.007-.004-.006-.004-.001-.001-.007-.003-.007-.004-.005-.003h-.003l-.008-.004-.007-.004h-.002l-.005-.003-.007-.004-.007-.003H28.2l-.007-.004-.008-.003-.004-.001-.004-.002-.007-.003-.008-.003v-.001l-.008-.002-.007-.003-.006-.003h-.002l-.007-.003-.008-.003-.004-.001-.005-.002-.008-.002-.008-.003h-.001l-.006-.002-.009-.003-.006-.002h-.002l-.008-.002-.008-.002-.004-.001-.004-.002-.008-.002-.009-.001-.007-.002-.01-.002-.006-.002h-.002l-.008-.002-.008-.002h-.004l-.004-.001-.01-.002h-.008l-.008-.002-.009-.001-.006-.001h-.002l-.009-.001-.008-.001-.004-.001h-.005l-.008-.001-.01-.001-.008-.001h-.009l-.006-.001h-.092l-.007.001h-.009l-.008.001-.009.001-.008.001h-.006l-.003.001-.009.001-.009.001h-.001l-.007.001-.009.001-.007.002h-.009l-.009.002-.005.001h-.003l-.008.002-.009.002h-.001l-.006.002-.01.002-.007.002-.009.001-.008.002-.005.002-.003.001-.008.002-.009.002h-.002l-.006.002-.008.003-.006.002h-.002l-.007.003-.009.002-.004.002-.004.001-.008.003-.007.003h-.002l-.006.003-.007.003-.007.002-.001.001-.008.003-.007.003-.004.002-.004.001-.008.003-.007.004h-.001l-.007.003-.007.004-.006.003h-.001l-.008.004-.007.004h-.003l-.005.003-.007.004-.007.003-.001.001-.006.004-.008.004-.003.002-.002.001v.001l-.008.004-.007.004-.003.002-.004.003-.007.003-.007.005v.001l-.007.003-.006.005-.005.003-.002.001L.528 196.305a.908.908 0 0 0-.493.667l-.002.007-.003.022-.001.014-.002.009v.006l-.001.014-.001.003v.012l-.002.029-.001.005v29.074c0 .357.207.665.506.812Zm24.354-12.308a3.89 3.89 0 0 0 1.878 1.086v24.746L3.23 226.384l21.003-12.603c.177.326.395.625.649.89Zm28.617-15.855Zm0 0-21.39 12.577c.006.099.01.198.01.298l-.006.204L53.5 224.47v-25.654Zm-29.952 13.065-.005-.19c0-.094.004-.189.01-.282l-21.39-12.593v25.654l21.385-12.589Zm1.331-2.118a4.075 4.075 0 0 0-.605.811L3.23 197.958l23.53-14.107v24.823a3.883 3.883 0 0 0-1.883 1.089Zm4.021-2.153a3.886 3.886 0 0 1 1.906 1.092c.23.24.433.51.601.803l21.023-12.609-23.53-14.114v24.828Zm1.91 7.045c.248-.26.464-.554.638-.874l20.982 12.596-23.53 14.126v-24.751a3.894 3.894 0 0 0 1.91-1.097Zm-4.494-1.499c.387.386.923.625 1.515.625a2.134 2.134 0 0 0 2.14-2.138c0-.591-.24-1.127-.626-1.514a2.145 2.145 0 0 0-1.514-.624 2.14 2.14 0 0 0-1.515.624 2.143 2.143 0 0 0 0 3.027ZM214.435 166.052l26.796 15.505h-.001l.002.001.005.003.007.005.006.004h.001l.006.005.007.005.005.001.002.002.007.005.008.005h.001l.005.003.007.005.007.003h.001l.007.004.007.005.005.001.003.002.007.004.007.003h.002l.005.004.008.003.005.002.002.001h.001l.007.004.008.003.004.001.003.002.007.004.004.002.005.001.008.003.007.003.006.002.002.001.007.002.008.003.003.001.005.002.008.003.007.002h.002l.007.003.008.002.006.002.002.001.008.001.009.003h.003l.005.002.008.002.008.002h.001l.007.002.009.002.006.001h.002l.008.002.009.002h.003l.005.001.009.002.008.001h.001l.007.002.009.001h.008l.009.001.004.001.008.001h.005l.009.001.009.001.008.001h.009l.006.001h.011l.009.001H241.763l.009-.001h.011l.006-.001h.009l.008-.001.009-.001.009-.001h.005l.008-.001.004-.001.009-.001h.008l.009-.001.007-.002h.001l.008-.001.009-.002.005-.001h.004l.008-.002.008-.002h.002l.006-.001.009-.002.007-.002h.001l.008-.002.009-.002.004-.002h.004l.008-.003.008-.001.002-.001.006-.002.008-.002.007-.003h.001l.008-.002.008-.003.005-.002.003-.001.008-.003.007-.002.002-.001.007-.002.007-.003.007-.003h.001l.003-.001.005-.002.007-.004.004-.002.003-.001.008-.003.008-.004.002-.001.006-.002.007-.003.005-.004h.002l.007-.003.008-.004.003-.002.005-.001.007-.005.007-.004h.001l.006-.003.007-.005.006-.003h.001l.007-.005.007-.005.002-.002.005-.001.007-.005.007-.005.007-.004.006-.005.005-.003.002-.001 26.796-15.505a.907.907 0 0 0 .493-.667l.002-.007.003-.022.001-.001.001-.013.002-.009v-.006l.001-.014v-.015l.002-.029.001-.005v-29.075a.901.901 0 0 0-.506-.811l-26.796-15.505-.001-.001-.006-.004-.006-.004-.006-.004h-.001l-.006-.005-.008-.004-.004-.002-.003-.002-.007-.005-.007-.003-.001-.001-.002-.001-.004-.003-.007-.003-.006-.004-.001-.001-.007-.003-.007-.004-.005-.003-.003-.001-.007-.003-.007-.004-.002-.001-.006-.002-.007-.004-.007-.003h-.001l-.007-.004-.008-.003-.004-.002-.003-.001-.007-.003-.009-.004h-.001l-.007-.002-.007-.003-.006-.003-.002-.001-.007-.002-.008-.003-.004-.001-.005-.002-.008-.003-.008-.002h-.001l-.006-.002-.008-.003-.007-.002h-.001l-.009-.002-.008-.002-.003-.001-.005-.002-.008-.002-.008-.002h-.001l-.007-.002-.009-.001-.007-.002h-.001l-.009-.002-.008-.002h-.003l-.005-.001-.009-.002-.008-.001h-.001l-.007-.002h-.009l-.007-.001h-.002l-.009-.001-.008-.001-.003-.001h-.006l-.008-.001-.009-.001-.008-.001h-.009l-.007-.001h-.011l-.009-.001H241.711l-.009.001h-.011l-.006.001h-.01l-.008.001-.009.001-.008.001h-.005l-.004.001-.008.001-.009.001h-.002l-.006.001h-.01l-.007.002-.009.001-.009.002-.004.001h-.004l-.008.002-.008.002h-.002l-.006.002-.009.001-.007.002h-.001l-.008.002-.009.002-.004.002-.004.001-.008.002-.008.002h-.002l-.007.002-.008.003-.006.002h-.002l-.007.002-.008.003-.005.002-.004.001-.008.003-.007.002-.002.001-.006.003-.007.003-.007.002h-.001l-.008.004-.007.003-.004.001-.003.002-.009.003-.007.004h-.001l-.007.003-.007.004-.005.002-.002.001-.007.004-.007.003-.004.001-.005.003-.007.004-.007.003-.001.001-.006.004-.007.003-.004.003-.002.001-.001.001-.007.003-.007.005-.003.002-.004.002-.007.004-.006.005h-.001l-.007.004-.006.004-.005.004-.002.001-26.796 15.505a.908.908 0 0 0-.493.666l-.002.008-.003.021v.001l-.001.014-.002.009v.005l-.001.015-.001.003v.011l-.002.03-.001.005V165.24c0 .357.207.664.506.812Zm24.354-12.309a3.891 3.891 0 0 0 1.879 1.087v24.746l-23.53-14.12 21.002-12.603c.177.327.395.626.649.89Zm28.617-15.854Zm0 0-21.391 12.577c.007.099.011.198.011.298l-.006.204 21.386 12.574v-25.653Zm-29.952 13.065-.005-.19c0-.095.004-.189.01-.283l-21.391-12.592v25.653l21.386-12.589v.001Zm1.331-2.118a4.07 4.07 0 0 0-.605.811l-21.042-12.616 23.53-14.107v24.822a3.894 3.894 0 0 0-1.883 1.09Zm4.022-2.154a3.88 3.88 0 0 1 1.905 1.093c.231.24.433.51.601.803l21.024-12.609-23.53-14.114v24.827Zm1.908 7.045a4.04 4.04 0 0 0 .639-.874l20.983 12.597-23.53 14.126v-24.751a3.896 3.896 0 0 0 1.908-1.098Zm-4.492-1.498c.386.386.922.624 1.514.624s1.128-.239 1.515-.624c.385-.386.624-.922.624-1.513 0-.592-.239-1.128-.624-1.514a2.146 2.146 0 0 0-3.029 0 2.14 2.14 0 0 0 0 3.027Z" fill="#E7E7E7"/><path fill-rule="evenodd" clip-rule="evenodd" d="m160.958 166.052 26.796 15.505h-.001l.002.001.006.003.006.005.006.004h.001l.006.005.007.005.005.001.003.002.007.005.007.005h.001l.005.003.007.005.007.003h.001l.007.004.007.005.005.001.003.002.007.004.008.003h.001l.006.004.007.003.005.002.002.001h.001l.007.004.008.003.004.001.003.002.008.004.003.002.005.001h.001l.007.003.007.003.006.002.002.001.007.002.008.003.004.001.004.002.009.003.007.002h.002l.006.003.008.002.006.002.002.001.009.001.008.003h.003l.005.002.008.002.008.002h.001l.007.002.009.002.007.001h.001l.008.002.009.002h.003l.005.001.009.002.008.001h.001l.007.002.009.001h.008l.009.001.004.001.008.001h.006l.008.001.009.001.008.001h.009l.006.001h.011l.009.001H188.286l.009-.001h.011l.006-.001h.009l.009-.001.009-.001.008-.001h.005l.008-.001.004-.001.009-.001h.008l.009-.001.007-.002h.001l.008-.001.01-.002.004-.001h.004l.008-.002.008-.002h.002l.006-.001.009-.002.008-.002.009-.002.008-.002.004-.002h.004l.008-.003.008-.001.002-.001.006-.002.009-.002.006-.003h.001l.008-.002.008-.003.005-.002.003-.001.009-.003.007-.002.002-.001.006-.002.007-.003.007-.003h.001l.004-.001.004-.002.007-.004.004-.002.003-.001.009-.003.007-.004h.001l.001-.001.006-.002.007-.003.006-.004h.001l.008-.003.007-.004.003-.002.005-.001.007-.005.007-.004h.001l.006-.003.007-.005.006-.003h.001l.007-.005.007-.005.003-.002.004-.001.007-.005.007-.005h.001l.006-.004.006-.005.006-.003.001-.001 26.796-15.505a.907.907 0 0 0 .493-.667l.002-.007.003-.022.001-.001.001-.013.002-.009v-.006l.001-.014.001-.003v-.012l.002-.029v-29.08a.902.902 0 0 0-.505-.811l-26.796-15.505-.002-.001-.006-.004-.006-.004-.006-.004h-.001l-.006-.005-.007-.004-.005-.002-.003-.002-.007-.005-.007-.003-.001-.001-.002-.001-.003-.003-.007-.003-.007-.004-.001-.001-.007-.003-.007-.004-.004-.003-.004-.001-.007-.003-.007-.004-.002-.001-.006-.002-.007-.004-.007-.003h-.001l-.007-.004-.008-.003-.004-.002-.003-.001-.007-.003-.008-.004h-.001l-.007-.002-.008-.003-.006-.003-.002-.001-.007-.002-.008-.003-.004-.001-.004-.002-.009-.003-.008-.002h-.001l-.006-.002-.008-.003-.006-.002h-.002l-.009-.002-.008-.002-.003-.001-.005-.002-.008-.002-.008-.002h-.001l-.007-.002-.009-.001-.006-.002h-.002l-.008-.002-.009-.002h-.003l-.005-.001-.009-.002-.008-.001h-.001l-.007-.002h-.009l-.006-.001h-.002l-.009-.001-.009-.001-.003-.001h-.006l-.008-.001-.009-.001-.008-.001h-.009l-.006-.001h-.011l-.009-.001H188.234l-.009.001h-.011l-.006.001h-.009l-.009.001-.009.001-.008.001h-.005l-.004.001-.008.001-.009.001h-.002l-.006.001h-.009l-.007.002h-.001l-.008.001-.01.002-.004.001h-.004l-.008.002-.008.002h-.002l-.006.002-.009.001-.007.002h-.001l-.008.002-.009.002-.004.002-.004.001-.008.002-.008.002h-.002l-.006.002-.009.003-.006.002h-.002l-.007.002-.008.003-.005.002-.003.001-.009.003-.007.002-.001.001-.007.003-.007.003-.007.002h-.001l-.008.004-.007.003-.004.001-.003.002-.008.003-.007.004h-.002l-.007.003-.007.004-.005.002-.002.001-.007.004-.007.003-.004.001-.004.003-.007.004-.008.003-.001.001-.006.004-.007.003-.004.003-.001.001-.001.001-.008.003-.007.005-.002.002-.005.002-.007.004-.006.005h-.001l-.006.004-.007.004-.005.004-.002.001-26.796 15.505a.908.908 0 0 0-.493.666l-.002.008-.002.021-.001.001-.001.014-.002.009v.005l-.001.015-.001.003v.011l-.001.03-.002.005V165.24c0 .357.207.664.506.812Zm24.354-12.309a3.891 3.891 0 0 0 1.879 1.087v24.746l-23.53-14.12 21.002-12.603c.178.327.396.626.649.89Zm28.617-15.854Zm0 0-21.39 12.577c.006.099.01.198.01.298l-.005.204 21.385 12.574v-25.653Zm-29.952 13.065-.004-.19c0-.095.003-.189.009-.283l-21.39-12.592v25.653l21.385-12.589v.001Zm1.332-2.118a4.036 4.036 0 0 0-.606.811l-21.042-12.616 23.53-14.107v24.822a3.891 3.891 0 0 0-1.882 1.09Zm4.021-2.154a3.876 3.876 0 0 1 1.905 1.093c.231.24.433.51.601.803l21.024-12.609-23.53-14.114v24.827Zm1.909 7.045c.249-.259.464-.553.638-.874l20.983 12.597-23.53 14.126v-24.751a3.9 3.9 0 0 0 1.909-1.098Zm-4.493-1.498c.386.386.923.624 1.514.624a2.133 2.133 0 0 0 2.139-2.137c0-.592-.239-1.128-.624-1.514a2.146 2.146 0 0 0-3.029 0 2.14 2.14 0 0 0 0 3.027Z" fill="#E7E7E7"/><path fill-rule="evenodd" clip-rule="evenodd" d="m107.481 166.052 26.796 15.505.001.001.006.003.006.005.006.004h.001l.006.005.008.005.004.001.003.002.007.005.007.005h.001l.006.003.007.005.006.003h.001l.007.004.007.005.005.001.003.002.008.004.007.003h.001l.006.004.007.003.005.002.002.001h.001l.007.004.009.003.003.001.004.002.007.004.003.002.005.001h.001l.007.003.007.003.006.002.002.001.007.002.008.003.004.001.005.002.008.003.007.002h.002l.006.003.008.002.007.002.001.001.009.001.008.003h.003l.005.002.008.002.009.002.007.002.01.002.006.001h.001l.009.002.008.002h.003l.005.001.009.002.008.001h.001l.007.002.009.001H134.67l.009.001.003.001.008.001h.006l.008.001.009.001.008.001h.009l.007.001h.011l.009.001H134.809l.009-.001h.011l.006-.001h.01l.008-.001.009-.001.008-.001h.005l.009-.001.003-.001.009-.001h.008l.01-.001.007-.002.009-.001.009-.002.004-.001h.004l.008-.002.008-.002h.002l.007-.001.009-.002.007-.002h.001l.008-.002.008-.002.004-.002h.004l.008-.003.008-.001.002-.001.007-.002.008-.002.006-.003h.001l.008-.002.008-.003.005-.002.004-.001.008-.003.007-.002.002-.001.006-.002.007-.003.007-.003h.001l.004-.001.004-.002.007-.004.004-.002.004-.001.008-.003.007-.004h.001l.002-.001.005-.002.007-.003.006-.004h.002l.007-.003.007-.004.003-.002.005-.001.007-.005.007-.004h.001l.006-.003.008-.005.005-.003h.001l.007-.005.007-.005.003-.002.005-.001.007-.005.006-.005h.001l.006-.004.006-.005.006-.003.001-.001 26.797-15.505a.912.912 0 0 0 .493-.667l.002-.007.002-.022.001-.001.001-.013.002-.009v-.006l.001-.014.001-.003v-.012l.002-.029.001-.005v-29.075a.903.903 0 0 0-.506-.811l-26.796-15.505-.002-.001-.005-.004-.007-.004-.006-.004h-.001l-.006-.005-.007-.004-.005-.002-.003-.002-.007-.005-.007-.003-.001-.001-.002-.001-.003-.003-.007-.003-.007-.004v-.001l-.007-.003-.008-.004-.004-.003-.004-.001-.007-.003-.007-.004-.002-.001-.005-.002-.008-.004-.007-.003h-.001l-.007-.004-.008-.003-.003-.002-.004-.001-.007-.003-.008-.004h-.001l-.007-.002-.007-.003-.007-.003-.002-.001-.007-.002-.008-.003-.003-.001-.005-.002-.008-.003-.009-.002-.007-.002-.008-.003-.006-.002h-.002l-.008-.002-.009-.002-.003-.001-.004-.002-.009-.002-.008-.002h-.001l-.007-.002-.009-.001-.006-.002h-.002l-.008-.002-.009-.002h-.003l-.005-.001-.009-.002-.008-.001h-.001l-.007-.002h-.009l-.006-.001h-.002l-.009-.001-.008-.001-.004-.001h-.005l-.009-.001-.009-.001-.008-.001h-.009l-.006-.001h-.011l-.009-.001H134.757l-.009.001h-.011l-.006.001h-.009l-.008.001-.009.001-.009.001h-.005l-.004.001-.008.001-.009.001h-.002l-.006.001h-.009l-.007.002h-.001l-.008.001-.009.002-.005.001h-.004l-.008.002-.008.002h-.002l-.006.002-.009.001-.007.002h-.001l-.008.002-.008.002-.005.002-.004.001-.008.002-.008.002h-.002l-.006.002-.008.003-.007.002h-.002l-.007.002-.008.003-.005.002-.003.001-.008.003-.007.002-.002.001-.006.003-.008.003-.007.002-.009.004-.007.003-.003.001-.004.002-.008.003-.007.004h-.001l-.007.003-.008.004-.005.002-.002.001-.007.004-.007.003-.004.001-.004.003-.007.004-.007.003-.002.001-.006.004-.007.003-.003.003-.002.001-.001.001-.007.003-.007.005-.003.002-.005.002-.007.004-.006.005h-.001l-.006.004-.006.004-.006.004-.002.001-26.796 15.505a.908.908 0 0 0-.493.666l-.001.008-.003.021-.001.001-.001.014-.002.009v.005l-.001.015-.001.003v.011l-.001.03-.001.005V165.24c0 .357.206.664.505.812Zm24.354-12.309a3.891 3.891 0 0 0 1.879 1.087v24.746l-23.53-14.12 21.003-12.603c.177.327.395.626.648.89Zm28.617-15.854Zm0 0-21.39 12.577c.007.099.01.198.01.298l-.005.204 21.385 12.574v-25.653ZM130.5 150.954l-.004-.19c0-.095.003-.189.009-.283l-21.39-12.592v25.653l21.385-12.589v.001Zm1.332-2.118a4.074 4.074 0 0 0-.606.811l-21.042-12.616 23.53-14.107v24.822a3.891 3.891 0 0 0-1.882 1.09Zm4.021-2.154a3.876 3.876 0 0 1 1.905 1.093c.231.24.433.51.602.803l21.023-12.609-23.53-14.114v24.827Zm1.909 7.045c.249-.259.464-.553.639-.874l20.982 12.597-23.53 14.126v-24.751a3.895 3.895 0 0 0 1.909-1.098Zm-4.493-1.498c.387.386.923.624 1.514.624a2.134 2.134 0 0 0 2.14-2.137c0-.592-.24-1.128-.625-1.514a2.146 2.146 0 0 0-3.029 0 2.14 2.14 0 0 0-.624 1.514c0 .591.238 1.127.624 1.513Z" fill="#E7E7E7"/><path fill-rule="evenodd" clip-rule="evenodd" d="M54.005 166.052 80.8 181.557H80.8l.002.001.005.003.006.005.007.004.007.005.007.005.004.001.003.002.007.005.007.005h.001l.006.003.007.005.006.003h.001l.007.004.008.005.004.001.004.002.007.004.007.003h.002l.005.004.007.003.006.002.001.001h.001l.007.004.009.003.003.001.004.002.007.004.004.002.004.001h.001l.007.003.007.003.007.002.001.001.007.002.008.003.004.001.005.002.008.003.007.002h.002l.006.003.008.002.007.002.002.001.008.001.008.003h.004l.004.002.008.002.009.002.008.002.009.002.006.001h.002l.008.002.008.002h.004l.004.001.01.002.008.001.007.002.01.001h.008l.009.001.003.001.009.001h.005l.008.001.01.001.008.001h.008l.007.001h.011l.009.001H81.332l.01-.001h.01l.007-.001h.009l.008-.001.009-.001.008-.001h.006l.008-.001.003-.001.01-.001h.008l.009-.001.007-.002.009-.001.009-.002.005-.001h.003l.008-.002.009-.002h.002l.006-.001.009-.002.007-.002.009-.002.008-.002.005-.002h.003l.008-.003.008-.001.002-.001.007-.002.008-.002.006-.003h.001l.008-.002.008-.003.005-.002.004-.001.008-.003.007-.002.002-.001.006-.002.007-.003.007-.003h.001l.004-.001.005-.002.007-.004.003-.002.004-.001.008-.003.007-.004h.001l.002-.001.005-.002.007-.003.006-.004h.002l.007-.003.007-.004.004-.002.004-.001.007-.005.008-.004.007-.003.007-.005.005-.003h.001l.007-.005.007-.005.003-.002.005-.001.007-.005.006-.005h.001l.006-.004.007-.005.005-.003.002-.001 26.796-15.505a.91.91 0 0 0 .493-.667l.002-.007.003-.022v-.001l.001-.013.002-.009v-.006l.001-.014.001-.003v-.012l.002-.029.001-.005v-29.075a.903.903 0 0 0-.506-.811l-26.796-15.505-.002-.001-.005-.004-.007-.004-.006-.004-.007-.005-.007-.004-.005-.002-.002-.002-.008-.005-.007-.003v-.001l-.002-.001-.004-.003-.007-.003-.006-.004-.001-.001-.007-.003-.007-.004-.005-.003-.004-.001-.007-.003-.007-.004-.002-.001-.005-.002-.007-.004-.008-.003-.007-.004-.009-.003-.003-.002-.004-.001-.007-.003-.008-.004-.008-.002-.007-.003-.007-.003-.001-.001-.008-.002-.008-.003-.003-.001-.005-.002-.008-.003-.008-.002h-.001l-.006-.002-.009-.003-.006-.002h-.002l-.008-.002-.008-.002-.004-.001-.004-.002-.008-.002-.009-.002-.008-.002-.009-.001-.006-.002h-.002l-.008-.002-.008-.002h-.004l-.004-.001-.01-.002-.008-.001-.008-.002h-.009l-.006-.001h-.002l-.009-.001-.008-.001-.004-.001h-.005l-.009-.001-.009-.001-.008-.001h-.009l-.006-.001h-.011l-.01-.001H81.28l-.009.001h-.011l-.006.001h-.009l-.008.001-.01.001-.007.001h-.006l-.003.001-.009.001-.009.001h-.002l-.006.001h-.009l-.007.002-.01.001-.008.002-.005.001h-.003l-.009.002-.008.002h-.001l-.007.002-.009.001-.007.002-.009.002-.008.002-.005.002-.003.001-.009.002-.008.002h-.002l-.006.002-.008.003-.007.002h-.001l-.008.002-.008.003-.004.002-.004.001-.008.003-.007.002-.002.001-.006.003-.007.003-.007.002h-.001l-.008.004-.008.003-.003.001-.004.002-.008.003-.007.004h-.001l-.007.003-.007.004-.006.002-.002.001-.007.004-.007.003-.003.001-.005.003-.007.004-.007.003-.001.001-.007.004-.007.003-.003.003-.002.001-.001.001-.007.003-.007.005-.003.002-.004.002-.007.004-.007.005-.007.004-.006.004-.006.004-.001.001-26.796 15.505a.908.908 0 0 0-.494.666l-.001.008-.003.021v.001l-.002.014-.002.009v.02l-.001.003v.011l-.002.03-.001.005V165.24c0 .357.206.664.506.812Zm24.353-12.309c.51.528 1.156.911 1.88 1.087v24.746l-23.53-14.12 21.002-12.603c.177.327.395.626.648.89Zm28.617-15.854h.001-.001Zm0 0-21.39 12.577c.007.099.01.198.01.298l-.005.204 21.385 12.574v-25.653Zm-29.951 13.065-.005-.19c0-.095.003-.189.01-.283l-21.391-12.592v25.653l21.385-12.589v.001Zm1.33-2.118a4.075 4.075 0 0 0-.605.811l-21.041-12.616 23.53-14.107v24.822a3.892 3.892 0 0 0-1.883 1.09Zm4.022-2.154a3.88 3.88 0 0 1 1.906 1.093c.23.24.432.51.6.803l21.024-12.609-23.53-14.114v24.827Zm1.909 7.045c.249-.259.465-.553.639-.874l20.982 12.597-23.53 14.126v-24.751a3.896 3.896 0 0 0 1.909-1.098Zm-4.493-1.498c.387.386.923.624 1.515.624a2.134 2.134 0 0 0 2.14-2.137c-.001-.592-.24-1.128-.626-1.514a2.145 2.145 0 0 0-1.514-.624c-.592 0-1.128.238-1.515.624a2.14 2.14 0 0 0-.624 1.514c0 .591.238 1.127.624 1.513Z" fill="#E7E7E7"/><path fill-rule="evenodd" clip-rule="evenodd" d="m.528 166.052 26.796 15.505h-.001l.002.001.005.003.006.005.007.004.007.005.007.005.004.001.003.002.007.005.007.005h.001l.006.003.007.005.006.003h.001l.008.004.007.005.004.001.004.002.007.004.007.003h.002l.005.004.007.003.006.002.002.001.008.004.008.003.003.001.004.002.007.004.004.002.004.001h.001l.007.003.007.003.007.002.001.001.008.002.008.003.003.001.005.002.008.003.007.002h.002l.006.003.009.002.006.002.002.001.008.001.008.003h.004l.005.002.008.002.008.002.008.002.009.002.006.001h.002l.008.002.008.002h.004l.005.001.009.002.008.001.008.002.009.001h.008l.009.001.003.001.009.001h.005l.008.001.01.001.008.001h.009l.006.001h.011l.009.001H27.856l.009-.001h.011l.006-.001h.009l.008-.001.01-.001.007-.001h.006l.008-.001.004-.001.009-.001h.008l.009-.001.007-.002.01-.001.008-.002.005-.001h.003l.009-.002.008-.002h.002l.006-.001.009-.002.007-.002.01-.002.007-.002.005-.002h.003l.008-.003.009-.001.002-.001.006-.002.008-.002.007-.003.009-.002.008-.003.004-.002.004-.001.008-.003.007-.002.002-.001.007-.002.007-.003.007-.003.004-.001.005-.002.007-.004.003-.002.004-.001.008-.003.007-.004h.001l.002-.001.006-.002.007-.003.005-.004h.002l.007-.003.007-.004.004-.002.005-.001.007-.005.007-.004.007-.003.007-.005.005-.003h.001l.007-.005.008-.005.002-.002.005-.001.007-.005.006-.005h.001l.007-.004.006-.005.005-.003.002-.001 26.796-15.505a.91.91 0 0 0 .493-.667l.002-.007.003-.022v-.001l.001-.013.002-.009v-.006l.001-.014.001-.003v-.012l.002-.029v-29.08a.902.902 0 0 0-.505-.811l-26.796-15.505-.002-.001-.005-.004-.006-.004-.007-.004-.007-.005-.007-.004-.005-.002-.002-.002-.007-.005-.007-.003-.001-.001-.002-.001-.004-.003-.007-.003-.006-.004-.001-.001-.007-.003-.007-.004-.005-.003-.003-.001-.008-.003-.007-.004-.002-.001-.005-.002-.007-.004-.007-.003H28.2l-.007-.004-.008-.003-.004-.002-.004-.001-.007-.003-.008-.004-.008-.002-.007-.003-.006-.003-.002-.001-.007-.002-.008-.003-.004-.001-.005-.002-.008-.003-.008-.002h-.001l-.006-.002-.009-.003-.006-.002h-.002l-.008-.002-.008-.002-.004-.001-.004-.002-.008-.002-.009-.002-.007-.002-.01-.001-.006-.002h-.002l-.008-.002-.008-.002h-.004l-.004-.001-.01-.002-.008-.001-.008-.002h-.009l-.006-.001h-.002l-.009-.001-.008-.001-.004-.001h-.005l-.008-.001-.01-.001-.008-.001h-.009l-.006-.001h-.011l-.009-.001H27.804l-.01.001h-.01l-.007.001h-.009l-.008.001-.009.001-.008.001h-.006l-.003.001-.009.001-.009.001h-.001l-.007.001H27.7l-.007.002-.009.001-.009.002-.005.001h-.003l-.008.002-.009.002h-.001l-.006.002-.01.001-.007.002-.009.002-.008.002-.005.002-.003.001-.008.002-.009.002h-.002l-.006.002-.008.003-.006.002h-.002l-.007.002-.009.003-.004.002-.004.001-.008.003-.007.002-.002.001-.006.003-.007.003-.007.002h-.001l-.008.004-.007.003-.004.001-.004.002-.008.003-.007.004h-.001l-.007.003-.007.004-.006.002-.001.001-.008.004-.007.003-.003.001-.005.003-.007.004-.007.003-.001.001-.006.004-.008.003-.003.003-.002.001v.001l-.008.003-.007.005-.003.002-.004.002-.007.004-.007.005-.007.004-.006.004-.005.004-.002.001L.528 135.378a.908.908 0 0 0-.493.666l-.002.008-.003.021v.001l-.001.014-.002.009v.005l-.001.015-.001.003v.011l-.002.03-.001.005V165.24c0 .357.207.664.506.812Zm24.354-12.309c.509.528 1.155.911 1.878 1.087v24.746l-23.53-14.12 21.003-12.603c.177.327.395.626.649.89Zm28.617-15.854Zm0 0-21.39 12.577c.006.099.01.198.01.298l-.006.204L53.5 163.542v-25.653Zm-29.952 13.065-.005-.19c0-.095.004-.189.01-.283l-21.39-12.592v25.653l21.385-12.589v.001Zm1.331-2.118a4.075 4.075 0 0 0-.605.811L3.23 137.031l23.53-14.107v24.822a3.892 3.892 0 0 0-1.883 1.09Zm4.021-2.154a3.88 3.88 0 0 1 1.906 1.093c.23.24.433.51.601.803l21.023-12.609-23.53-14.114v24.827Zm1.91 7.045c.248-.259.464-.553.638-.874L52.43 165.45 28.9 179.576v-24.751a3.896 3.896 0 0 0 1.91-1.098Zm-4.494-1.498c.387.386.923.624 1.515.624a2.134 2.134 0 0 0 2.14-2.137c0-.592-.24-1.128-.626-1.514a2.145 2.145 0 0 0-1.514-.624c-.592 0-1.128.238-1.515.624a2.14 2.14 0 0 0-.624 1.514c0 .591.239 1.127.624 1.513ZM214.435 106.193l26.796 15.505h-.001l.002.001.005.003.007.005.006.004h.001l.006.005.007.005.005.001.002.002.007.005.008.005h.001l.005.003.007.005.007.003h.001l.007.004.007.005.005.001.003.002.007.004.007.003h.002l.005.004.008.004.005.001.002.001h.001l.007.004.008.003.004.001.003.002.007.004.004.002.005.001v.001l.008.002.007.003.006.002.002.001.007.003.008.002.003.001.005.002.008.003.007.003h.002l.007.002.008.002.006.002.002.001.008.002.009.002h.003l.005.002.008.002.008.002h.001l.007.002.009.002.006.002h.002l.008.001.009.002h.003l.005.001.009.002.008.001h.001l.007.002.009.001.006.001h.011l.004.001.008.001h.005l.009.001.009.001.008.001h.009l.006.001h.011l.009.001H241.763l.009-.001h.011l.006-.001h.009l.008-.001.009-.001.009-.001h.005l.008-.001.004-.001h.011l.006-.001.009-.001.007-.002h.001l.008-.001.009-.002.005-.001h.004l.008-.002.008-.001h.002l.006-.002.009-.002.007-.002h.001l.008-.002.009-.002.004-.002h.004l.008-.002.008-.002.002-.001.006-.002.008-.002.007-.002h.001l.008-.003.008-.003.005-.002.003-.001.008-.002.007-.003.002-.001.007-.002.007-.003.007-.002.001-.001.003-.001.005-.002.007-.004.004-.002.003-.001.008-.003.008-.004.002-.001.006-.001.007-.004.005-.004h.002l.007-.003.008-.004.003-.002.005-.001.007-.005.007-.004h.001l.006-.003.007-.005.006-.003h.001l.007-.005.007-.005.002-.002.005-.001.007-.005.007-.005.007-.004.006-.005.005-.003.002-.001 26.796-15.505a.907.907 0 0 0 .493-.667l.002-.007.003-.022h.001l.001-.014.002-.009v-.006l.001-.014v-.015l.002-.029.001-.005V76.331a.902.902 0 0 0-.506-.812l-26.796-15.505-.001-.001-.006-.004-.006-.004-.006-.004h-.001l-.006-.005-.008-.004-.004-.002-.003-.002-.007-.005-.007-.003-.001-.001h-.002l-.004-.004-.007-.003-.006-.004h-.001l-.007-.004-.007-.004-.005-.003h-.003l-.007-.004-.007-.004h-.002l-.006-.003-.007-.004-.007-.003h-.001l-.007-.004-.008-.003-.004-.002-.003-.001-.007-.003-.009-.004h-.001l-.007-.002-.007-.003-.006-.003h-.002l-.007-.003-.008-.003h-.004l-.005-.003-.008-.003-.008-.002h-.001l-.006-.002-.008-.003-.007-.002h-.001l-.009-.002-.008-.002-.003-.001-.005-.002-.008-.002-.008-.002h-.001l-.007-.002-.009-.001-.007-.002h-.001l-.009-.002-.008-.002h-.008l-.009-.003H241.875l-.007-.002-.009-.001-.007-.001h-.002l-.009-.001-.008-.001H241.824l-.008-.002h-.009l-.008-.002H241.772l-.009-.002H241.711l-.009.001h-.011l-.006.001h-.01l-.008.001-.009.001-.008.001h-.005l-.004.001h-.008l-.009.002h-.008l-.01.002-.007.002h-.009l-.009.002-.004.001h-.004l-.008.002-.008.002h-.002l-.006.002-.009.002-.007.001h-.001l-.008.002-.009.002-.004.002-.004.001-.008.002-.008.002h-.002l-.007.002-.008.003-.006.002h-.002l-.007.002-.008.003-.005.002h-.004l-.008.004-.007.002-.002.001-.006.003-.007.003-.007.002h-.001l-.008.004-.007.003-.004.001-.003.002-.009.003-.007.004h-.001l-.007.003-.007.004-.005.003h-.002l-.007.004-.007.003-.004.001-.005.003-.007.004-.007.003-.001.001-.006.004-.007.003-.004.003-.002.001h-.001l-.007.004-.007.005-.003.002-.004.002-.007.004-.006.005h-.001l-.007.004-.006.004-.005.004h-.002L214.435 75.52a.909.909 0 0 0-.493.667l-.002.007-.003.021v.001l-.001.014-.002.009v.005l-.001.015-.001.003v.012l-.002.029-.001.005v29.074c0 .357.207.664.506.812Zm24.354-12.308a3.894 3.894 0 0 0 1.879 1.086v24.746l-23.53-14.119 21.002-12.603c.177.326.395.625.649.89Zm28.617-15.855Zm0 0-21.391 12.577c.007.099.011.198.011.298l-.006.204 21.386 12.575V78.03Zm-29.952 13.065-.005-.19c0-.094.004-.19.01-.282L216.068 78.03v25.654l21.386-12.59Zm1.331-2.118a4.077 4.077 0 0 0-.605.81l-21.042-12.615 23.53-14.107v24.823a3.894 3.894 0 0 0-1.883 1.089Zm4.022-2.154c.733.172 1.391.56 1.905 1.093.231.24.433.51.601.803l21.024-12.61-23.53-14.113v24.827Zm1.908 7.046a4.07 4.07 0 0 0 .639-.874l20.983 12.596-23.53 14.126V94.966a3.89 3.89 0 0 0 1.908-1.097Zm-4.492-1.499c.386.386.922.625 1.514.625s1.128-.24 1.515-.625a2.14 2.14 0 0 0 .624-1.513c0-.591-.239-1.128-.624-1.514a2.144 2.144 0 0 0-1.515-.624 2.136 2.136 0 0 0-2.139 2.138c0 .591.239 1.127.625 1.513Z" fill="#E7E7E7"/><path fill-rule="evenodd" clip-rule="evenodd" d="m160.958 106.193 26.796 15.505h-.001l.002.001.006.003.006.005.006.004h.001l.006.005.007.005.005.001.003.002.007.005.007.005h.001l.005.003.007.005.007.003h.001l.007.004.007.005.005.001.003.002.007.004.008.003h.001l.006.004.007.004.005.001.002.001h.001l.007.004.008.003.004.001.003.002.008.004.003.002.005.001.001.001.007.002.007.003.006.002.002.001.007.003.008.002.004.001.004.002.009.003.007.003h.002l.006.002.008.002.006.002.002.001.009.002.008.002h.003l.005.002.008.002.008.002h.001l.007.002.009.002.007.002h.001l.008.001.009.002h.003l.005.001.009.002.008.001h.001l.007.002.009.001.006.001h.011l.004.001.008.001h.006l.008.001.009.001.008.001h.009l.006.001h.011l.009.001H188.286l.009-.001h.011l.006-.001h.009l.009-.001.009-.001.008-.001h.005l.008-.001.004-.001h.011l.006-.001.009-.001.007-.002h.001l.008-.001.01-.002.004-.001h.004l.008-.002.008-.001h.002l.006-.002.009-.002.008-.002.009-.002.008-.002.004-.002h.004l.008-.002.008-.002.002-.001.006-.002.009-.002.006-.002h.001l.008-.003.008-.003.005-.002.003-.001.009-.002.007-.003.002-.001.006-.002.007-.003.007-.002.001-.001.004-.001.004-.002.007-.004.004-.002.003-.001.009-.003.007-.004h.001l.001-.001.006-.001.007-.004.006-.004h.001l.008-.003.007-.004.003-.002.005-.001.007-.005.007-.004h.001l.006-.003.007-.005.006-.003h.001l.007-.005.007-.005.003-.002.004-.001.007-.005.007-.005h.001l.006-.004.006-.005.006-.003.001-.001 26.796-15.505a.907.907 0 0 0 .493-.667l.002-.007.003-.022h.001l.001-.014.002-.009v-.006l.001-.014.001-.003v-.012l.002-.029V76.331a.903.903 0 0 0-.505-.812l-26.796-15.505-.002-.001-.006-.004-.006-.004-.006-.004h-.001l-.006-.005-.007-.004-.005-.002-.003-.002-.007-.005-.007-.003-.001-.001h-.002l-.003-.004-.007-.003-.007-.004h-.001l-.007-.004-.007-.004-.004-.003h-.004l-.007-.004-.007-.004h-.002l-.006-.003-.007-.004-.007-.003h-.001l-.007-.004-.008-.003-.004-.002-.003-.001-.007-.003-.008-.004h-.001l-.007-.002-.008-.003-.006-.003h-.002l-.007-.003-.008-.003h-.004l-.004-.003-.009-.003-.008-.002h-.001l-.006-.002-.008-.003-.006-.002h-.002l-.009-.002-.008-.002-.003-.001-.005-.002-.008-.002-.008-.002h-.001l-.007-.002-.009-.001-.006-.002h-.002l-.008-.002-.009-.002h-.008l-.009-.003H188.398l-.007-.002-.009-.001-.006-.001h-.002l-.009-.001-.009-.001H188.347l-.008-.002h-.009l-.008-.002h-.026l-.009-.002H188.234l-.009.001h-.011l-.006.001h-.009l-.009.001-.009.001-.008.001h-.005l-.004.001h-.008l-.009.002h-.008l-.009.002-.007.002H188.114l-.01.002-.004.001h-.004l-.008.002-.008.002h-.002l-.006.002-.009.002-.007.001h-.001l-.008.002-.009.002-.004.002-.004.001-.008.002-.008.002h-.002l-.006.002-.009.003-.006.002h-.002l-.007.002-.008.003-.005.002h-.003l-.009.004-.007.002-.001.001-.007.003-.007.003-.007.002h-.001l-.008.004-.007.003-.004.001-.003.002-.008.003-.007.004h-.002l-.007.003-.007.004-.005.003h-.002l-.007.004-.007.003-.004.001-.004.003-.007.004-.008.003-.001.001-.006.004-.007.003-.004.003-.001.001h-.001l-.008.004-.007.005-.002.002-.005.002-.007.004-.006.005h-.001l-.006.004-.007.004-.005.004h-.002L160.958 75.52a.909.909 0 0 0-.493.667l-.002.007-.002.021-.001.001-.001.014-.002.009v.005l-.001.015-.001.003v.012l-.001.029-.002.005v29.074c0 .357.207.664.506.812Zm24.354-12.308a3.894 3.894 0 0 0 1.879 1.086v24.746l-23.53-14.119 21.002-12.603c.178.326.396.625.649.89Zm28.617-15.855Zm0 0-21.39 12.577c.006.099.01.198.01.298l-.005.204 21.385 12.575V78.03Zm-29.952 13.065-.004-.19c0-.094.003-.19.009-.282l-21.39-12.593v25.654l21.385-12.59Zm1.332-2.118a4.044 4.044 0 0 0-.606.81l-21.042-12.615 23.53-14.107v24.823a3.89 3.89 0 0 0-1.882 1.089Zm4.021-2.154a3.88 3.88 0 0 1 1.905 1.093c.231.24.433.51.601.803l21.024-12.61-23.53-14.113v24.827Zm1.909 7.046c.249-.26.464-.554.638-.874l20.983 12.596-23.53 14.126V94.966a3.893 3.893 0 0 0 1.909-1.097Zm-4.493-1.499c.386.386.923.625 1.514.625a2.135 2.135 0 0 0 2.139-2.138c0-.591-.239-1.128-.624-1.514a2.144 2.144 0 0 0-1.515-.624c-.591 0-1.128.239-1.514.624a2.14 2.14 0 0 0-.625 1.514c0 .591.239 1.127.625 1.513Z" fill="#E7E7E7"/><path fill-rule="evenodd" clip-rule="evenodd" d="m107.481 106.193 26.796 15.505.001.001.006.003.006.005.006.004h.001l.006.005.008.005.004.001.003.002.007.005.007.005h.001l.006.003.007.005.006.003h.001l.007.004.007.005.005.001.003.002.008.004.007.003h.001l.006.004.007.004.005.001.002.001h.001l.007.004.009.003.003.001.004.002.007.004.003.002.005.001.001.001.007.002.007.003.006.002.002.001.007.003.008.002.004.001.005.002.008.003.007.003h.002l.006.002.008.002.007.002.001.001.009.002.008.002h.003l.005.002.008.002.009.002.007.002.01.002.006.002h.001l.009.001.008.002h.003l.005.001.009.002.008.001h.001l.007.002.009.001.007.001h.011l.003.001.008.001h.006l.008.001.009.001.008.001h.009l.007.001h.011l.009.001H134.809l.009-.001h.011l.006-.001h.01l.008-.001.009-.001.008-.001h.005l.009-.001.003-.001h.011l.006-.001.01-.001.007-.002.009-.001.009-.002.004-.001h.004l.008-.002.008-.001h.002l.007-.002.009-.002.007-.002h.001l.008-.002.008-.002.004-.002h.004l.008-.002.008-.002.002-.001.007-.002.008-.002.006-.002h.001l.008-.003.008-.003.005-.002.004-.001.008-.002.007-.003.002-.001.006-.002.007-.003.007-.002.001-.001.004-.001.004-.002.007-.004.004-.002.004-.001.008-.003.007-.004h.001l.002-.001.005-.001.007-.004.006-.004h.002l.007-.003.007-.004.003-.002.005-.001.007-.005.007-.004h.001l.006-.003.008-.005.005-.003h.001l.007-.005.007-.005.003-.002.005-.001.007-.005.006-.005h.001l.006-.004.006-.005.006-.003.001-.001 26.797-15.505a.912.912 0 0 0 .493-.667l.002-.007.002-.022h.001l.001-.014.002-.009v-.006l.001-.014.001-.003v-.012l.002-.029.001-.005V76.331a.904.904 0 0 0-.506-.812L135.29 60.014l-.002-.001-.005-.004-.007-.004-.006-.004h-.001l-.006-.005-.007-.004-.005-.002-.003-.002-.007-.005-.007-.003-.001-.001h-.002l-.003-.004-.007-.003-.007-.004-.007-.004-.008-.004-.004-.003h-.004l-.007-.004-.007-.004h-.002l-.005-.003-.008-.004-.007-.003h-.001l-.007-.004-.008-.003-.003-.002-.004-.001-.007-.003-.008-.004h-.001l-.007-.002-.007-.003-.007-.003h-.002l-.007-.003-.008-.003h-.003l-.005-.003-.008-.003-.009-.002-.007-.002-.008-.003-.006-.002h-.002l-.008-.002-.009-.002-.003-.001-.004-.002-.009-.002-.008-.002h-.001l-.007-.002-.009-.001-.006-.002h-.002l-.008-.002-.009-.002h-.008l-.009-.003H134.921l-.007-.002-.009-.001-.006-.001h-.002l-.009-.001-.008-.001H134.871l-.009-.002h-.009l-.008-.002h-.026l-.009-.002H134.757l-.009.001h-.011l-.006.001h-.009l-.008.001-.009.001-.009.001h-.005l-.004.001h-.008l-.009.002h-.008l-.009.002-.007.002H134.637l-.009.002-.005.001h-.004l-.008.002-.008.002h-.002l-.006.002-.009.002-.007.001h-.001l-.008.002-.008.002-.005.002-.004.001-.008.002-.008.002h-.002l-.006.002-.008.003-.007.002h-.002l-.007.002-.008.003-.005.002h-.003l-.008.004-.007.002-.002.001-.006.003-.008.003-.007.002-.009.004-.007.003-.003.001-.004.002-.008.003-.007.004h-.001l-.007.003-.008.004-.005.003h-.002l-.007.004-.007.003-.004.001-.004.003-.007.004-.007.003-.002.001-.006.004-.007.003-.003.003-.002.001h-.001l-.007.004-.007.005-.003.002-.005.002-.007.004-.006.005h-.001l-.006.004-.006.004-.006.004h-.002L107.481 75.52a.909.909 0 0 0-.493.667l-.001.007-.003.021-.001.001-.001.014-.002.009v.005l-.001.015-.001.003v.012l-.001.029-.001.005v29.074c0 .357.206.664.505.812Zm24.354-12.308a3.894 3.894 0 0 0 1.879 1.086v24.746l-23.53-14.119 21.003-12.603c.177.326.395.625.648.89Zm28.617-15.855Zm0 0-21.39 12.577c.007.099.01.198.01.298l-.005.204 21.385 12.575V78.03ZM130.5 91.095l-.004-.19c0-.094.003-.19.009-.282l-21.39-12.593v25.654l21.385-12.59Zm1.332-2.118a4.082 4.082 0 0 0-.606.81l-21.042-12.615 23.53-14.107v24.823a3.89 3.89 0 0 0-1.882 1.089Zm4.021-2.154a3.88 3.88 0 0 1 1.905 1.093c.231.24.433.51.602.803l21.023-12.61-23.53-14.113v24.827Zm1.909 7.046c.249-.26.464-.554.639-.874l20.982 12.596-23.53 14.126V94.966a3.889 3.889 0 0 0 1.909-1.097Zm-4.493-1.499a2.14 2.14 0 0 0 1.514.625 2.136 2.136 0 0 0 2.14-2.138 2.14 2.14 0 0 0-.625-1.514 2.144 2.144 0 0 0-1.515-.624c-.591 0-1.128.239-1.514.624a2.14 2.14 0 0 0-.624 1.514c0 .591.238 1.127.624 1.513Z" fill="#E7E7E7"/><path fill-rule="evenodd" clip-rule="evenodd" d="M54.005 106.193 80.8 121.698H80.8l.002.001.005.003.006.005.007.004.007.005.007.005.004.001.003.002.007.005.007.005h.001l.006.003.007.005.006.003h.001l.007.004.008.005.004.001.004.002.007.004.007.003h.002l.005.004.007.004.006.001.001.001h.001l.007.004.009.003.003.001.004.002.007.004.004.002.004.001.001.001.007.002.007.003.007.002.001.001.007.003.008.002.004.001.005.002.008.003.007.003h.002l.006.002.008.002.007.002.002.001.008.002.008.002h.004l.004.002.008.002.009.002.008.002.009.002.006.002h.002l.008.001.008.002h.004l.004.001.01.002.008.001.007.002.01.001.006.001h.011l.003.001.009.001h.005l.008.001.01.001.008.001h.008l.007.001h.011l.009.001H81.332l.01-.001h.01l.007-.001h.009l.008-.001.009-.001.008-.001h.006l.008-.001.003-.001h.011l.007-.001.009-.001.007-.002.009-.001.009-.002.005-.001h.003l.008-.002.009-.001h.002l.006-.002.009-.002.007-.002.009-.002.008-.002.005-.002h.003l.008-.002.008-.002.002-.001.007-.002.008-.002.006-.002h.001l.008-.003.008-.003.005-.002.004-.001.008-.002.007-.003.002-.001.006-.002.007-.003.007-.002.001-.001.004-.001.005-.002.007-.004.003-.002.004-.001.008-.003.007-.004h.001l.002-.001.005-.001.007-.004.006-.004h.002l.007-.003.007-.004.004-.002.004-.001.007-.005.008-.004.007-.003.007-.005.005-.003h.001l.007-.005.007-.005.003-.002.005-.001.007-.005.006-.005h.001l.006-.004.007-.005.005-.003.002-.001 26.796-15.505a.91.91 0 0 0 .493-.667l.002-.007.003-.022.001-.014.002-.009v-.006l.001-.014.001-.003v-.012l.002-.029.001-.005V76.331a.904.904 0 0 0-.506-.812L81.813 60.014l-.002-.001-.005-.004-.007-.004-.006-.004-.007-.005-.007-.004-.005-.002-.002-.002-.008-.005-.007-.003v-.001h-.002l-.004-.004-.007-.003-.006-.004h-.001l-.007-.004-.007-.004-.005-.003h-.004l-.007-.004-.007-.004h-.002l-.005-.003-.007-.004-.008-.003-.007-.004-.009-.003-.003-.002-.004-.001-.007-.003-.008-.004-.008-.002-.007-.003-.007-.003h-.001l-.008-.003-.008-.003h-.003l-.005-.003-.008-.003-.008-.002h-.001l-.006-.002-.009-.003-.006-.002h-.002l-.008-.002-.008-.002-.004-.001-.004-.002-.008-.002-.009-.002-.008-.002-.009-.001-.006-.002h-.002l-.008-.002-.008-.002h-.008l-.01-.003h-.008l-.008-.002-.009-.001-.006-.001h-.002l-.009-.001-.008-.001H81.394l-.009-.002h-.009l-.008-.002h-.026l-.01-.002H81.28l-.009.001h-.011l-.006.001h-.009l-.008.001-.01.001-.007.001h-.006l-.003.001h-.009l-.009.002h-.008l-.009.002-.007.002h-.01l-.008.002-.005.001h-.003l-.009.002-.008.002h-.001l-.007.002-.009.002-.007.001-.009.002-.008.002-.005.002-.003.001-.009.002-.008.002h-.002l-.006.002-.008.003-.007.002h-.001l-.008.002-.008.003-.004.002h-.004l-.008.004-.007.002-.002.001-.006.003-.007.003-.007.002h-.001l-.008.004-.008.003-.003.001-.004.002-.008.003-.007.004h-.001l-.007.003-.007.004-.006.003h-.002l-.007.004-.007.003-.003.001-.005.003-.007.004-.007.003-.001.001-.007.004-.007.003-.003.003-.002.001h-.001l-.007.004-.007.005-.003.002-.004.002-.007.004-.007.005-.007.004-.006.004-.006.004h-.001L54.005 75.52a.909.909 0 0 0-.494.667l-.001.007-.003.021v.001l-.002.014-.002.009v.02l-.001.003v.012l-.002.029-.001.005v29.074c0 .357.206.664.506.812Zm24.353-12.308c.51.527 1.156.91 1.88 1.086v24.746l-23.53-14.119L77.71 92.995c.177.326.395.625.648.89Zm28.617-15.855h.001-.001Zm0 0-21.39 12.577c.007.099.01.198.01.298l-.005.204 21.385 12.575V78.03ZM77.024 91.095l-.005-.19c0-.094.003-.19.01-.282L55.638 78.03v25.654l21.385-12.59Zm1.33-2.118a4.083 4.083 0 0 0-.605.81L56.708 77.173l23.53-14.107v24.823a3.892 3.892 0 0 0-1.883 1.089Zm4.022-2.154c.734.172 1.391.56 1.906 1.093.23.24.432.51.6.803l21.024-12.61-23.53-14.113v24.827Zm1.909 7.046c.249-.26.465-.554.639-.874l20.982 12.596-23.53 14.126V94.966a3.89 3.89 0 0 0 1.909-1.097Zm-4.493-1.499c.387.386.923.625 1.515.625a2.136 2.136 0 0 0 2.14-2.138c-.001-.591-.24-1.128-.626-1.514a2.143 2.143 0 0 0-1.514-.624c-.592 0-1.128.239-1.515.624a2.14 2.14 0 0 0-.624 1.514c0 .591.238 1.127.624 1.513Z" fill="#E7E7E7"/><path fill-rule="evenodd" clip-rule="evenodd" d="m.528 106.193 26.796 15.505h-.001l.002.001.005.003.006.005.007.004.007.005.007.005.004.001.003.002.007.005.007.005h.001l.006.003.007.005.006.003h.001l.008.004.007.005.004.001.004.002.007.004.007.003h.002l.005.004.007.004.006.001.002.001.008.004.008.003.003.001.004.002.007.004.004.002.004.001.001.001.007.002.007.003.007.002.001.001.008.003.008.002.003.001.005.002.008.003.007.003h.002l.006.002.009.002.006.002.002.001.008.002.008.002h.004l.005.002.008.002.008.002.008.002.009.002.006.002h.002l.008.001.008.002h.004l.005.001.009.002.008.001.008.002.009.001.006.001h.011l.003.001.009.001h.005l.008.001.01.001.008.001h.009l.006.001h.011l.009.001H27.856l.009-.001h.011l.006-.001h.009l.008-.001.01-.001.007-.001h.006l.008-.001.004-.001h.011l.006-.001.009-.001.007-.002.01-.001.008-.002.005-.001h.003l.009-.002.008-.001h.002l.006-.002.009-.002.007-.002.01-.002.007-.002.005-.002h.003l.008-.002.009-.002.002-.001.006-.002.008-.002.007-.002.009-.003.008-.003.004-.002.004-.001.008-.002.007-.003.002-.001.007-.002.007-.003.007-.002v-.001l.004-.001.005-.002.007-.004.003-.002.004-.001.008-.003.007-.004h.001l.002-.001.006-.001.007-.004.005-.004h.002l.007-.003.007-.004.004-.002.005-.001.007-.005.007-.004.007-.003.007-.005.005-.003h.001l.007-.005.008-.005.002-.002.005-.001.007-.005.006-.005h.001l.007-.004.006-.005.005-.003.002-.001 26.796-15.505a.91.91 0 0 0 .493-.667l.002-.007.003-.022.001-.014.002-.009v-.006l.001-.014.001-.003v-.012l.002-.029V76.331a.903.903 0 0 0-.505-.812L28.336 60.014l-.002-.001-.005-.004-.006-.004-.007-.004-.007-.005-.007-.004-.005-.002-.002-.002-.007-.005-.007-.003-.001-.001h-.002l-.004-.004-.007-.003-.006-.004h-.001l-.007-.004-.007-.004-.005-.003h-.003l-.008-.004-.007-.004h-.002l-.005-.003-.007-.004-.007-.003H28.2l-.007-.004-.008-.003-.004-.002-.004-.001-.007-.003-.008-.004-.008-.002-.007-.003-.006-.003h-.002l-.007-.003-.008-.003h-.004l-.005-.003-.008-.003-.008-.002h-.001l-.006-.002-.009-.003-.006-.002h-.002l-.008-.002-.008-.002-.004-.001-.004-.002-.008-.002-.009-.002-.007-.002-.01-.001-.006-.002h-.002l-.008-.002-.008-.002h-.008l-.01-.003h-.008l-.008-.002-.009-.001-.006-.001h-.002l-.009-.001-.008-.001H27.917l-.008-.002h-.01l-.008-.002h-.026l-.009-.002H27.804l-.01.001h-.01l-.007.001h-.009l-.008.001-.009.001-.008.001h-.006l-.003.001h-.009l-.009.002h-.008l-.009.002-.007.002h-.009l-.009.002-.005.001h-.003l-.008.002-.009.002h-.001l-.006.002-.01.002-.007.001-.009.002-.008.002-.005.002-.003.001-.008.002-.009.002h-.002l-.006.002-.008.003-.006.002h-.002l-.007.002-.009.003-.004.002h-.004l-.008.004-.007.002-.002.001-.006.003-.007.003-.007.002h-.001l-.008.004-.007.003-.004.001-.004.002-.008.003-.007.004h-.001l-.007.003-.007.004-.006.003h-.001l-.008.004-.007.003-.003.001-.005.003-.007.004-.007.003-.001.001-.006.004-.008.003-.003.003-.002.001-.008.004-.007.005-.003.002-.004.002-.007.004-.007.005-.007.004-.006.004-.005.004h-.002L.528 75.52a.908.908 0 0 0-.493.667l-.002.007-.003.021v.001l-.001.014-.002.009v.005l-.001.015-.001.003v.012l-.002.029-.001.005v29.074c0 .357.207.664.506.812Zm24.354-12.308c.509.527 1.155.91 1.878 1.086v24.746L3.23 105.598l21.003-12.603c.177.326.395.625.649.89ZM53.499 78.03Zm0 0-21.39 12.577c.006.099.01.198.01.298l-.006.204L53.5 103.684V78.03ZM23.547 91.095l-.005-.19c0-.094.004-.19.01-.282L2.162 78.03v25.654l21.385-12.59Zm1.331-2.118a4.083 4.083 0 0 0-.605.81L3.23 77.173l23.53-14.107v24.823a3.892 3.892 0 0 0-1.883 1.089Zm4.021-2.154c.734.172 1.392.56 1.906 1.093.23.24.433.51.601.803l21.023-12.61L28.9 61.997v24.827Zm1.91 7.046c.248-.26.464-.554.638-.874L52.43 105.59 28.9 119.717V94.966a3.89 3.89 0 0 0 1.91-1.097Zm-4.494-1.499c.387.386.923.625 1.515.625a2.136 2.136 0 0 0 2.14-2.138c0-.591-.24-1.128-.626-1.514a2.143 2.143 0 0 0-1.514-.624c-.592 0-1.128.239-1.515.624a2.14 2.14 0 0 0-.624 1.514c0 .591.239 1.127.624 1.513ZM160.958 46.334l26.796 15.505h-.001l.002.001.006.004.006.005.006.003.001.001.006.005.007.004.005.002.003.002.007.005.007.004h.001l.005.004.007.005.007.002.001.001.007.004.007.004.005.002.003.002.007.004.008.003h.001l.006.004.007.003.005.002h.003l.007.005.008.003h.004l.003.003.008.003.003.002.005.001.001.001.007.003.007.003.006.002h.002l.007.003.008.003.004.001.004.002.009.002.007.003h.002l.006.003.008.002.006.002h.002l.009.002.008.003h.003l.005.002.008.002.008.002h.001l.007.001.009.002.007.002h.001l.008.002.009.002h.008l.009.002.008.002h.001l.007.001.009.001.006.001h.002l.009.001.004.001h.014l.008.002h.009l.008.002h.026l.009.002H188.286l.009-.001h.011l.006-.001h.009l.009-.001.009-.001.008-.001H188.36l.004-.002h.011l.006-.002h.009l.007-.002h.001l.008-.002.01-.001.004-.001h.004l.008-.002.008-.002h.002l.006-.002.009-.002.008-.001.009-.002.008-.002.004-.002h.004l.008-.003.008-.001.002-.002.006-.002.009-.001.006-.003h.001l.008-.003.008-.002.005-.002.003-.001.009-.003.007-.003h.002l.006-.002.007-.003.007-.003h.001l.004-.002.004-.002.007-.003.004-.002.003-.001.009-.004.007-.003h.002l.006-.003.007-.003.006-.004h.001l.008-.003.007-.004.003-.002.005-.002.007-.004.007-.004h.001l.006-.004.007-.004.006-.004h.001l.007-.004.007-.005.003-.002.004-.002.007-.004.007-.005h.001l.006-.004.006-.005.006-.004h.001l26.796-15.505a.907.907 0 0 0 .493-.667l.002-.007.003-.022h.001l.001-.015.002-.009v-.005l.001-.015.001-.002v-.012l.002-.03V16.473a.903.903 0 0 0-.505-.812L188.767.155h-.002l-.006-.004-.006-.004-.006-.004h-.001l-.006-.005-.007-.004-.005-.003-.003-.001-.007-.005-.007-.004h-.001l-.002-.001-.003-.003-.007-.004-.007-.003-.001-.001-.007-.004-.007-.003-.004-.003h-.004l-.007-.004-.007-.004h-.002l-.006-.004-.007-.003-.007-.004h-.001l-.007-.003-.008-.003-.004-.002-.003-.002-.007-.002-.008-.004h-.001l-.007-.003-.008-.002-.006-.003-.002-.001-.007-.003-.008-.002-.004-.001-.004-.002-.009-.003-.008-.003h-.001l-.006-.002-.008-.002-.006-.002h-.002l-.009-.003-.008-.001-.003-.002-.005-.001-.008-.002-.008-.002h-.001l-.007-.002-.009-.002-.006-.001h-.002l-.008-.002-.009-.002h-.003l-.005-.001-.009-.002H188.398l-.007-.003h-.009l-.006-.001h-.002l-.009-.002h-.009l-.003-.001h-.006l-.008-.001-.009-.001-.008-.001h-.009L188.307 0h-.108l-.009.002h-.009l-.008.002H188.164l-.008.001-.009.002h-.008l-.009.001-.007.002H188.114l-.01.003h-.008l-.008.003-.008.002h-.002l-.006.001-.009.002-.007.002h-.001l-.008.002-.009.002-.004.001-.004.002-.008.001-.008.003h-.002l-.006.002-.009.002-.006.002h-.002l-.007.003-.008.003-.005.002h-.003l-.009.003-.007.003h-.001l-.007.004-.007.002-.007.002-.001.001-.008.004-.007.002-.004.002-.003.002-.008.003-.007.003h-.002l-.007.004-.007.003-.005.003h-.002l-.007.005-.007.003h-.004l-.004.004-.007.003-.008.004h-.001l-.006.004-.007.004-.004.003h-.001l-.001.001-.008.004-.007.005-.002.001-.005.003-.007.004-.006.004-.001.001-.006.004-.007.004-.005.004h-.002L160.958 15.66a.909.909 0 0 0-.493.667l-.002.007-.002.022h-.001l-.001.015-.002.009v.005l-.001.015-.001.002v.012l-.001.03-.002.005V45.523c0 .357.207.664.506.811Zm24.354-12.308a3.894 3.894 0 0 0 1.879 1.087v24.746l-23.53-14.12 21.002-12.603c.178.326.396.626.649.89Zm28.617-15.854Zm0 0-21.39 12.577c.006.098.01.198.01.298l-.005.203 21.385 12.575V18.172Zm-29.952 13.064-.004-.19c0-.094.003-.189.009-.282l-21.39-12.592v25.653l21.385-12.589Zm1.332-2.117a4.044 4.044 0 0 0-.606.81l-21.042-12.615 23.53-14.107v24.822a3.89 3.89 0 0 0-1.882 1.09Zm4.021-2.154a3.88 3.88 0 0 1 1.905 1.093c.231.24.433.51.601.802l21.024-12.609-23.53-14.113v24.827Zm1.909 7.045c.249-.26.464-.553.638-.874l20.983 12.596-23.53 14.127V35.107a3.893 3.893 0 0 0 1.909-1.097Zm-4.493-1.498c.386.386.923.624 1.514.624.592 0 1.128-.24 1.515-.624.386-.387.624-.922.624-1.514 0-.59-.239-1.127-.624-1.513a2.144 2.144 0 0 0-1.515-.625c-.591 0-1.128.24-1.514.625a2.14 2.14 0 0 0-.625 1.513c0 .592.239 1.128.625 1.514Z" fill="#E7E7E7"/><path fill-rule="evenodd" clip-rule="evenodd" d="m107.481 46.334 26.796 15.505.001.001.006.004.006.005.006.003.001.001.006.005.008.004.004.002.003.002.007.005.007.004h.001l.006.004.007.005.006.002.001.001.007.004.007.004.005.002.003.002.008.004.007.003h.001l.006.004.007.003.005.002h.003l.007.005.009.003h.003l.004.003.007.003.003.002.005.001.001.001.007.003.007.003.006.002h.002l.007.003.008.003.004.001.005.002.008.002.007.003h.002l.006.003.008.002.007.002h.001l.009.002.008.003h.003l.005.002.008.002.009.002.007.001.01.002.006.002h.001l.009.002.008.002h.008l.009.002.008.002h.001l.007.001.009.001.007.001h.002l.009.001.003.001h.014l.008.002h.009l.008.002H134.748l.009.002H134.809l.009-.001h.011l.006-.001h.01l.008-.001.009-.001.008-.001H134.884l.003-.002h.011l.006-.002h.01l.007-.002.009-.002.009-.001.004-.001h.004l.008-.002.008-.002h.002l.007-.002.009-.002.007-.001h.001l.008-.002.008-.002.004-.002h.004l.008-.003.008-.001.002-.002.007-.002.008-.001.006-.003h.001l.008-.003.008-.002.005-.002.004-.001.008-.003.007-.003h.002l.006-.002.007-.003.007-.003h.001l.004-.002.004-.002.007-.003.004-.002.004-.001.008-.004.007-.003h.003l.005-.003.007-.003.006-.004h.002l.007-.003.007-.004.003-.002.005-.002.007-.004.007-.004h.001l.006-.004.008-.004.005-.004h.001l.007-.004.007-.005.003-.002.005-.002.007-.004.006-.005h.001l.006-.004.006-.005.006-.004h.001l26.797-15.505a.912.912 0 0 0 .493-.667l.002-.007.002-.022h.001l.001-.015.002-.009v-.005l.001-.015.001-.002v-.012l.002-.03.001-.005V16.472a.904.904 0 0 0-.506-.812L135.29.155h-.002l-.005-.004-.007-.004-.006-.004h-.001l-.006-.005-.007-.004-.005-.003-.003-.001-.007-.005-.007-.004h-.001l-.002-.001-.003-.003-.007-.004-.007-.003V.109l-.007-.004-.008-.003-.004-.003h-.004l-.007-.004-.007-.004h-.002l-.005-.004-.008-.003-.007-.004h-.001l-.007-.003-.008-.003-.003-.002-.004-.002-.007-.002-.008-.004h-.001l-.007-.003-.007-.002-.007-.003-.002-.001-.007-.003-.008-.002-.003-.001-.005-.002-.008-.003-.009-.003-.007-.002-.008-.002-.006-.002h-.002l-.008-.003-.009-.001-.003-.002-.004-.001-.009-.002-.008-.002h-.001l-.007-.002-.009-.002-.006-.001h-.002l-.008-.002-.009-.002h-.003l-.005-.001-.009-.002H134.921l-.007-.003h-.009l-.006-.001h-.002l-.009-.002h-.008l-.004-.001h-.005l-.009-.001-.009-.001-.008-.001h-.009L134.83 0h-.108l-.008.002h-.009l-.009.002H134.687l-.008.001-.009.002h-.008l-.009.001-.007.002H134.637l-.009.003H134.619l-.008.003-.008.002h-.002l-.006.001-.009.002-.007.002h-.001l-.008.002-.008.002-.005.001-.004.002-.008.001-.008.003h-.002l-.006.002-.008.002-.007.002h-.002l-.007.003-.008.003-.005.002h-.003l-.008.003-.007.003h-.002l-.006.004-.008.002-.007.002v.001l-.009.004-.007.002-.003.002-.004.002-.008.003-.007.003h-.001l-.007.004-.008.003-.005.003h-.002l-.007.005-.007.003h-.004l-.004.004-.007.003-.007.004h-.002l-.006.004-.007.004-.003.003h-.002l-.001.001-.007.004-.007.005-.003.001-.005.003-.007.004-.006.004-.001.001-.006.004-.006.004-.006.004h-.002L107.481 15.66a.909.909 0 0 0-.493.667l-.001.007-.003.022h-.001l-.001.015-.002.009v.005l-.001.015-.001.002v.012l-.001.03-.001.005V45.523c0 .357.206.664.505.811Zm24.354-12.308a3.894 3.894 0 0 0 1.879 1.087v24.746l-23.53-14.12 21.003-12.603c.177.326.395.626.648.89Zm28.617-15.854Zm0 0-21.39 12.577c.007.098.01.198.01.298l-.005.203 21.385 12.575V18.172ZM130.5 31.236l-.004-.19c0-.094.003-.189.009-.282l-21.39-12.592v25.653L130.5 31.236Zm1.332-2.117a4.082 4.082 0 0 0-.606.81l-21.042-12.615 23.53-14.107v24.822a3.89 3.89 0 0 0-1.882 1.09Zm4.021-2.154a3.88 3.88 0 0 1 1.905 1.093c.231.24.433.51.602.802l21.023-12.609-23.53-14.113v24.827Zm1.909 7.045c.249-.26.464-.553.639-.874l20.982 12.596-23.53 14.127V35.107a3.889 3.889 0 0 0 1.909-1.097Zm-4.493-1.498a2.14 2.14 0 0 0 1.514.624 2.136 2.136 0 0 0 2.14-2.138 2.14 2.14 0 0 0-.625-1.513 2.144 2.144 0 0 0-1.515-.625c-.591 0-1.128.24-1.514.625a2.14 2.14 0 0 0-.624 1.513c0 .592.238 1.128.624 1.514Z" fill="#E7E7E7"/><path fill-rule="evenodd" clip-rule="evenodd" d="M54.005 46.334 80.8 61.84H80.8l.002.001.005.004.006.005.007.003v.001l.007.005.007.004.004.002.003.002.007.005.007.004h.001l.006.004.007.005.006.002.001.001.007.004.008.004.004.002.004.002.007.004.007.003h.002l.005.004.007.003.006.002h.002l.007.005.009.003h.003l.004.003.007.003.004.002.004.001.001.001.007.003.007.003.007.002h.001l.007.003.008.003.004.001.005.002.008.002.007.003h.002l.006.003.008.002.007.002h.002l.008.002.008.003h.004l.004.002.008.002.009.002.008.001.009.002.006.002h.002l.008.002.008.002h.008l.01.002.008.002.007.001.01.001.006.001h.002l.009.001.003.001H81.22l.008.002h.01l.008.002h.026l.009.002H81.332l.01-.001h.01l.007-.001h.009l.008-.001.009-.001.008-.001h.014l.003-.002h.011l.007-.002h.009l.007-.002.009-.002.009-.001.005-.001h.003l.008-.002.009-.002h.002l.006-.002.009-.002.007-.001.009-.002.008-.002.005-.002h.003l.008-.003.008-.001.002-.002.007-.002.008-.001.006-.003h.001l.008-.003.008-.002.005-.002.004-.001.008-.003.007-.003h.002l.006-.002.007-.003.007-.003h.001l.004-.002.005-.002.007-.003.003-.002.004-.001.008-.004.007-.003h.003l.005-.003.007-.003.006-.004h.002l.007-.003.007-.004.004-.002.004-.002.007-.004.008-.004.007-.004.007-.004.005-.004h.001l.007-.004.007-.005.003-.002.005-.002.007-.004.006-.005h.001l.006-.004.007-.005.005-.004h.002l26.796-15.505a.91.91 0 0 0 .493-.667l.002-.007.003-.022.001-.015.002-.009v-.005l.001-.015.001-.002v-.012l.002-.03.001-.005V16.472a.904.904 0 0 0-.506-.812L81.813.155h-.002L81.806.15l-.007-.004-.006-.004-.007-.005-.007-.004-.005-.003-.002-.001-.008-.005-.007-.004-.002-.001-.004-.003-.007-.004-.006-.003-.001-.001-.007-.004-.007-.003-.005-.003h-.004l-.007-.004L81.7.09h-.002l-.005-.004-.007-.003-.008-.004-.007-.003-.009-.003-.003-.002-.004-.002-.007-.002-.008-.004-.008-.003-.007-.002-.007-.003-.001-.001-.008-.003-.008-.002-.003-.001-.005-.002-.008-.003-.008-.003h-.001L81.57.04 81.56.037l-.006-.002h-.002l-.008-.003-.008-.001-.004-.002-.004-.001-.008-.002-.009-.002-.008-.002-.009-.002L81.49.02h-.002L81.48.017 81.47.015h-.004l-.004-.001-.01-.002h-.008l-.008-.003h-.009l-.006-.001h-.002l-.009-.002h-.008l-.004-.001h-.005l-.009-.001-.009-.001-.008-.001h-.009L81.353 0h-.108l-.008.002h-.01l-.007.002H81.21l-.009.001-.009.002h-.008l-.009.001-.007.002h-.01l-.008.003h-.008l-.009.003-.008.002h-.001l-.007.001-.009.002-.007.002-.009.002-.008.002-.005.001-.003.002-.009.001-.008.003h-.002l-.006.002-.008.002-.007.002h-.001l-.008.003-.008.003-.004.002h-.004l-.008.003-.007.003h-.002L80.99.06l-.007.002-.007.002-.001.001-.008.004-.008.002-.003.002-.004.002-.008.003-.007.003h-.001l-.007.004-.007.003-.006.003h-.002l-.007.005-.007.003h-.003l-.005.004-.007.003-.007.004h-.001l-.007.004-.007.004-.003.003h-.002l-.001.001-.007.004-.007.005-.003.001-.004.003-.007.004-.007.004v.001l-.007.004-.006.004-.006.004h-.001L54.005 15.66a.909.909 0 0 0-.494.667l-.001.007-.003.022-.002.015-.002.009v.02l-.001.002v.012l-.002.03-.001.005V45.523c0 .357.206.664.506.811Zm24.353-12.308c.51.527 1.156.911 1.88 1.087v24.746l-23.53-14.12L77.71 33.136c.177.326.395.626.648.89Zm28.617-15.854h.001-.001Zm0 0-21.39 12.577c.007.098.01.198.01.298l-.005.203 21.385 12.575V18.172ZM77.024 31.236l-.005-.19c0-.094.003-.189.01-.282L55.638 18.172v25.653l21.385-12.589Zm1.33-2.117a4.083 4.083 0 0 0-.605.81L56.708 17.314l23.53-14.107v24.822a3.892 3.892 0 0 0-1.883 1.09Zm4.022-2.154c.734.172 1.391.56 1.906 1.093.23.24.432.51.6.802l21.024-12.609-23.53-14.113v24.827Zm1.909 7.045c.249-.26.465-.553.639-.874l20.982 12.596-23.53 14.127V35.107a3.89 3.89 0 0 0 1.909-1.097Zm-4.493-1.498c.387.386.923.624 1.515.624.591 0 1.128-.24 1.514-.624.386-.387.625-.922.625-1.514 0-.59-.24-1.127-.625-1.513a2.143 2.143 0 0 0-1.514-.625c-.592 0-1.128.24-1.515.625a2.14 2.14 0 0 0-.624 1.513c0 .592.238 1.128.624 1.514Z" fill="#E7E7E7"/></svg>