<svg xmlns="http://www.w3.org/2000/svg" width="44" height="53" fill="none"><path fill="url(#a)" fill-rule="evenodd" d="M40.67 18.74a10.566 10.566 0 0 0-5.271-2.879v-2.31c0-7.413-6.01-13.422-13.421-13.422-7.413 0-13.422 6.009-13.422 13.421v2.315a10.648 10.648 0 0 0-5.25 17.93l18.09 18.087a.837.837 0 0 0 1.185 0L40.67 33.796c4.15-4.16 4.151-10.894 0-15.055Zm-30.436-5.19c0-6.486 5.258-11.743 11.744-11.743 6.485 0 11.743 5.257 11.743 11.743v2.088a10.893 10.893 0 0 0-1.678.04V13.55c0-5.56-4.506-10.066-10.065-10.066-5.56 0-10.066 4.507-10.066 10.066v2.127a10.785 10.785 0 0 0-1.678-.037v-2.09Zm20.132 2.437V13.55a8.388 8.388 0 1 0-16.777 0v2.432a10.563 10.563 0 0 1 4.772 2.758l3.627 3.627 3.628-3.627a10.567 10.567 0 0 1 4.75-2.753Zm9.117 16.622L21.988 50.103 4.492 32.61a8.968 8.968 0 0 1 12.683-12.683l4.22 4.22a.839.839 0 0 0 1.186 0l4.22-4.22A8.968 8.968 0 1 1 39.484 32.61Zm-17.505-5.638a4.194 4.194 0 0 0-2.517 7.55v3.355c0 .464.376.839.839.839h3.355a.839.839 0 0 0 .84-.839v-3.355a4.194 4.194 0 0 0-2.517-7.55Zm1.257 6.375a.84.84 0 0 0-.419.726v2.965H21.14v-2.965c0-.3-.16-.576-.419-.726a2.516 2.516 0 1 1 2.515 0Z" clip-rule="evenodd"/><defs><linearGradient id="a" x1="-11.171" x2="19.649" y1="14.299" y2="61.709" gradientUnits="userSpaceOnUse"><stop stop-color="#AC6C44"/><stop offset="1" stop-color="#301103"/></linearGradient></defs></svg>