<svg xmlns="http://www.w3.org/2000/svg" width="48" height="49" fill="none"><path fill="url(#a)" fill-rule="evenodd" d="m47.367.748.003.003.004.003c.77.77.838 1.992.159 2.843A710.776 710.776 0 0 1 31.908 22.46l13.898 13.896a3.493 3.493 0 0 1 1.03 2.486c0 .94-.366 1.822-1.03 2.486l-1.491 1.491-.001.001-5.101 5.102a.702.702 0 0 1-.995 0 .703.703 0 0 1 0-.995l4.605-4.604-1.007-1.006-4.604 4.604a.701.701 0 0 1-.995 0 .703.703 0 0 1 0-.994l4.605-4.605-1.006-1.006-4.605 4.604a.701.701 0 0 1-.994 0 .703.703 0 0 1 0-.994l4.604-4.604-1.006-1.007-4.604 4.605a.702.702 0 0 1-.995 0 .703.703 0 0 1 0-.995l4.605-4.604-1.006-1.006-4.605 4.604a.701.701 0 0 1-.994 0 .703.703 0 0 1 0-.994l4.604-4.605-1.006-1.006-4.605 4.605a.701.701 0 0 1-.994 0 .703.703 0 0 1 0-.995l4.604-4.604-1.006-1.006-4.604 4.604a.701.701 0 0 1-.995 0 .703.703 0 0 1 0-.994l4.605-4.605-1.006-1.006-4.605 4.605a.701.701 0 0 1-.994 0 .703.703 0 0 1 0-.995l4.604-4.604-1.06-1.06a760.446 760.446 0 0 1-7.513 8.49l-1.436 1.631a6.28 6.28 0 0 1 1.803 4.423c.004 3.502-2.838 6.325-6.325 6.325h-.008c-4.268 0-7.338-4.162-6.019-8.267a6.326 6.326 0 1 1-1.939-12.346h.01c1.848 0 3.596.803 4.798 2.201a.703.703 0 0 1 .062 1.093l-.007.006a.705.705 0 0 1-1.028-.07 4.913 4.913 0 0 0-3.83-1.824 4.917 4.917 0 0 0-4.92 4.915c.004 4.431 5.388 6.566 8.446 3.437l2.12-2.12a4.673 4.673 0 0 0 1.371-3.331 4.634 4.634 0 0 0-1.05-2.948h-.002c-.206-.207-.285-.736.13-1.037.3-.269.6-.545.896-.817.378-.347.749-.688 1.102-1.002l.001-.001a728.486 728.486 0 0 1 6.43-5.665L19.81 19.31l-4.605 4.605a.7.7 0 0 1-.994 0 .703.703 0 0 1 0-.995l4.605-4.604-1.007-1.007-4.604 4.605a.701.701 0 0 1-.994 0 .703.703 0 0 1 0-.995l4.604-4.604-1.006-1.006-4.605 4.604a.701.701 0 0 1-.994 0 .703.703 0 0 1 0-.994l4.604-4.605-1.006-1.006-4.604 4.605a.701.701 0 0 1-.994 0 .703.703 0 0 1 0-.995l4.604-4.604-1.006-1.006-4.605 4.604a.7.7 0 0 1-.994 0 .703.703 0 0 1 0-.995l4.604-4.604-1.006-1.006-4.604 4.604a.7.7 0 0 1-.995 0 .703.703 0 0 1 0-.994l4.605-4.604-1.006-1.007L3.2 11.912a.701.701 0 0 1-.994 0 .703.703 0 0 1 0-.995L6.81 6.313 5.805 5.307 1.201 9.91a.703.703 0 0 1-.995-.994L6.8 2.324a3.52 3.52 0 0 1 4.972 0l13.883 13.882A723.432 723.432 0 0 1 44.53.596c.375-.301.847-.467 1.33-.467h.003a2.15 2.15 0 0 1 1.503.619ZM7.794 3.318l-.995.994 15.115 15.115a725.26 725.26 0 0 1 2.67-2.302L10.776 3.318a2.112 2.112 0 0 0-2.983 0ZM44.81 37.352c.399.399.618.928.618 1.492 0 .563-.22 1.093-.618 1.491l-.994.995-9.27-9.27-5.863-5.863a744.73 744.73 0 0 0 2.306-2.666L44.81 37.352ZM19.432 34.26c.06.042.114.079.158.112C35.117 17.068 46.44 2.725 46.498 2.624l-.412.412-.015.015c-3.496 3.494-27.186 27.176-27.264 27.265a.704.704 0 0 1-1.052-.933c.119-.134 24.201-24.207 27.4-27.405l.003-.002.005-.006.34-.34c-.274.157-14.9 11.842-30.145 25.435l-.003.004c-.392.35-.746.675-1.114 1.014h-.001l-.002.002-.468.43c.641.978.98 2.123.98 3.308a6.105 6.105 0 0 1-1.783 4.325l-2.086 2.086c-.013.018-.043.05-.087.096-.33.35-1.43 1.509-1.432 3.474a4.92 4.92 0 0 0 4.922 4.919 4.915 4.915 0 0 0 4.922-4.919 4.905 4.905 0 0 0-1.828-3.826.704.704 0 0 1-.078-1.018c.337-.373.644-.724.975-1.103l.377-.431a4.137 4.137 0 0 0-.151-.104 3.832 3.832 0 0 1-1.708-2.78.704.704 0 0 1 1.396-.165c.132 1.117.838 1.604 1.243 1.883Zm-16.619-.42c0-3.105 3.784-4.703 6.002-2.485a3.516 3.516 0 1 1-6.002 2.485Zm3.516-2.108c-1.886 0-2.808 2.282-1.491 3.6.822.822 2.16.821 2.983 0 1.311-1.312.4-3.6-1.492-3.6Zm7.955 6.558c-1.446 0-2.688.83-3.241 2.166-.556 1.343-.267 2.812.755 3.834a3.457 3.457 0 0 0 3.826.758c1.342-.556 2.176-1.799 2.176-3.243a3.52 3.52 0 0 0-3.516-3.515Zm.802 5.459c-.63.26-1.562.278-2.293-.453-.732-.732-.713-1.669-.451-2.301.26-.628.907-1.299 1.942-1.299 1.163 0 2.11.946 2.11 2.109 0 1.034-.676 1.682-1.308 1.944Z" clip-rule="evenodd"/><defs><linearGradient id="a" x1="-12.507" x2="13.654" y1="13.209" y2="61.209" gradientUnits="userSpaceOnUse"><stop stop-color="#AC6C44"/><stop offset="1" stop-color="#301103"/></linearGradient></defs></svg>