<svg xmlns="http://www.w3.org/2000/svg" width="51" height="52" fill="none"><path fill="url(#a)" fill-rule="evenodd" d="m21.87 5.641-.52-.65a2.596 2.596 0 0 1-.002-3.247.996.996 0 1 0-1.56-1.238 4.58 4.58 0 0 0 .005 5.726l.518.65a3.393 3.393 0 0 1 .003 4.243l-.53.67a.996.996 0 1 0 1.56 1.238l.53-.67a5.377 5.377 0 0 0-.005-6.722Zm19.966 15.057h8.168c.55 0 .996.446.996.996v7.122c0 5.291-4.305 9.596-9.596 9.596h-2.811a21.038 21.038 0 0 1-4.613 5.146h9.25c.55 0 .997.446.997.996a6.582 6.582 0 0 1-6.575 6.575H6.574A6.582 6.582 0 0 1 0 44.554c0-.55.446-.996.996-.996h6.86a21.03 21.03 0 0 1-4.93-5.66A20.891 20.891 0 0 1 0 27.223V18.59c0-.55.446-.996.996-.996h7.67a.996.996 0 0 1 0 1.992H1.992v7.636a18.978 18.978 0 0 0 9.365 16.336H30.48a18.979 18.979 0 0 0 9.365-16.336v-7.636h-20.52a.996.996 0 0 1 0-1.992H40.84c.55 0 .996.445.996.996v2.108Zm-4.184 28.438a4.59 4.59 0 0 0 4.473-3.586H2.101a4.59 4.59 0 0 0 4.473 3.587h31.078Zm4.184-21.914v-.547h3.187v2.141a3.623 3.623 0 0 1-3.619 3.62h-.226c.435-1.695.658-3.446.658-5.214Zm-.432 9.198c4.193 0 7.604-3.411 7.604-7.604V22.69h-7.172v1.992h4.184c.55 0 .996.446.996.997v3.137a5.618 5.618 0 0 1-5.612 5.612h-.845a20.815 20.815 0 0 1-.85 1.992h1.695ZM26.872 7.23l.518.651a5.377 5.377 0 0 1 .006 6.723l-.531.669a.995.995 0 0 1-1.4.16.996.996 0 0 1-.16-1.399l.53-.669a3.394 3.394 0 0 0-.003-4.243l-.518-.65a4.58 4.58 0 0 1-.005-5.727.996.996 0 1 1 1.56 1.239 2.597 2.597 0 0 0 .003 3.246Zm-10.524.651-.518-.65a2.597 2.597 0 0 1-.003-3.247.996.996 0 1 0-1.56-1.239 4.58 4.58 0 0 0 .004 5.727l.519.65a3.394 3.394 0 0 1 .003 4.243l-.53.67a.996.996 0 1 0 1.56 1.238l.53-.67a5.377 5.377 0 0 0-.005-6.722Zm-2.083 9.712a1 1 0 0 1 .704 1.701c-.185.186-.442.291-.704.291-.262 0-.519-.105-.704-.29a1.007 1.007 0 0 1-.292-.706c0-.262.107-.518.292-.704.185-.185.442-.292.704-.292Zm21.794 8.633a.996.996 0 0 0-.996.996c0 3.698-1.5 7.331-4.115 9.97a.996.996 0 1 0 1.415 1.402c2.982-3.008 4.692-7.153 4.692-11.372a.996.996 0 0 0-.996-.996Zm-8.142 13.291a.996.996 0 0 1 .978 1.735l-.022.013a.995.995 0 1 1-.979-1.735l.023-.013Z" clip-rule="evenodd"/><defs><linearGradient id="a" x1="-13.289" x2="14.507" y1="14.027" y2="65.026" gradientUnits="userSpaceOnUse"><stop stop-color="#AC6C44"/><stop offset="1" stop-color="#301103"/></linearGradient></defs></svg>