<svg xmlns="http://www.w3.org/2000/svg" width="51" height="50" fill="none"><path fill="url(#a)" fill-rule="evenodd" d="M2.562 13.148a.833.833 0 0 0 .707-1.272A7.507 7.507 0 0 1 5.697 1.554.833.833 0 1 0 4.821.138a9.175 9.175 0 0 0-2.968 12.615c.151.245.42.395.709.395ZM25.43 50c6.624 0 13.33-1.717 13.33-4.999v-1.396a3.54 3.54 0 0 0 1.666-2.77V7.512a3.54 3.54 0 0 0-1.705-2.803C38.315 1.628 31.845.013 25.43.013S12.545 1.627 12.14 4.708a3.54 3.54 0 0 0-1.706 2.803v33.325a3.54 3.54 0 0 0 1.666 2.769V45C12.1 48.283 18.806 50 25.43 50Zm11.664-4.999c0 1.36-4.544 3.333-11.664 3.333S13.766 46.36 13.766 45v-.416c2.927 1.365 7.368 2.082 11.664 2.082 4.296 0 8.737-.718 11.664-2.082V45ZM12.1 40.836C12.1 42.576 17.17 45 25.43 45s13.33-2.426 13.33-4.165V10.28c-2.659 2.001-8.105 3.063-13.33 3.063S14.758 12.28 12.1 10.28v30.556ZM25.43 1.679c7.12 0 11.664 1.973 11.664 3.332 0 1.36-4.544 3.333-11.664 3.333S13.766 6.37 13.766 5.01c0-1.359 4.544-3.332 11.664-3.332Zm0 8.331c-5.548 0-11.137-1.209-12.812-3.528A1.554 1.554 0 0 0 12.1 7.51c0 1.74 5.071 4.165 13.33 4.165S38.76 9.25 38.76 7.511a1.554 1.554 0 0 0-.518-1.03c-1.675 2.32-7.264 3.53-12.812 3.53Zm-6.665-4.166h1.666a.833.833 0 0 0 0-1.666h-1.666a.833.833 0 0 0 0 1.666Zm13.33 0h-1.666a.833.833 0 0 1 0-1.666h1.666a.833.833 0 0 1 0 1.666ZM15.432 15.01a.833.833 0 1 1-1.666 0 .833.833 0 0 1 1.666 0Zm3.333 1.666a.833.833 0 1 0 0-1.666.833.833 0 0 0 0 1.666Zm-1.666 1.666a.833.833 0 1 1-1.667 0 .833.833 0 0 1 1.667 0Zm3.332 1.667a.833.833 0 1 0 0-1.667.833.833 0 0 0 0 1.667Zm14.996-1.667a.833.833 0 1 1-1.666 0 .833.833 0 0 1 1.666 0Zm-4.998 1.667a.833.833 0 1 0 0-1.667.833.833 0 0 0 0 1.667Zm-4.166-.834a.833.833 0 1 1-1.666 0 .833.833 0 0 1 1.666 0Zm-3.333-1.666a.833.833 0 1 0 0-1.666.833.833 0 0 0 0 1.666Zm14.164-2.5a.833.833 0 1 1-1.667 0 .833.833 0 0 1 1.667 0Zm-5 1.667a.833.833 0 1 0 0-1.666.833.833 0 0 0 0 1.666Zm-3.332 0a.833.833 0 1 1-1.666 0 .833.833 0 0 1 1.666 0ZM14.6 21.674a.833.833 0 1 0 0-1.666.833.833 0 0 0 0 1.666Zm4.999 0a.833.833 0 1 1-1.666 0 .833.833 0 0 1 1.666 0Zm3.332 1.666a.833.833 0 1 0 0-1.666.833.833 0 0 0 0 1.666Zm14.164-2.5a.833.833 0 1 1-1.667 0 .833.833 0 0 1 1.667 0Zm-5 1.667a.833.833 0 1 0 0-1.666.833.833 0 0 0 0 1.666Zm-3.332 0a.833.833 0 1 1-1.666 0 .833.833 0 0 1 1.666 0Zm1.204 3.472a.833.833 0 0 1 1.296.694v6.665a2.5 2.5 0 1 1-2.5-2.5c.285.003.567.055.834.153v-2.98c-1.615.509-3.32.664-5 .454v6.539a2.5 2.5 0 1 1-2.499-2.5c.285.003.567.055.833.154v-5.152a.833.833 0 0 1 .996-.818c.042.009 3.863.744 6.04-.709Zm-8.702 9.025a.833.833 0 1 0 1.667 0 .833.833 0 0 0-1.667 0Zm7.498-.833a.833.833 0 1 1 0-1.667.833.833 0 0 1 0 1.667ZM7.204 2.868a.833.833 0 0 1 .248 1.52 4.17 4.17 0 0 0-1.35 5.734.833.833 0 1 1-1.417.877 5.839 5.839 0 0 1 1.89-8.028.833.833 0 0 1 .63-.103ZM46.04.138a.833.833 0 1 0-.877 1.416 7.507 7.507 0 0 1 2.429 10.322.833.833 0 0 0 1.416.877A9.175 9.175 0 0 0 46.04.138Zm-.383 11.234a.833.833 0 0 1-.898-1.25 4.17 4.17 0 0 0-1.35-5.735.833.833 0 1 1 .877-1.416 5.839 5.839 0 0 1 1.889 8.028.833.833 0 0 1-.518.373ZM4.821 49.875a.833.833 0 0 0 .876-1.416A7.507 7.507 0 0 1 3.27 38.136a.833.833 0 0 0-1.416-.876A9.175 9.175 0 0 0 4.82 49.875Zm.383-11.234a.833.833 0 0 1 .897 1.25 4.17 4.17 0 0 0 1.35 5.734.833.833 0 1 1-.876 1.417 5.839 5.839 0 0 1-1.889-8.028.833.833 0 0 1 .518-.373ZM45.602 50a.824.824 0 0 0 .437-.125 9.175 9.175 0 0 0 2.968-12.615.833.833 0 0 0-1.416.876 7.507 7.507 0 0 1-2.429 10.323.833.833 0 0 0 .44 1.541Zm-1.946-2.856a.833.833 0 0 1-.246-1.519 4.17 4.17 0 0 0 1.348-5.734.833.833 0 1 1 1.417-.877 5.839 5.839 0 0 1-1.89 8.028.833.833 0 0 1-.63.102Z" clip-rule="evenodd"/><defs><linearGradient id="a" x1="-12.517" x2="14.765" y1="13.625" y2="63.576" gradientUnits="userSpaceOnUse"><stop stop-color="#AC6C44"/><stop offset="1" stop-color="#301103"/></linearGradient></defs></svg>