<svg xmlns="http://www.w3.org/2000/svg" width="52" height="53" fill="none"><path fill="url(#a)" fill-rule="evenodd" d="M36.608 4.144A24.135 24.135 0 0 0 25.997 1.72C12.58 1.718 1.648 12.632 1.625 26.046A.811.811 0 1 1 0 26.043a25.875 25.875 0 0 1 2.056-10.102C7 4.311 19.583-2.089 31.894.767a25.804 25.804 0 0 1 5.422 1.915.812.812 0 1 1-.708 1.462Zm3.342 1.664a.812.812 0 1 1-.33-1.59.812.812 0 0 1 .33 1.59ZM17.347 24.472a.807.807 0 0 0-.095-.006 8.551 8.551 0 0 0-3.804.898.812.812 0 0 0 .726 1.454 6.92 6.92 0 0 1 3.031-.727c1.24.152 3.422.654 4.155 1.387a.813.813 0 0 0 1.15-1.15c-1.38-1.377-4.78-1.81-5.163-1.856Zm22.715 17.533a.812.812 0 0 0-1.13.21c-1.485 2.165-3.893 4.356-7.158 6.512a10.466 10.466 0 0 1-11.555 0c-4.035-2.665-8.845-6.783-8.845-11.268V26.903a.812.812 0 1 0-1.625 0V37.46c0 5.207 5.207 9.738 9.575 12.623a12.088 12.088 0 0 0 13.345 0c3.441-2.272 5.999-4.609 7.603-6.947a.812.812 0 0 0-.21-1.13Zm-26.826-9.653a.812.812 0 0 0 1.15 0l1.105-1.105c.349.25.719.471 1.105.659l-.922.922a.812.812 0 0 0 1.149 1.15l1.498-1.5c.388.074.782.112 1.177.112 1.906 0 2.904-.943 3.011-1.05l-1.149-1.149.01-.01c-.026.025-.639.584-1.872.584-2.053 0-3.476-1.375-3.488-1.386a.813.813 0 0 0-1.149 0l-1.625 1.624a.812.812 0 0 0 0 1.15Zm7.886 10.8c0 1.57 1.324 4.062 4.875 4.062s4.874-2.492 4.874-4.063a.813.813 0 0 0-.32-.646c-.71-.539-2.463-1.79-3.446-1.79-.41.011-.802.168-1.108.44a1.742 1.742 0 0 0-1.108-.44c-.983 0-2.737 1.251-3.446 1.79a.813.813 0 0 0-.32.646Zm3.745-.81c.098.046.264.216.496.505a.812.812 0 0 0 1.268 0c.23-.288.396-.457.493-.504.318.054 1.207.565 2.065 1.177-.165.681-.795 2.069-3.192 2.069-2.397 0-3.028-1.388-3.192-2.069.864-.617 1.759-1.13 2.063-1.178ZM.813 28.482a.812.812 0 0 0-.812.813v21.98a.812.812 0 1 0 1.625 0v-21.98a.812.812 0 0 0-.813-.812Zm50.544-8.138a25.887 25.887 0 0 0-4.683-10.014 26.145 26.145 0 0 0-3.765-3.984.812.812 0 1 0-1.057 1.234 24.363 24.363 0 0 1 8.518 18.511v25.184a.812.812 0 1 0 1.625 0V26.091c0-1.933-.213-3.86-.638-5.747Zm-22.11 1.685a.812.812 0 0 1-1.624 0v-6.5a.812.812 0 0 1 1.625 0v6.5ZM47.7 46.401a.813.813 0 0 0 .802-.95 16.891 16.891 0 0 0-1.336-4.279.813.813 0 1 0-1.472.686c.572 1.23.978 2.53 1.207 3.868.066.39.404.674.799.675ZM29.42 25.105a8.841 8.841 0 0 0 6.497 6.794 16.977 16.977 0 0 1 9.505 6.345.812.812 0 1 1-1.306.967 15.348 15.348 0 0 0-8.593-5.736 10.474 10.474 0 0 1-7.696-8.048.812.812 0 1 1 1.593-.322ZM17.873 15.53a.812.812 0 0 0 1.625 0 4.067 4.067 0 0 1 4.062-4.062.812.812 0 1 0 0-1.625 5.693 5.693 0 0 0-5.687 5.687Zm8.124 7.824a12.04 12.04 0 0 0 9.133 11.698 13.663 13.663 0 0 1 10.364 13.274v2.95a.812.812 0 1 1-1.624 0v-2.95a12.04 12.04 0 0 0-9.134-11.698 13.663 13.663 0 0 1-10.364-13.274V15.53a.812.812 0 1 0-1.625 0v1.625c0 1.111-.58 1.922-1.722 2.409-.859.366-1.953.53-3.22.72-4.313.645-9.681 1.448-9.681 10.681v6.449a25.518 25.518 0 0 1-3.357 12.64.812.812 0 0 1-1.41-.806 23.89 23.89 0 0 0 3.142-11.834v-6.449c0-4.669 1.273-7.899 3.89-9.873 2.22-1.674 4.967-2.085 7.175-2.416 2.529-.378 3.558-.622 3.558-1.521V15.53a2.437 2.437 0 0 1 4.875 0v7.824ZM48.744 49.65a.812.812 0 1 1-1.625 0 .812.812 0 0 1 1.625 0ZM26.81 11.468a.812.812 0 1 0 0-1.625.812.812 0 0 0 0 1.625Z" clip-rule="evenodd"/><defs><linearGradient id="a" x1="-13.547" x2="14.795" y1="14.261" y2="66.258" gradientUnits="userSpaceOnUse"><stop stop-color="#AC6C44"/><stop offset="1" stop-color="#301103"/></linearGradient></defs></svg>