<svg width="24" height="24" fill="none" xmlns="http://www.w3.org/2000/svg"><g clip-path="url(#a)" fill="#fff"><path d="M2 14.5h9.25V24h-7.5C2.79 24 2 23.21 2 22.25V14.5Zm20 0v7.75c0 .96-.79 1.75-1.75 1.75h-7.5v-9.5H22ZM0 8.75v2.5C0 12.21.79 13 1.75 13h9.5V7h-9.5C.79 7 0 7.79 0 8.75ZM22.25 7h-9.5v6h9.5c.96 0 1.75-.79 1.75-1.75v-2.5C24 7.79 23.21 7 22.25 7Z"/><path d="M12 8.044a.752.752 0 0 1-.742-.86c.37-2.5 2.323-7.229 7.07-7.229C21.039-.044 22 1.42 22 2.674c0 2.229-3.103 5.37-10 5.37Zm6.329-6.588c-3.582 0-4.942 3.405-5.393 5.066 2.826-.132 4.608-.847 5.634-1.456 1.423-.845 1.93-1.79 1.93-2.393 0-.898-1.121-1.217-2.171-1.217Z"/><path d="M12.002 8.044c-6.897 0-10-3.141-10-5.37 0-1.254.962-2.718 3.672-2.718 4.747 0 6.7 4.729 7.07 7.229a.752.752 0 0 1-.742.859ZM5.674 1.456c-1.05 0-2.172.32-2.172 1.218 0 1.277 2.233 3.604 7.563 3.849-.45-1.662-1.81-5.067-5.391-5.067Z"/></g><defs><clipPath id="a"><path fill="#fff" d="M0 0h24v24H0z"/></clipPath></defs></svg>