<svg width="32" height="32" fill="none" xmlns="http://www.w3.org/2000/svg"><path d="M9.882 9.459c.376 0 .706-.33.706-.706a.724.724 0 0 0-.706-.706.724.724 0 0 0-.706.706c0 .376.282.706.706.706Zm4.235 0c.376 0 .706-.33.706-.706a.724.724 0 0 0-.706-.706.693.693 0 0 0-.706.706c0 .376.282.706.706.706Z" fill="#fff"/><path d="M20.753 18.918h-.236c-.517-2.26-2.54-3.953-4.94-3.953h-1.554v-.377a5.144 5.144 0 0 0 3.059-4.612c.753-.14 1.365-.8 1.365-1.6 0-.611-.33-1.129-.847-1.411V4.14c0-2.212-2.824-3.2-5.6-3.2-2.777 0-5.6.988-5.6 3.2v2.824c-.518.282-.847.8-.847 1.411 0 .8.564 1.46 1.317 1.6 0 2.024 1.224 3.718 2.918 4.565v.424c-.047 0-1.647.047-1.553.047-2.353 0-4.377 1.647-4.894 3.859-1.412.094-2.494 1.411-2.212 2.917l1.741 8.33h-.988a.472.472 0 0 0 0 .94h20.565a.472.472 0 0 0 0-.94H21.41l1.694-8.283c.33-1.553-.8-2.917-2.352-2.917ZM22.21 21.6l-1.74 8.47H3.857l-1.74-8.47c-.189-.894.517-1.741 1.411-1.741h17.224c.94 0 1.647.847 1.458 1.741ZM8.235 16h.706l2.494 2.682v.236H4.376A3.995 3.995 0 0 1 8.235 16Zm-.377-9.035v-.141l1.695-1.365a4.463 4.463 0 0 0 1.976 1.412c.847.329 2.588.564 3.953.705.235.048.47.048.706.048v2.258a4.147 4.147 0 0 1-4.141 4.142 4.147 4.147 0 0 1-4.142-4.142c-.047 0-.047-2.964-.047-2.917ZM12 15.059c.235 0 .517 0 .752-.047v1.082h.471l-1.27 1.412-1.318-1.412h.423v-1.13c.33.048.612.095.942.095Z" fill="#fff"/><path d="M12.141 23.859c-.847 0-1.506.659-1.506 1.506s.659 1.506 1.506 1.506 1.506-.66 1.506-1.506c0-.8-.659-1.506-1.506-1.506ZM25.176 2.87a5.684 5.684 0 0 0-5.694 5.694c0 .988.283 1.93.706 2.73l-.706 1.882c-.094.235-.047.517.141.752.189.189.471.283.753.236l2.165-.565c.8.424 1.741.706 2.73.706a5.684 5.684 0 0 0 5.694-5.694c-.095-3.2-2.636-5.741-5.789-5.741Zm-2.258 5.505-1.224-.988c-.094-.094-.188-.235-.188-.376 0-.141.047-.283.188-.377l1.224-.988c.188-.188.517-.141.658.047.189.188.142.518-.047.659l-.8.612.8.611c.189.189.236.471.047.66-.14.235-.423.282-.659.14Zm1.6 2.73c-.095.235-.377.33-.612.235-.236-.094-.33-.376-.236-.612l2.165-4.658c.094-.236.377-.33.612-.236.235.094.33.377.235.612l-2.165 4.659Zm4.094-.612c-.66.377-1.365 1.553-1.883.941-.188-.188-.14-.517.047-.659l.753-.611-.753-.612c-.188-.141-.235-.47-.047-.659.189-.188.47-.235.66-.047l1.223.988c.094.094.188.236.188.377-.047.094-.094.235-.188.282ZM12 10.918c.282 0 .47-.236.47-.47v-.613a.472.472 0 0 0-.47-.47.506.506 0 0 0-.47.47v.612c0 .282.188.47.47.47Zm-1.318 1.506c.33.329.8.517 1.27.517.518 0 .942-.188 1.271-.518a.455.455 0 0 0 0-.658.455.455 0 0 0-.659 0 .88.88 0 0 1-1.223 0 .455.455 0 0 0-.659 0 .455.455 0 0 0 0 .659Z" fill="#fff"/></svg>