<svg width="32" height="32" fill="none" xmlns="http://www.w3.org/2000/svg"><path d="M8.941 16.598a1.125 1.125 0 1 0 2.25.009 1.125 1.125 0 0 0-2.25-.01Zm5.647-3.572a1.125 1.125 0 1 0 2.25 0 1.125 1.125 0 0 0-2.25 0Zm6.862 5.51a1.124 1.124 0 1 0 2.249 0 1.124 1.124 0 0 0-2.25 0Z" fill="#fff"/><path d="m4.597 14.814 3.642.861a2.051 2.051 0 0 1 3.294-.55l2.254-1.412a2.007 2.007 0 0 1-.14-.687 2.067 2.067 0 0 1 4.131 0 2.092 2.092 0 0 1-.207.89l3.741 3.025a2.018 2.018 0 0 1 2.555.028l3.723-2.875a2.042 2.042 0 0 1 .645-2.518 13.177 13.177 0 0 0-25.229 1.229 2.07 2.07 0 0 1 1.59 2.01ZM15.138 4.235h.664a.47.47 0 0 1 0 .941h-.631a.47.47 0 1 1-.033-.94ZM5.726 9.911a11.765 11.765 0 0 1 6.866-5.247.47.47 0 0 1 .254.903 10.824 10.824 0 0 0-6.33 4.833.47.47 0 0 1-.404.226.47.47 0 0 1-.405-.715h.02Zm-2.07 4.903a1.125 1.125 0 1 0-1.35 1.097c.073.007.147.007.22 0a1.125 1.125 0 0 0 1.13-1.097Zm25.807-2.72a1.124 1.124 0 1 0 0 2.249 1.124 1.124 0 0 0 0-2.249Z" fill="#fff"/><path d="m28.17 14.814-3.699 2.87a2.061 2.061 0 1 1-3.939.852c-.01-.305.05-.61.174-.889l-3.717-3.002a2.047 2.047 0 0 1-2.71-.15l-2.255 1.41a2.005 2.005 0 0 1-.035 1.464 2.065 2.065 0 0 1-3.974-.79l-3.643-.847a2.056 2.056 0 0 1-1.731 1.134A13.184 13.184 0 0 0 28.994 16c0-.264 0-.522-.029-.781a2.075 2.075 0 0 1-.795-.405Zm-3.04 8.372a11.708 11.708 0 0 1-9.327 4.579.471.471 0 0 1 0-.941 10.766 10.766 0 0 0 8.584-4.236.47.47 0 0 1 .743.574v.024Z" fill="#fff"/></svg>