<svg width="32" height="32" fill="none" xmlns="http://www.w3.org/2000/svg"><path d="M26.157 8.794c0-.553.022-1.113 0-1.666V7.11c0-.29-.197-.512-.46-.603l-3.246-1.125c-1.707-.59-3.41-1.184-5.116-1.775-.378-.131-.753-.281-1.137-.394-.191-.056-.322-.012-.488.044-.194.069-.39.135-.584.203l-4.9 1.697-3.832 1.328c-.022.007-.04.016-.062.022-.263.09-.46.316-.46.603v5.79c0 1.22-.003 2.438 0 3.657a9.302 9.302 0 0 0 .529 3.05c.703 2.01 1.98 3.775 3.503 5.247a19.389 19.389 0 0 0 5.797 3.853l.04.019h.003c.032.012.066.025.097.034.15.04.316.02.482-.05.003 0 .006-.003.006-.003a19.327 19.327 0 0 0 5.225-3.325c1.562-1.384 2.94-3.069 3.765-4.997.425-.997.707-2.028.8-3.11.05-.577.032-1.162.032-1.743V8.794h.006Zm-4.594 3.837-.778.778-3.372 3.372-2.131 2.131a.949.949 0 0 1-1.325 0l-.431-.43-3.022-3.023c-.372-.372-.344-.95 0-1.325.344-.372.978-.347 1.325 0l.431.435c.784.784 1.569 1.575 2.353 2.36.04-.042.078-.08.119-.12l3.372-3.375 2.131-2.13c.372-.373.953-.345 1.325 0 .375.343.35.98.003 1.327Z" fill="#fff"/></svg>