<svg width="32" height="32" fill="none" xmlns="http://www.w3.org/2000/svg"><g clip-path="url(#a)" fill="#fff"><path d="M31.36 10.496a7.43 7.43 0 0 1-7.423 7.424c.192-.64.256-1.28.256-1.92 0-.64-.064-1.344-.256-1.92 1.984 0 3.584-1.6 3.584-3.584s-1.6-3.584-3.584-3.584H4.993V9.28L.64 4.992 4.993.64v2.368h18.944c4.096 0 7.424 3.328 7.424 7.488ZM27.074 31.36v-2.368H8.129A7.457 7.457 0 0 1 .64 21.504a7.43 7.43 0 0 1 7.424-7.424c-.192.64-.256 1.28-.256 1.92 0 .64.064 1.344.256 1.92a3.578 3.578 0 0 0-3.584 3.584c0 1.984 1.6 3.584 3.584 3.584h18.944V22.72l4.288 4.288-4.224 4.352Z"/><path d="M14.849 13.888c.192-.192.512-.256.832-.32v1.984c-.384-.128-.704-.256-.896-.384a.672.672 0 0 1-.32-.576c.064-.32.192-.512.384-.704Zm2.688 3.52c0 .64-.384.96-1.28 1.024v-1.92c.448.128.704.256.96.384.192.128.32.256.32.512Z"/><path d="M16 9.152c-3.775 0-6.783 3.072-6.783 6.848s3.008 6.848 6.784 6.848A6.856 6.856 0 0 0 22.849 16 6.856 6.856 0 0 0 16 9.152Zm2.049 9.152c-.192.256-.384.448-.704.576-.32.128-.64.256-1.088.256v.64c0 .064 0 .128-.064.192s-.128.064-.192.064-.128 0-.192-.064-.064-.128-.064-.192v-.64c-.64-.064-1.216-.192-1.792-.448-.064 0-.128-.064-.192-.128s-.064-.128-.064-.192c0-.128.064-.192.128-.256a.485.485 0 0 1 .256-.128c.064 0 .128 0 .192.064.512.192.96.32 1.536.384v-2.048c-.384-.128-.768-.192-1.024-.32a2.842 2.842 0 0 1-.704-.512c-.192-.256-.256-.512-.256-.896 0-.32.064-.576.256-.832.128-.256.384-.448.704-.64.32-.192.64-.256 1.088-.32v-.64c0-.064 0-.128.064-.192s.128-.064.192-.064.128 0 .192.064.064.128.064.192v.64c.576 0 1.088.128 1.536.32.192.064.256.192.256.384 0 .128-.064.192-.128.256s-.128.128-.256.128c-.064 0-.064 0-.128-.064-.384-.128-.832-.192-1.28-.256v2.112c.448.128.768.192 1.088.32.256.128.512.32.704.512.192.256.256.576.256.96-.128.256-.192.512-.384.768Z"/></g><defs><clipPath id="a"><path fill="#fff" d="M0 0h32v32H0z"/></clipPath></defs></svg>