<svg width="32" height="32" fill="none" xmlns="http://www.w3.org/2000/svg"><path d="M17.876 29.5V3.603c0-.35.003-.703 0-1.053v-.047c0-.481-.209-.984-.55-1.325-.325-.328-.859-.575-1.325-.553-.484.022-.987.181-1.325.55-.337.366-.55.816-.55 1.325V28.397c0 .35-.003.703 0 1.053v.047c0 .481.21.984.55 1.325.325.325.86.569 1.325.55.485-.022.988-.181 1.325-.55.338-.363.55-.813.55-1.322Z" fill="#fff"/><path d="m19.27 2.547-1.55 1.55-2.475 2.475-.572.572h2.653l-1.55-1.55-2.475-2.475-.572-.572a1.93 1.93 0 0 0-1.325-.55c-.459 0-1.009.203-1.325.55-.33.36-.575.828-.553 1.328.022.497.19.966.55 1.325l1.55 1.55 2.475 2.475.572.572c.716.715 1.935.719 2.653 0l1.55-1.55 2.475-2.475.572-.572c.34-.34.55-.844.55-1.325 0-.46-.203-1.01-.55-1.325-.36-.331-.828-.575-1.328-.55-.497.022-.969.19-1.325.547ZM21.92 26.8l-1.55-1.55-2.475-2.475-.572-.572c-.715-.715-1.934-.719-2.653 0l-1.55 1.55-2.475 2.475-.572.572c-.34.34-.55.844-.55 1.325 0 .46.203 1.01.55 1.325.356.328.825.572 1.325.55.497-.022.966-.19 1.325-.55l1.55-1.55 2.475-2.475.572-.572h-2.653l1.55 1.55 2.475 2.475.572.572c.34.34.844.55 1.325.55.46 0 1.01-.203 1.325-.55.334-.356.578-.825.556-1.325-.022-.497-.19-.966-.55-1.325Zm6.716-5.669c-.21-.119-.416-.24-.625-.36-.566-.327-1.135-.652-1.7-.98l-2.516-1.454c-1.022-.59-2.047-1.18-3.069-1.771l-3.362-1.941-3.394-1.96-3.166-1.827c-.89-.516-1.784-1.029-2.675-1.544-.64-.372-1.284-.74-1.925-1.113-.303-.175-.606-.353-.912-.528-.013-.006-.025-.016-.04-.022a1.938 1.938 0 0 0-1.444-.187c-.435.118-.907.456-1.122.862-.232.435-.344.963-.188 1.444.15.463.431.872.863 1.122.209.119.415.24.625.36.565.327 1.134.652 1.7.98L8.2 13.667c1.022.59 2.047 1.18 3.069 1.771l3.363 1.941 3.393 1.96 3.166 1.828c.89.515 1.784 1.028 2.675 1.543.64.372 1.284.741 1.925 1.113.303.175.606.353.912.528.013.006.025.016.041.022.422.244.972.319 1.444.187.434-.118.906-.456 1.122-.862.23-.434.343-.963.187-1.444-.15-.465-.431-.875-.862-1.122Z" fill="#fff"/><path d="M5.988 6.456c.19.707.378 1.413.569 2.119l.906 3.381.21.782c.437-.77.871-1.538 1.309-2.307-.707.19-1.413.378-2.119.569l-3.381.906-.782.21a1.938 1.938 0 0 0-1.121.862c-.235.403-.335.994-.188 1.444.147.453.428.89.863 1.122.446.237.946.322 1.443.187.707-.19 1.413-.378 2.12-.569l3.38-.906.782-.21c.984-.262 1.572-1.33 1.309-2.305-.19-.707-.378-1.413-.569-2.12l-.906-3.38-.21-.782a1.937 1.937 0 0 0-.862-1.121c-.403-.235-.994-.335-1.444-.188-.453.147-.89.428-1.122.863-.234.446-.318.943-.187 1.443Zm22.313 9.819c-.707.19-1.413.378-2.12.569l-3.38.906-.782.21c-.984.262-1.572 1.33-1.31 2.306.192.706.379 1.412.57 2.118l.906 3.382.21.78c.121.454.456.885.862 1.123.403.234.993.334 1.444.187.453-.147.89-.428 1.121-.862.238-.447.322-.947.188-1.444-.19-.706-.378-1.413-.569-2.119l-.906-3.381-.21-.781c-.437.769-.871 1.537-1.309 2.306.706-.19 1.413-.378 2.119-.569l3.381-.906.781-.21a1.937 1.937 0 0 0 1.122-.862c.235-.403.335-.994.188-1.444-.147-.453-.428-.89-.863-1.122-.447-.234-.944-.321-1.444-.187Zm-1.557-8.644c-.21.119-.415.24-.625.36-.565.328-1.134.653-1.7.98l-2.515 1.454-3.07 1.772c-1.121.647-2.24 1.294-3.362 1.94-1.13.654-2.262 1.307-3.393 1.96l-3.166 1.828c-.89.516-1.784 1.028-2.675 1.544-.64.372-1.284.74-1.925 1.112-.303.175-.61.35-.913.528-.012.007-.025.016-.04.022a1.95 1.95 0 0 0-.86 1.119c-.125.45-.068 1.047.188 1.444.26.4.644.753 1.122.862.494.113.997.069 1.444-.187.209-.119.415-.24.625-.36.565-.328 1.134-.653 1.7-.98l2.515-1.454 3.069-1.772c1.122-.647 2.24-1.294 3.363-1.94 1.13-.654 2.262-1.307 3.393-1.96l3.166-1.828c.89-.516 1.784-1.028 2.675-1.544.64-.372 1.284-.74 1.925-1.112.303-.175.61-.35.912-.528.013-.007.025-.016.041-.022a1.94 1.94 0 0 0 .862-1.122c.125-.45.07-1.047-.187-1.444-.26-.4-.644-.753-1.122-.862-.494-.113-1-.07-1.447.19Z" fill="#fff"/><path d="M10.273 24.457c.19-.706.378-1.412.569-2.118l.906-3.381.21-.782c.259-.972-.325-2.043-1.31-2.306-.706-.19-1.412-.378-2.119-.569l-3.38-.906-.782-.21a1.954 1.954 0 0 0-1.444.188c-.387.228-.76.675-.862 1.122-.11.481-.085 1.019.187 1.444.263.41.64.734 1.122.862.706.19 1.413.378 2.119.569l3.381.906.781.21c-.437-.77-.872-1.538-1.31-2.307-.19.707-.377 1.413-.568 2.12l-.906 3.38-.21.782a1.953 1.953 0 0 0 .188 1.443c.228.388.675.76 1.122.863.481.11 1.019.084 1.444-.188.412-.262.734-.64.862-1.122Zm19.694-14.43c-.706-.191-1.413-.379-2.119-.57l-3.381-.906c-.26-.068-.522-.14-.781-.21l1.309 2.307c.19-.706.378-1.412.569-2.119l.906-3.38.21-.782a1.953 1.953 0 0 0-.188-1.444c-.228-.387-.675-.76-1.122-.862-.481-.11-1.019-.085-1.444.187-.41.263-.734.64-.862 1.122-.19.706-.378 1.413-.569 2.119l-.906 3.381-.21.781c-.259.972.325 2.044 1.31 2.306.706.191 1.412.379 2.119.57 1.128.302 2.253.602 3.38.905l.782.21c.472.125 1.022.06 1.444-.188.387-.228.76-.675.862-1.122.11-.48.085-1.018-.187-1.443-.263-.41-.64-.735-1.122-.863Z" fill="#fff"/></svg>