<svg width="32" height="32" fill="none" xmlns="http://www.w3.org/2000/svg"><path d="m13.306 4.04-.39-.925c-.315.136-.62.29-.915.465l.5.865a6.57 6.57 0 0 1 .805-.405Zm-2.87 2.21-.795-.605c-.21.273-.405.558-.58.855l.87.5c.152-.26.32-.511.505-.75Zm-.91 1.585-.925-.38c-.133.326-.245.66-.335 1l.97.26c.075-.3.172-.594.29-.88Zm2.2-2.88-.61-.79a8.601 8.601 0 0 0-.785.69l.71.705c.216-.215.445-.417.685-.605ZM9.056 9.6l-1-.125c-.041.34-.06.682-.055 1.025h1c0-.3.019-.601.055-.9Zm.005 1.83-1 .13c.045.346.114.688.205 1.025l.965-.26a6.915 6.915 0 0 1-.17-.895Zm2.08 5.425c.274.21.561.404.86.58l.5-.865a7.794 7.794 0 0 1-.765-.5l-.595.785ZM16 18.5v-1c-.303 0-.606-.02-.905-.06l-.13 1c.343.043.689.063 1.035.06Zm-3.055-.605c.325.135.659.247 1 .335l.255-.965a6.279 6.279 0 0 1-.865-.295l-.39.925Zm-3.41-4.705-.92.385c.133.319.288.628.465.925l.86-.5a7.792 7.792 0 0 1-.405-.81Zm.125 2.19c.213.275.444.537.69.785l.705-.71a7.977 7.977 0 0 1-.605-.685l-.79.61Zm12.81-2.2.925.38c.132-.326.244-.66.335-1l-.965-.26c-.081.299-.18.593-.295.88Zm-5.55 4.26.13 1a8.425 8.425 0 0 0 1-.2l-.255-.97c-.288.076-.58.132-.875.17ZM15.066 3.56l-.135-1a8.08 8.08 0 0 0-1.025.205l.26.965a7.95 7.95 0 0 1 .9-.17Zm6.49 11.2.795.61a8.49 8.49 0 0 0 .58-.87l-.865-.5a7.199 7.199 0 0 1-.51.76Zm-1.29 1.295.61.79c.276-.212.538-.443.785-.69l-.71-.705a7.88 7.88 0 0 1-.685.605Zm2.675-6.5 1-.13a8.878 8.878 0 0 0-.21-1.025l-.965.26c.075.295.134.593.175.895Zm-4.255 7.415.385.92c.32-.135.63-.29.93-.465l-.5-.865c-.263.153-.536.29-.815.41Zm4.255-5.555 1 .125c.042-.345.062-.692.06-1.04v-.03l-1 .03c0 .306-.02.612-.06.915Zm-3.9-8.32c-.327-.13-.66-.24-1-.33l-.255.965c.295.072.585.162.87.27l.385-.905Zm1.81 1.04A8.193 8.193 0 0 0 20 3.56l-.5.865c.265.15.52.317.765.5l.585-.79Zm1.61 3.66.92-.385a8.142 8.142 0 0 0-.465-.91l-.865.5c.153.256.29.521.41.795Zm-5.57-4.24.13-1A7.76 7.76 0 0 0 16 2.5v1c.297 0 .594.019.89.055Zm5.44 2.05a7.985 7.985 0 0 0-.695-.78l-.705.71c.217.215.42.444.61.685l.79-.615Z" fill="#fff"/><path d="M.54 23.69A.5.5 0 0 0 1 24h4.5v2a.5.5 0 0 0 .704.455 21.603 21.603 0 0 1 5.05-1.56l-2.225 5.93a.5.5 0 0 0 .68.63L16 28.55l6.29 2.905a.499.499 0 0 0 .55-.09.5.5 0 0 0 .13-.54L20.79 25a25.46 25.46 0 0 1 5 1.44.5.5 0 0 0 .71-.44v-2H31a.5.5 0 0 0 .49-.598.5.5 0 0 0-.135-.257l-1.65-1.645 1.65-1.645a.5.5 0 0 0-.078-.77.5.5 0 0 0-.277-.085h-6a.5.5 0 0 0-.5.5v1.415a30.01 30.01 0 0 0-4.835-1.12 10 10 0 1 0-7.5-.06c-1.59.21-3.153.585-4.665 1.12V19.5A.5.5 0 0 0 7 19H1a.5.5 0 0 0-.46.31.5.5 0 0 0 .105.545l1.65 1.645-1.65 1.645a.5.5 0 0 0-.105.545ZM7 10.5a9 9 0 1 1 17.999 0 9 9 0 0 1-18 0Zm5.39 14.215c2.412-.3 4.855-.265 7.26.105l1.954 5.215-5.395-2.5a.5.5 0 0 0-.42 0l-5.395 2.5 1.995-5.32Z" fill="#fff"/><path d="M16 16a.5.5 0 0 0 .465-.31l1-2.5 2.465.29a.5.5 0 0 0 .475-.775l-1.5-2.22 1.5-2.22a.5.5 0 0 0-.465-.765l-2.44.295-1-2.5a.5.5 0 0 0-.93 0l-1 2.5-2.51-.295a.5.5 0 0 0-.475.775l1.5 2.22-1.5 2.22a.5.5 0 0 0 0 .54.5.5 0 0 0 .5.235l2.465-.29 1 2.5a.5.5 0 0 0 .45.3Zm-.155-5.67L16 10l.155.33.345.05-.25.26.06.36-.31-.17-.31.17.06-.36-.25-.26.345-.05Z" fill="#fff"/></svg>