<svg width="32" height="32" fill="none" xmlns="http://www.w3.org/2000/svg"><g clip-path="url(#a)"><path d="m31.22 6.26.28-4.16c.03-.43-.13-.85-.44-1.16A1.49 1.49 0 0 0 29.9.5l-4.16.28c-4.87.32-9.27 2.79-12.08 6.77l-.06.09-4.27-1.39c-.46-.15-.96-.07-1.35.22L1.11 11.5c-.49.36-.72.99-.56 1.58.15.6.65 1.04 1.25 1.12l4.86.63 1.15 1-.67.95c-.42.6-.35 1.41.17 1.92l5.99 5.99c.29.29.67.44 1.06.44.3 0 .6-.09.86-.27l.95-.67 1 1.15.63 4.86c.08.6.52 1.1 1.12 1.25.12.03.25.05.37.05.47 0 .92-.22 1.21-.61l5.03-6.87c.29-.39.37-.89.22-1.35l-1.39-4.27.09-.06c3.98-2.81 6.45-7.21 6.77-12.08ZM9.55 13.37l-1.27-1.1c-.22-.19-.5-.31-.79-.35l-1.59-.21 3.23-2.37 2.66.86-2.24 3.17ZM20.29 26.1l-.21-1.59c-.04-.29-.16-.57-.35-.79l-1.1-1.27 3.17-2.23.86 2.65-2.37 3.23Zm1.38-15.77c-.92-.91-.92-2.39 0-3.3.91-.91 2.39-.91 3.3 0 .91.91.91 2.39 0 3.3-.91.92-2.39.92-3.3 0Z" fill="#fff"/></g><defs><clipPath id="a"><path fill="#fff" d="M0 0h32v32H0z"/></clipPath></defs></svg>