<svg width="32" height="32" fill="none" xmlns="http://www.w3.org/2000/svg"><path d="M9.475 17.777v-.834c.379-.33.658-.766.788-1.257l.1-.383a.798.798 0 0 0 .203-.072 2.009 2.009 0 0 1-.834-.841.511.511 0 0 0-.251.339c-.006.022-.032.133-.184.704a1.514 1.514 0 0 1-.748.945l-.417.224a1.503 1.503 0 0 1-1.424 0l-.417-.224a1.516 1.516 0 0 1-.749-.945c-.151-.57-.177-.682-.181-.696a.498.498 0 0 0-.491-.41h-.106l-.114-.723a.498.498 0 0 0 .493-.226l.505-.792a3.015 3.015 0 0 0 2.2-.493l.25-.171c.31.247.697.377 1.093.369l.148.323-.066-.415a2.233 2.233 0 0 1 .06-.928.722.722 0 0 1-.676-.184l-.162-.16a.498.498 0 0 0-.632-.053l-.579.397a2.02 2.02 0 0 1-1.726.271.496.496 0 0 0-.562.212l-.112.176a2.367 2.367 0 0 1 .931-1.83.5.5 0 0 0 .192-.331 2.401 2.401 0 0 1 1.259-.36h.31c.484 0 1.029.37 1.448.691.09.068.197.104.305.104h.004c.108.131.201.287.285.45.048-.071.098-.139.154-.203.002-.002.004-.004.004-.006a5.829 5.829 0 0 1-.114-1.085c.002-.072.006-.144.01-.218-.014-.01-.026-.022-.04-.034a.506.506 0 0 0-.403-.092c-.49-.33-1.047-.604-1.654-.604h-.31a3.4 3.4 0 0 0-2.054.696.499.499 0 0 0-.196.36 3.363 3.363 0 0 0-1.131 2.46v.013c.002.266.038.525.106.78a.973.973 0 0 0-.347.902l.153.96a.87.87 0 0 0 .68.72l.1.383c.131.488.406.926.788 1.257v.834l-2.52.718A2.359 2.359 0 0 0 1 20.802v1.394c0 .768.624 1.393 1.39 1.393h2.588a4.48 4.48 0 0 1 1.885-3.378 4.308 4.308 0 0 1 1.55-.69l1.343-.385.423-.12 1.816-.52-2.52-.719ZM7.42 19.27a1.97 1.97 0 0 1-1.458-.644.779.779 0 0 0 .4-.678v-.41a2.49 2.49 0 0 0 1.058.242c.361 0 .722-.084 1.058-.24v.408c0 .29.161.544.403.676a1.971 1.971 0 0 1-1.46.646Zm21.733-.774-2.518-.718v-.834c.382-.33.656-.769.786-1.257l.1-.383a.867.867 0 0 0 .68-.718l.156-.964a.98.98 0 0 0-.348-.9 3.21 3.21 0 0 0 .104-.78v-.013a3.362 3.362 0 0 0-1.131-2.46.496.496 0 0 0-.194-.36 3.403 3.403 0 0 0-2.057-.696h-.307c-.608 0-1.165.273-1.654.605a.504.504 0 0 0-.403.091l-.04.034c.004.06.006.12.008.18v.034c-.001.367-.039.732-.111 1.091v.003c.057.065.107.133.155.205.084-.164.178-.32.287-.45a.542.542 0 0 0 .308-.105c.419-.32.963-.69 1.45-.69h.307c.445 0 .884.126 1.26.36a.497.497 0 0 0 .19.33 2.366 2.366 0 0 1 .932 1.83l-.111-.176a.496.496 0 0 0-.563-.211 2.017 2.017 0 0 1-1.724-.272l-.58-.397a.496.496 0 0 0-.63.054l-.162.16a.731.731 0 0 1-.677.185c.084.296.106.607.058.918l-.068.425.15-.325h.028c.387 0 .763-.13 1.067-.37l.248.173c.642.442 1.43.62 2.2.492l.505.792a.5.5 0 0 0 .495.226l-.116.724h-.106a.507.507 0 0 0-.489.4c-.004.023-.032.135-.183.705a1.517 1.517 0 0 1-.746.946l-.417.223a1.507 1.507 0 0 1-1.427 0l-.417-.223a1.516 1.516 0 0 1-.748-.946c-.152-.57-.178-.682-.182-.696a.496.496 0 0 0-.25-.347 1.99 1.99 0 0 1-.835.842.805.805 0 0 0 .201.072l.1.383c.131.488.405.926.788 1.256v.834l-2.518.718 1.814.521.423.12 1.344.385c.569.125 1.09.367 1.549.69a4.485 4.485 0 0 1 1.71 2.38c.095.322.155.655.175.998h2.588a1.394 1.394 0 0 0 1.392-1.392v-1.395c.001-1.11-.775-2.077-1.846-2.307Zm-4.575.774c-.56 0-1.084-.235-1.46-.646a.772.772 0 0 0 .402-.676v-.41c.33.158.692.24 1.058.242.361 0 .722-.084 1.06-.241v.409c0 .29.159.544.4.678a1.974 1.974 0 0 1-1.46.645Z" fill="#fff"/><path d="M23.415 20.2 19.23 19v-1.51a4.012 4.012 0 0 0 1.285-2.035l.182-.698c.559-.092 1-.525 1.085-1.093l.252-1.576a1.483 1.483 0 0 0-.585-1.41c.122-.43.184-.873.188-1.322v-.02a5.399 5.399 0 0 0-1.838-3.972v-.002a.697.697 0 0 0-.273-.549 5.397 5.397 0 0 0-3.278-1.117h-.5c-.978 0-1.878.455-2.67.998a.702.702 0 0 0-.61.121c-1.227.946-2.073 2.762-2.107 4.54.004.448.067.891.19 1.32a1.486 1.486 0 0 0-.546.785c-.059.205-.073.42-.041.63l.25 1.576a1.315 1.315 0 0 0 1.086 1.091l.182.698a4.01 4.01 0 0 0 1.286 2.036v1.51l-4.185 1.198c-1.693.364-2.919 1.9-2.919 3.662v2.283c0 1.192.965 2.16 2.152 2.16h16.366a2.158 2.158 0 0 0 2.152-2.16v-2.283c0-1.762-1.226-3.297-2.92-3.662Zm-4.7.105.235.068a3.918 3.918 0 0 1-2.951 1.33 3.918 3.918 0 0 1-2.952-1.33l.233-.068c.514-.117.884-.58.884-1.117v-.848a3.95 3.95 0 0 0 3.67 0v.848c0 .537.368 1 .88 1.117Zm-6.178-6.352a.696.696 0 0 0-.686-.573h-.272l-.235-1.504c0-.008-.004-.034.018-.062.018-.02.04-.03.066-.03a.642.642 0 0 0 .151-.018.695.695 0 0 0 .54-.586.7.7 0 0 0-.035-.33 1.207 1.207 0 0 1 .039-.904l.053-.117a.5.5 0 0 1 .588-.274c.51.144 1.062 0 1.44-.373l.264-.26a.498.498 0 0 1 .635-.055l.941.65a3.566 3.566 0 0 0 3.07.487.501.501 0 0 1 .565.212c.171.267.259.579.253.896-.004.146.009.293.063.37a.692.692 0 0 0 .574.302c.026 0 .048.01.066.03.022.028.018.054.018.058l-.24 1.508h-.267a.687.687 0 0 0-.684.563c-.008.034-.052.217-.3 1.159a2.597 2.597 0 0 1-1.272 1.622l-.679.365a2.56 2.56 0 0 1-2.426 0l-.678-.365a2.597 2.597 0 0 1-1.273-1.622c-.247-.942-.29-1.126-.297-1.15Zm12.4 12.19a.76.76 0 0 1-.755.765H7.815a.76.76 0 0 1-.755-.764V23.86c0-1.113.77-2.08 1.833-2.3a.867.867 0 0 0 .05-.012l3.06-.877.141.177A4.912 4.912 0 0 0 16 22.702a4.912 4.912 0 0 0 3.854-1.853l.141-.177 3.06.877a.643.643 0 0 0 .05.012c1.062.22 1.833 1.187 1.833 2.3v2.283Z" fill="#fff"/></svg>