<svg width="34" height="34" fill="none" xmlns="http://www.w3.org/2000/svg"><path d="M7.548 32.3h18.904c.646 0 1.326-.306 1.632-.884.476-.85 0-1.632-.408-2.108a1.76 1.76 0 0 1-.476-1.19v-9.01c.136-5.576-3.06-8.364-5.984-9.758-.476-.238-1.02-.34-1.564-.34h-5.304c-.544 0-1.088.102-1.564.34-2.924 1.36-6.12 4.182-5.984 9.758v8.976c0 .442-.17.884-.476 1.19-.442.476-.918 1.258-.408 2.108.306.612.952.918 1.632.918Zm6.698-9.282h.986c.238 0 .408.17.442.34.034.306.17.578.34.748.238.238.612.374 1.054.374.374 0 .68-.102.918-.272.238-.204.34-.442.34-.782s-.102-.612-.306-.782c-.204-.204-.544-.374-1.02-.544-.476-.17-.884-.34-1.224-.51-.34-.17-.646-.34-.884-.578a2.459 2.459 0 0 1-.578-.748 2.484 2.484 0 0 1-.204-1.02c0-.68.238-1.258.714-1.7.374-.34.85-.578 1.428-.714.102-.034.17-.102.17-.17v-.51c0-.136.136-.272.306-.272h1.088c.17 0 .306.136.306.272v.544c0 .068.068.17.136.17.578.136 1.02.408 1.36.816.34.408.544.884.612 1.462.034.272-.17.476-.442.476h-.986a.442.442 0 0 1-.442-.374c-.034-.306-.136-.544-.306-.714-.204-.238-.51-.374-.884-.374s-.646.102-.85.272c-.204.204-.306.442-.306.782 0 .306.102.544.272.748.204.204.544.374 1.088.578.51.204.952.374 1.292.544.34.17.612.374.85.578.238.204.408.476.544.748.136.272.17.612.17.952 0 .68-.238 1.258-.714 1.666-.34.306-.782.544-1.326.68-.102.034-.17.102-.17.17v.476c0 .136-.136.272-.306.272h-1.088c-.17 0-.306-.136-.306-.272v-.408c0-.068-.068-.17-.17-.17-.714-.136-1.326-.408-1.734-.85-.408-.408-.612-.918-.714-1.53.034-.17.238-.374.544-.374Zm.17-15.334c.17.238.442.34.714.34h4.488c.34 0 .68-.204.816-.544l2.448-5.61c.034-.068-.034-.17-.136-.17h-4.352c-.068 0-.136.068-.17.136l-.816 3.774c-.034.17-.238.17-.306.034L15.98 3.162c-.034-.068-.102-.102-.136-.102h-4.556c-.136 0-.204.17-.136.272l3.264 4.352Z" fill="#fff"/></svg>