<svg xmlns="http://www.w3.org/2000/svg" width="75" height="72" fill="none"><path fill="url(#a)" fill-rule="evenodd" d="m36.662 34.037-8.555 21.086h-4.704L.432.243h8.467l18.816 45.158h.313L46.296.243h4.076l-6.988 17.226a19.34 19.34 0 0 1 3.683-1.472c2.17-.627 4.456-.94 6.86-.94 2.3 0 4.508.274 6.625.822 2.117.55 4.012 1.36 5.684 2.43 1.673 1.072 3.058 2.379 4.155 3.92 1.098 1.543 1.803 3.28 2.117 5.214h-5.331c-.418-3.083-1.816-5.344-4.195-6.781-2.378-1.438-5.265-2.156-8.663-2.156-2.038 0-3.841.248-5.41.744-1.567.497-2.887 1.15-3.959 1.96-1.071.81-1.881 1.764-2.43 2.862a7.78 7.78 0 0 0-.823 3.528c0 2.248.81 4.05 2.43 5.41 1.62 1.359 3.646 2.56 6.076 3.606a97.319 97.319 0 0 0 7.919 2.98c2.848.94 5.488 2.103 7.918 3.488 2.43 1.385 4.456 3.11 6.076 5.174 1.62 2.065 2.43 4.718 2.43 7.958 0 2.352-.47 4.495-1.41 6.429a14.043 14.043 0 0 1-4 4.94c-1.724 1.358-3.802 2.403-6.232 3.135-2.43.732-5.161 1.098-8.193 1.098-2.979 0-5.723-.353-8.232-1.059-2.509-.705-4.69-1.698-6.546-2.979-1.856-1.28-3.32-2.835-4.39-4.665-1.072-1.829-1.66-3.867-1.765-6.115h5.332c.052.889.261 1.973.627 3.254.366 1.28 1.071 2.522 2.117 3.724 1.045 1.202 2.56 2.234 4.547 3.096 1.986.863 4.625 1.294 7.918 1.294 4.13 0 7.435-.784 9.918-2.352 2.483-1.568 3.724-4.05 3.724-7.448 0-2.718-.784-4.887-2.352-6.507-1.568-1.62-3.541-2.992-5.92-4.116-2.377-1.124-4.952-2.13-7.722-3.019-2.77-.888-5.344-1.96-7.722-3.214s-4.351-2.822-5.92-4.704a9.457 9.457 0 0 1-1.663-2.971Z" clip-rule="evenodd"/><defs><linearGradient id="a" x1="-6.988" x2="34.967" y1="32.569" y2="81.306" gradientUnits="userSpaceOnUse"><stop stop-color="#F0D9D4"/><stop offset="1" stop-color="#E9C9C2"/></linearGradient></defs></svg>