<svg width="20" height="20" fill="none" xmlns="http://www.w3.org/2000/svg"><circle cx="10" cy="10" r="10" fill="#FF9C27"/><path d="M10 3.864A6.136 6.136 0 1 0 16.137 10 6.143 6.143 0 0 0 10 3.864Zm0 10.909a4.773 4.773 0 1 1 0-9.546 4.773 4.773 0 0 1 0 9.546Zm2.5-3.637a1.82 1.82 0 0 1-1.818 1.819v.227a.682.682 0 1 1-1.364 0v-.228h-.681a.682.682 0 1 1 0-1.363h2.045a.455.455 0 0 0 0-.91H9.318a1.818 1.818 0 0 1 0-3.636v-.227a.682.682 0 1 1 1.364 0v.227h.682a.682.682 0 0 1 0 1.364H9.318a.455.455 0 0 0 0 .91h1.364a1.82 1.82 0 0 1 1.818 1.817Z" fill="#fff"/></svg>