<svg width="15" height="16" fill="none" xmlns="http://www.w3.org/2000/svg"><path d="M7.493.5C3.583.5.417 3.86.417 8c0 4.14 3.166 7.5 7.076 7.5 3.917 0 7.09-3.36 7.09-7.5 0-4.14-3.173-7.5-7.09-7.5ZM12.402 5h-2.09a12.162 12.162 0 0 0-.977-2.67c1.292.471 2.38 1.419 3.067 2.67ZM7.5 2.03c.588.9 1.048 1.898 1.353 2.97H6.147c.305-1.072.765-2.07 1.353-2.97ZM2.017 9.5A6.525 6.525 0 0 1 1.833 8c0-.518.071-1.02.184-1.5h2.395c-.057.495-.1.99-.1 1.5s.043 1.005.1 1.5H2.017Zm.581 1.5h2.09c.227.938.552 1.838.977 2.67-1.293-.468-2.383-1.417-3.067-2.67Zm2.09-6h-2.09c.684-1.253 1.774-2.202 3.067-2.67A12.162 12.162 0 0 0 4.688 5ZM7.5 13.97A10.841 10.841 0 0 1 6.147 11h2.706A10.841 10.841 0 0 1 7.5 13.97ZM9.157 9.5H5.842A11.67 11.67 0 0 1 5.73 8c0-.51.05-1.013.113-1.5h3.315c.064.487.114.99.114 1.5s-.05 1.005-.114 1.5Zm.178 4.17c.425-.832.75-1.732.977-2.67h2.09c-.687 1.251-1.775 2.199-3.067 2.67Zm1.253-4.17c.057-.495.1-.99.1-1.5s-.043-1.005-.1-1.5h2.395c.113.48.184.982.184 1.5s-.071 1.02-.184 1.5h-2.395Z" fill="#fff"/></svg>