<svg width="57" height="51" fill="none" xmlns="http://www.w3.org/2000/svg"><path fill-rule="evenodd" clip-rule="evenodd" d="M10.001 39.63h8.989l7.763 10.133a1.645 1.645 0 0 0 2.61 0l7.762-10.133h8.99c5.514 0 10-4.486 10-10V10C56.115 4.487 51.63 0 46.115 0H10C4.487 0 0 4.487 0 10.001V29.63C0 35.144 4.487 39.63 10.001 39.63ZM3.288 10.001a6.721 6.721 0 0 1 6.713-6.713h36.113a6.721 6.721 0 0 1 6.713 6.713V29.63a6.72 6.72 0 0 1-6.713 6.713h-9.8c-.512 0-.994.239-1.305.645l-6.951 9.073-6.951-9.073a1.644 1.644 0 0 0-1.305-.645h-9.8a6.72 6.72 0 0 1-6.714-6.713V10.001ZM26.896 32.61a1.644 1.644 0 0 0 2.325 0l10.353-10.354c3.088-3.088 3.088-8.113 0-11.202a7.87 7.87 0 0 0-5.602-2.32 7.87 7.87 0 0 0-5.601 2.32l-.313.314-.314-.314c-3.088-3.089-8.113-3.089-11.202 0a7.917 7.917 0 0 0 0 11.203l10.354 10.352ZM22.143 12.02c1.238 0 2.401.482 3.276 1.357l1.477 1.477a1.645 1.645 0 0 0 2.325 0l1.475-1.475a4.603 4.603 0 0 1 3.276-1.358c4.097 0 6.198 4.989 3.277 7.91l-9.19 9.19-9.192-9.19c-2.89-2.89-.87-7.91 3.276-7.91Z" fill="url(#a)"/><defs><linearGradient id="a" x1="-5.617" y1="22.765" x2="23.539" y2="59.178" gradientUnits="userSpaceOnUse"><stop stop-color="#F8E6E2"/><stop offset="1" stop-color="#B0776B"/></linearGradient></defs></svg>