<svg width="58" height="54" fill="none" xmlns="http://www.w3.org/2000/svg"><path fill-rule="evenodd" clip-rule="evenodd" d="M57.6 15.188C57.6 6.813 50.787 0 42.412 0c-8.374 0-15.187 6.813-15.187 15.188 0 .57.033 1.133.094 1.687h-6.956c-2.37 0-4.646.48-6.779 1.43a11.706 11.706 0 0 0-5.582-1.43H2.834l2.89 8.669A17.3 17.3 0 0 0 4.97 27H0v13.5h4.96a16.924 16.924 0 0 0 6.263 7.366 5.21 5.21 0 0 1 2.39 4.389V54h10.125v-3.375h10.124V54h10.125v-1.688c0-2.824 1-5.57 2.814-7.735 3.948-4.709 4.852-10.955 3.056-16.156 4.618-2.608 7.743-7.562 7.743-13.233Zm-13.385 27.22a15.442 15.442 0 0 0-3.51 8.217h-3.468V46.88c-.012.002-3.256.37-3.375.37h-13.5v3.375h-3.529a8.57 8.57 0 0 0-3.776-5.592c-3.978-2.575-5.187-6.218-5.61-7.492-.068-.204-.115-.348-.15-.416H3.374v-6.75h3.921l.399-1.122c.448-1.261 1.112-2.311 1.5-2.925.094-.148.171-.27.226-.364L7.516 20.25h.486c2.567 0 4.31 1.185 5.069 1.701.147.1.258.176.33.212.086-.034.22-.105.398-.2.954-.51 3.207-1.713 6.564-1.713h7.73c2.09 5.893 7.72 10.125 14.32 10.125 1.503 0 2.955-.22 4.327-.63 1.339 4.126.546 9.001-2.525 12.664ZM30.6 15.189C30.6 21.7 35.9 27 42.413 27c6.513 0 11.812-5.3 11.812-11.813 0-6.513-5.3-11.812-11.813-11.812-6.513 0-11.812 5.3-11.812 11.813ZM42.413 13.5a1.69 1.69 0 0 1-1.688-1.688 1.69 1.69 0 0 1 3.243-.656l3.108-1.315a5.055 5.055 0 0 0-4.663-3.091 5.068 5.068 0 0 0-5.063 5.063 5.068 5.068 0 0 0 5.063 5.062c.93 0 1.687.757 1.687 1.688a1.69 1.69 0 0 1-3.243.656l-3.108 1.315a5.055 5.055 0 0 0 4.663 3.091 5.068 5.068 0 0 0 5.063-5.063 5.068 5.068 0 0 0-5.063-5.062ZM16.988 27h-3.375v3.375h3.375V27Z" fill="url(#a)"/><defs><linearGradient id="a" x1="-5.766" y1="24.388" x2="25.734" y2="62.083" gradientUnits="userSpaceOnUse"><stop stop-color="#F8E6E2"/><stop offset="1" stop-color="#B0776B"/></linearGradient></defs></svg>