<svg width="54" height="50" fill="none" xmlns="http://www.w3.org/2000/svg"><path fill-rule="evenodd" clip-rule="evenodd" d="M40.505.233a1.582 1.582 0 0 1 2.408 1.349v42.232a1.582 1.582 0 0 1-2.39 1.36l-17.12-10.173-7.87 13.631a1.581 1.581 0 0 1-2.143.589l-6.98-3.916a1.582 1.582 0 0 1-.596-2.17l5.512-9.546a6.896 6.896 0 0 1-2.768-2.708H4.586A4.591 4.591 0 0 1 0 26.295V19.1a4.591 4.591 0 0 1 4.586-4.586h3.98a6.38 6.38 0 0 1 1.174-1.499 6.181 6.181 0 0 1 4.606-1.688h8.043L40.505.233ZM3.164 26.295c0 .784.638 1.422 1.422 1.422h3.127a1.449 1.449 0 0 0-.001-.07v-9.935l.001-.033H4.586c-.784 0-1.422.638-1.422 1.422v7.194Zm7.711-8.545c0-.926.377-1.812 1.034-2.43a3.048 3.048 0 0 1 2.297-.831c.032.002 7.047.002 7.047.002v16.75h-6.9c-1.954-.14-3.478-1.712-3.478-3.595V17.75Zm-1.52 25.58 4.22 2.367 6.52-11.293h-5.6c-.023.055-.05.109-.08.162l-5.06 8.764Zm30.394-2.296-15.332-9.112V13.796l15.332-9.39v36.628Zm7.822-25.113a1.577 1.577 0 0 1-1.12.463 1.582 1.582 0 0 1-1.119-2.7l3.193-3.191a1.582 1.582 0 0 1 2.237 2.237L47.57 15.92Zm-2.238 13.554a1.582 1.582 0 0 1 2.238 0l3.19 3.191a1.582 1.582 0 1 1-2.236 2.238l-3.192-3.192a1.582 1.582 0 0 1 0-2.237Zm7.08-8.359H47.9a1.582 1.582 0 1 0 0 3.164h4.513a1.582 1.582 0 0 0 0-3.164Z" fill="url(#a)"/><defs><linearGradient id="a" x1="-5.405" y1="22.321" x2="23.295" y2="57.497" gradientUnits="userSpaceOnUse"><stop stop-color="#F8E6E2"/><stop offset="1" stop-color="#B0776B"/></linearGradient></defs></svg>