<svg width="54" height="54" fill="none" xmlns="http://www.w3.org/2000/svg"><path fill-rule="evenodd" clip-rule="evenodd" d="M27 0C12.113 0 0 12.113 0 27c0 14.888 12.113 27 27 27 14.888 0 27-12.112 27-27C54 12.113 41.888 0 27 0Zm0 50.625C13.973 50.625 3.375 40.027 3.375 27S13.973 3.375 27 3.375 50.625 13.973 50.625 27 40.027 50.625 27 50.625ZM25 10h3.374v16.066L38 35.63 35.615 38 25 27.453V10Z" fill="url(#a)"/><defs><linearGradient id="a" x1="-5.406" y1="24.388" x2="26.393" y2="60.062" gradientUnits="userSpaceOnUse"><stop stop-color="#F8E6E2"/><stop offset="1" stop-color="#B0776B"/></linearGradient></defs></svg>