<svg width="57" height="37" fill="none" xmlns="http://www.w3.org/2000/svg"><path fill-rule="evenodd" clip-rule="evenodd" d="M51.065 4.144a5.376 5.376 0 0 1 5.37 5.37 5.378 5.378 0 0 1-4.22 5.245c-.57 4.716-1.78 10.666-4.34 14.713v4.958c0 .918-.745 1.663-1.663 1.663H10.223a1.662 1.662 0 0 1-1.662-1.663v-4.958c-2.56-4.047-3.77-9.998-4.341-14.713A5.378 5.378 0 0 1 0 9.514a5.376 5.376 0 0 1 5.37-5.37 5.376 5.376 0 0 1 5.37 5.37 5.348 5.348 0 0 1-1.466 3.68 8.785 8.785 0 0 0 6.565 2.946c4.22 0 7.754-2.983 8.61-6.95a5.355 5.355 0 0 1-1.601-3.82A5.376 5.376 0 0 1 28.218 0a5.376 5.376 0 0 1 5.37 5.37 5.353 5.353 0 0 1-1.6 3.82c.855 3.967 4.389 6.95 8.608 6.95 2.607 0 4.95-1.14 6.565-2.945a5.348 5.348 0 0 1-1.465-3.68 5.376 5.376 0 0 1 5.37-5.37Zm0 3.324a2.048 2.048 0 0 0-2.045 2.046c0 1.128.917 2.046 2.045 2.046a2.048 2.048 0 0 0 2.047-2.046 2.049 2.049 0 0 0-2.047-2.046ZM26.172 5.37c0-1.128.918-2.046 2.046-2.046 1.128 0 2.045.918 2.045 2.046a2.048 2.048 0 0 1-2.045 2.046 2.048 2.048 0 0 1-2.046-2.046ZM5.37 7.468a2.049 2.049 0 0 0-2.046 2.046c0 1.128.918 2.046 2.046 2.046a2.048 2.048 0 0 0 2.046-2.046A2.048 2.048 0 0 0 5.37 7.468Zm6.515 25.3V30.64H44.55v2.128H11.885Zm-.748-5.452H45.3c1.752-2.971 2.756-7.14 3.332-10.901a12.08 12.08 0 0 1-8.035 3.05c-5.525 0-10.198-3.713-11.658-8.775a5.376 5.376 0 0 1-1.44 0c-1.46 5.062-6.134 8.774-11.659 8.774a12.082 12.082 0 0 1-8.032-3.047c.576 3.762 1.58 7.931 3.33 10.899Z" fill="url(#a)"/><defs><linearGradient id="a" x1="-5.65" y1="16.301" x2="12.761" y2="48.594" gradientUnits="userSpaceOnUse"><stop stop-color="#F8E6E2"/><stop offset="1" stop-color="#B0776B"/></linearGradient></defs></svg>