<svg xmlns="http://www.w3.org/2000/svg" width="26" height="26" fill="none"><path fill="#fff" fill-rule="evenodd" d="M8.125 0h9.75A8.126 8.126 0 0 1 26 8.125v9.75A8.126 8.126 0 0 1 17.875 26h-9.75A8.126 8.126 0 0 1 0 17.875v-9.75A8.126 8.126 0 0 1 8.125 0Zm9.75 23.563a5.694 5.694 0 0 0 5.688-5.688v-9.75a5.694 5.694 0 0 0-5.688-5.688h-9.75a5.694 5.694 0 0 0-5.688 5.688v9.75a5.694 5.694 0 0 0 5.688 5.688h9.75ZM6.367 13a6.633 6.633 0 1 1 13.266 0 6.633 6.633 0 0 1-13.266 0Zm2.488 0A4.151 4.151 0 0 0 13 17.145 4.151 4.151 0 0 0 17.145 13 4.15 4.15 0 0 0 13 8.854 4.15 4.15 0 0 0 8.855 13Zm11.043-6.103a.796.796 0 1 0 0-1.591.796.796 0 0 0 0 1.591Z" clip-rule="evenodd"/></svg>