<svg xmlns="http://www.w3.org/2000/svg" width="170" height="55" fill="none"><path fill="#34343F" fill-rule="evenodd" d="M69.875 47.487a2.487 2.487 0 0 0-1.246-.31v-.001c-.472 0-.89.11-1.252.33a2.28 2.28 0 0 0-.85.912c.031-.79.216-1.387.554-1.791.337-.405.866-.687 1.586-.846l2.12-.487-.114-.621-2.255.516c-.872.204-1.514.592-1.925 1.166-.41.573-.616 1.398-.616 2.474 0 1.032.229 1.84.688 2.427.458.586 1.105.879 1.94.879.496 0 .936-.105 1.318-.315.382-.21.68-.505.893-.884.213-.38.32-.814.32-1.304 0-.478-.102-.903-.306-1.276a2.183 2.183 0 0 0-.855-.87Zm-.41 3.84c-.278.163-.591.244-.942.244-.35 0-.666-.081-.946-.243a1.693 1.693 0 0 1-.654-.684 2.08 2.08 0 0 1-.234-.993c0-.37.078-.694.234-.975.156-.28.372-.498.65-.654.277-.156.594-.234.95-.234.357 0 .674.078.95.234.278.156.493.374.646.654.153.28.23.606.23.975 0 .37-.079.7-.235.993-.156.293-.373.521-.65.684Zm6.434-2.498c.63.007 1.11.147 1.438.42.328.275.492.67.492 1.185 0 .535-.177.946-.53 1.233-.354.286-.865.426-1.534.42l-2.025-.01v-5.025h.678v1.758l1.48.02h.001Zm.884 2.46c-.239.195-.59.288-1.056.282l-1.309-.019v-2.236l1.31.02c.47.006.824.098 1.06.276.235.179.353.453.353.822 0 .376-.12.661-.358.855Zm7.906-4.275c.471 0 .896.108 1.275.325.38.216.677.519.894.907.216.389.325.828.325 1.319 0 .49-.109.93-.325 1.318a2.362 2.362 0 0 1-.894.912c-.379.22-.804.33-1.275.33-.446 0-.85-.097-1.213-.291a2.39 2.39 0 0 1-.884-.808 2.508 2.508 0 0 1-.397-1.184H81.05v2.235h-.679v-5.025h.679v2.169h1.156c.05-.433.19-.817.415-1.152.226-.334.518-.593.874-.778a2.558 2.558 0 0 1 1.195-.277Zm.932 4.27a1.782 1.782 0 0 1-.932.249 1.75 1.75 0 0 1-1.586-.946c-.16-.3-.239-.64-.239-1.022s.08-.723.239-1.023c.16-.3.377-.53.654-.692.277-.163.588-.244.932-.244.344 0 .654.081.932.244.276.162.495.393.654.692.16.3.239.64.239 1.023 0 .382-.08.723-.24 1.022-.159.3-.377.532-.653.698Zm7.61-3.63h-1.902v4.423h-.678v-4.423h-1.902v-.602h4.481v.602Zm2.914-.602h-.679v5.026h.612l3.343-3.994v3.993h.679v-5.025h-.602l-3.353 3.994v-3.994Zm12.725 2.79h-1.146v2.236h-.678v-5.026h.678v2.207h1.156l1.768-2.207h.735l-1.977 2.437 2.121 2.589h-.803l-1.854-2.236Zm5.561 1.954c.389.22.825.33 1.309.33s.92-.11 1.309-.33c.388-.22.692-.524.912-.913.22-.388.33-.828.33-1.318 0-.49-.11-.93-.33-1.318a2.328 2.328 0 0 0-.912-.908 2.64 2.64 0 0 0-1.309-.325c-.484 0-.92.108-1.309.325-.389.217-.694.519-.917.908a2.6 2.6 0 0 0-.334 1.318c0 .49.111.93.334 1.318a2.4 2.4 0 0 0 .917.913Zm1.309-.273c.357 0 .677-.08.96-.243.284-.163.505-.394.664-.693.159-.3.239-.64.239-1.022s-.08-.723-.239-1.023c-.159-.299-.38-.53-.664-.692a1.893 1.893 0 0 0-.96-.244c-.357 0-.677.081-.96.244a1.723 1.723 0 0 0-.669.692c-.162.3-.244.64-.244 1.023 0 .382.082.723.244 1.022.162.3.385.53.669.693.283.162.603.243.96.243Zm9.478-.812c0-.662-.341-1.073-1.023-1.232a1.33 1.33 0 0 0 .626-.435c.15-.194.225-.428.225-.702 0-.414-.163-.733-.488-.956-.324-.222-.773-.334-1.347-.334h-2.216v5.026h2.283c.643 0 1.127-.119 1.452-.354.325-.236.488-.573.488-1.013Zm-3.564-1.423h1.51c.388 0 .686-.073.893-.22.207-.147.311-.36.311-.64s-.104-.49-.311-.63c-.207-.141-.505-.211-.893-.211h-1.51v1.7Zm2.57 2.044c-.216.14-.541.21-.974.21H121.654v-1.748h1.662c.427 0 .739.072.937.215.197.143.296.365.296.664 0 .3-.108.519-.325.66Zm5.904.793c-.484 0-.92-.11-1.308-.33a2.403 2.403 0 0 1-.918-.912 2.61 2.61 0 0 1-.334-1.318c0-.49.112-.93.334-1.318a2.37 2.37 0 0 1 .918-.908 2.64 2.64 0 0 1 1.308-.325c.485 0 .921.108 1.309.325.389.217.693.519.913.908.219.388.329.828.329 1.318 0 .49-.11.93-.329 1.318-.22.389-.524.693-.913.913-.388.22-.824.33-1.309.33Zm.961-.845a1.9 1.9 0 0 1-.961.243c-.356 0-.676-.08-.96-.243a1.736 1.736 0 0 1-.669-.693c-.162-.3-.243-.64-.243-1.022s.081-.723.243-1.023c.163-.3.386-.53.669-.692a1.9 1.9 0 0 1 .96-.244 1.9 1.9 0 0 1 .961.244c.283.162.504.393.664.692.159.3.238.64.238 1.023 0 .382-.079.723-.238 1.022-.16.3-.381.53-.664.693Zm6.883-4.266c.472 0 .898.107 1.281.32.382.213.681.514.898.903.216.389.325.831.325 1.328 0 .503-.109.95-.325 1.338-.217.388-.515.69-.894.903a2.57 2.57 0 0 1-1.285.32c-.407 0-.775-.085-1.103-.253a2.09 2.09 0 0 1-.807-.74v2.798h-.679v-6.878h.65v.993c.204-.331.473-.586.807-.764a2.368 2.368 0 0 1 1.132-.268Zm.908 4.266a1.903 1.903 0 0 1-.955.243 1.9 1.9 0 0 1-.961-.243 1.727 1.727 0 0 1-.668-.693c-.163-.3-.244-.64-.244-1.022s.081-.721.244-1.018c.162-.296.385-.527.668-.692.284-.166.604-.249.961-.249.35 0 .668.083.955.248.287.166.511.397.674.693.162.297.243.636.243 1.018s-.081.723-.243 1.022c-.163.3-.388.53-.674.693Zm6.134-1.438h-1.147v2.236h-.678v-5.026h.678v2.207h1.156l1.768-2.207h.735l-1.977 2.437 2.121 2.589h-.803l-1.853-2.236Zm5.656-2.79h-.679v5.026h.612l3.344-3.994v3.993h.678v-5.025h-.602l-3.353 3.994v-3.994Zm7.146 0h.678v2.226h3.163v-2.226h.678v5.026h-.678V49.86h-3.163v2.217h-.678v-5.026Zm8.379.602h2.876v-.602h-3.554v5.026h.678v-4.424Z" clip-rule="evenodd"/><path fill="url(#a)" fill-rule="evenodd" d="m1.452 39.6 17.686-10.21a3.393 3.393 0 0 1-.009-.242l.005-.165L1.453 18.774V39.6Zm21.66-13.613a3.256 3.256 0 0 1 2.094 1.575L42.597 17.52 23.112 6.27v19.717Zm2.506 3.008.004.153c0 .077-.003.154-.008.23L43.321 39.6V18.775l-17.702 10.22Zm-.445 1.8a3.27 3.27 0 0 1-2.06 1.515v19.796l19.485-11.25-17.425-10.062Zm-3.512 1.52a3.247 3.247 0 0 1-2.076-1.511L2.175 40.856l19.486 11.25V32.315Zm-2.11-4.763a3.256 3.256 0 0 1 2.11-1.57V6.269L2.173 17.52l17.377 10.033Zm4.095.326a1.794 1.794 0 0 0-1.27-.525 1.794 1.794 0 0 0-1.795 1.795c0 .497.2.947.524 1.271.324.323.774.524 1.27.524a1.793 1.793 0 0 0 1.271-3.065Zm-.853-23.465 21.572 12.455c.24.118.407.365.407.652V40.874l-.001.005-.001.023v.01l-.001.002v.016l-.002.007-.001.011-.003.018-.001.006a.73.73 0 0 1-.397.535L22.793 53.962l-.005.004-.005.003-.006.003-.005.005-.006.002-.003.003h-.003l-.005.005-.006.002-.001.001h-.001l-.003.003-.006.003-.005.003-.007.003-.005.003-.004.003h-.003l-.006.003-.005.003H22.7l-.004.003-.006.003-.006.003-.006.002-.007.003-.003.001-.003.002-.005.002-.007.003-.006.002-.006.002-.005.002h-.001l-.006.003-.007.002h-.003l-.003.002-.007.003-.006.002h-.001l-.005.001-.007.003h-.007l-.006.003-.007.002h-.003l-.003.002-.007.001-.007.002-.006.001-.007.002-.005.001h-.002l-.006.002-.007.001h-.006l-.008.002-.006.001h-.001l-.006.002h-.007l-.005.001H22.47l-.007.002h-.007l-.006.001h-.008l-.006.002H22.336l-.006-.001h-.007l-.007-.002h-.007l-.007-.001-.007-.001h-.007l-.007-.001-.006-.002h-.007l-.007-.002-.004-.001h-.003l-.007-.001-.006-.002h-.002l-.005-.001-.007-.002-.006-.001-.007-.002-.007-.001-.003-.002H22.2l-.007-.002-.006-.002h-.002l-.005-.001-.007-.003-.005-.001-.007-.002-.006-.003-.004-.001h-.003l-.007-.003-.005-.002h-.002l-.005-.003-.006-.002-.006-.002-.007-.003-.006-.002-.002-.002-.003-.001-.007-.003-.006-.002-.006-.003-.006-.003-.004-.002-.002-.001-.005-.003-.006-.003h-.003l-.004-.003-.005-.003L22.04 54v-.001l-.006-.003-.006-.003-.003-.002h-.001v-.002l-.007-.002-.005-.004-.003-.001-.003-.003-.006-.002-.005-.004-.006-.004-.005-.003-.004-.003h-.002L.409 41.506A.725.725 0 0 1 0 40.856V17.497l.002-.024v-.011l.002-.012v-.004l.001-.008.001-.01v-.001l.003-.018.001-.005a.73.73 0 0 1 .397-.536L21.98 4.413h.001l.004-.003.005-.004.006-.003.005-.004.006-.004.004-.001.002-.002.006-.004.005-.003h.001l.005-.003.005-.004.005-.002h.001l.006-.004.005-.004h.004l.003-.002.006-.003.006-.003h.001l.004-.003.006-.003.005-.001.001-.001.006-.003.007-.003h.003l.003-.002.006-.003.003-.001.003-.001v-.001l.007-.002.005-.002.005-.002h.002l.006-.003.006-.002h.003l.004-.002.007-.002.006-.003.006-.002.006-.001.005-.002h.002l.007-.002.006-.002h.003l.004-.002.006-.001.007-.002.006-.001.008-.002.005-.001h.001l.007-.001.006-.002h.007l.007-.002.007-.001.006-.001.008-.001h.006l.007-.002h.003l.007-.001h.004l.007-.001h.007l.007-.001h.007l.005-.001H22.436l.007.001.007.001h.011l.007.002h.003l.007.001h.006l.008.002h.006l.007.002.007.001.004.001h.003l.006.002h.008l.005.002.007.002.006.001.007.002.007.001.004.002h.003l.006.002.007.001.001.001.006.002.006.001.005.002h.002l.005.003.007.002.004.001.003.001.006.002.006.002.001.001.005.002.006.002.006.002.004.002.003.001.006.003.003.002h.003l.006.003.006.003h.002l.005.002.005.003.005.003h.001l.006.003.006.003.002.001.004.001.006.004.006.003.005.003.006.004.005.003.006.003.006.004.002.002h.004l.005.005.006.003v.001l.005.003.005.004.005.003h.001Z" clip-rule="evenodd"/><path fill="#34343F" fill-rule="evenodd" d="M124.125 11.285c2.596 0 4.965.584 7.103 1.75a13.278 13.278 0 0 1 2.872 2.094 13.12 13.12 0 0 1 2.19 2.775 12.898 12.898 0 0 1 1.382 3.321c.308 1.174.462 2.412.462 3.712 0 1.299-.154 2.54-.462 3.717a13.099 13.099 0 0 1-1.382 3.34 13.063 13.063 0 0 1-2.19 2.795c-.841.815-1.8 1.516-2.872 2.1a14.009 14.009 0 0 1-3.382 1.313 15.529 15.529 0 0 1-3.722.438c-1.499 0-2.914-.19-4.244-.568a13.444 13.444 0 0 1-3.729-1.708 12.691 12.691 0 0 1-2.965-2.68 12.219 12.219 0 0 1-1.217-1.842v6.645h-1.854V0h1.854v18.053c.355-.65.764-1.259 1.225-1.828a12.853 12.853 0 0 1 2.986-2.666 13.708 13.708 0 0 1 3.734-1.706 15.275 15.275 0 0 1 4.21-.567h.001ZM96.779 4.806c.212.086.445.13.692.13.231 0 .453-.044.662-.13.201-.084.395-.212.576-.381.181-.17.319-.354.41-.548.097-.206.146-.422.146-.646 0-.24-.048-.466-.144-.676a1.66 1.66 0 0 0-.422-.553 1.815 1.815 0 0 0-1.228-.477c-.244 0-.474.04-.686.12a1.755 1.755 0 0 0-.58.366c-.353.33-.53.738-.53 1.22 0 .222.046.436.136.638.088.197.217.382.385.548.173.171.367.302.583.39Zm-6.076 7.183L77.674 38.487h-1.56c-3.6-7.35-7.216-14.695-10.83-22.039l-.016-.03-.005-.011-2.446-4.97h2.102L76.896 36.06 88.87 11.438h2.102l-.27.551Zm6.225-.551h1.47v27.05h-1.854v-27.05h.384Zm30.471 25.086a13.69 13.69 0 0 1-3.274.382h-.001a13.69 13.69 0 0 1-3.274-.382 12.16 12.16 0 0 1-2.947-1.146 11.317 11.317 0 0 1-2.483-1.825 11.437 11.437 0 0 1-3.056-5.336 13.223 13.223 0 0 1-.395-3.28c0-1.156.132-2.25.395-3.28.262-1.03.657-2.002 1.181-2.91a11.06 11.06 0 0 1 1.875-2.419 11.105 11.105 0 0 1 2.48-1.805c.932-.502 1.916-.88 2.949-1.13a13.907 13.907 0 0 1 3.275-.375c1.15 0 2.243.126 3.276.375a12.33 12.33 0 0 1 2.949 1.13c.928.5 1.755 1.103 2.479 1.805a10.999 10.999 0 0 1 1.876 2.419c.524.908.919 1.879 1.182 2.91.262 1.03.394 2.125.394 3.28 0 1.154-.132 2.25-.394 3.28a11.474 11.474 0 0 1-1.182 2.91 11.167 11.167 0 0 1-1.877 2.426 11.23 11.23 0 0 1-2.481 1.825c-.931.51-1.915.893-2.947 1.146Zm42.218-11.203h-24.583c.057 2.148.599 4.082 1.623 5.8.543.91 1.19 1.722 1.937 2.43a11.668 11.668 0 0 0 2.555 1.824c.954.51 1.971.892 3.049 1.147 1.08.255 2.222.384 3.422.384.936 0 1.842-.085 2.717-.253a13.186 13.186 0 0 0 2.539-.759c.81-.334 1.551-.747 2.22-1.234a9.618 9.618 0 0 0 1.782-1.68l.258-.314 1.331 1.245-.246.277a12.244 12.244 0 0 1-2.13 1.903 13.268 13.268 0 0 1-2.572 1.4c-.929.382-1.887.671-2.869.862-.983.19-1.996.286-3.031.286-2.741 0-5.199-.583-7.373-1.749a13.412 13.412 0 0 1-2.921-2.1 13.078 13.078 0 0 1-2.222-2.794 13.025 13.025 0 0 1-1.406-3.34 14.517 14.517 0 0 1-.468-3.72 15.5 15.5 0 0 1 .433-3.707 13.415 13.415 0 0 1 1.299-3.316 12.897 12.897 0 0 1 2.064-2.776 12.564 12.564 0 0 1 2.723-2.097c2.033-1.17 4.313-1.755 6.839-1.755 1.242 0 2.433.143 3.569.432 1.136.287 2.218.719 3.242 1.294a12.946 12.946 0 0 1 2.748 2.057c.807.796 1.506 1.7 2.093 2.712a12.663 12.663 0 0 1 1.321 3.25c.293 1.15.44 2.368.44 3.652v.638h-.384.001Zm-16.044-11.947a12.46 12.46 0 0 1 3.015-.355h-.001c1.058 0 2.065.118 3.017.355.952.238 1.859.595 2.714 1.07.857.474 1.633 1.04 2.324 1.696a11.488 11.488 0 0 1 3.047 4.892c.251.812.414 1.665.486 2.555h-23.121c.072-.891.232-1.744.479-2.555a11.33 11.33 0 0 1 1.201-2.655 11.25 11.25 0 0 1 1.805-2.236 11.248 11.248 0 0 1 2.318-1.697 11.181 11.181 0 0 1 2.716-1.07Z" clip-rule="evenodd"/><defs><linearGradient id="a" x1="48.076" x2="16.294" y1="24.97" y2="-2.856" gradientUnits="userSpaceOnUse"><stop stop-color="#C88C61"/><stop offset="1" stop-color="#EBBE9C"/></linearGradient></defs></svg>