<svg xmlns="http://www.w3.org/2000/svg" width="27" height="27" fill="none"><path fill="#fff" fill-rule="evenodd" d="M22.944 3.922A13.285 13.285 0 0 0 13.483 0C6.114 0 .115 5.998.112 13.371a13.348 13.348 0 0 0 1.785 6.685L0 26.986l7.089-1.86a13.358 13.358 0 0 0 6.39 1.628h.006c7.37 0 13.369-6 13.371-13.372a13.29 13.29 0 0 0-3.913-9.46Zm-9.46 20.573h-.004a11.1 11.1 0 0 1-5.657-1.549l-.406-.24-4.206 1.103 1.122-4.102-.264-.42a11.087 11.087 0 0 1-1.699-5.915C2.372 7.244 7.358 2.258 13.489 2.258a11.038 11.038 0 0 1 7.857 3.26A11.048 11.048 0 0 1 24.6 13.38c-.003 6.128-4.989 11.114-11.115 11.114Zm3.814-9.41c.306.11 1.949.919 2.283 1.086.065.033.127.063.184.09.232.113.39.189.456.3.084.14.084.809-.195 1.59-.278.78-1.613 1.492-2.255 1.588-.576.086-1.304.122-2.104-.132a19.13 19.13 0 0 1-1.905-.704c-3.132-1.353-5.25-4.388-5.65-4.962a4.017 4.017 0 0 0-.058-.083l-.003-.004c-.178-.238-1.361-1.817-1.361-3.453 0-1.539.755-2.345 1.103-2.717l.066-.07c.306-.335.668-.418.891-.418.223 0 .446.002.64.012h.075c.195 0 .438-.002.677.573.092.22.226.546.367.89.288.701.607 1.479.663 1.591.084.167.14.362.028.585-.111.223-.473.694-.835 1.143-.015.02-.031.038-.047.057-.137.163-.274.325-.1.625.195.335.866 1.429 1.86 2.315 1.067.952 1.995 1.355 2.466 1.559.091.04.166.072.22.1.334.166.529.139.724-.085.195-.222.835-.975 1.058-1.31.223-.334.446-.278.752-.167Z" clip-rule="evenodd"/></svg>