<svg width="101" height="32" fill="none" xmlns="http://www.w3.org/2000/svg"><path fill-rule="evenodd" clip-rule="evenodd" d="M41.961 27.934a1.463 1.463 0 0 0-.733-.183 1.341 1.341 0 0 0-1.236.73c.018-.464.127-.816.325-1.054.199-.237.51-.403.933-.497l1.248-.286-.068-.366-1.326.304c-.513.12-.89.348-1.133.685-.241.338-.362.823-.362 1.456 0 .607.135 1.083.405 1.428.27.344.65.517 1.14.517.293 0 .551-.062.776-.186.225-.123.4-.297.526-.52.125-.223.188-.478.188-.767 0-.28-.06-.53-.18-.75-.12-.22-.288-.39-.503-.511Zm-.242 2.258a1.075 1.075 0 0 1-.553.144c-.206 0-.392-.048-.557-.143a.996.996 0 0 1-.385-.402 1.224 1.224 0 0 1-.138-.585c0-.217.046-.408.138-.573a.981.981 0 0 1 .382-.385 1.12 1.12 0 0 1 .56-.138c.21 0 .396.046.559.138.163.092.29.22.38.385.09.165.134.356.134.573 0 .218-.046.412-.138.585a1 1 0 0 1-.382.401Zm3.785-1.469c.371.004.653.087.846.248.193.16.29.393.29.696 0 .315-.104.557-.312.725-.208.169-.509.251-.902.248l-1.192-.006v-2.956h.4v1.034l.87.011Zm.52 1.447c-.14.115-.347.17-.62.166l-.77-.011V29.01l.77.011c.276.004.484.058.623.163.139.105.208.266.208.483 0 .221-.07.39-.21.503Zm4.65-2.515c.278 0 .528.064.751.191.223.128.398.306.526.534.127.229.19.487.19.776 0 .288-.063.547-.19.776a1.39 1.39 0 0 1-.526.536c-.223.13-.473.194-.75.194-.262 0-.5-.057-.714-.171a1.407 1.407 0 0 1-.52-.475 1.475 1.475 0 0 1-.233-.697h-.674v1.315h-.4v-2.956h.4v1.275h.68c.03-.254.111-.48.244-.677.133-.196.305-.349.514-.458.21-.108.444-.163.703-.163Zm.549 2.513a1.048 1.048 0 0 1-.548.146 1.03 1.03 0 0 1-.933-.556 1.26 1.26 0 0 1-.14-.602c0-.225.046-.425.14-.601a1.01 1.01 0 0 1 .385-.408c.163-.095.346-.143.548-.143.202 0 .385.047.548.143.163.096.291.232.385.408.094.176.14.376.14.6 0 .226-.046.426-.14.602a1.03 1.03 0 0 1-.385.41Zm4.476-2.136h-1.118v2.602h-.4v-2.602h-1.118v-.354H55.7v.354Zm1.715-.354h-.4v2.956h.36l1.967-2.35v2.35h.4v-2.956h-.355l-1.973 2.349v-2.35Zm7.485 1.64h-.674v1.316h-.4v-2.956h.4v1.298h.68l1.04-1.298h.432l-1.163 1.433 1.248 1.523h-.472l-1.09-1.315Zm3.271 1.15c.229.13.486.194.77.194.285 0 .542-.064.77-.194.229-.129.408-.308.537-.536.13-.229.194-.487.194-.776 0-.288-.065-.547-.194-.775a1.374 1.374 0 0 0-.537-.534 1.553 1.553 0 0 0-.77-.192c-.284 0-.541.064-.77.192a1.394 1.394 0 0 0-.54.534 1.53 1.53 0 0 0-.196.775c0 .289.066.547.197.776.13.228.31.407.54.536Zm.77-.16c.21 0 .398-.048.565-.143a.998.998 0 0 0 .39-.408c.094-.176.141-.376.141-.601 0-.225-.047-.425-.14-.601a1 1 0 0 0-.39-.408 1.116 1.116 0 0 0-.566-.143c-.21 0-.398.048-.565.143a1.018 1.018 0 0 0-.393.408 1.24 1.24 0 0 0-.143.6c0 .226.047.426.143.602.096.176.227.312.393.408.167.095.355.143.565.143Zm5.575-.478c0-.39-.2-.631-.601-.725a.783.783 0 0 0 .368-.255.656.656 0 0 0 .132-.413.64.64 0 0 0-.286-.562c-.192-.131-.456-.197-.793-.197h-1.304v2.956h1.343c.379 0 .664-.07.855-.208.19-.139.286-.337.286-.596Zm-2.096-.837h.888c.229 0 .404-.043.526-.13a.433.433 0 0 0 .182-.376.418.418 0 0 0-.182-.371c-.122-.083-.297-.124-.526-.124h-.888v1Zm1.512 1.203c-.127.082-.319.123-.573.123h-.939v-1.028h.978c.25 0 .434.042.55.126.117.084.175.215.175.39 0 .177-.064.306-.191.389Zm3.473.466c-.285 0-.541-.064-.77-.194a1.413 1.413 0 0 1-.54-.536 1.53 1.53 0 0 1-.196-.776c0-.288.066-.547.197-.775.13-.229.31-.407.54-.534.228-.128.484-.192.769-.192.285 0 .541.064.77.192.229.127.407.305.537.534.129.228.194.487.194.775 0 .289-.065.547-.194.776-.13.228-.309.407-.537.536-.229.13-.485.194-.77.194Zm.565-.497a1.115 1.115 0 0 1-.565.143c-.21 0-.398-.048-.565-.143a1.017 1.017 0 0 1-.393-.408 1.241 1.241 0 0 1-.144-.601c0-.225.048-.425.144-.601.095-.177.227-.312.393-.408.167-.095.355-.143.565-.143.21 0 .398.047.565.143a.999.999 0 0 1 .39.408c.094.176.14.376.14.6 0 .226-.046.426-.14.602a.998.998 0 0 1-.39.408Zm4.05-2.51c.276 0 .527.063.752.189.225.125.401.302.528.53.128.23.192.49.192.782 0 .296-.064.558-.192.787a1.352 1.352 0 0 1-.525.531 1.514 1.514 0 0 1-.756.188 1.4 1.4 0 0 1-.649-.149 1.23 1.23 0 0 1-.475-.435v1.647h-.399v-4.047h.382v.585c.12-.195.278-.345.475-.45.197-.105.419-.157.666-.157Zm.533 2.51a1.119 1.119 0 0 1-.562.143c-.21 0-.398-.048-.565-.143a1.016 1.016 0 0 1-.393-.408 1.241 1.241 0 0 1-.144-.601c0-.225.048-.424.144-.599.095-.174.226-.31.393-.407.167-.098.355-.146.565-.146.206 0 .393.048.562.146.169.097.3.233.396.407.096.175.144.374.144.599 0 .225-.048.425-.144.601a1.012 1.012 0 0 1-.396.408Zm3.608-.846h-.674v1.315h-.4v-2.956h.4v1.298h.68l1.04-1.298h.432l-1.163 1.433 1.248 1.523h-.473l-1.09-1.315Zm3.327-1.641h-.399v2.956h.36l1.967-2.35v2.35h.399v-2.956h-.354l-1.973 2.349v-2.35Zm4.204 0h.399v1.31h1.86v-1.31h.4v2.956h-.4V29.33h-1.86v1.304h-.4v-2.956Zm4.929.354h1.691v-.354h-2.09v2.956h.399v-2.602Z" fill="#fff"/><path fill-rule="evenodd" clip-rule="evenodd" d="m1.712 23.294 10.403-6.006a2.027 2.027 0 0 1-.005-.142l.003-.097-10.4-6.005v12.25Zm12.741-8.008a1.914 1.914 0 0 1 1.232.926l10.23-5.907-11.462-6.618v11.599Zm1.475 1.77.002.09c0 .045-.002.09-.005.135l10.416 6.013v-12.25l-10.413 6.012Zm-.263 1.058a1.926 1.926 0 0 1-1.212.892V30.65l11.463-6.618-10.25-5.918Zm-2.066.895a1.911 1.911 0 0 1-1.22-.889L2.136 24.033l11.462 6.618V19.009Zm-1.24-2.802a1.92 1.92 0 0 1 1.24-.924V3.688L2.137 10.305l10.221 5.902Zm2.409.191a1.057 1.057 0 1 0-1.498 1.497 1.057 1.057 0 0 0 1.498-1.497Zm-.502-13.802 12.689 7.326c.142.07.24.215.24.383v13.738l-.001.003-.001.014v.016l-.002.004v.007l-.002.01v.004a.43.43 0 0 1-.234.315l-12.69 7.326-.003.002-.003.002-.003.002-.003.002-.003.002-.002.002h-.002l-.003.002-.003.002-.002.001-.001.001-.004.002-.003.002-.004.002-.003.002h-.002l-.002.001-.003.002-.004.002-.003.001-.003.002-.004.002-.004.001-.004.002h-.001l-.002.001-.003.002-.004.001-.004.002h-.003l-.003.002h-.001l-.003.002-.004.001h-.002l-.002.001-.004.002-.003.001h-.004l-.004.002-.003.001h-.001l-.004.001-.004.001h-.002l-.002.001-.004.001-.004.001-.003.001h-.005l-.003.002h-.004l-.004.002h-.008l-.004.001-.004.001h-.004l-.003.001H14.072l-.002.001h-.007l-.004.001h-.008l-.003.001H13.993l-.004-.001h-.007l-.001-.001h-.004l-.005-.001h-.008l-.003-.002h-.004l-.005-.001h-.004l-.003-.001-.004-.001h-.001l-.003-.001h-.005l-.003-.002h-.004l-.004-.002h-.004l-.004-.002-.004-.001h-.003l-.004-.002-.003-.001-.005-.001-.004-.002h-.003l-.004-.002-.004-.001-.003-.002-.004-.001-.003-.001-.005-.002-.003-.002h-.002l-.001-.001-.004-.002-.003-.001-.004-.002-.004-.002-.002-.001h-.001l-.004-.002-.003-.002h-.002l-.002-.002-.003-.001-.004-.002-.003-.002-.003-.002-.002-.001h-.001l-.004-.003-.003-.002h-.001l-.002-.002-.004-.002-.003-.002-.003-.002-.003-.002-.003-.002-12.69-7.326a.427.427 0 0 1-.24-.384V10.294l.001-.002.001-.014v-.007l.001-.007v-.002l.001-.005v-.006l.002-.01.001-.004a.43.43 0 0 1 .234-.315l12.689-7.326.003-.002.003-.003.003-.001.003-.003.004-.002h.002l.001-.002.004-.002.003-.002.003-.002.003-.002.003-.001.004-.002.003-.003h.002l.002-.001.004-.002.003-.002.004-.001.003-.002.002-.001h.001l.004-.002.004-.002h.002l.001-.001.004-.002h.002l.002-.001.003-.002.004-.001.003-.001.004-.002.004-.001h.002l.002-.001.004-.002h.004l.003-.002.004-.001h.003v-.001l.005-.001.004-.002h.003l.004-.001.004-.001.004-.001h.004l.003-.002h.005l.004-.002h.008l.004-.001.004-.001h.004l.003-.001h.007l.004-.001h.006l.004-.001H14.002l.002-.001H14.06l.004.001h.006l.004.001h.002l.004.001h.008l.004.002h.004l.004.001h.004l.004.001.004.001.004.001.004.001h.003l.005.002h.004l.002.001h.001l.004.002h.004l.001.001.003.001h.004l.003.002.004.001.004.002h.002l.002.001.004.001.003.002h.004l.003.002.004.001.002.001.002.001.003.002h.002l.002.001.004.002.003.002h.004l.003.003.003.001.004.002.003.002h.002l.002.001.004.003.003.001.003.002.004.002.002.002h.001l.003.002.004.002.001.001h.002l.004.003.002.002.004.002.003.003.002.001h.001Z" fill="url(#a)"/><path fill-rule="evenodd" clip-rule="evenodd" d="M73.872 6.638c1.528 0 2.92.344 4.18 1.03A7.81 7.81 0 0 1 79.74 8.9a7.7 7.7 0 0 1 2.101 3.586c.181.69.272 1.42.272 2.184 0 .764-.09 1.494-.272 2.186a7.685 7.685 0 0 1-.813 1.965 7.694 7.694 0 0 1-1.288 1.644 7.766 7.766 0 0 1-1.689 1.236c-.628.342-1.293.6-1.99.771a9.134 9.134 0 0 1-2.189.258 9.092 9.092 0 0 1-2.497-.334 7.906 7.906 0 0 1-2.193-1.005 7.46 7.46 0 0 1-1.744-1.576 7.216 7.216 0 0 1-.716-1.083v3.909h-1.09V0h1.09v10.62c.209-.382.45-.741.72-1.076A7.55 7.55 0 0 1 69.2 7.976a8.063 8.063 0 0 1 2.196-1.004 8.987 8.987 0 0 1 2.477-.333Zm-16.085-3.81c.124.05.261.076.406.076.137 0 .267-.026.39-.077a1.14 1.14 0 0 0 .339-.224c.107-.1.188-.208.241-.322a.885.885 0 0 0 .086-.38.949.949 0 0 0-.085-.398.976.976 0 0 0-.248-.325 1.068 1.068 0 0 0-.723-.28 1.033 1.033 0 0 0-.744.286.945.945 0 0 0-.312.717c0 .13.027.256.08.375.052.116.128.225.227.323.101.1.216.177.343.228Zm-3.575 4.224L46.55 22.64h-.917a7886.168 7886.168 0 0 0-6.37-12.963h-.001v-.002L37.81 6.728h1.236l7.045 14.483 7.044-14.483h1.236l-.159.324Zm3.662-.323h.865V22.64h-1.09V6.73h.225Zm17.924 14.756c-.608.15-1.25.225-1.926.225a8.05 8.05 0 0 1-1.926-.225 7.148 7.148 0 0 1-1.733-.674 6.664 6.664 0 0 1-1.46-1.074 6.74 6.74 0 0 1-1.798-3.139 7.783 7.783 0 0 1-.233-1.929c0-.68.078-1.324.232-1.93a6.738 6.738 0 0 1 .695-1.711 6.5 6.5 0 0 1 1.103-1.423 6.53 6.53 0 0 1 1.459-1.062 7.253 7.253 0 0 1 1.734-.664 8.18 8.18 0 0 1 1.927-.22c.677 0 1.32.073 1.927.22.607.147 1.187.37 1.735.664a6.51 6.51 0 0 1 1.458 1.062c.427.415.796.89 1.104 1.423a6.74 6.74 0 0 1 .695 1.712c.154.605.232 1.25.232 1.929 0 .68-.078 1.324-.232 1.93a6.743 6.743 0 0 1-1.8 3.139 6.618 6.618 0 0 1-1.459 1.073c-.547.3-1.126.525-1.734.674Zm24.834-6.59h-14.46c.034 1.263.353 2.4.954 3.41a6.648 6.648 0 0 0 2.643 2.503c.561.3 1.16.525 1.794.675.635.15 1.306.226 2.012.226.551 0 1.084-.05 1.599-.15a7.76 7.76 0 0 0 1.493-.445c.477-.197.913-.44 1.306-.726a5.667 5.667 0 0 0 1.048-.988l.152-.185.783.732-.145.163a7.186 7.186 0 0 1-1.253 1.12c-.46.322-.964.597-1.513.823a8.901 8.901 0 0 1-1.687.507 9.371 9.371 0 0 1-1.783.169c-1.612 0-3.059-.343-4.337-1.03a7.879 7.879 0 0 1-1.718-1.234 7.694 7.694 0 0 1-1.307-1.644 7.656 7.656 0 0 1-.828-1.965 8.527 8.527 0 0 1-.275-2.188c0-.763.085-1.491.255-2.18.17-.69.425-1.341.764-1.951.34-.61.745-1.156 1.214-1.634a7.398 7.398 0 0 1 1.602-1.233c1.195-.688 2.537-1.032 4.023-1.032.73 0 1.43.084 2.099.254.668.169 1.305.423 1.907.761a7.604 7.604 0 0 1 1.617 1.21 7.558 7.558 0 0 1 2.008 3.508c.173.675.259 1.392.259 2.147v.376h-.226Zm-9.437-7.028c.56-.14 1.152-.21 1.773-.21.622 0 1.214.07 1.775.21a6.686 6.686 0 0 1 2.964 1.627 6.765 6.765 0 0 1 1.792 2.877c.147.478.243.98.285 1.503h-13.6a7.128 7.128 0 0 1 .281-1.503c.167-.549.404-1.07.707-1.562.303-.49.658-.93 1.062-1.315a6.622 6.622 0 0 1 2.96-1.627Z" fill="#fff"/><defs><linearGradient id="a" x1="29.138" y1="14.688" x2="10.443" y2="-1.68" gradientUnits="userSpaceOnUse"><stop stop-color="#C88C61"/><stop offset="1" stop-color="#EBBE9C"/></linearGradient></defs></svg>