<svg width="34" height="30" fill="none" xmlns="http://www.w3.org/2000/svg"><g filter="url(#a)"><path d="m23.8 16.68-.256.258c-1.312 1.312-3.805 1.614-5.392.653l-.108-.065-.116-.05c-.143-.062-.5-.255-1.038-.617-.958-.642-2.034-1.526-3.195-2.687-1.162-1.162-2.045-2.237-2.688-3.195-.361-.54-.555-.896-.616-1.038l-.056-.13-.074-.118c-.966-1.542-.654-4.047.67-5.37l.27-.27c.298-.3.656-.279.916.05l1.469 1.857c.362.458.315 1.255-.103 1.673a2.3 2.3 0 0 0 .01 3.243l3.5 3.5a2.303 2.303 0 0 0 3.254-.002l.072-.072c.408-.408 1.172-.445 1.62-.079l1.81 1.484c.339.277.359.669.052.976Z" fill="url(#b)"/></g><defs><linearGradient id="b" x1="2.538" y1="10.997" x2="16.852" y2="25.317" gradientUnits="userSpaceOnUse"><stop stop-color="#E9C6A4"/><stop offset="1" stop-color="#CE946B"/></linearGradient><filter id="a" x=".698" y="-3.16" width="32.32" height="32.315" filterUnits="userSpaceOnUse" color-interpolation-filters="sRGB"><feFlood flood-opacity="0" result="BackgroundImageFix"/><feColorMatrix in="SourceAlpha" values="0 0 0 0 0 0 0 0 0 0 0 0 0 0 0 0 0 0 127 0" result="hardAlpha"/><feOffset dy="2"/><feGaussianBlur stdDeviation="4.5"/><feColorMatrix values="0 0 0 0 1 0 0 0 0 0.549398 0 0 0 0 0.230869 0 0 0 1 0"/><feBlend in2="BackgroundImageFix" result="effect1_dropShadow_0_1855"/><feBlend in="SourceGraphic" in2="effect1_dropShadow_0_1855" result="shape"/></filter></defs></svg>