<svg xmlns="http://www.w3.org/2000/svg" width="26" height="30" fill="none"><path fill="#636D85" d="M3.95 11.58v7.69a1.82 1.82 0 0 1-1.826 1.84c-1.016 0-1.999-.824-1.999-1.84v-7.69c0-1.003.983-1.826 2-1.826 1.002 0 1.825.823 1.825 1.826Zm.718 10.426c0 1.089.876 1.965 1.965 1.965h1.322l.02 4.058c0 2.45 3.665 2.43 3.665 0v-4.058h2.47v4.058c0 2.437 3.686 2.444 3.686 0v-4.058h1.341a1.958 1.958 0 0 0 1.953-1.965V10.093H4.668v11.913ZM21.136 9.448H4.595c0-2.842 1.7-5.312 4.223-6.6L7.55.504c-.186-.326.285-.532.445-.253l1.288 2.364c2.317-1.029 4.98-.976 7.192 0L17.756.258c.166-.286.631-.073.445.252l-1.268 2.338c2.503 1.288 4.203 3.758 4.203 6.6ZM9.801 5.763a.697.697 0 0 0-.697-.697.689.689 0 0 0-.678.697c0 .378.306.697.678.697a.697.697 0 0 0 .697-.697Zm7.53 0a.693.693 0 0 0-.677-.697.697.697 0 1 0 0 1.394.693.693 0 0 0 .677-.697Zm6.296 3.991A1.82 1.82 0 0 0 21.8 11.58v7.69c0 1.023.824 1.84 1.827 1.84 1.022 0 1.998-.824 1.998-1.84v-7.69c0-1.023-.982-1.826-1.998-1.826Z"/></svg>