<svg width="30" height="30" fill="none" xmlns="http://www.w3.org/2000/svg"><path d="M25.278 0c1.758 0 3.174 1.421 3.257 3.096V30l-3.345-2.842-1.835-1.67-2.008-1.748.836 2.755H4.638c-1.753 0-3.173-1.329-3.173-3.096V3.101c0-1.674 1.421-3.095 3.179-3.095h20.625l.01-.006Zm-7.647 7.104h-.04l-.253.25c2.593.752 3.847 1.923 3.847 1.923-1.67-.835-3.179-1.255-4.683-1.425-1.083-.166-2.173-.078-3.09 0h-.255c-.586 0-1.835.254-3.51.922-.582.254-.918.42-.918.42s1.25-1.255 4.013-1.924l-.17-.166s-2.09-.083-4.346 1.588c0 0-2.256 3.93-2.256 8.774 0 0 1.25 2.173 4.679 2.255 0 0 .502-.663 1.006-1.25-1.924-.585-2.676-1.757-2.676-1.757s.17.083.42.25h.073c.04 0 .06.019.078.039v.009c.02.02.04.034.073.034.415.17.825.336 1.163.502.585.25 1.333.503 2.25.67 1.163.17 2.495.249 4.014 0 .747-.171 1.499-.332 2.25-.67.485-.25 1.084-.498 1.744-.922 0 0-.748 1.171-2.755 1.757.41.582.991 1.25.991 1.25 3.432-.078 4.765-2.25 4.839-2.158 0-4.838-2.271-8.774-2.271-8.774-2.041-1.519-3.955-1.577-4.292-1.577l.069-.024.006.004Zm.21 5.519c.88 0 1.587.747 1.587 1.665 0 .928-.712 1.674-1.587 1.674-.88 0-1.587-.747-1.587-1.665 0-.928.712-1.675 1.587-1.675Zm-5.678 0c.873 0 1.582.747 1.582 1.665 0 .928-.712 1.674-1.587 1.674-.88 0-1.592-.747-1.592-1.665 0-.928.713-1.675 1.592-1.675h.005Z" fill="#fff"/></svg>