<svg xmlns="http://www.w3.org/2000/svg" width="35" height="35" fill="none"><path fill="#C4C4C4" d="M11.667 4.375a2.917 2.917 0 0 1 2.916-2.917h5.834a2.917 2.917 0 0 1 2.916 2.917v5.833a2.917 2.917 0 0 1-2.916 2.917h-1.454l-.003 2.917h11.665a1.458 1.458 0 1 1 0 2.916h-2.912l-.003 2.917h1.457a2.917 2.917 0 0 1 2.916 2.917v5.833a2.917 2.917 0 0 1-2.916 2.917h-5.834a2.917 2.917 0 0 1-2.916-2.917v-5.833a2.917 2.917 0 0 1 2.916-2.917h1.46l.003-2.917h-7.162a1.477 1.477 0 0 1-.268 0h-7.153l-.003 2.917h1.457a2.917 2.917 0 0 1 2.916 2.917v5.833a2.917 2.917 0 0 1-2.916 2.917H5.833a2.917 2.917 0 0 1-2.916-2.917v-5.833a2.917 2.917 0 0 1 2.916-2.917h1.46l.003-2.917h-2.92a1.458 1.458 0 0 1 0-2.916h11.667l.003-2.917h-1.463a2.917 2.917 0 0 1-2.916-2.917V4.375Z"/><path fill="url(#a)" d="M11.667 4.375a2.917 2.917 0 0 1 2.916-2.917h5.834a2.917 2.917 0 0 1 2.916 2.917v5.833a2.917 2.917 0 0 1-2.916 2.917h-1.454l-.003 2.917h11.665a1.458 1.458 0 1 1 0 2.916h-2.912l-.003 2.917h1.457a2.917 2.917 0 0 1 2.916 2.917v5.833a2.917 2.917 0 0 1-2.916 2.917h-5.834a2.917 2.917 0 0 1-2.916-2.917v-5.833a2.917 2.917 0 0 1 2.916-2.917h1.46l.003-2.917h-7.162a1.477 1.477 0 0 1-.268 0h-7.153l-.003 2.917h1.457a2.917 2.917 0 0 1 2.916 2.917v5.833a2.917 2.917 0 0 1-2.916 2.917H5.833a2.917 2.917 0 0 1-2.916-2.917v-5.833a2.917 2.917 0 0 1 2.916-2.917h1.46l.003-2.917h-2.92a1.458 1.458 0 0 1 0-2.916h11.667l.003-2.917h-1.463a2.917 2.917 0 0 1-2.916-2.917V4.375Z"/><defs><linearGradient id="a" x1="6.912" x2="30.767" y1="6.958" y2="27.069" gradientUnits="userSpaceOnUse"><stop stop-color="#00FFA3" stop-opacity=".6"/><stop offset="1" stop-color="#4B48F1"/></linearGradient></defs></svg>