<svg xmlns="http://www.w3.org/2000/svg" width="35" height="35" fill="none"><path fill="#C4C4C4" d="M17.023 2.268c.31-.107.645-.107.954 0L32.56 7.309a1.458 1.458 0 0 1 .01 2.753L17.987 15.23a1.459 1.459 0 0 1-.974 0L2.43 10.062a1.458 1.458 0 0 1 .01-2.753l14.583-5.041Z"/><path fill="url(#a)" d="M17.023 2.268c.31-.107.645-.107.954 0L32.56 7.309a1.458 1.458 0 0 1 .01 2.753L17.987 15.23a1.459 1.459 0 0 1-.974 0L2.43 10.062a1.458 1.458 0 0 1 .01-2.753l14.583-5.041Z"/><path fill="#C4C4C4" d="M3.398 13.207a1.458 1.458 0 1 0-.963 2.752l14.583 5.105c.312.109.652.109.964 0l14.583-5.104a1.458 1.458 0 0 0-.963-2.753L17.5 18.142 3.4 13.207Z"/><path fill="url(#b)" d="M3.398 13.207a1.458 1.458 0 1 0-.963 2.752l14.583 5.105c.312.109.652.109.964 0l14.583-5.104a1.458 1.458 0 0 0-.963-2.753L17.5 18.142 3.4 13.207Z"/><path fill="#C4C4C4" d="M3.398 19.04a1.458 1.458 0 1 0-.963 2.753l14.583 5.104c.312.11.652.11.964 0l14.583-5.104a1.458 1.458 0 0 0-.963-2.753L17.5 23.975 3.4 19.04Z"/><path fill="url(#c)" d="M3.398 19.04a1.458 1.458 0 1 0-.963 2.753l14.583 5.104c.312.11.652.11.964 0l14.583-5.104a1.458 1.458 0 0 0-.963-2.753L17.5 23.975 3.4 19.04Z"/><path fill="#C4C4C4" d="M1.54 25.768a1.458 1.458 0 0 1 1.858-.895L17.5 29.81l14.102-4.936a1.458 1.458 0 0 1 .963 2.753L17.982 32.73c-.312.11-.652.11-.964 0L2.435 27.626a1.458 1.458 0 0 1-.895-1.858Z"/><path fill="url(#d)" d="M1.54 25.768a1.458 1.458 0 0 1 1.858-.895L17.5 29.81l14.102-4.936a1.458 1.458 0 0 1 .963 2.753L17.982 32.73c-.312.11-.652.11-.964 0L2.435 27.626a1.458 1.458 0 0 1-.895-1.858Z"/><defs><linearGradient id="a" x1="5.853" x2="28.946" y1="7.437" y2="29.873" gradientUnits="userSpaceOnUse"><stop stop-color="#00FFA3" stop-opacity=".6"/><stop offset="1" stop-color="#4B48F1"/></linearGradient><linearGradient id="b" x1="5.853" x2="28.946" y1="7.437" y2="29.873" gradientUnits="userSpaceOnUse"><stop stop-color="#00FFA3" stop-opacity=".6"/><stop offset="1" stop-color="#4B48F1"/></linearGradient><linearGradient id="c" x1="5.853" x2="28.946" y1="7.437" y2="29.873" gradientUnits="userSpaceOnUse"><stop stop-color="#00FFA3" stop-opacity=".6"/><stop offset="1" stop-color="#4B48F1"/></linearGradient><linearGradient id="d" x1="5.853" x2="28.946" y1="7.437" y2="29.873" gradientUnits="userSpaceOnUse"><stop stop-color="#00FFA3" stop-opacity=".6"/><stop offset="1" stop-color="#4B48F1"/></linearGradient></defs></svg>