<svg xmlns="http://www.w3.org/2000/svg" width="35" height="35" fill="none"><path fill="#C4C4C4" d="M17.5 1.458c.805 0 1.458.653 1.458 1.459v2.272c2.075.243 3.992.998 5.623 2.136l1.684-1.684a1.458 1.458 0 1 1 2.062 2.063l-1.562 1.561a12.353 12.353 0 0 1 2.938 6.047h2.38a1.458 1.458 0 0 1 0 2.917h-2.208a12.337 12.337 0 0 1-2.64 6.945l1.608 1.607a1.458 1.458 0 0 1-2.062 2.062l-1.608-1.607a12.337 12.337 0 0 1-6.215 2.575v2.272a1.458 1.458 0 0 1-2.916 0v-2.272a12.348 12.348 0 0 1-6.777-3.045l-1.561 1.562a1.458 1.458 0 0 1-2.063-2.063l1.684-1.683a12.33 12.33 0 0 1-2.2-6.353H2.917a1.458 1.458 0 1 1 0-2.916h2.38a12.34 12.34 0 0 1 2.467-5.486L6.157 8.219a1.458 1.458 0 0 1 2.062-2.062l1.607 1.607a12.336 12.336 0 0 1 6.216-2.575V2.917c0-.806.652-1.459 1.458-1.459Z"/><path fill="url(#a)" d="M17.5 1.458c.805 0 1.458.653 1.458 1.459v2.272c2.075.243 3.992.998 5.623 2.136l1.684-1.684a1.458 1.458 0 1 1 2.062 2.063l-1.562 1.561a12.353 12.353 0 0 1 2.938 6.047h2.38a1.458 1.458 0 0 1 0 2.917h-2.208a12.337 12.337 0 0 1-2.64 6.945l1.608 1.607a1.458 1.458 0 0 1-2.062 2.062l-1.608-1.607a12.337 12.337 0 0 1-6.215 2.575v2.272a1.458 1.458 0 0 1-2.916 0v-2.272a12.348 12.348 0 0 1-6.777-3.045l-1.561 1.562a1.458 1.458 0 0 1-2.063-2.063l1.684-1.683a12.33 12.33 0 0 1-2.2-6.353H2.917a1.458 1.458 0 1 1 0-2.916h2.38a12.34 12.34 0 0 1 2.467-5.486L6.157 8.219a1.458 1.458 0 0 1 2.062-2.062l1.607 1.607a12.336 12.336 0 0 1 6.216-2.575V2.917c0-.806.652-1.459 1.458-1.459Z"/><defs><linearGradient id="a" x1="5.853" x2="29.987" y1="6.958" y2="29.339" gradientUnits="userSpaceOnUse"><stop stop-color="#00FFA3" stop-opacity=".6"/><stop offset="1" stop-color="#4B48F1"/></linearGradient></defs></svg>