<svg width="24" height="24" viewBox="0 0 24 24" fill="none" xmlns="http://www.w3.org/2000/svg">
<path d="M19.7064 0H4.29356C1.92609 0 0 1.92609 0 4.29356V19.7065C0 22.0739 1.92609 24 4.29356 24H19.7065C22.0739 24 24 22.0739 24 19.7064V4.29356C24 1.92609 22.0739 0 19.7064 0ZM22.5938 19.7064C22.5938 21.2985 21.2985 22.5938 19.7064 22.5938H4.29356C2.7015 22.5938 1.40625 21.2985 1.40625 19.7064V4.29356C1.40625 2.7015 2.7015 1.40625 4.29356 1.40625H19.7065C21.2985 1.40625 22.5938 2.7015 22.5938 4.29356V19.7064Z" fill="#645C4F"/>
<path d="M20.2844 5.27174H9.57531C9.28089 4.39728 8.45378 3.7655 7.48131 3.7655C6.50884 3.7655 5.68173 4.39728 5.38731 5.27174H3.7157C3.32739 5.27174 3.01257 5.58655 3.01257 5.97486C3.01257 6.36318 3.32739 6.67799 3.7157 6.67799H5.38735C5.68178 7.55244 6.50889 8.18422 7.48135 8.18422C8.45382 8.18422 9.28093 7.55244 9.57535 6.67799H20.2845C20.6728 6.67799 20.9876 6.36318 20.9876 5.97486C20.9876 5.58655 20.6728 5.27174 20.2844 5.27174ZM7.48131 6.77797C7.03848 6.77797 6.6782 6.41769 6.6782 5.97486C6.6782 5.53203 7.03848 5.17175 7.48131 5.17175C7.92414 5.17175 8.28442 5.53203 8.28442 5.97486C8.28442 6.41769 7.92414 6.77797 7.48131 6.77797ZM20.2844 11.2967H18.6128C18.3183 10.4223 17.4912 9.79049 16.5188 9.79049C15.5463 9.79049 14.7192 10.4223 14.4248 11.2967H3.7157C3.32739 11.2967 3.01257 11.6115 3.01257 11.9998C3.01257 12.3882 3.32739 12.703 3.7157 12.703H14.4248C14.7192 13.5774 15.5464 14.2092 16.5188 14.2092C17.4912 14.2092 18.3184 13.5774 18.6128 12.703H20.2845C20.6728 12.703 20.9876 12.3882 20.9876 11.9998C20.9876 11.6115 20.6728 11.2967 20.2844 11.2967ZM16.5188 12.803C16.076 12.803 15.7157 12.4427 15.7157 11.9998C15.7157 11.557 16.076 11.1967 16.5188 11.1967C16.9616 11.1967 17.3219 11.557 17.3219 11.9998C17.3219 12.4427 16.9616 12.803 16.5188 12.803ZM20.2844 17.3217H12.5878C12.2934 16.4473 11.4663 15.8155 10.4938 15.8155C9.52135 15.8155 8.69425 16.4473 8.39982 17.3217H3.7157C3.32739 17.3217 3.01257 17.6365 3.01257 18.0248C3.01257 18.4131 3.32739 18.728 3.7157 18.728H8.39982C8.69425 19.6024 9.52135 20.2342 10.4938 20.2342C11.4663 20.2342 12.2934 19.6024 12.5878 18.728H20.2845C20.6728 18.728 20.9876 18.4131 20.9876 18.0248C20.9876 17.6365 20.6728 17.3217 20.2844 17.3217ZM10.4938 18.828C10.051 18.828 9.69071 18.4677 9.69071 18.0249C9.69071 17.5821 10.051 17.2218 10.4938 17.2218C10.9367 17.2218 11.2969 17.582 11.2969 18.0248C11.2969 18.4677 10.9367 18.828 10.4938 18.828Z" fill="#645C4F"/>
</svg>
