<svg width="22" height="22" fill="none" xmlns="http://www.w3.org/2000/svg"><path d="M11 20a1 1 0 1 1 0 2 1 1 0 0 1 0-2Zm0-17a8 8 0 1 1 0 16 8 8 0 0 1 0-16ZM4 17a1 1 0 1 1 0 2 1 1 0 0 1 0-2Zm14 0a1 1 0 1 1 0 2 1 1 0 0 1 0-2Zm-1.356-3.96c-1.227-.722-2.567-1.071-3.341-.684-.36.18-.596.472-.74.831-.08.2-.116.359-.172.665l-.029.156-.04.182-.03.103-.016.017-.035.027-.057.03-.321.147C11.308 14.8 11 15.256 11 16c0 .381.069.705.205.997l-.002-.003.111-.002a5.974 5.974 0 0 0 1.783-.369l.277-.11-.027-.024-.164-.143a.788.788 0 0 1-.139-.152l-.009-.018.165-.08c.195-.103.318-.2.507-.389.348-.348.502-.733.61-1.27l.038-.209.147.039c.083.024.172.053.265.088.29.107.595.253.89.428.399-.49.722-1.044.95-1.645l.037-.099Zm-5.268-8.028-.083.194a3.245 3.245 0 0 0-.21 1.384c.042.667.259 1.051.713 1.555l.133.151c.068.085.071.116.071.204 0 .824-.823 2.146-1.531 2.274-.24.043-.42-.001-.707-.176l-.13-.084-.383-.255-.205-.121a1.972 1.972 0 0 0-.496-.191 1.57 1.57 0 0 0-1.144.166c-.716.403-.86.883-.918 1.861l-.013.207-.022.199c-.02.128-.047.195-.081.235-.15.176-.615.215-1.127.082.22.749.585 1.447 1.077 2.056.604-.088 1.154-.353 1.569-.836.352-.412.505-.87.565-1.437l.006-.066.019-.265.232.15c.68.417 1.303.589 2.111.443C12.618 12.42 14 10.2 14 8.5c0-.725-.22-1.142-.703-1.676l-.133-.153a.35.35 0 0 1-.073-.124l-.012-.083c-.02-.326.08-.62.271-.886.022-.03.043-.058.064-.083l-.006.007a5.974 5.974 0 0 0-2.032-.49ZM21 10a1 1 0 1 1 0 2 1 1 0 0 1 0-2ZM1 10a1 1 0 1 1 0 2 1 1 0 0 1 0-2Zm17-7a1 1 0 1 1 0 2 1 1 0 0 1 0-2ZM4 3a1 1 0 1 1 0 2 1 1 0 0 1 0-2Zm7-3a1 1 0 1 1 0 2 1 1 0 0 1 0-2Z" fill="#fff"/></svg>