<svg width="22" height="22" fill="none" xmlns="http://www.w3.org/2000/svg"><path fill-rule="evenodd" clip-rule="evenodd" d="M3.642 1.42C5.568.844 8.169.5 11 .5c2.83 0 5.432.343 7.358.92.957.288 1.804.65 2.435 1.097C21.397 2.945 22 3.6 22 4.5s-.603 1.555-1.207 1.983c-.13.093-.27.182-.419.267.09.051.175.104.257.157C21.302 7.344 22 8.03 22 9c0 .9-.603 1.555-1.207 1.984a5.25 5.25 0 0 1-.418.266c.088.051.174.104.256.157C21.302 11.844 22 12.53 22 13.5c0 .9-.603 1.555-1.207 1.984-.13.092-.27.18-.418.266.088.051.174.103.256.157C21.302 16.343 22 17.03 22 18c0 .899-.603 1.555-1.207 1.983-.63.447-1.478.81-2.435 1.096-1.926.578-4.527.921-7.358.921-2.83 0-5.432-.343-7.358-.92-.957-.288-1.804-.65-2.435-1.097C.603 19.555 0 18.9 0 18c0-.97.698-1.657 1.369-2.093.082-.054.168-.106.256-.157a5.244 5.244 0 0 1-.418-.266C.603 15.055 0 14.399 0 13.5c0-.97.698-1.656 1.369-2.093.082-.053.168-.106.256-.157a5.246 5.246 0 0 1-.418-.266C.603 10.555 0 9.899 0 9c0-.97.698-1.656 1.369-2.093.082-.053.168-.106.257-.157a5.272 5.272 0 0 1-.419-.267C.603 6.055 0 5.4 0 4.5s.603-1.555 1.207-1.983c.63-.447 1.478-.81 2.435-1.096ZM2.006 4.5c.02.044.096.166.358.352.382.27 1 .556 1.852.811C5.91 6.171 8.308 6.5 11 6.5s5.09-.329 6.784-.837c.853-.255 1.47-.54 1.852-.81.262-.187.338-.309.358-.353-.02-.044-.096-.166-.358-.352-.382-.27-1-.556-1.852-.811C16.09 2.829 13.692 2.5 11 2.5s-5.09.329-6.784.837c-.853.255-1.47.54-1.852.81-.262.187-.338.309-.358.353Zm15.373 10.278a.783.783 0 0 0-.02.005c-1.662.44-3.89.717-6.359.717-2.47 0-4.697-.277-6.359-.717a13.52 13.52 0 0 1-.425-.12c-.853-.255-1.47-.54-1.852-.81-.261-.186-.337-.308-.358-.352.022-.048.112-.195.454-.417.422-.275 1.071-.554 1.934-.8C6.221 12.739 8.523 13 11 13c2.477 0 4.778-.262 6.606-.715.863.245 1.512.524 1.934.799.342.222.432.369.454.417-.02.044-.097.166-.358.351-.382.271-1 .556-1.852.812-.13.039-.266.077-.405.114Zm-12.72-4.49a13.594 13.594 0 0 1-.442-.124c-.854-.256-1.47-.54-1.853-.812-.261-.185-.337-.307-.358-.351.022-.048.112-.195.454-.417.422-.275 1.072-.554 1.935-.8C6.222 8.238 8.523 8.5 11 8.5c2.477 0 4.778-.263 6.605-.715.863.245 1.513.524 1.936.799.341.222.43.369.453.417-.02.044-.097.166-.358.351-.382.271-1 .556-1.852.812a13.515 13.515 0 0 1-.442.124C15.685 10.725 13.466 11 11 11c-2.466 0-4.685-.275-6.342-.712Z" fill="#fff"/></svg>