<svg width="82" height="25" viewBox="0 0 82 25" fill="none" xmlns="http://www.w3.org/2000/svg">
<path d="M1.26719 19C1.20052 19 1.16719 18.9667 1.16719 18.9L1.20719 5.16C1.20719 5.10667 1.23385 5.08 1.28719 5.08L5.02719 5.06C5.76052 5.04667 6.42719 5.22 7.02719 5.58C7.64052 5.94 8.12719 6.42667 8.48719 7.04C8.84719 7.64 9.02719 8.30667 9.02719 9.04V14.78C9.02719 15.5533 8.84052 16.26 8.46719 16.9C8.09385 17.5267 7.59385 18.0267 6.96719 18.4C6.34052 18.7733 5.63385 18.9667 4.84719 18.98L1.26719 19ZM3.60719 16.54H4.84719C5.34052 16.54 5.75385 16.3667 6.08719 16.02C6.43385 15.6733 6.60719 15.26 6.60719 14.78V9.02C6.60719 8.59333 6.44719 8.22667 6.12719 7.92C5.82052 7.6 5.45385 7.44667 5.02719 7.46L3.62719 7.48L3.60719 16.54ZM10.6808 19C10.6274 19 10.6008 18.9667 10.6008 18.9L10.6408 5.16C10.6408 5.10667 10.6674 5.08 10.7208 5.08H14.7608C15.4808 5.08 16.1408 5.26 16.7408 5.62C17.3541 5.96667 17.8408 6.44 18.2008 7.04C18.5608 7.62667 18.7408 8.29333 18.7408 9.04C18.7408 9.53333 18.6674 9.98 18.5208 10.38C18.3741 10.7667 18.2008 11.1 18.0008 11.38C17.8008 11.6467 17.6208 11.8467 17.4608 11.98C18.1808 12.78 18.5408 13.72 18.5408 14.8L18.5608 18.9C18.5608 18.9667 18.5274 19 18.4608 19H16.2008C16.1474 19 16.1208 18.98 16.1208 18.94V14.8C16.1208 14.32 15.9474 13.9067 15.6008 13.56C15.2674 13.2 14.8541 13.02 14.3608 13.02H13.0408L13.0208 18.9C13.0208 18.9667 12.9941 19 12.9408 19H10.6808ZM13.0408 10.62H14.7608C15.1741 10.62 15.5408 10.4667 15.8608 10.16C16.1808 9.85333 16.3408 9.48 16.3408 9.04C16.3408 8.61333 16.1808 8.24667 15.8608 7.94C15.5541 7.63333 15.1874 7.48 14.7608 7.48H13.0408V10.62ZM20.3492 19C20.2826 19 20.2492 18.9667 20.2492 18.9L20.2692 5.16C20.2692 5.10667 20.2959 5.08 20.3492 5.08H22.5892C22.6426 5.08 22.6692 5.10667 22.6692 5.16L22.6892 18.9C22.6892 18.9667 22.6626 19 22.6092 19H20.3492ZM26.6884 19C26.6351 19 26.6018 18.9667 26.5884 18.9L23.8284 5.16C23.8151 5.10667 23.8418 5.08 23.9084 5.08H26.1684C26.2218 5.08 26.2551 5.10667 26.2684 5.16L27.9084 14.32L29.5084 5.16C29.5218 5.10667 29.5551 5.08 29.6084 5.08H31.8484C31.9151 5.08 31.9418 5.10667 31.9284 5.16L29.2084 18.9C29.1951 18.9667 29.1618 19 29.1084 19H26.6884ZM33.1808 19C33.1274 19 33.1008 18.9667 33.1008 18.9L33.1208 5.16C33.1208 5.10667 33.1474 5.08 33.2008 5.08H39.6208C39.6741 5.08 39.7008 5.11333 39.7008 5.18V7.42C39.7008 7.47333 39.6741 7.5 39.6208 7.5H35.5208V10.62H39.6208C39.6741 10.62 39.7008 10.6467 39.7008 10.7L39.7208 12.96C39.7208 13.0133 39.6941 13.04 39.6408 13.04H35.5208V16.54H39.6408C39.6941 16.54 39.7208 16.5733 39.7208 16.64V18.92C39.7208 18.9733 39.6941 19 39.6408 19H33.1808ZM44.548 19C44.4946 19 44.468 18.9667 44.468 18.9L44.508 5.16C44.508 5.10667 44.5346 5.08 44.588 5.08H47.028C47.0813 5.08 47.128 5.10667 47.168 5.16L48.988 7.8L50.808 5.16C50.848 5.10667 50.8946 5.08 50.948 5.08H53.408C53.4613 5.08 53.488 5.10667 53.488 5.16L53.528 18.9C53.528 18.9667 53.5013 19 53.448 19H51.188C51.1346 19 51.108 18.9667 51.108 18.9L51.088 8.7L48.988 11.74L46.908 8.7L46.888 18.9C46.888 18.9667 46.8613 19 46.808 19H44.548ZM58.9102 19.2C58.1902 19.2 57.5302 19.02 56.9302 18.66C56.3435 18.2867 55.8702 17.8 55.5102 17.2C55.1502 16.5867 54.9702 15.9133 54.9702 15.18L54.9902 8.84C54.9902 8.10667 55.1635 7.44 55.5102 6.84C55.8702 6.24 56.3502 5.76 56.9502 5.4C57.5502 5.04 58.2035 4.86 58.9102 4.86C59.6302 4.86 60.2835 5.04 60.8702 5.4C61.4568 5.76 61.9235 6.24 62.2702 6.84C62.6302 7.44 62.8102 8.10667 62.8102 8.84L62.8302 15.18C62.8302 15.9133 62.6502 16.5867 62.2902 17.2C61.9435 17.8 61.4702 18.2867 60.8702 18.66C60.2835 19.02 59.6302 19.2 58.9102 19.2ZM58.9102 16.78C59.3102 16.78 59.6568 16.62 59.9502 16.3C60.2568 15.9667 60.4102 15.5933 60.4102 15.18L60.3902 8.84C60.3902 8.4 60.2502 8.02667 59.9702 7.72C59.6902 7.41333 59.3368 7.26 58.9102 7.26C58.4968 7.26 58.1435 7.41333 57.8502 7.72C57.5568 8.01333 57.4102 8.38667 57.4102 8.84V15.18C57.4102 15.62 57.5568 16 57.8502 16.32C58.1435 16.6267 58.4968 16.78 58.9102 16.78ZM66.0969 19C66.0435 19 66.0169 18.9667 66.0169 18.9V7.5H63.4169C63.3502 7.5 63.3169 7.46667 63.3169 7.4L63.3369 5.16C63.3369 5.10667 63.3635 5.08 63.4169 5.08H71.0169C71.0835 5.08 71.1169 5.10667 71.1169 5.16V7.4C71.1169 7.46667 71.0902 7.5 71.0369 7.5H68.4169L68.4369 18.9C68.4369 18.9667 68.4102 19 68.3569 19H66.0969ZM75.3555 19.2C74.6355 19.2 73.9755 19.02 73.3755 18.66C72.7888 18.2867 72.3155 17.8 71.9555 17.2C71.5955 16.5867 71.4155 15.9133 71.4155 15.18L71.4355 8.84C71.4355 8.10667 71.6088 7.44 71.9555 6.84C72.3155 6.24 72.7955 5.76 73.3955 5.4C73.9955 5.04 74.6488 4.86 75.3555 4.86C76.0755 4.86 76.7288 5.04 77.3155 5.4C77.9021 5.76 78.3688 6.24 78.7155 6.84C79.0755 7.44 79.2555 8.10667 79.2555 8.84L79.2755 15.18C79.2755 15.9133 79.0955 16.5867 78.7355 17.2C78.3888 17.8 77.9155 18.2867 77.3155 18.66C76.7288 19.02 76.0755 19.2 75.3555 19.2ZM75.3555 16.78C75.7555 16.78 76.1021 16.62 76.3955 16.3C76.7021 15.9667 76.8555 15.5933 76.8555 15.18L76.8355 8.84C76.8355 8.4 76.6955 8.02667 76.4155 7.72C76.1355 7.41333 75.7821 7.26 75.3555 7.26C74.9421 7.26 74.5888 7.41333 74.2955 7.72C74.0021 8.01333 73.8555 8.38667 73.8555 8.84V15.18C73.8555 15.62 74.0021 16 74.2955 16.32C74.5888 16.6267 74.9421 16.78 75.3555 16.78Z" fill="#2F3035"/>
</svg>
