<svg width="79" height="71" viewBox="0 0 79 71" fill="none" xmlns="http://www.w3.org/2000/svg">
<path d="M74.9879 70.2C74.2679 70.2 73.6079 70.02 73.0079 69.66C72.4212 69.2867 71.9479 68.8 71.5879 68.2C71.2279 67.5867 71.0479 66.9133 71.0479 66.18L71.0679 59.84C71.0679 59.1067 71.2412 58.44 71.5879 57.84C71.9479 57.24 72.4279 56.76 73.0279 56.4C73.6279 56.04 74.2812 55.86 74.9879 55.86C75.7079 55.86 76.3612 56.04 76.9479 56.4C77.5345 56.76 78.0012 57.24 78.3479 57.84C78.7079 58.44 78.8879 59.1067 78.8879 59.84L78.9079 66.18C78.9079 66.9133 78.7279 67.5867 78.3679 68.2C78.0212 68.8 77.5479 69.2867 76.9479 69.66C76.3612 70.02 75.7079 70.2 74.9879 70.2ZM74.9879 67.78C75.3879 67.78 75.7345 67.62 76.0279 67.3C76.3345 66.9667 76.4879 66.5933 76.4879 66.18L76.4679 59.84C76.4679 59.4 76.3279 59.0267 76.0479 58.72C75.7679 58.4133 75.4145 58.26 74.9879 58.26C74.5745 58.26 74.2212 58.4133 73.9279 58.72C73.6345 59.0133 73.4879 59.3867 73.4879 59.84V66.18C73.4879 66.62 73.6345 67 73.9279 67.32C74.2212 67.6267 74.5745 67.78 74.9879 67.78Z" fill="#2F3035"/>
<path d="M65.7297 70C65.6764 70 65.6497 69.9666 65.6497 69.9V58.5H63.0497C62.983 58.5 62.9497 58.4666 62.9497 58.4L62.9697 56.16C62.9697 56.1066 62.9964 56.08 63.0497 56.08H70.6497C70.7164 56.08 70.7497 56.1066 70.7497 56.16V58.4C70.7497 58.4666 70.723 58.5 70.6697 58.5H68.0497L68.0697 69.9C68.0697 69.9666 68.043 70 67.9897 70H65.7297Z" fill="#2F3035"/>
<path d="M58.5425 70.2C57.8225 70.2 57.1625 70.02 56.5625 69.66C55.9759 69.2867 55.5025 68.8 55.1425 68.2C54.7825 67.5867 54.6025 66.9133 54.6025 66.18L54.6225 59.84C54.6225 59.1067 54.7959 58.44 55.1425 57.84C55.5025 57.24 55.9825 56.76 56.5825 56.4C57.1825 56.04 57.8359 55.86 58.5425 55.86C59.2625 55.86 59.9159 56.04 60.5025 56.4C61.0892 56.76 61.5559 57.24 61.9025 57.84C62.2625 58.44 62.4425 59.1067 62.4425 59.84L62.4625 66.18C62.4625 66.9133 62.2825 67.5867 61.9225 68.2C61.5759 68.8 61.1025 69.2867 60.5025 69.66C59.9159 70.02 59.2625 70.2 58.5425 70.2ZM58.5425 67.78C58.9425 67.78 59.2892 67.62 59.5825 67.3C59.8892 66.9667 60.0425 66.5933 60.0425 66.18L60.0225 59.84C60.0225 59.4 59.8825 59.0267 59.6025 58.72C59.3225 58.4133 58.9692 58.26 58.5425 58.26C58.1292 58.26 57.7759 58.4133 57.4825 58.72C57.1892 59.0133 57.0425 59.3867 57.0425 59.84V66.18C57.0425 66.62 57.1892 67 57.4825 67.32C57.7759 67.6267 58.1292 67.78 58.5425 67.78Z" fill="#2F3035"/>
<path d="M44.1806 70C44.1273 70 44.1006 69.9666 44.1006 69.9L44.1406 56.16C44.1406 56.1066 44.1673 56.08 44.2206 56.08H46.6606C46.7139 56.08 46.7606 56.1066 46.8006 56.16L48.6206 58.8L50.4406 56.16C50.4806 56.1066 50.5273 56.08 50.5806 56.08H53.0406C53.0939 56.08 53.1206 56.1066 53.1206 56.16L53.1606 69.9C53.1606 69.9666 53.1339 70 53.0806 70H50.8206C50.7673 70 50.7406 69.9666 50.7406 69.9L50.7206 59.7L48.6206 62.74L46.5406 59.7L46.5206 69.9C46.5206 69.9666 46.4939 70 46.4406 70H44.1806Z" fill="#2F3035"/>
<path d="M32.8134 70C32.7601 70 32.7334 69.9666 32.7334 69.9L32.7534 56.16C32.7534 56.1066 32.7801 56.08 32.8334 56.08H39.2534C39.3067 56.08 39.3334 56.1133 39.3334 56.18V58.42C39.3334 58.4733 39.3067 58.5 39.2534 58.5H35.1534V61.62H39.2534C39.3067 61.62 39.3334 61.6466 39.3334 61.7L39.3534 63.96C39.3534 64.0133 39.3267 64.04 39.2734 64.04H35.1534V67.54H39.2734C39.3267 67.54 39.3534 67.5733 39.3534 67.64V69.92C39.3534 69.9733 39.3267 70 39.2734 70H32.8134Z" fill="#2F3035"/>
<path d="M26.3209 70C26.2675 70 26.2342 69.9666 26.2209 69.9L23.4609 56.16C23.4475 56.1066 23.4742 56.08 23.5409 56.08H25.8009C25.8542 56.08 25.8875 56.1066 25.9009 56.16L27.5409 65.32L29.1409 56.16C29.1542 56.1066 29.1875 56.08 29.2409 56.08H31.4809C31.5475 56.08 31.5742 56.1066 31.5609 56.16L28.8409 69.9C28.8275 69.9666 28.7942 70 28.7409 70H26.3209Z" fill="#2F3035"/>
<path d="M19.9818 70C19.9152 70 19.8818 69.9666 19.8818 69.9L19.9018 56.16C19.9018 56.1066 19.9285 56.08 19.9818 56.08H22.2218C22.2752 56.08 22.3018 56.1066 22.3018 56.16L22.3218 69.9C22.3218 69.9666 22.2952 70 22.2418 70H19.9818Z" fill="#2F3035"/>
<path d="M10.3134 70C10.2601 70 10.2334 69.9666 10.2334 69.9L10.2734 56.16C10.2734 56.1066 10.3001 56.08 10.3534 56.08H14.3934C15.1134 56.08 15.7734 56.26 16.3734 56.62C16.9867 56.9666 17.4734 57.44 17.8334 58.04C18.1934 58.6266 18.3734 59.2933 18.3734 60.04C18.3734 60.5333 18.3001 60.98 18.1534 61.38C18.0067 61.7666 17.8334 62.1 17.6334 62.38C17.4334 62.6466 17.2534 62.8466 17.0934 62.98C17.8134 63.78 18.1734 64.72 18.1734 65.8L18.1934 69.9C18.1934 69.9666 18.1601 70 18.0934 70H15.8334C15.7801 70 15.7534 69.98 15.7534 69.94V65.8C15.7534 65.32 15.5801 64.9066 15.2334 64.56C14.9001 64.2 14.4867 64.02 13.9934 64.02H12.6734L12.6534 69.9C12.6534 69.9666 12.6267 70 12.5734 70H10.3134ZM12.6734 61.62H14.3934C14.8067 61.62 15.1734 61.4666 15.4934 61.16C15.8134 60.8533 15.9734 60.48 15.9734 60.04C15.9734 59.6133 15.8134 59.2466 15.4934 58.94C15.1867 58.6333 14.8201 58.48 14.3934 58.48H12.6734V61.62Z" fill="#2F3035"/>
<path d="M0.899805 70C0.833138 70 0.799805 69.9667 0.799805 69.9L0.839805 56.16C0.839805 56.1067 0.866471 56.08 0.919805 56.08L4.6598 56.06C5.39314 56.0467 6.0598 56.22 6.6598 56.58C7.27314 56.94 7.75981 57.4267 8.11981 58.04C8.47981 58.64 8.65981 59.3067 8.65981 60.04V65.78C8.65981 66.5534 8.47314 67.26 8.0998 67.9C7.72647 68.5267 7.22647 69.0267 6.5998 69.4C5.97314 69.7734 5.26647 69.9667 4.4798 69.98L0.899805 70ZM3.2398 67.54H4.4798C4.97314 67.54 5.38647 67.3667 5.7198 67.02C6.06647 66.6734 6.2398 66.26 6.2398 65.78V60.02C6.2398 59.5934 6.0798 59.2267 5.7598 58.92C5.45314 58.6 5.08647 58.4467 4.6598 58.46L3.2598 58.48L3.2398 67.54Z" fill="#2F3035"/>
<path d="M59.0441 7.95599C58.3406 7.2526 57.2364 7.14888 56.4141 7.70921C53.3162 9.82072 37.7781 20.4384 36.1082 22.1082C33.6866 24.53 33.6866 28.4702 36.1082 30.8919C37.319 32.1027 38.9097 32.7081 40.5001 32.7081C42.0905 32.7081 43.681 32.1027 44.8919 30.8919C46.5618 29.222 57.1794 13.6839 59.291 10.5861C59.8511 9.76389 59.7475 8.65958 59.0441 7.95599ZM41.9639 27.964C41.1568 28.7713 39.8433 28.7713 39.0362 27.964C38.2289 27.1569 38.2288 25.8438 39.0357 25.0366C39.6846 24.3954 44.0961 21.2492 49.5239 17.4763C45.7511 22.9041 42.6049 27.3154 41.9639 27.964Z" fill="#2F3035"/>
<path d="M23.5473 36.1294L20.9915 37.3762C19.1214 34.0386 18.1406 30.3134 18.1406 26.5C18.1406 23.706 18.6558 21.03 19.5961 18.5621L22.5246 19.9668C22.8134 20.1053 23.1183 20.171 23.4186 20.171C24.1901 20.171 24.9307 19.7377 25.2867 18.9955C25.7811 17.9646 25.3463 16.7279 24.3153 16.2334L21.4239 14.8465C25.0177 8.98547 31.2356 4.89919 38.4298 4.23565V7.34951C38.4298 8.49294 39.3567 9.41982 40.5001 9.41982C41.6435 9.41982 42.5704 8.49294 42.5704 7.34951V4.2341C45.037 4.45863 47.4236 5.08676 49.6893 6.10949C50.7312 6.57997 51.9575 6.11632 52.428 5.07444C52.8985 4.03224 52.435 2.8061 51.3928 2.33562C47.9596 0.78589 44.2948 0 40.5 0C33.4216 0 26.7669 2.75641 21.7616 7.7616C16.7565 12.7669 14 19.4216 14 26.5C14 31.7306 15.5525 36.8178 18.4898 41.2111C18.8854 41.8027 19.5395 42.131 20.2122 42.131C20.518 42.131 20.8277 42.0632 21.1187 41.9212L25.3628 39.8509C26.3905 39.3496 26.8172 38.1102 26.3159 37.0825C25.8145 36.0549 24.5751 35.6283 23.5473 36.1294Z" fill="#2F3035"/>
<path d="M64.6643 15.6073C64.194 14.5652 62.968 14.1015 61.9255 14.5721C60.8834 15.0426 60.42 16.2688 60.8905 17.3109C62.1971 20.2049 62.8594 23.2966 62.8594 26.5C62.8594 30.3191 61.8754 34.0504 59.9998 37.3917L57.3315 36.1211C56.2994 35.6296 55.0639 36.0678 54.5722 37.1002C54.0806 38.1325 54.519 39.368 55.5514 39.8596L59.899 41.9299C60.185 42.066 60.4882 42.1311 60.788 42.1311C61.4608 42.1311 62.1151 41.8024 62.5102 41.2113C65.4475 36.8179 67.0001 31.7307 67.0001 26.5C67.0001 22.7053 66.2142 19.0404 64.6643 15.6073Z" fill="#2F3035"/>
</svg>
