<svg width="30" height="30" fill="none" xmlns="http://www.w3.org/2000/svg"><path fill-rule="evenodd" clip-rule="evenodd" d="M1.25 27.5c0-.69.56-1.25 1.25-1.25h25a1.25 1.25 0 1 1 0 2.5h-25c-.69 0-1.25-.56-1.25-1.25Z" fill="#C4C4C4"/><path fill-rule="evenodd" clip-rule="evenodd" d="M1.25 27.5c0-.69.56-1.25 1.25-1.25h25a1.25 1.25 0 1 1 0 2.5h-25c-.69 0-1.25-.56-1.25-1.25Z" fill="url(#a)"/><path d="M28.75 7.5a1.25 1.25 0 0 0-1.81-1.118l-5 2.5A1.25 1.25 0 0 0 21.25 10v13.75c0 .69.56 1.25 1.25 1.25h5c.69 0 1.25-.56 1.25-1.25V7.5Z" fill="#C4C4C4"/><path d="M28.75 7.5a1.25 1.25 0 0 0-1.81-1.118l-5 2.5A1.25 1.25 0 0 0 21.25 10v13.75c0 .69.56 1.25 1.25 1.25h5c.69 0 1.25-.56 1.25-1.25V7.5Z" fill="url(#b)"/><path d="M18.75 12.5a1.25 1.25 0 0 0-1.81-1.118l-5 2.5A1.25 1.25 0 0 0 11.25 15v8.75c0 .69.56 1.25 1.25 1.25h5c.69 0 1.25-.56 1.25-1.25V12.5Z" fill="#C4C4C4"/><path d="M18.75 12.5a1.25 1.25 0 0 0-1.81-1.118l-5 2.5A1.25 1.25 0 0 0 11.25 15v8.75c0 .69.56 1.25 1.25 1.25h5c.69 0 1.25-.56 1.25-1.25V12.5Z" fill="url(#c)"/><path d="M2.803 15.037A1.25 1.25 0 0 0 1.25 16.25v7.5c0 .69.56 1.25 1.25 1.25h5c.69 0 1.25-.56 1.25-1.25V17.5a1.25 1.25 0 0 0-.947-1.213l-5-1.25Z" fill="#C4C4C4"/><path d="M2.803 15.037A1.25 1.25 0 0 0 1.25 16.25v7.5c0 .69.56 1.25 1.25 1.25h5c.69 0 1.25-.56 1.25-1.25V17.5a1.25 1.25 0 0 0-.947-1.213l-5-1.25Z" fill="url(#d)"/><path fill-rule="evenodd" clip-rule="evenodd" d="M20 2.5c0-.69.56-1.25 1.25-1.25h6.25a1.25 1.25 0 0 1 .559 2.368l-20 10a1.25 1.25 0 0 1-.862.095l-5-1.25a1.25 1.25 0 0 1 .606-2.426l4.551 1.138 14.85-7.425h-.954c-.69 0-1.25-.56-1.25-1.25Z" fill="#C4C4C4"/><path fill-rule="evenodd" clip-rule="evenodd" d="M20 2.5c0-.69.56-1.25 1.25-1.25h6.25a1.25 1.25 0 0 1 .559 2.368l-20 10a1.25 1.25 0 0 1-.862.095l-5-1.25a1.25 1.25 0 0 1 .606-2.426l4.551 1.138 14.85-7.425h-.954c-.69 0-1.25-.56-1.25-1.25Z" fill="url(#e)"/><defs><linearGradient id="a" x1="5.016" y1="5.964" x2="25.703" y2="25.148" gradientUnits="userSpaceOnUse"><stop stop-color="#00FFA3" stop-opacity=".6"/><stop offset="1" stop-color="#4B48F1"/></linearGradient><linearGradient id="b" x1="5.016" y1="5.964" x2="25.703" y2="25.148" gradientUnits="userSpaceOnUse"><stop stop-color="#00FFA3" stop-opacity=".6"/><stop offset="1" stop-color="#4B48F1"/></linearGradient><linearGradient id="c" x1="5.016" y1="5.964" x2="25.703" y2="25.148" gradientUnits="userSpaceOnUse"><stop stop-color="#00FFA3" stop-opacity=".6"/><stop offset="1" stop-color="#4B48F1"/></linearGradient><linearGradient id="d" x1="5.016" y1="5.964" x2="25.703" y2="25.148" gradientUnits="userSpaceOnUse"><stop stop-color="#00FFA3" stop-opacity=".6"/><stop offset="1" stop-color="#4B48F1"/></linearGradient><linearGradient id="e" x1="5.016" y1="5.964" x2="25.703" y2="25.148" gradientUnits="userSpaceOnUse"><stop stop-color="#00FFA3" stop-opacity=".6"/><stop offset="1" stop-color="#4B48F1"/></linearGradient></defs></svg>