<svg width="30" height="30" fill="none" xmlns="http://www.w3.org/2000/svg"><path fill-rule="evenodd" clip-rule="evenodd" d="M8.125 1.25c-1.686 0-3.273.301-4.485.84-.605.269-1.171.62-1.603 1.075-.439.46-.787 1.083-.787 1.835v7.5c0 .752.348 1.374.787 1.835.432.454.998.806 1.603 1.075 1.212.539 2.799.84 4.485.84 1.686 0 3.273-.301 4.485-.84.605-.269 1.171-.62 1.604-1.075.438-.46.786-1.083.786-1.835V5c0-.752-.348-1.374-.787-1.835-.432-.454-.998-.806-1.603-1.075-1.212-.539-2.799-.84-4.485-.84ZM3.75 7.958c1.197.509 2.74.792 4.375.792 1.636 0 3.178-.283 4.375-.792v.774a.507.507 0 0 1-.098.13c-.136.143-.394.33-.807.513-.824.367-2.05.625-3.47.625-1.42 0-2.646-.258-3.47-.625-.413-.183-.67-.37-.807-.514a.507.507 0 0 1-.098-.13v-.773Zm0 3.75v.774a.509.509 0 0 0 .098.13c.136.143.394.33.807.514.824.366 2.05.624 3.47.624 1.42 0 2.646-.258 3.47-.624.413-.184.67-.37.807-.515a.509.509 0 0 0 .098-.13v-.773c-1.197.508-2.74.792-4.375.792-1.636 0-3.178-.284-4.375-.792Z" fill="#C4C4C4"/><path fill-rule="evenodd" clip-rule="evenodd" d="M8.125 1.25c-1.686 0-3.273.301-4.485.84-.605.269-1.171.62-1.603 1.075-.439.46-.787 1.083-.787 1.835v7.5c0 .752.348 1.374.787 1.835.432.454.998.806 1.603 1.075 1.212.539 2.799.84 4.485.84 1.686 0 3.273-.301 4.485-.84.605-.269 1.171-.62 1.604-1.075.438-.46.786-1.083.786-1.835V5c0-.752-.348-1.374-.787-1.835-.432-.454-.998-.806-1.603-1.075-1.212-.539-2.799-.84-4.485-.84ZM3.75 7.958c1.197.509 2.74.792 4.375.792 1.636 0 3.178-.283 4.375-.792v.774a.507.507 0 0 1-.098.13c-.136.143-.394.33-.807.513-.824.367-2.05.625-3.47.625-1.42 0-2.646-.258-3.47-.625-.413-.183-.67-.37-.807-.514a.507.507 0 0 1-.098-.13v-.773Zm0 3.75v.774a.509.509 0 0 0 .098.13c.136.143.394.33.807.514.824.366 2.05.624 3.47.624 1.42 0 2.646-.258 3.47-.624.413-.184.67-.37.807-.515a.509.509 0 0 0 .098-.13v-.773c-1.197.508-2.74.792-4.375.792-1.636 0-3.178-.284-4.375-.792Z" fill="url(#a)"/><path d="M18.75 3.75c0-.69.56-1.25 1.25-1.25h3.75a3.75 3.75 0 0 1 3.75 3.75V10a1.25 1.25 0 1 1-2.5 0V6.25C25 5.56 24.44 5 23.75 5H20c-.69 0-1.25-.56-1.25-1.25Z" fill="#C4C4C4"/><path d="M18.75 3.75c0-.69.56-1.25 1.25-1.25h3.75a3.75 3.75 0 0 1 3.75 3.75V10a1.25 1.25 0 1 1-2.5 0V6.25C25 5.56 24.44 5 23.75 5H20c-.69 0-1.25-.56-1.25-1.25Z" fill="url(#b)"/><path d="M5 20a1.25 1.25 0 1 0-2.5 0v3.75a3.75 3.75 0 0 0 3.75 3.75H10a1.25 1.25 0 1 0 0-2.5H6.25C5.56 25 5 24.44 5 23.75V20Z" fill="#C4C4C4"/><path d="M5 20a1.25 1.25 0 1 0-2.5 0v3.75a3.75 3.75 0 0 0 3.75 3.75H10a1.25 1.25 0 1 0 0-2.5H6.25C5.56 25 5 24.44 5 23.75V20Z" fill="url(#c)"/><path d="M20.625 25H16.25c-.69 0-1.25-.56-1.25-1.25v-7.5c0-.69.56-1.25 1.25-1.25H27.5c.69 0 1.25.56 1.25 1.25v7.5c0 .69-.56 1.25-1.25 1.25h-4.375v1.25h2.5a1.25 1.25 0 1 1 0 2.5h-7.5a1.25 1.25 0 1 1 0-2.5h2.5V25Z" fill="#C4C4C4"/><path d="M20.625 25H16.25c-.69 0-1.25-.56-1.25-1.25v-7.5c0-.69.56-1.25 1.25-1.25H27.5c.69 0 1.25.56 1.25 1.25v7.5c0 .69-.56 1.25-1.25 1.25h-4.375v1.25h2.5a1.25 1.25 0 1 1 0 2.5h-7.5a1.25 1.25 0 1 1 0-2.5h2.5V25Z" fill="url(#d)"/><defs><linearGradient id="a" x1="5.017" y1="5.964" x2="25.704" y2="25.148" gradientUnits="userSpaceOnUse"><stop stop-color="#00FFA3" stop-opacity=".6"/><stop offset="1" stop-color="#4B48F1"/></linearGradient><linearGradient id="b" x1="5.017" y1="5.964" x2="25.704" y2="25.148" gradientUnits="userSpaceOnUse"><stop stop-color="#00FFA3" stop-opacity=".6"/><stop offset="1" stop-color="#4B48F1"/></linearGradient><linearGradient id="c" x1="5.017" y1="5.964" x2="25.704" y2="25.148" gradientUnits="userSpaceOnUse"><stop stop-color="#00FFA3" stop-opacity=".6"/><stop offset="1" stop-color="#4B48F1"/></linearGradient><linearGradient id="d" x1="5.017" y1="5.964" x2="25.704" y2="25.148" gradientUnits="userSpaceOnUse"><stop stop-color="#00FFA3" stop-opacity=".6"/><stop offset="1" stop-color="#4B48F1"/></linearGradient></defs></svg>