<svg width="30" height="30" fill="none" xmlns="http://www.w3.org/2000/svg"><path fill-rule="evenodd" clip-rule="evenodd" d="M7.5 8.75v3.75H5A2.5 2.5 0 0 0 2.5 15v11.25a2.5 2.5 0 0 0 2.5 2.5h20a2.5 2.5 0 0 0 2.5-2.5V15a2.5 2.5 0 0 0-2.5-2.5h-2.5V8.75a7.5 7.5 0 0 0-15 0Zm7.5-5a5 5 0 0 0-5 5v3.75h10V8.75a5 5 0 0 0-5-5Zm1.25 15a1.25 1.25 0 1 0-2.5 0v3.75a1.25 1.25 0 1 0 2.5 0v-3.75Z" fill="#C4C4C4"/><path fill-rule="evenodd" clip-rule="evenodd" d="M7.5 8.75v3.75H5A2.5 2.5 0 0 0 2.5 15v11.25a2.5 2.5 0 0 0 2.5 2.5h20a2.5 2.5 0 0 0 2.5-2.5V15a2.5 2.5 0 0 0-2.5-2.5h-2.5V8.75a7.5 7.5 0 0 0-15 0Zm7.5-5a5 5 0 0 0-5 5v3.75h10V8.75a5 5 0 0 0-5-5Zm1.25 15a1.25 1.25 0 1 0-2.5 0v3.75a1.25 1.25 0 1 0 2.5 0v-3.75Z" fill="url(#a)"/><defs><linearGradient id="a" x1="5.924" y1="5.964" x2="26.371" y2="23.202" gradientUnits="userSpaceOnUse"><stop stop-color="#00FFA3" stop-opacity=".6"/><stop offset="1" stop-color="#4B48F1"/></linearGradient></defs></svg>