<svg width="32" height="29" viewBox="0 0 32 29" fill="none" xmlns="http://www.w3.org/2000/svg">
<path d="M30.6684 6.66523L19.1483 1.40741C17.9481 0.867546 16.9714 0.60934 15.9946 0.632815C15.0298 0.60934 14.053 0.867546 12.841 1.40741L1.33273 6.66523C0.579627 7.00564 0.214844 7.60413 0.214844 8.20273C0.214844 8.80122 0.579627 9.38809 1.33273 9.74022L6.18083 11.9466L13.6295 8.46091C13.5589 8.37879 13.5353 8.28485 13.5353 8.20273C13.5353 7.46332 14.7826 6.89998 16.0417 6.89998C17.3126 6.89998 18.5364 7.46332 18.5364 8.20273C18.5364 8.96557 17.3126 9.54062 16.0417 9.54062C15.6534 9.54062 15.2651 9.48194 14.9238 9.3881L7.81646 12.7095L12.841 15.0098C14.053 15.5613 15.0298 15.7961 15.9946 15.7844C16.9714 15.7961 17.9481 15.5613 19.1483 15.0098L30.6684 9.74022C31.4215 9.38809 31.7863 8.80122 31.7863 8.20273C31.7863 7.60413 31.4215 7.00564 30.6684 6.66523ZM7.7694 14.4465V21.5821C9.74629 22.7792 12.5704 23.5068 15.9946 23.5068C22.9373 23.5068 27.4088 20.5376 27.4088 17.0284V12.9911L19.819 16.4534C18.4422 17.0871 17.195 17.404 15.9946 17.3923C14.8061 17.404 13.5471 17.0871 12.1703 16.4534L7.7694 14.4465ZM4.59225 12.9911V17.0284C4.59225 18.0494 5.18061 19.3169 6.23966 20.3967V13.754L4.59225 12.9911ZM6.23966 24.3049H7.7694V21.5821C7.18103 21.23 6.66328 20.831 6.23966 20.3967V24.3049ZM5.31005 24.3871V27.4737C5.31005 28.4009 5.91018 28.9994 6.83979 28.9994H7.1575C8.08711 28.9994 8.68724 28.4009 8.68724 27.4737V24.3871C8.68724 23.4599 8.08711 22.8613 7.1575 22.8613H6.83979C5.91018 22.8613 5.31005 23.4599 5.31005 24.3871Z" fill="#1C1C1E"/>
</svg>
