<svg width="18" height="21" fill="none" xmlns="http://www.w3.org/2000/svg"><path d="M3.6 8.388v4.75c0 .63-.486 1.135-1.105 1.135-.614 0-1.21-.508-1.21-1.136v-4.75c.001-.619.596-1.127 1.21-1.127.607 0 1.105.508 1.105 1.128Zm.434 6.44a1.2 1.2 0 0 0 1.19 1.213h.799l.012 2.506c0 1.514 2.218 1.501 2.218 0v-2.506h1.495v2.506c0 1.505 2.23 1.51 2.23 0v-2.506h.811c.651 0 1.181-.541 1.181-1.214V7.47H4.034v7.358Zm9.964-7.757H3.99c0-1.755 1.029-3.281 2.555-4.077l-.767-1.448c-.113-.2.173-.328.27-.156l.779 1.46a5.327 5.327 0 0 1 4.35 0l.776-1.455c.1-.177.382-.046.27.155l-.768 1.444c1.515.796 2.543 2.322 2.543 4.077ZM7.14 4.795a.426.426 0 0 0-.422-.431.421.421 0 0 0-.41.43c0 .234.185.431.41.431a.426.426 0 0 0 .422-.43Zm4.556 0c0-.234-.185-.431-.41-.431a.426.426 0 0 0-.421.43c0 .234.184.431.421.431.225 0 .41-.197.41-.43Zm3.81 2.465c-.608 0-1.106.496-1.106 1.128v4.75c0 .63.498 1.135 1.105 1.135.619 0 1.21-.508 1.21-1.136v-4.75c0-.631-.595-1.127-1.21-1.127Z" fill="#636D85"/></svg>