<svg width="16" height="20" fill="none" xmlns="http://www.w3.org/2000/svg"><path d="M10.882 3.205c-.698.84-1.815 1.502-2.932 1.407-.14-1.135.407-2.341 1.047-3.086C9.695.662 10.917.047 11.905 0c.117 1.183-.337 2.342-1.023 3.205Zm1.012 1.632c-1.617-.095-3.002.934-3.77.934-.779 0-1.954-.887-3.233-.863-1.664.024-3.211.982-4.06 2.507-1.745 3.051-.454 7.57 1.233 10.053.826 1.23 1.815 2.578 3.117 2.53 1.234-.047 1.722-.815 3.211-.815 1.5 0 1.931.816 3.234.792 1.35-.024 2.199-1.23 3.025-2.46.942-1.395 1.326-2.755 1.349-2.826-.023-.024-2.606-1.03-2.629-4.057-.023-2.53 2.036-3.737 2.129-3.808-1.164-1.75-2.978-1.94-3.606-1.987Z" fill="#636D85"/></svg>