<svg width="19" height="20" fill="none" xmlns="http://www.w3.org/2000/svg"><path d="M15.771 13.945c.18.076.334.205.445.371.1.156.17.345.214.566.024.13.053.25.083.363a2.273 2.273 0 0 0 .484.897c.08.092.15.21.213.352.058.128.09.268.092.41a.635.635 0 0 1-.11.381c-.078.107-.172.2-.28.274-.142.104-.29.195-.445.273-.154.078-.309.16-.463.244-.23.116-.452.253-.66.41a3.624 3.624 0 0 0-.556.548 3.394 3.394 0 0 1-.742.654 1.705 1.705 0 0 1-.455.215 2.326 2.326 0 0 1-.463.087c-.359 0-.656-.065-.89-.195-.236-.13-.44-.368-.614-.713-.05-.098-.098-.16-.148-.186a.888.888 0 0 0-.241-.069l-.94-.077a11.698 11.698 0 0 0-.945-.039c-.267 0-.534.023-.798.068-.272.046-.541.101-.807.166-.055.012-.11.063-.166.146-.07.102-.148.197-.233.284a1.31 1.31 0 0 1-.398.274c-.21.086-.434.129-.66.126-.203 0-.423-.022-.658-.067a2.09 2.09 0 0 1-.63-.225 4.108 4.108 0 0 0-1.132-.41 23.174 23.174 0 0 0-1.178-.195 3.82 3.82 0 0 1-.409-.08.898.898 0 0 1-.575-.44 1.018 1.018 0 0 1-.093-.438c0-.203.025-.398.074-.586.05-.188.078-.388.084-.595 0-.144-.01-.284-.028-.42a4.642 4.642 0 0 1-.038-.44c0-.332.075-.575.223-.733.149-.156.365-.28.65-.371.127-.04.246-.103.353-.185.098-.078.19-.163.278-.254.088-.093.169-.194.24-.302.075-.112.159-.223.251-.333a.148.148 0 0 0 .029-.087c0-.079-.004-.154-.01-.225l-.019-.235c0-.443.066-.888.195-1.338.13-.45.3-.887.51-1.319.21-.428.446-.842.706-1.24.259-.396.517-.764.77-1.103a5.52 5.52 0 0 0 .807-1.504c.178-.52.272-1.088.278-1.7 0-.259-.012-.516-.037-.77a8.05 8.05 0 0 1-.037-.781c0-.522.056-.99.166-1.407.112-.417.285-.774.52-1.075.236-.3.542-.523.919-.673.378-.15.83-.231 1.354-.244.626 0 1.124.13 1.495.391.371.26.656.602.853 1.025.199.423.325.895.38 1.417.057.52.088 1.047.094 1.58v.167c0 .268.002.505.01.713.01.421.102.837.268 1.22.086.202.216.42.39.655.296.41.6.824.909 1.24.309.417.59.847.843 1.288.254.444.462.906.622 1.388a5.06 5.06 0 0 1 .25 1.562c.002.442-.063.88-.194 1.3v-.001ZM7.988 3.77c.086 0 .157.022.214.067.058.05.103.114.13.187.03.075.05.153.064.234.011.078.019.16.019.245a.369.369 0 0 1-.029.156.335.335 0 0 1-.083.107l-.112.098a.971.971 0 0 0-.11.116.52.52 0 0 1-.177.176 2.52 2.52 0 0 0-.214.147 1.58 1.58 0 0 0-.185.166.334.334 0 0 0-.083.244c0 .058.027.107.083.146a.868.868 0 0 1 .316.381c.062.15.13.296.204.44.074.143.17.263.287.361.118.098.3.146.547.146h.057c.247-.012.482-.08.705-.205.222-.123.445-.253.668-.39a.731.731 0 0 1 .12-.058.433.433 0 0 0 .12-.069l.677-.556c.012-.042.022-.085.029-.128l.019-.137a.307.307 0 0 0-.048-.175.49.49 0 0 0-.11-.118.393.393 0 0 0-.158-.067 1.036 1.036 0 0 1-.166-.05 1.248 1.248 0 0 1-.418-.175 1.69 1.69 0 0 0-.409-.195c-.023-.008-.042-.026-.056-.059a1.275 1.275 0 0 1-.036-.117.302.302 0 0 1-.01-.128.165.165 0 0 0-.01-.097c0-.078.007-.16.02-.244a.713.713 0 0 1 .083-.244.513.513 0 0 1 .148-.175.47.47 0 0 1 .241-.07c.193 0 .332.075.418.225.087.15.133.313.14.487a.518.518 0 0 1-.047.226.494.494 0 0 0-.048.215c0 .052.017.087.048.107a.297.297 0 0 0 .121.039c.143 0 .234-.035.278-.106.05-.1.075-.21.074-.323 0-.15-.012-.316-.036-.499a1.714 1.714 0 0 0-.15-.507 1.206 1.206 0 0 0-.287-.391.66.66 0 0 0-.455-.155c-.32 0-.553.083-.696.253-.142.169-.216.423-.222.761 0 .098.006.196.018.293.012.099.019.196.019.294 0 .032-.004.048-.01.048a.25.25 0 0 1-.055-.02 4.922 4.922 0 0 1-.11-.048.887.887 0 0 0-.14-.049.58.58 0 0 0-.242-.01c-.05.007-.099.01-.148.01-.087 0-.131-.016-.131-.049 0-.097-.005-.221-.018-.371-.012-.15-.043-.3-.092-.45a1.267 1.267 0 0 0-.186-.37c-.075-.097-.185-.15-.333-.156a.373.373 0 0 0-.27.107c-.076.074-.142.16-.195.254a.83.83 0 0 0-.102.333c-.01.104-.022.208-.037.312.005.172.033.343.083.507.031.104.066.196.103.274.036.078.08.117.13.117.03 0 .071-.023.12-.068.05-.046.075-.087.075-.127 0-.02-.01-.033-.029-.04a.167.167 0 0 0-.055-.01c-.043 0-.081-.022-.112-.068a.598.598 0 0 1-.074-.156 6.674 6.674 0 0 1-.055-.185.738.738 0 0 1 .065-.498c.056-.105.158-.16.306-.166ZM5.965 18.975c.148 0 .294-.013.437-.04.14-.025.276-.078.399-.156a.75.75 0 0 0 .278-.303c.067-.146.105-.306.111-.468 0-.117-.019-.232-.056-.342a1.226 1.226 0 0 0-.157-.312 3.458 3.458 0 0 0-.242-.351 3.46 3.46 0 0 1-.24-.353l-.345-.537c-.11-.175-.222-.36-.332-.557a10.28 10.28 0 0 1-.28-.507 3.33 3.33 0 0 0-.315-.498 1.468 1.468 0 0 0-.26-.264.539.539 0 0 0-.344-.117.503.503 0 0 0-.351.137 2.76 2.76 0 0 0-.307.332c-.109.135-.227.262-.352.381-.13.124-.297.221-.501.293a.872.872 0 0 0-.37.214c-.088.092-.131.232-.131.42 0 .13.009.26.028.39.018.13.03.262.037.392 0 .175-.024.341-.075.497a1.516 1.516 0 0 0-.074.459c0 .176.06.3.176.371.119.073.25.121.4.146.186.034.361.06.529.08.166.02.33.05.491.087.16.04.321.081.483.127.16.045.33.118.51.215.036.019.093.043.166.068l.251.087c.093.034.18.06.26.079a.84.84 0 0 0 .176.03Zm3.396-1.173c.173 0 .359-.018.557-.058.404-.08.794-.221 1.159-.42.17-.091.331-.199.482-.322a.278.278 0 0 0 .038-.058.397.397 0 0 0 .027-.079v-.01c.037-.143.068-.3.093-.469.026-.172.047-.344.065-.517.018-.173.04-.346.066-.518.023-.169.046-.335.064-.497.025-.175.056-.345.092-.508.038-.162.087-.316.149-.46.06-.141.146-.27.25-.38a1.83 1.83 0 0 1 .409-.312v-.02l-.01-.029a.377.377 0 0 1 .056-.186c.042-.072.088-.14.14-.205a.706.706 0 0 1 .176-.166c.062-.04.127-.072.195-.098a12.733 12.733 0 0 0-.121-.469 6.449 6.449 0 0 1-.112-.469 9.28 9.28 0 0 0-.11-.595 3.83 3.83 0 0 0-.131-.45 1.671 1.671 0 0 0-.214-.4c-.091-.13-.206-.287-.342-.468a1.48 1.48 0 0 1-.14-.195.726.726 0 0 1-.054-.245 2.879 2.879 0 0 0-.056-.254c-.084-.317-.18-.63-.288-.938a3.735 3.735 0 0 0-.204-.478 4.878 4.878 0 0 0-.204-.361c-.062-.098-.127-.147-.195-.147-.148 0-.325.063-.53.186-.203.124-.42.26-.648.41-.23.15-.451.29-.668.42-.217.13-.411.192-.585.185a.805.805 0 0 1-.51-.184 2.72 2.72 0 0 1-.428-.43c-.13-.163-.237-.303-.324-.42-.087-.118-.15-.183-.195-.196-.048 0-.077.04-.083.117-.007.087-.01.175-.01.263v.167c0 .04-.005.065-.018.079-.068.15-.143.296-.222.438-.081.144-.16.29-.242.44-.16.289-.249.614-.26.948 0 .097.006.195.02.292a.787.787 0 0 0 .092.284l-.019.037c-.048.07-.1.136-.158.197a1.336 1.336 0 0 0-.157.205 3.592 3.592 0 0 0-.483 1.162c-.093.416-.142.84-.148 1.269 0 .111.007.223.019.332.011.112.019.222.019.333a.692.692 0 0 1-.01.107.69.69 0 0 0-.01.108.862.862 0 0 1 .372.136c.143.085.297.193.463.323.167.13.326.28.474.45.149.168.29.333.427.497.136.163.235.325.296.488.062.162.103.296.12.4a.582.582 0 0 1-.148.411c-.107.11-.232.196-.37.254.105.195.235.361.389.497.154.138.322.248.501.333.18.085.374.146.584.185.21.04.416.058.613.058Zm3.72 1.388c.13 0 .257-.02.38-.059.188-.056.366-.142.529-.253.161-.112.309-.248.445-.412.323-.392.717-.71 1.16-.937l.307-.146c.105-.049.207-.104.305-.167.07-.047.136-.102.196-.165a.321.321 0 0 0 .093-.235c0-.05-.01-.1-.029-.146a.73.73 0 0 0-.083-.146 6.478 6.478 0 0 1-.241-.382 2.533 2.533 0 0 1-.177-.37l-.148-.39a3.326 3.326 0 0 1-.131-.44.357.357 0 0 0-.064-.127.642.642 0 0 0-.237-.222.604.604 0 0 0-.31-.072c-.11 0-.22.03-.315.088l-.316.186c-.11.064-.222.126-.334.185a.748.748 0 0 1-.353.088.471.471 0 0 1-.306-.097.788.788 0 0 1-.204-.264 2.84 2.84 0 0 1-.14-.322l-.11-.322a1.569 1.569 0 0 1-.167.234.84.84 0 0 0-.149.254c-.08.195-.13.413-.148.654-.03.377-.071.745-.121 1.104-.05.365-.134.726-.25 1.075a2.508 2.508 0 0 0-.074.341 3.8 3.8 0 0 0-.038.361c0 .319.094.583.279.792.185.207.436.312.752.312Z" fill="#636D85"/></svg>