<svg xmlns="http://www.w3.org/2000/svg" width="238" height="37" fill="none"><path fill="#fff" d="M3.7 18.5a14.8 14.8 0 1 1 29.6 0 14.8 14.8 0 0 1-29.6 0Zm18.422-7.03a.927.927 0 0 0-.465-1.244.924.924 0 0 0-1.23.504l-6.474 14.8a.925.925 0 1 0 1.695.74l6.474-14.8Zm-9.442 2.675a.925.925 0 0 0-1.31 0l-3.7 3.7a.924.924 0 0 0 0 1.31l3.7 3.7a.926.926 0 1 0 1.31-1.31L9.633 18.5l3.047-3.045a.925.925 0 0 0 0-1.31Zm11.64 1.31 3.047 3.045-3.047 3.045a.926.926 0 1 0 1.31 1.31l3.7-3.7a.925.925 0 0 0 0-1.31l-3.7-3.7a.926.926 0 1 0-1.31 1.31ZM52.62 29h1.891l1.968-5.611h10.277l2 5.611h1.89L62.743 6.68h-2.217L52.62 29Zm8.99-20.104L66.167 21.7h-9.083L61.61 8.896Zm19.13 2.976c-2.387 0-4.449.93-5.689 2.899V12.26h-1.627V29h1.798v-9.037c0-3.689 1.643-6.37 5.285-6.37 3.503 0 5.177 2.465 5.177 6.696V29h1.798v-9.16c0-4.371-2.123-7.967-6.742-7.967Zm22.678 2.93c-1.209-1.875-3.131-3.007-5.72-3.007-4.556 0-7.191 3.844-7.191 8.804 0 5.022 2.635 8.866 7.362 8.866 2.589 0 4.526-1.271 5.704-3.302V29h1.628V6.68h-1.783v8.122Zm-5.44 12.958c-3.69 0-5.565-3.1-5.565-7.161 0-4.03 1.783-7.099 5.596-7.099 3.689 0 5.564 2.96 5.564 7.099 0 4.107-1.844 7.161-5.595 7.161Zm14.368-14.338c-.419.357-.837.868-1.178 1.473V12.26h-1.628V29h1.798v-8.293c0-2.03.124-4.402 1.845-5.89 1.286-1.1 2.883-1.178 4.2-.867v-1.69c-1.472-.418-3.704-.062-5.037 1.162Zm14.535 16.043c4.945 0 7.797-3.58 7.797-8.866 0-5.177-2.806-8.804-7.797-8.804-4.882 0-7.796 3.55-7.796 8.804 0 5.208 2.821 8.866 7.796 8.866Zm0-1.736c-3.875 0-5.89-2.821-5.89-7.13 0-4.154 1.891-7.068 5.89-7.068 3.922 0 5.89 2.774 5.89 7.068 0 4.232-1.937 7.13-5.89 7.13Zm12.416-18.631c.759 0 1.364-.605 1.364-1.364 0-.76-.605-1.364-1.364-1.364-.775 0-1.364.604-1.364 1.364 0 .76.589 1.364 1.364 1.364ZM140.18 29V12.26h-1.782V29h1.782Zm16.64-14.198c-1.209-1.875-3.131-3.007-5.719-3.007-4.557 0-7.192 3.844-7.192 8.804 0 5.022 2.635 8.866 7.362 8.866 2.589 0 4.526-1.271 5.704-3.302V29h1.628V6.68h-1.783v8.122Zm-5.44 12.958c-3.689 0-5.565-3.1-5.565-7.161 0-4.03 1.783-7.099 5.596-7.099 3.689 0 5.564 2.96 5.564 7.099 0 4.107-1.844 7.161-5.595 7.161Zm29.099-15.5L170.9 25.947V12.26h-1.751V29h1.565l9.579-13.748V29h1.752V12.26h-1.566ZM194.673 29V6.68h-1.783V29h1.783Zm13.571.465c6.665 0 10.137-4.79 10.137-11.625s-3.472-11.625-10.137-11.625c-6.681 0-10.153 4.79-10.153 11.625s3.472 11.625 10.153 11.625Zm0-1.752c-5.487 0-8.293-4.06-8.246-9.873.046-5.813 2.759-9.889 8.246-9.873 5.487 0 8.23 4.06 8.23 9.873s-2.743 9.889-8.23 9.873Zm20.827 1.752c4.681 0 7.951-2.418 7.951-6.433 0-4.154-3.534-5.238-5.239-5.735l-4.495-1.333c-1.813-.527-4.216-1.348-4.216-3.813 0-2.386 2.294-4.2 5.549-4.184 3.379 0 5.999 2.03 6.448 5.099l1.845-.325c-.651-3.984-3.875-6.51-8.277-6.526-4.356 0-7.471 2.402-7.471 5.998 0 2.667 1.72 4.356 4.696 5.24l5.611 1.674c1.504.449 3.751 1.302 3.751 3.968 0 2.805-2.511 4.634-6.107 4.634-3.534 0-6.215-1.813-6.99-4.805l-1.829.31c.79 3.828 4.169 6.231 8.773 6.231Z"/></svg>