<svg xmlns="http://www.w3.org/2000/svg" width="128" height="37" fill="none"><path fill="#fff" d="M47.84 11.365h5.2V23.9h7.462v4.317H47.84v-16.85Zm16.063 0h5.2V28.23h-5.2V11.365Zm9.07 0h5.316l4.91 9.027h.052v-9.027h4.91V28.23h-5.067l-5.17-9.206h-.05v9.206h-4.911l.01-16.864Zm34.4 10.347c0 4.701-2.48 6.933-7.68 6.933-5.2 0-7.701-2.22-7.701-6.933v-10.35h5.2v9.193c0 1.7 0 3.876 2.53 3.876 2.531 0 2.459-2.17 2.459-3.876v-9.192h5.2v10.349h-.008Zm8.267-2.457-5.547-7.89h6.096l2.534 4.587 2.509-4.587h5.764l-5.409 7.94 6.017 8.924h-6.256l-2.885-5.026-2.974 5.026h-5.952l6.103-8.974ZM16.029 0c-.237 0-.48.012-.731.031-6.451.493-4.74 7.114-4.838 9.321-.118 1.618-.458 2.892-1.604 4.471-1.35 1.556-3.246 4.07-4.145 6.691-.424 1.232-.626 2.493-.438 3.684-.06.05-.116.1-.17.2-.396.396-.685.89-1.01 1.242-.303.294-.74.395-1.216.591-.478.202-1.004.399-1.319 1.008a1.92 1.92 0 0 0-.201.89c0 .294.041.593.084.793.088.59.177 1.08.06 1.436-.38 1.006-.427 1.696-.161 2.198.266.494.817.694 1.433.889 1.238.296 2.915.2 4.235.887 1.413.69 2.848.993 3.993.695a2.687 2.687 0 0 0 1.843-1.398c.896-.005 1.877-.399 3.45-.495 1.066-.086 2.401.395 3.934.295.038.2.096.294.174.494l.004.005c.597 1.151 1.699 1.675 2.876 1.585 1.176-.09 2.43-.794 3.444-1.933.963-1.133 2.569-1.605 3.63-2.225.53-.294.96-.694.99-1.262.035-.592-.304-1.202-1.09-2.038v-.144l-.005-.004c-.259-.296-.381-.792-.515-1.37-.13-.594-.278-1.164-.751-1.549h-.005c-.09-.08-.188-.099-.287-.2a.558.558 0 0 0-.29-.094c.658-1.892.403-3.774-.264-5.467-.813-2.087-2.235-3.905-3.32-5.155-1.214-1.488-2.404-2.896-2.381-4.986.04-3.185.361-9.077-5.41-9.086Zm.807 5.04h.02c.325 0 .604.091.891.292.292.2.504.492.67.79.16.383.241.679.254 1.07 0-.029.009-.058.009-.087v.154a.126.126 0 0 1-.006-.03l-.006-.036c-.003.36-.081.715-.23 1.045a1.404 1.404 0 0 1-.324.495 1.095 1.095 0 0 0-.135-.062c-.16-.066-.303-.094-.435-.197a2.05 2.05 0 0 0-.334-.097c.075-.088.221-.197.278-.293.08-.19.125-.391.134-.595V7.46c.003-.2-.027-.401-.093-.592-.069-.2-.154-.298-.28-.495-.127-.097-.254-.195-.407-.195h-.024a.493.493 0 0 0-.4.195c-.145.14-.253.307-.313.495-.08.188-.128.39-.137.592v.028c.003.132.012.265.03.395-.294-.1-.668-.2-.926-.299a2.35 2.35 0 0 1-.027-.295v-.03c-.013-.39.065-.778.228-1.137.126-.324.354-.601.657-.79.26-.19.578-.294.906-.294Zm-4.52.087h.055c.216 0 .412.07.609.2.223.19.402.426.525.688.137.294.215.593.233.987v.006c.01.198.01.297-.003.393v.119c-.046.01-.085.027-.127.035-.232.082-.418.2-.6.296.019-.131.02-.265.005-.395v-.022c-.018-.197-.06-.294-.125-.493a.903.903 0 0 0-.253-.395.386.386 0 0 0-.28-.095h-.032c-.108.01-.198.061-.284.196a.806.806 0 0 0-.183.4c-.04.16-.053.323-.035.49v.02c.019.2.057.297.124.494a.904.904 0 0 0 .252.397c.017.013.032.026.052.035-.107.085-.179.104-.269.202a.47.47 0 0 1-.2.1 3.88 3.88 0 0 1-.42-.595 2.559 2.559 0 0 1-.236-.987 2.53 2.53 0 0 1 .122-.988c.084-.292.232-.561.432-.792.195-.197.397-.296.638-.296Zm2.092 2.525c.505 0 1.117.096 1.854.59.448.296.799.398 1.607.693h.005c.39.201.618.393.73.59v-.194c.11.218.119.471.024.696-.188.46-.788.953-1.624 1.248v.003c-.409.2-.765.492-1.183.688-.42.2-.897.432-1.544.395a1.787 1.787 0 0 1-.684-.1 5.498 5.498 0 0 1-.491-.292c-.298-.2-.554-.492-.934-.688v-.008h-.008c-.61-.364-.94-.758-1.047-1.052-.105-.397-.008-.694.295-.888.342-.2.58-.401.737-.497.159-.11.218-.151.268-.194h.003v-.005c.258-.299.666-.694 1.28-.89.213-.052.45-.095.712-.095Zm4.272 3.171c.548 2.097 1.827 5.143 2.65 6.62.436.79 1.304 2.456 1.681 4.476.238-.008.502.026.783.095.986-2.474-.833-5.132-1.662-5.87-.337-.298-.354-.496-.188-.496.9.79 2.084 2.327 2.512 4.08.197.792.243 1.634.032 2.472.103.041.206.09.313.1 1.575.79 2.157 1.387 1.877 2.274v-.064c-.093-.004-.183 0-.276 0h-.023c.23-.69-.277-1.22-1.625-1.811-1.396-.592-2.512-.498-2.703.688-.01.064-.018.098-.026.2-.104.034-.212.078-.319.095-.656.396-1.01.99-1.21 1.756-.198.79-.26 1.711-.313 2.766v.005c-.032.494-.26 1.24-.487 2-2.289 1.586-5.463 2.275-8.163.494a3.927 3.927 0 0 0-.614-.79 2.162 2.162 0 0 0-.42-.494c.278 0 .516-.043.71-.099a.922.922 0 0 0 .48-.494c.164-.395 0-1.032-.527-1.721-.527-.691-1.42-1.473-2.729-2.251-.961-.59-1.505-1.288-1.755-2.066-.252-.79-.218-1.606-.023-2.435.374-1.584 1.333-3.123 1.945-4.09.163-.096.056.2-.623 1.442-.604 1.112-1.741 3.696-.186 5.704.058-1.464.393-2.908.987-4.256.86-1.892 2.66-5.186 2.802-7.797.073.053.331.2.441.299.333.197.58.493.9.688.323.298.729.496 1.338.496.06.004.114.009.169.009.627 0 1.112-.198 1.52-.397.443-.198.795-.494 1.13-.592h.007c.713-.2 1.276-.595 1.595-1.036Zm3.336 13.258c.057.89.524 1.843 1.346 2.038.897.198 2.189-.493 2.733-1.132l.322-.013c.481-.012.881.014 1.293.395l.005.004c.317.295.465.786.596 1.297.13.593.235 1.154.625 1.577.741.78.984 1.341.97 1.688l.005-.01v.027l-.005-.018c-.023.388-.282.587-.76.881-.961.594-2.665 1.054-3.75 2.324-.943 1.09-2.092 1.685-3.107 1.762-1.013.079-1.888-.296-2.402-1.329l-.008-.004c-.32-.594-.183-1.517.086-2.501.268-.989.653-1.99.707-2.81.056-1.056.115-1.975.297-2.684.183-.688.47-1.18.978-1.456l.069-.033v-.003Zm-16.505.073h.015c.08 0 .16.007.24.02.573.082 1.077.493 1.56 1.113l1.39 2.463.004.004c.371.79 1.15 1.575 1.815 2.425.662.885 1.175 1.674 1.112 2.323v.01c-.087 1.1-.73 1.698-1.717 1.914-.984.2-2.32.003-3.655-.686-1.477-.794-3.232-.695-4.36-.891-.563-.098-.932-.298-1.103-.594-.17-.294-.173-.89.187-1.82v-.005l.003-.004c.179-.494.046-1.115-.04-1.656-.085-.594-.127-1.05.065-1.392.244-.494.604-.59 1.051-.788.45-.2.979-.3 1.398-.694h.003v-.005c.391-.396.68-.89 1.02-1.24.29-.298.58-.497 1.012-.497Zm10.925-13.43c-.663.298-1.442.792-2.27.792-.828 0-1.48-.395-1.953-.69-.236-.198-.427-.396-.57-.496-.25-.198-.22-.494-.113-.494.166.024.197.2.304.298.146.097.328.294.55.492.445.296 1.038.692 1.78.692.74 0 1.607-.396 2.133-.69.298-.2.68-.494.99-.691.238-.203.227-.397.425-.397.197.024.052.198-.224.493-.276.2-.704.496-1.053.693v-.002h.001Zm-1.65-2.344v-.033c-.01-.028.019-.062.043-.074.113-.063.275-.04.397.006.096 0 .244.1.23.2-.01.072-.13.098-.207.098-.084 0-.14-.064-.215-.101-.08-.027-.223-.012-.249-.096Zm-.842 0c-.03.086-.172.072-.253.097-.072.037-.131.101-.212.101-.078 0-.2-.028-.21-.1-.013-.098.135-.197.23-.197.123-.046.28-.07.395-.008.029.014.055.045.046.074v.031h.004v.002Z"/></svg>