<svg xmlns="http://www.w3.org/2000/svg" width="150" height="35" fill="none"><path fill="#fff" d="M61.383 11.81c-2.248 0-4.092 1.07-5.038 2.868-.898-1.922-2.758-2.868-4.882-2.868-2 0-3.642.838-4.666 2.201V12.26H45.17V29h1.782V18.041c0-2.805 1.675-4.634 4.139-4.634 2.418 0 4.076 1.752 4.076 4.51L55.137 29h1.767l.03-10.959c0-3.425 2.202-4.634 4.155-4.634 2.294 0 4.03 1.643 4.03 4.34L65.087 29h1.782l.031-11.517c0-3.503-2.248-5.673-5.518-5.673Zm22.09 3.41c-.822-2.154-3.008-3.425-6.077-3.425-3.627 0-5.998 1.69-6.758 4.728l1.83.511c.65-2.387 2.309-3.518 4.866-3.518 3.503 0 4.805 1.658 4.805 5.053-1.968.248-5.285.604-7.734 1.146-2.434.574-4.402 1.985-4.402 4.821 0 2.635 1.906 4.929 5.766 4.929 2.898 0 5.239-1.194 6.525-3.379V29h1.628V18.569c0-1.194-.109-2.45-.45-3.348Zm-7.611 12.602c-3.007 0-4.03-1.736-4.03-3.27 0-2.046 1.705-2.93 3.177-3.317 2.077-.527 5.084-.806 7.13-1.023 0 .744-.03 1.829-.186 2.666-.434 2.991-2.681 4.944-6.091 4.944Zm18.92 1.643c3.177 0 5.549-1.488 6.866-4.34l-1.767-.605c-.945 2.093-2.743 3.209-5.1 3.209-3.859 0-5.812-2.821-5.858-7.099.046-4.185 1.906-7.099 5.859-7.099 2.356 0 4.278 1.209 5.13 3.286l1.736-.636c-.976-2.712-3.611-4.386-6.85-4.386-4.992 0-7.704 3.518-7.782 8.835.078 5.208 2.744 8.835 7.766 8.835Zm25.236 0c6.665 0 10.137-4.79 10.137-11.625s-3.472-11.625-10.137-11.625c-6.68 0-10.152 4.79-10.152 11.625s3.472 11.625 10.152 11.625Zm0-1.752c-5.487 0-8.292-4.06-8.246-9.873.047-5.813 2.759-9.889 8.246-9.873 5.487 0 8.231 4.06 8.231 9.873s-2.744 9.889-8.231 9.873Zm20.827 1.752c4.681 0 7.952-2.418 7.952-6.433 0-4.154-3.534-5.238-5.239-5.735l-4.495-1.333c-1.814-.527-4.216-1.348-4.216-3.813 0-2.386 2.294-4.2 5.549-4.184 3.379 0 5.998 2.03 6.448 5.099l1.844-.325c-.651-3.984-3.875-6.51-8.277-6.526-4.355 0-7.471 2.402-7.471 5.998 0 2.667 1.721 4.356 4.697 5.24l5.611 1.674c1.503.449 3.751 1.302 3.751 3.968 0 2.805-2.511 4.634-6.107 4.634-3.534 0-6.216-1.813-6.991-4.805l-1.829.31c.791 3.828 4.17 6.231 8.773 6.231ZM17.002 6.929c-1.09 1.291-2.835 2.31-4.58 2.164-.218-1.746.636-3.6 1.636-4.747C15.148 3.02 17.057 2.073 18.602 2c.182 1.819-.527 3.601-1.6 4.929Zm1.582 2.51c-2.527-.146-4.69 1.437-5.89 1.437-1.217 0-3.053-1.364-5.052-1.328-2.6.036-5.017 1.51-6.344 3.856-2.726 4.692-.709 11.64 1.927 15.46 1.29 1.891 2.835 3.964 4.871 3.892 1.927-.073 2.69-1.255 5.017-1.255 2.344 0 3.017 1.255 5.053 1.218 2.108-.036 3.435-1.891 4.726-3.783 1.472-2.146 2.072-4.238 2.108-4.347-.036-.036-4.072-1.582-4.108-6.238-.036-3.892 3.181-5.747 3.326-5.857-1.817-2.691-4.653-2.982-5.634-3.055Z"/></svg>