<svg width="22" height="22" fill="none" xmlns="http://www.w3.org/2000/svg"><path fill-rule="evenodd" clip-rule="evenodd" d="M11 0C4.925 0 0 4.925 0 11s4.925 11 11 11 11-4.925 11-11S17.075 0 11 0Zm2.5 7.086L8.709 2.294A9.014 9.014 0 0 1 11 2c.871 0 1.714.124 2.51.355-.006.047-.01.096-.01.145v4.586ZM6.686 3.1l3.4 3.4H3.204a9.043 9.043 0 0 1 3.482-3.4Zm12.386 3.914L15.5 10.586V3.204a9.04 9.04 0 0 1 3.572 3.81ZM15.414 13.5l4.388-4.388a9.037 9.037 0 0 1-.154 4.388h-4.234Zm-3.5 2h6.882a9.044 9.044 0 0 1-3.481 3.4l-3.4-3.4ZM8.5 14.914l4.792 4.792c-.732.192-1.5.294-2.292.294a9.002 9.002 0 0 1-2.5-.352v-4.734Zm-2-3v6.882a9.043 9.043 0 0 1-3.4-3.482l3.4-3.4ZM7.086 8.5l-4.792 4.791A9.014 9.014 0 0 1 2 11c0-.871.124-1.714.355-2.51.047.006.096.01.145.01h4.586Z" fill="#fff"/></svg>