<svg width="25" height="24" viewBox="0 0 25 24" fill="none" xmlns="http://www.w3.org/2000/svg">
<path fill-rule="evenodd" clip-rule="evenodd" d="M5.50006 1.5C4.94777 1.5 4.50006 1.94772 4.50006 2.5V7.5H2.5117C2.49157 7.49978 2.47144 7.50017 2.45136 7.50116C2.30239 7.5083 2.16196 7.54803 2.03706 7.61338C1.93183 7.66824 1.83505 7.74262 1.75253 7.83569C1.59565 8.01208 1.50027 8.24436 1.5 8.49893V21.5C1.5 22.0523 1.94772 22.5 2.5 22.5H22.5C23.0523 22.5 23.5 22.0523 23.5 21.5V8.51461C23.5023 8.36437 23.4709 8.2128 23.4041 8.07201C23.3936 8.04996 23.3823 8.02818 23.37 8.00671C23.3466 7.96539 23.3203 7.9259 23.2913 7.88853C23.1923 7.76037 23.0682 7.66274 22.931 7.5974C22.8161 7.54242 22.689 7.50874 22.5549 7.50148C22.5328 7.50026 22.5106 7.49976 22.4884 7.5H20.5001V2.5C20.5001 1.94772 20.0523 1.5 19.5001 1.5H5.50006ZM3.5 20.5V10.5L11.9001 16.8C12.2556 17.0667 12.7445 17.0667 13.1001 16.8L21.5 10.5V20.5H3.5ZM13.5 6C13.5 5.44772 13.0523 5 12.5 5C11.9477 5 11.5 5.44772 11.5 6V9.08579L10.7071 8.29289C10.3166 7.90237 9.68342 7.90237 9.29289 8.29289C8.90237 8.68342 8.90237 9.31658 9.29289 9.70711L11.7926 12.2068L11.795 12.2092C11.8904 12.304 12.0001 12.3757 12.1172 12.4241C12.2351 12.473 12.3644 12.5 12.5 12.5C12.6356 12.5 12.7649 12.473 12.8828 12.4241C12.9999 12.3757 13.1096 12.304 13.205 12.2092L13.2071 12.2071L15.7071 9.70711C16.0976 9.31658 16.0976 8.68342 15.7071 8.29289C15.3166 7.90237 14.6834 7.90237 14.2929 8.29289L13.5 9.08579V6Z" fill="white"/>
</svg>
