<svg xmlns="http://www.w3.org/2000/svg" width="20" height="20" fill="none"><g clip-path="url(#a)"><path fill="#8886FF" d="M16.852 0c1.172 0 2.116.948 2.171 2.064V20l-2.23-1.894-1.223-1.114-1.338-1.165.556 1.836H3.092c-1.169 0-2.115-.886-2.115-2.064V2.067C.977.951 1.924.004 3.096.004h13.75L16.852 0Zm-5.098 4.736h-.026l-.17.167c1.73.5 2.565 1.282 2.565 1.282-1.113-.557-2.119-.837-3.121-.95-.723-.111-1.45-.053-2.061 0h-.17c-.39 0-1.223.169-2.34.614-.388.17-.612.28-.612.28s.833-.836 2.676-1.282l-.114-.11S6.988 4.68 5.484 5.793c0 0-1.504 2.621-1.504 5.85 0 0 .833 1.448 3.12 1.504 0 0 .334-.443.67-.834-1.283-.39-1.784-1.171-1.784-1.171s.114.055.28.166h.049c.026 0 .04.013.052.026v.006c.013.013.026.023.048.023.277.113.55.224.775.335.39.166.89.335 1.5.446a8.541 8.541 0 0 0 2.677 0c.498-.114.999-.221 1.5-.446.323-.166.723-.332 1.162-.615 0 0-.498.781-1.836 1.172.274.387.66.833.66.833 2.289-.052 3.177-1.5 3.226-1.439 0-3.226-1.514-5.85-1.514-5.85-1.36-1.012-2.637-1.05-2.86-1.05l.045-.017.004.003Zm.14 3.679c.586 0 1.058.498 1.058 1.11 0 .619-.475 1.116-1.058 1.116-.586 0-1.058-.498-1.058-1.11 0-.619.475-1.116 1.058-1.116Zm-3.786 0c.583 0 1.055.498 1.055 1.11 0 .619-.475 1.116-1.058 1.116-.586 0-1.06-.498-1.06-1.11 0-.619.474-1.116 1.06-1.116h.003Z"/></g><defs><clipPath id="a"><path fill="#fff" d="M0 0h20v20H0z"/></clipPath></defs></svg>