<svg width="103" height="103" fill="none" xmlns="http://www.w3.org/2000/svg"><path fill-rule="evenodd" clip-rule="evenodd" d="m43.17 85.186-11.975 3.022-3.784-11.757L15.53 73.08l2.602-12.074-8.604-8.86 8.29-9.156-3.022-11.976 11.757-3.784 3.371-11.881 12.074 2.601 8.86-8.604 9.156 8.29 11.976-3.022 3.783 11.757 11.882 3.372-2.601 12.073 8.604 8.86-8.29 9.156 3.021 11.976-11.757 3.784-3.37 11.882-12.074-2.602-8.861 8.604-9.155-8.29Z" fill="url(#a)"/><path fill-rule="evenodd" clip-rule="evenodd" d="M67.968 50.45c-.983-6.864-6.39-12.412-13.42-13.418a3.162 3.162 0 0 0-3.576 2.678l-1.153 8.072-12.29 12.287a5.236 5.236 0 0 0 0 7.398 5.229 5.229 0 0 0 7.4 0l12.288-12.288 8.073-1.153a3.162 3.162 0 0 0 2.678-3.577Zm-24.52 15.537a3.119 3.119 0 0 1-2.219.92 3.12 3.12 0 0 1-2.22-.92 3.142 3.142 0 0 1 0-4.439l6.66-6.658 4.438 4.44-6.658 6.657Zm8.14-8.137-4.44-4.44 3.657-3.656 4.44 4.439-3.658 3.657Zm13.406-5.895-7.9 1.128-5.18-5.178 1.13-7.9a1.07 1.07 0 0 1 1.208-.902c.557.08 1.103.194 1.637.339l-.84 2.741a1.046 1.046 0 1 0 2.001.613l.811-2.65a13.805 13.805 0 0 1 3.372 2.14l-2.184 2.185a1.046 1.046 0 1 0 1.48 1.48l2.184-2.185a13.808 13.808 0 0 1 2.146 3.386l-2.648.806a1.046 1.046 0 1 0 .608 2.002l2.743-.834c.143.528.255 1.069.334 1.62a1.07 1.07 0 0 1-.902 1.209Z" fill="url(#b)"/><defs><linearGradient id="a" x1="6.657" y1="34.049" x2="38.89" y2="93.82" gradientUnits="userSpaceOnUse"><stop stop-color="#F8E6E2"/><stop offset="1" stop-color="#E4BEB5"/></linearGradient><linearGradient id="b" x1="27.662" y1="45.72" x2="45.102" y2="77.72" gradientUnits="userSpaceOnUse"><stop stop-color="#AC6C44"/><stop offset="1" stop-color="#301103"/></linearGradient></defs></svg>