<svg width="99" height="100" fill="none" xmlns="http://www.w3.org/2000/svg"><path fill-rule="evenodd" clip-rule="evenodd" d="m41.163 84.146-11.968 3.005-3.805-11.783-11.86-3.406 2.572-12.115-8.576-8.904 8.261-9.2-2.992-12.016 11.736-3.82 3.392-11.909 12.066 2.583 8.868-8.61 9.163 8.294 11.968-3.004 3.805 11.783 11.861 3.406-2.573 12.114 8.576 8.905-8.261 9.2 2.992 12.016-11.735 3.82-3.393 11.909-12.065-2.584-8.87 8.61-9.162-8.294Z" fill="url(#a)"/><path fill-rule="evenodd" clip-rule="evenodd" d="M49 33.728c3.64 0 6.631 2.79 6.968 6.357a6.025 6.025 0 0 1 4.028 5.466l.004.226h-2a4.01 4.01 0 0 0-3.8-4.011l-.2-.005v-1.004c0-2.773-2.239-5.02-5-5.02-2.689 0-4.882 2.13-4.995 4.802l-.005.218v1.004l-.2.005a4.01 4.01 0 0 0-3.8 4.011h-2l.004-.226a6.025 6.025 0 0 1 4.028-5.466c.337-3.567 3.328-6.357 6.968-6.357Zm8.749 29.66a5.958 5.958 0 0 1-.949.207v.053h-14v-.003a5.952 5.952 0 0 1-2.2-.498 1 1 0 0 1-.052.037l-.1.058c-.267.134-.419.402-.444.94l-.004.17c0 1.523-1.019 2.546-2.758 2.982a1.004 1.004 0 0 1-.485-1.948c.866-.217 1.198-.507 1.239-.94l.004-.094c0-.997.277-1.817.838-2.389a6.017 6.017 0 0 1-1.828-3.984c-1.68.157-3.599-.596-4.404-2.215-1.693-3.399.708-7.93 5.394-7.482v-2.505h2v2.959c2.092.796 3.403 2.52 3.869 5.073h10.326c.461-2.527 1.75-4.242 3.805-5.049v-2.983h2v2.511c4.728-.495 7.158 4.062 5.458 7.476-.659 1.323-2.06 2.068-3.468 2.21a6.023 6.023 0 0 1-2.436 4.504c.298.512.446 1.146.446 1.874l.004.095c.04.432.373.722 1.239.94a1.004 1.004 0 0 1-.486 1.947C59.02 66.898 58 65.875 58 64.352l-.004-.17c-.018-.387-.102-.635-.247-.793Zm2.25-5.644a3.129 3.129 0 0 1-1.143-.715c-1.82-1.828-.974-5.228 2.207-5.228.553 0 1 .45 1 1.004 0 .555-.447 1.004-1 1.004l-.144.006c-1.07.087-1.299 1.141-.648 1.794.701.705 2.81.438 3.398-.743 1.05-2.109-.454-4.916-3.495-4.577-2.513.28-3.828 1.732-4.115 4.624a1.006 1.006 0 0 1-.059.253v4.667H42v-4.969c-.298-2.86-1.612-4.296-4.11-4.575-3.042-.34-4.546 2.468-3.495 4.577.587 1.18 2.697 1.448 3.398.743.65-.653.422-1.707-.649-1.794L37 53.809c-.552 0-1-.45-1-1.004s.448-1.004 1-1.004c3.182 0 4.028 3.4 2.207 5.228a2.752 2.752 0 0 1-.207.188v.407a4.01 4.01 0 0 0 3.8 4.011l.2.005h13l.2-.005a4.009 4.009 0 0 0 3.798-3.891Zm-5.999.08v-2.007H44v2.008h10Zm-5-10.039c.552 0 1 .45 1 1.004 0 .555-.448 1.004-1 1.004s-1-.45-1-1.004.448-1.004 1-1.004Zm1-7.028c0-.555-.448-1.004-1-1.004s-1 .45-1 1.004c0 .555.448 1.004 1 1.004s1-.45 1-1.004Zm-5 3.012c.552 0 1 .45 1 1.004s-.448 1.004-1 1.004-1-.45-1-1.004c0-.555.448-1.004 1-1.004Zm9 1.004c0-.555-.448-1.004-1-1.004s-1 .45-1 1.004.448 1.004 1 1.004 1-.45 1-1.004Z" fill="url(#b)"/><defs><linearGradient id="a" x1="4.657" y1="32.773" x2="37.092" y2="92.677" gradientUnits="userSpaceOnUse"><stop stop-color="#F8E6E2"/><stop offset="1" stop-color="#E4BEB5"/></linearGradient><linearGradient id="b" x1="23.221" y1="42.895" x2="41.464" y2="76.667" gradientUnits="userSpaceOnUse"><stop stop-color="#AC6C44"/><stop offset="1" stop-color="#301103"/></linearGradient></defs></svg>