<svg width="103" height="103" fill="none" xmlns="http://www.w3.org/2000/svg"><path fill-rule="evenodd" clip-rule="evenodd" d="m43.17 85.186-11.975 3.022-3.784-11.757L15.53 73.08l2.602-12.074-8.604-8.86 8.29-9.156-3.022-11.976 11.757-3.784 3.371-11.881 12.074 2.601 8.86-8.604 9.156 8.29 11.976-3.022 3.783 11.757 11.882 3.372-2.601 12.073 8.604 8.86-8.29 9.156 3.022 11.976-11.757 3.784-3.372 11.882-12.073-2.602-8.86 8.604-9.156-8.29Z" fill="url(#a)"/><path fill-rule="evenodd" clip-rule="evenodd" d="M68 49.25a1.25 1.25 0 0 0 1.243-1.122L69.25 48v-4.5a6.25 6.25 0 0 0-6.02-6.246L63 37.25h-3.5a1.25 1.25 0 0 0-.128 2.493l.128.007H63a3.75 3.75 0 0 1 3.745 3.55l.005.2V48c0 .69.56 1.25 1.25 1.25Zm-10.502 1.748c.018.554.599 1.17 1.166 1.537.531.342 2.268 1.613 2.334 3.6.046 1.392-.716 2.681-2.264 3.832a1.267 1.267 0 0 1-1.778-.267 1.28 1.28 0 0 1 .266-1.785c.47-.35 1.257-1.035 1.235-1.695-.018-.554-.599-1.171-1.166-1.537-.531-.343-2.268-1.614-2.334-3.6-.046-1.393.716-2.682 2.264-3.832.565-.42 1.36-.3 1.778.266a1.28 1.28 0 0 1-.265 1.785c-.471.35-1.258 1.036-1.236 1.696Zm-5.311 1.537c-.568-.366-1.148-.983-1.167-1.537-.022-.66.765-1.346 1.236-1.696a1.28 1.28 0 0 0 .266-1.785 1.268 1.268 0 0 0-1.778-.267c-1.549 1.151-2.31 2.44-2.264 3.832.065 1.987 1.802 3.258 2.333 3.6.568.367 1.148.984 1.167 1.538.022.66-.765 1.345-1.236 1.695a1.28 1.28 0 0 0-.266 1.785 1.267 1.267 0 0 0 1.778.267c1.548-1.15 2.31-2.44 2.264-3.832-.065-1.987-1.802-3.258-2.333-3.6Zm-6.478 0c-.567-.366-1.148-.983-1.166-1.537-.022-.66.765-1.346 1.236-1.695a1.28 1.28 0 0 0 .265-1.786 1.268 1.268 0 0 0-1.778-.266c-1.548 1.15-2.31 2.44-2.264 3.831.066 1.987 1.803 3.258 2.334 3.6.567.367 1.148.984 1.166 1.538.022.66-.765 1.345-1.236 1.695a1.28 1.28 0 0 0-.265 1.785 1.267 1.267 0 0 0 1.778.267c1.548-1.15 2.31-2.44 2.264-3.832-.066-1.987-1.803-3.258-2.334-3.6ZM68 58.25c.647 0 1.18.492 1.243 1.122l.007.128V64a6.25 6.25 0 0 1-6.02 6.246l-.23.004h-3.5a1.25 1.25 0 0 1-.128-2.493l.128-.007H63a3.75 3.75 0 0 0 3.745-3.55l.005-.2v-4.5c0-.69.56-1.25 1.25-1.25Zm-34.743 1.122a1.25 1.25 0 0 1 2.493.128V64l.005.2a3.75 3.75 0 0 0 3.745 3.55H43l.128.007A1.25 1.25 0 0 1 43 70.25h-3.5l-.23-.004A6.25 6.25 0 0 1 33.25 64v-4.5l.007-.128Zm0-11.244A1.25 1.25 0 0 0 35.75 48v-4.5l.005-.2a3.75 3.75 0 0 1 3.745-3.55H43l.128-.007A1.25 1.25 0 0 0 43 37.25h-3.5l-.23.004a6.25 6.25 0 0 0-6.02 6.246V48l.007.128Z" fill="url(#b)"/><defs><linearGradient id="a" x1="6.657" y1="34.049" x2="38.891" y2="93.82" gradientUnits="userSpaceOnUse"><stop stop-color="#F8E6E2"/><stop offset="1" stop-color="#E4BEB5"/></linearGradient><linearGradient id="b" x1="23.87" y1="46.243" x2="40.982" y2="80.496" gradientUnits="userSpaceOnUse"><stop stop-color="#AC6C44"/><stop offset="1" stop-color="#301103"/></linearGradient></defs></svg>