<svg width="13" height="13" viewBox="0 0 13 13" fill="none" xmlns="http://www.w3.org/2000/svg">
<path d="M6.31429 4.49429C6.99549 3.79823 7.88246 3.34286 8.91429 3.34286C9.99788 3.34286 11.0371 3.77331 11.8033 4.53954C12.5695 5.30576 13 6.34497 13 7.42857V13H11.5143V7.42857C11.5143 6.73901 11.2404 6.07769 10.7528 5.59009C10.2652 5.1025 9.60385 4.82857 8.91429 4.82857C8.22472 4.82857 7.5634 5.1025 7.07581 5.59009C6.58821 6.07769 6.31429 6.73901 6.31429 7.42857V13H4.82857V3.71429H6.31429V4.49429ZM1.11429 2.22857C0.818759 2.22857 0.535336 2.11117 0.326367 1.9022C0.117398 1.69324 0 1.40981 0 1.11429C0 0.818759 0.117398 0.535336 0.326367 0.326367C0.535336 0.117398 0.818759 0 1.11429 0C1.40981 0 1.69324 0.117398 1.9022 0.326367C2.11117 0.535336 2.22857 0.818759 2.22857 1.11429C2.22857 1.40981 2.11117 1.69324 1.9022 1.9022C1.69324 2.11117 1.40981 2.22857 1.11429 2.22857ZM0.371429 3.71429H1.85714V13H0.371429V3.71429Z" fill="black"/>
</svg>
