<svg width="16" height="13" viewBox="0 0 16 13" fill="none" xmlns="http://www.w3.org/2000/svg">
<path d="M10.8588 1.56286C10.2653 1.56276 9.69542 1.79567 9.27188 2.21147C8.84834 2.62727 8.60496 3.19273 8.59411 3.78616L8.57224 5.01612C8.57096 5.08216 8.55574 5.14718 8.52756 5.20692C8.49938 5.26666 8.4589 5.31977 8.40875 5.36276C8.35861 5.40575 8.29994 5.43766 8.2366 5.45638C8.17326 5.4751 8.10667 5.48022 8.04121 5.4714L6.82219 5.30585C5.21816 5.08719 3.68129 4.34843 2.2069 3.12003C1.73991 5.7049 2.65203 7.49557 4.84878 8.87703L6.21306 9.73449C6.27788 9.77523 6.33174 9.83123 6.36991 9.89759C6.40808 9.96395 6.42941 10.0387 6.43203 10.1152C6.43465 10.1917 6.41848 10.2677 6.38494 10.3365C6.35139 10.4053 6.3015 10.4649 6.23961 10.51L4.99638 11.4182C5.73592 11.4642 6.43797 11.4314 7.02054 11.3159C10.705 10.5802 13.1547 7.80794 13.1547 3.23483C13.1547 2.86154 12.3644 1.56286 10.8588 1.56286ZM7.03226 3.75727C7.04589 3.00449 7.28128 2.27247 7.70898 1.65284C8.13667 1.03321 8.73765 0.553526 9.43667 0.273835C10.1357 -0.00585647 10.9017 -0.0731215 11.6387 0.0804618C12.3758 0.234045 13.0512 0.601651 13.5803 1.13725C14.1356 1.13335 14.608 1.27392 15.6646 0.633556C15.403 1.91428 15.2742 2.4703 14.7166 3.23483C14.7166 9.20268 11.0486 12.1046 7.32667 12.8473C4.77459 13.3564 1.06362 12.5201 0 11.4096C0.541964 11.3674 2.74418 11.1308 4.01709 10.1991C2.94019 9.48928 -1.34632 6.96688 1.47049 0.185304C2.7926 1.7292 4.13345 2.78033 5.49227 3.33791C6.39658 3.70885 6.61836 3.70104 7.03304 3.75805L7.03226 3.75727Z" fill="black"/>
</svg>
