<svg width="20" height="22" viewBox="0 0 20 22" fill="none" xmlns="http://www.w3.org/2000/svg">
<path fill-rule="evenodd" clip-rule="evenodd" d="M2.87868 0.87868C3.44129 0.31607 4.20435 0 5 0H13.5C13.7652 0 14.0196 0.105357 14.2071 0.292893L19.7071 5.79289C19.8946 5.98043 20 6.23478 20 6.5V19C20 19.7957 19.6839 20.5587 19.1213 21.1213C18.5587 21.6839 17.7957 22 17 22H3C2.44772 22 2 21.5523 2 21C2 20.4477 2.44772 20 3 20H17C17.2652 20 17.5196 19.8946 17.7071 19.7071C17.8946 19.5196 18 19.2652 18 19V6.91421L13.0858 2H5C4.73478 2 4.48043 2.10536 4.29289 2.29289C4.10536 2.48043 4 2.73478 4 3V6C4 6.55228 3.55228 7 3 7C2.44772 7 2 6.55228 2 6V3C2 2.20435 2.31607 1.44129 2.87868 0.87868Z" fill="#645C4F"/>
<path fill-rule="evenodd" clip-rule="evenodd" d="M13 0C13.5523 0 14 0.447715 14 1V6H19C19.5523 6 20 6.44772 20 7C20 7.55228 19.5523 8 19 8H13C12.4477 8 12 7.55228 12 7V1C12 0.447715 12.4477 0 13 0Z" fill="#645C4F"/>
<path fill-rule="evenodd" clip-rule="evenodd" d="M1.17157 10.1716C1.92172 9.42143 2.93913 9 4 9C4.52529 9 5.04543 9.10346 5.53073 9.30448C6.01604 9.5055 6.45699 9.80014 6.82843 10.1716C7.19986 10.543 7.4945 10.984 7.69552 11.4693C7.89654 11.9546 8 12.4747 8 13C8 13.5253 7.89654 14.0454 7.69552 14.5307C7.4945 15.016 7.19986 15.457 6.82843 15.8284C6.45699 16.1999 6.01604 16.4945 5.53073 16.6955C5.04543 16.8965 4.52529 17 4 17C2.93913 17 1.92172 16.5786 1.17157 15.8284C0.421427 15.0783 0 14.0609 0 13C0 11.9391 0.421427 10.9217 1.17157 10.1716ZM4 11C3.46957 11 2.96086 11.2107 2.58579 11.5858C2.21071 11.9609 2 12.4696 2 13C2 13.5304 2.21071 14.0391 2.58579 14.4142C2.96086 14.7893 3.46957 15 4 15C4.26264 15 4.52272 14.9483 4.76537 14.8478C5.00802 14.7473 5.2285 14.5999 5.41421 14.4142C5.59993 14.2285 5.74725 14.008 5.84776 13.7654C5.94827 13.5227 6 13.2626 6 13C6 12.7374 5.94827 12.4773 5.84776 12.2346C5.74725 11.992 5.59993 11.7715 5.41421 11.5858C5.2285 11.4001 5.00802 11.2528 4.76537 11.1522C4.52272 11.0517 4.26264 11 4 11Z" fill="#645C4F"/>
<path fill-rule="evenodd" clip-rule="evenodd" d="M5.79289 14.7929C6.18342 14.4024 6.81658 14.4024 7.20711 14.7929L8.70711 16.2929C9.09763 16.6834 9.09763 17.3166 8.70711 17.7071C8.31658 18.0976 7.68342 18.0976 7.29289 17.7071L5.79289 16.2071C5.40237 15.8166 5.40237 15.1834 5.79289 14.7929Z" fill="#645C4F"/>
</svg>
