<svg width="32" height="32" viewBox="0 0 32 32" fill="none" xmlns="http://www.w3.org/2000/svg">
<circle cx="16" cy="16" r="15.75" fill="url(#paint0_linear_1927_519)"/>
<path d="M18.7527 7.73579C19.0931 7.1416 18.8896 6.38267 18.2981 6.04068C17.7067 5.69869 16.9513 5.90314 16.6109 6.49733L16.0172 7.53372L15.4234 6.49733C15.083 5.90314 14.3276 5.69869 13.7362 6.04068C13.1448 6.38267 12.9413 7.1416 13.2817 7.73579L14.5915 10.0222L10.4484 17.2543H7.11059C6.42819 17.2543 5.875 17.81 5.875 18.4956C5.875 19.1812 6.42819 19.737 7.11059 19.737H18.7365C18.8384 19.4679 18.9457 19.0062 18.8316 18.5818C18.66 17.9439 18.025 17.2543 16.961 17.2543H13.2997L18.7527 7.73579Z" fill="white"/>
<path d="M11.091 21.1097C10.8801 20.8744 10.4078 20.4986 9.99364 20.3749C9.36213 20.1862 8.88339 20.3046 8.64185 20.4077L7.72149 22.0142C7.38108 22.6084 7.58458 23.3673 8.17602 23.7093C8.76745 24.0513 9.52285 23.8469 9.86326 23.2527L11.091 21.1097Z" fill="white"/>
<path d="M23.0082 19.737H24.8894C25.5718 19.737 26.125 19.1812 26.125 18.4956C26.125 17.81 25.5718 17.2543 24.8894 17.2543H21.5859L17.8647 10.7587C17.5883 11.0226 17.0583 11.6969 16.9782 12.4613C16.8752 13.444 17.0297 14.2716 17.493 15.0819C19.0508 17.8063 20.611 20.5295 22.1711 23.2527C22.5115 23.8469 23.2669 24.0513 23.8583 23.7093C24.4497 23.3673 24.6532 22.6084 24.3128 22.0142L23.0082 19.737Z" fill="white"/>
<defs>
<linearGradient id="paint0_linear_1927_519" x1="16" y1="0.25" x2="16" y2="31.75" gradientUnits="userSpaceOnUse">
<stop stop-color="#2AC9FA"/>
<stop offset="1" stop-color="#1F65EB"/>
</linearGradient>
</defs>
</svg>
