<svg width="72" height="72" fill="none" xmlns="http://www.w3.org/2000/svg"><path d="M63.998 0h-56c-4.4 0-8 3.6-8 8v56c0 4.404 3.6 8 8 8h28V44h-8v-9.9h8v-8.2c0-8.656 4.848-14.736 15.064-14.736l7.212.008v10.42h-4.788c-3.976 0-5.488 2.984-5.488 5.752v6.76H58.27L55.998 44h-8v28h16c4.4 0 8-3.596 8-8V8c0-4.4-3.6-8-8-8Z" fill="#C4C4C4"/><path d="M63.998 0h-56c-4.4 0-8 3.6-8 8v56c0 4.404 3.6 8 8 8h28V44h-8v-9.9h8v-8.2c0-8.656 4.848-14.736 15.064-14.736l7.212.008v10.42h-4.788c-3.976 0-5.488 2.984-5.488 5.752v6.76H58.27L55.998 44h-8v28h16c4.4 0 8-3.596 8-8V8c0-4.4-3.6-8-8-8Z" fill="url(#a)"/><defs><linearGradient id="a" x1="9.86" y1="12.342" x2="64.022" y2="62.569" gradientUnits="userSpaceOnUse"><stop stop-color="#00FFA3" stop-opacity=".6"/><stop offset="1" stop-color="#4B48F1"/></linearGradient></defs></svg>