<svg width="74" height="80" fill="none" xmlns="http://www.w3.org/2000/svg"><path d="M64.409 0c4.687 0 8.462 3.79 8.685 8.255V80l-8.92-7.578-4.895-4.452-5.353-4.663 2.228 7.346H9.369c-4.675 0-8.463-3.543-8.463-8.256V8.27c0-4.465 3.79-8.255 8.478-8.255h55L64.409 0ZM44.016 18.945h-.105l-.677.665c6.915 2.005 10.26 5.13 10.26 5.13-4.453-2.227-8.478-3.348-12.488-3.802-2.89-.443-5.795-.208-8.242 0h-.678c-1.562 0-4.895.677-9.362 2.46-1.55.677-2.448 1.12-2.448 1.12s3.333-3.348 10.703-5.13l-.455-.443s-5.573-.223-11.588 4.232c0 0-6.015 10.483-6.015 23.398 0 0 3.333 5.795 12.475 6.015 0 0 1.34-1.77 2.683-3.333-5.13-1.562-7.135-4.687-7.135-4.687s.455.222 1.12.665h.195c.105 0 .157.053.207.105v.025c.053.052.105.09.195.09 1.108.455 2.2.898 3.1 1.34a28.064 28.064 0 0 0 6.003 1.785c3.1.455 6.652.665 10.702 0 1.993-.455 3.998-.885 6.003-1.785 1.29-.665 2.89-1.328 4.647-2.46 0 0-1.992 3.125-7.345 4.688 1.095 1.55 2.643 3.332 2.643 3.332 9.152-.207 12.707-6.002 12.902-5.755 0-12.903-6.055-23.398-6.055-23.398-5.442-4.05-10.547-4.205-11.445-4.205l.183-.064.017.012Zm.56 14.715c2.345 0 4.233 1.993 4.233 4.44 0 2.475-1.9 4.465-4.233 4.465-2.345 0-4.232-1.992-4.232-4.44 0-2.475 1.9-4.465 4.232-4.465Zm-15.142 0c2.33 0 4.22 1.993 4.22 4.44 0 2.475-1.9 4.465-4.233 4.465-2.345 0-4.245-1.992-4.245-4.44 0-2.475 1.9-4.465 4.245-4.465h.013Z" fill="#C4C4C4"/><path d="M64.409 0c4.687 0 8.462 3.79 8.685 8.255V80l-8.92-7.578-4.895-4.452-5.353-4.663 2.228 7.346H9.369c-4.675 0-8.463-3.543-8.463-8.256V8.27c0-4.465 3.79-8.255 8.478-8.255h55L64.409 0ZM44.016 18.945h-.105l-.677.665c6.915 2.005 10.26 5.13 10.26 5.13-4.453-2.227-8.478-3.348-12.488-3.802-2.89-.443-5.795-.208-8.242 0h-.678c-1.562 0-4.895.677-9.362 2.46-1.55.677-2.448 1.12-2.448 1.12s3.333-3.348 10.703-5.13l-.455-.443s-5.573-.223-11.588 4.232c0 0-6.015 10.483-6.015 23.398 0 0 3.333 5.795 12.475 6.015 0 0 1.34-1.77 2.683-3.333-5.13-1.562-7.135-4.687-7.135-4.687s.455.222 1.12.665h.195c.105 0 .157.053.207.105v.025c.053.052.105.09.195.09 1.108.455 2.2.898 3.1 1.34a28.064 28.064 0 0 0 6.003 1.785c3.1.455 6.652.665 10.702 0 1.993-.455 3.998-.885 6.003-1.785 1.29-.665 2.89-1.328 4.647-2.46 0 0-1.992 3.125-7.345 4.688 1.095 1.55 2.643 3.332 2.643 3.332 9.152-.207 12.707-6.002 12.902-5.755 0-12.903-6.055-23.398-6.055-23.398-5.442-4.05-10.547-4.205-11.445-4.205l.183-.064.017.012Zm.56 14.715c2.345 0 4.233 1.993 4.233 4.44 0 2.475-1.9 4.465-4.233 4.465-2.345 0-4.232-1.992-4.232-4.44 0-2.475 1.9-4.465 4.232-4.465Zm-15.142 0c2.33 0 4.22 1.993 4.22 4.44 0 2.475-1.9 4.465-4.233 4.465-2.345 0-4.245-1.992-4.245-4.44 0-2.475 1.9-4.465 4.245-4.465h.013Z" fill="url(#a)"/><defs><linearGradient id="a" x1="10.794" y1="13.713" x2="70.2" y2="63.423" gradientUnits="userSpaceOnUse"><stop stop-color="#00FFA3" stop-opacity=".6"/><stop offset="1" stop-color="#4B48F1"/></linearGradient></defs></svg>