<svg width="70" height="70" fill="none" xmlns="http://www.w3.org/2000/svg"><path d="M35 0C15.672 0 0 15.672 0 35s15.672 35 35 35 35-15.672 35-35S54.328 0 35 0Zm16.82 26.383c.024.367.024.75.024 1.125 0 11.469-8.735 24.68-24.696 24.68a24.61 24.61 0 0 1-13.328-3.891c.703.078 1.375.11 2.094.11 4.063 0 7.797-1.376 10.774-3.704-3.813-.078-7.016-2.578-8.11-6.016 1.336.196 2.54.196 3.914-.156a8.672 8.672 0 0 1-6.945-8.515v-.11a8.682 8.682 0 0 0 3.914 1.102 8.682 8.682 0 0 1-3.867-7.219c0-1.617.422-3.094 1.18-4.375a24.632 24.632 0 0 0 17.89 9.07c-1.227-5.898 3.18-10.672 8.477-10.672a8.66 8.66 0 0 1 6.336 2.735 17.142 17.142 0 0 0 5.507-2.086 8.637 8.637 0 0 1-3.812 4.773c1.75-.187 3.437-.672 5-1.351a18.184 18.184 0 0 1-4.352 4.5Z" fill="#C4C4C4"/><path d="M35 0C15.672 0 0 15.672 0 35s15.672 35 35 35 35-15.672 35-35S54.328 0 35 0Zm16.82 26.383c.024.367.024.75.024 1.125 0 11.469-8.735 24.68-24.696 24.68a24.61 24.61 0 0 1-13.328-3.891c.703.078 1.375.11 2.094.11 4.063 0 7.797-1.376 10.774-3.704-3.813-.078-7.016-2.578-8.11-6.016 1.336.196 2.54.196 3.914-.156a8.672 8.672 0 0 1-6.945-8.515v-.11a8.682 8.682 0 0 0 3.914 1.102 8.682 8.682 0 0 1-3.867-7.219c0-1.617.422-3.094 1.18-4.375a24.632 24.632 0 0 0 17.89 9.07c-1.227-5.898 3.18-10.672 8.477-10.672a8.66 8.66 0 0 1 6.336 2.735 17.142 17.142 0 0 0 5.507-2.086 8.637 8.637 0 0 1-3.812 4.773c1.75-.187 3.437-.672 5-1.351a18.184 18.184 0 0 1-4.352 4.5Z" fill="url(#a)"/><defs><linearGradient id="a" x1="9.588" y1="11.998" x2="62.245" y2="60.831" gradientUnits="userSpaceOnUse"><stop stop-color="#00FFA3" stop-opacity=".6"/><stop offset="1" stop-color="#4B48F1"/></linearGradient></defs></svg>