<svg xmlns="http://www.w3.org/2000/svg" width="15" height="17" fill="none"><path fill="#fff" fill-rule="evenodd" d="M8.353 15.116c-2.04-1.055-3.828-2.546-5.313-4.44C1.817 9.109.993 7.641.447 6.06.091 5.04-.046 4.193.013 3.398c.05-.636.29-1.185.715-1.638L1.895.516C2.228.176 2.609 0 3.005 0c.4 0 .777.176 1.099.513.212.21.427.442.633.668l.009.01c.103.113.203.223.31.337l.929.991c.34.36.518.776.518 1.198 0 .423-.181.839-.518 1.198-.097.104-.194.207-.287.31-.265.29-.54.586-.833.868.209.516.508 1.022.955 1.625.882 1.154 1.806 2.053 2.823 2.742.103.07.218.133.343.2.1.053.206.11.31.172l1.116-1.191c.328-.35.711-.536 1.11-.536.4 0 .78.187 1.099.54l1.875 2c.67.715.67 1.654.006 2.392-.143.16-.293.316-.44.466l-.044.046c-.199.206-.39.403-.558.62-.003.006-.01.013-.012.016-.509.59-1.133.876-1.91.876-.069 0-.135-.003-.203-.007h-.009c-1.157-.08-2.196-.546-2.973-.938ZM1.271 2.336c-.3.32-.459.69-.496 1.132-.05.669.071 1.404.393 2.32.518 1.49 1.3 2.881 2.464 4.376 1.414 1.803 3.117 3.224 5.058 4.226.714.363 1.666.789 2.69.859.052.003.108.006.161.006.553 0 .98-.193 1.339-.605.195-.249.409-.47.616-.685l.036-.038c.147-.15.284-.292.415-.442.38-.423.384-.855.01-1.255l-1.882-2.003c-.122-.14-.315-.296-.552-.296-.194 0-.39.103-.571.296L9.785 11.47c-.053.057-.215.227-.465.227a.62.62 0 0 1-.32-.094l-.017-.01a3.775 3.775 0 0 0-.343-.2c-.023-.011-.045-.024-.068-.036-.114-.062-.232-.125-.344-.203-1.086-.735-2.071-1.69-3.007-2.922-.522-.699-.855-1.284-1.096-1.9a.238.238 0 0 0-.004-.013l-.005-.014c-.062-.2-.103-.462.156-.738l.016-.017a17.05 17.05 0 0 0 .86-.892c.05-.051.097-.104.146-.156l.145-.157c.193-.206.293-.416.293-.622 0-.206-.1-.416-.293-.622l-.93-.992-.162-.176-.162-.177-.084-.09c-.181-.197-.353-.383-.534-.562-.178-.193-.371-.29-.562-.29-.193 0-.393.097-.574.283l-1.16 1.238Z" clip-rule="evenodd"/></svg>