<svg width="53" height="53" fill="none" xmlns="http://www.w3.org/2000/svg"><path fill-rule="evenodd" clip-rule="evenodd" d="M37.801 1.562a2.375 2.375 0 0 0-3.244-.869L18.653 9.875H5.125a4.75 4.75 0 0 0-4.75 4.75v33.25a4.75 4.75 0 0 0 4.75 4.75h42.75a4.75 4.75 0 0 0 4.75-4.75v-33.25a4.75 4.75 0 0 0-4.75-4.75H42.6l-4.799-8.313ZM31.25 31.25c0-4.699 3.965-8.313 8.61-8.313h8.015v16.625h-8.016c-4.644 0-8.609-3.613-8.609-8.312Z" fill="#C4C4C4"/><path fill-rule="evenodd" clip-rule="evenodd" d="M37.801 1.562a2.375 2.375 0 0 0-3.244-.869L18.653 9.875H5.125a4.75 4.75 0 0 0-4.75 4.75v33.25a4.75 4.75 0 0 0 4.75 4.75h42.75a4.75 4.75 0 0 0 4.75-4.75v-33.25a4.75 4.75 0 0 0-4.75-4.75H42.6l-4.799-8.313ZM31.25 31.25c0-4.699 3.965-8.313 8.61-8.313h8.015v16.625h-8.016c-4.644 0-8.609-3.613-8.609-8.312Z" fill="url(#a)"/><defs><linearGradient id="a" x1="7.532" y1="9.331" x2="46.837" y2="45.78" gradientUnits="userSpaceOnUse"><stop stop-color="#00FFA3" stop-opacity=".6"/><stop offset="1" stop-color="#4B48F1"/></linearGradient></defs></svg>