<svg width="57" height="57" fill="none" xmlns="http://www.w3.org/2000/svg"><path fill-rule="evenodd" clip-rule="evenodd" d="M28.507 7.222 9.5 12.77v11.014A28.882 28.882 0 0 0 27.884 50.69l.618.23.62-.23A28.877 28.877 0 0 0 47.49 24.52l.009-.73V12.77L28.507 7.222ZM36.812 28.5a2.375 2.375 0 0 1 .278 4.734l-.278.016H25.924l1.881 1.883a2.375 2.375 0 0 1-3.135 3.556l-.223-.197-5.938-5.938a2.408 2.408 0 0 1-.526-.797 2.329 2.329 0 0 1-.17-.836v-.046a2.386 2.386 0 0 1 .347-1.237 2.5 2.5 0 0 1 .12-.177l.014-.02.025-.031a2.383 2.383 0 0 1 1.592-.894l.066-.007c.056-.005.112-.008.168-.009h16.669Zm-4.481-12.565.223.198 5.938 5.938a2.408 2.408 0 0 1 .526.797 2.329 2.329 0 0 1 .17.882 2.386 2.386 0 0 1-.347 1.237 2.5 2.5 0 0 1-.399.49 2.396 2.396 0 0 1-.89.53 2.463 2.463 0 0 1-.462.102l-.075.007a2.423 2.423 0 0 1-.123.008l-.08.001H20.189a2.375 2.375 0 0 1-.277-4.734l.276-.016h10.89l-1.881-1.883a2.375 2.375 0 0 1 3.135-3.557Z" fill="#C4C4C4"/><path fill-rule="evenodd" clip-rule="evenodd" d="M28.507 7.222 9.5 12.77v11.014A28.882 28.882 0 0 0 27.884 50.69l.618.23.62-.23A28.877 28.877 0 0 0 47.49 24.52l.009-.73V12.77L28.507 7.222ZM36.812 28.5a2.375 2.375 0 0 1 .278 4.734l-.278.016H25.924l1.881 1.883a2.375 2.375 0 0 1-3.135 3.556l-.223-.197-5.938-5.938a2.408 2.408 0 0 1-.526-.797 2.329 2.329 0 0 1-.17-.836v-.046a2.386 2.386 0 0 1 .347-1.237 2.5 2.5 0 0 1 .12-.177l.014-.02.025-.031a2.383 2.383 0 0 1 1.592-.894l.066-.007c.056-.005.112-.008.168-.009h16.669Zm-4.481-12.565.223.198 5.938 5.938a2.408 2.408 0 0 1 .526.797 2.329 2.329 0 0 1 .17.882 2.386 2.386 0 0 1-.347 1.237 2.5 2.5 0 0 1-.399.49 2.396 2.396 0 0 1-.89.53 2.463 2.463 0 0 1-.462.102l-.075.007a2.423 2.423 0 0 1-.123.008l-.08.001H20.189a2.375 2.375 0 0 1-.277-4.734l.276-.016h10.89l-1.881-1.883a2.375 2.375 0 0 1 3.135-3.557Z" fill="url(#a)"/><path fill-rule="evenodd" clip-rule="evenodd" d="M27.845 2.47a2.375 2.375 0 0 1 1.331 0l21.365 6.241a2.375 2.375 0 0 1 1.709 2.28V23.79a33.626 33.626 0 0 1-22.996 31.901 2.375 2.375 0 0 1-1.502 0A33.631 33.631 0 0 1 4.75 23.784V10.991c0-1.055.696-1.984 1.71-2.28l21.385-6.24Zm.662 4.752L9.5 12.77v11.014A28.882 28.882 0 0 0 27.884 50.69l.618.23.62-.23A28.877 28.877 0 0 0 47.49 24.52l.009-.73V12.77L28.507 7.222Zm9.985 14.849c.068.067.131.139.19.214l-.19-.214Zm.687 1.881.008-.202v.079a2.423 2.423 0 0 1-.008.123Zm-.737 1.526c-.053.05-.108.097-.165.142l.215-.19a2.809 2.809 0 0 1-.05.048Zm-19.72 3.527a2.38 2.38 0 0 0-.214.19l.215-.19Zm-.91 1.826v.044l.01-.212a2.368 2.368 0 0 0-.01.168Zm.522 1.53.174.193-.19-.214.016.02Z" fill="#C4C4C4"/><path fill-rule="evenodd" clip-rule="evenodd" d="M27.845 2.47a2.375 2.375 0 0 1 1.331 0l21.365 6.241a2.375 2.375 0 0 1 1.709 2.28V23.79a33.626 33.626 0 0 1-22.996 31.901 2.375 2.375 0 0 1-1.502 0A33.631 33.631 0 0 1 4.75 23.784V10.991c0-1.055.696-1.984 1.71-2.28l21.385-6.24Zm.662 4.752L9.5 12.77v11.014A28.882 28.882 0 0 0 27.884 50.69l.618.23.62-.23A28.877 28.877 0 0 0 47.49 24.52l.009-.73V12.77L28.507 7.222Zm9.985 14.849c.068.067.131.139.19.214l-.19-.214Zm.687 1.881.008-.202v.079a2.423 2.423 0 0 1-.008.123Zm-.737 1.526c-.053.05-.108.097-.165.142l.215-.19a2.809 2.809 0 0 1-.05.048Zm-19.72 3.527a2.38 2.38 0 0 0-.214.19l.215-.19Zm-.91 1.826v.044l.01-.212a2.368 2.368 0 0 0-.01.168Zm.522 1.53.174.193-.19-.214.016.02Z" fill="url(#b)"/><defs><linearGradient id="a" x1="11.256" y1="11.535" x2="50.828" y2="44.154" gradientUnits="userSpaceOnUse"><stop stop-color="#00FFA3" stop-opacity=".6"/><stop offset="1" stop-color="#4B48F1"/></linearGradient><linearGradient id="b" x1="11.256" y1="11.535" x2="50.828" y2="44.154" gradientUnits="userSpaceOnUse"><stop stop-color="#00FFA3" stop-opacity=".6"/><stop offset="1" stop-color="#4B48F1"/></linearGradient></defs></svg>