<svg width="10" height="10" viewBox="0 0 10 10" fill="none" xmlns="http://www.w3.org/2000/svg">
<path d="M9.16526 3.7099C9.1384 3.63079 9.08895 3.56127 9.02303 3.50993C8.95711 3.45859 8.8776 3.42768 8.79432 3.42101L6.35799 3.22742L5.30371 0.893664C5.27014 0.818498 5.21552 0.754656 5.14647 0.709842C5.07741 0.665028 4.99686 0.641159 4.91453 0.641113C4.83221 0.641068 4.75163 0.66485 4.68252 0.709587C4.61342 0.754325 4.55873 0.818107 4.52508 0.893236L3.4708 3.22742L1.03447 3.42101C0.952614 3.4275 0.874359 3.45743 0.809067 3.50722C0.743775 3.55702 0.694211 3.62457 0.666305 3.7018C0.638399 3.77902 0.633332 3.86265 0.651712 3.94268C0.670091 4.02271 0.711137 4.09575 0.769941 4.15306L2.57037 5.90819L1.93362 8.66546C1.91428 8.74892 1.92048 8.83627 1.9514 8.91616C1.98233 8.99606 2.03655 9.06481 2.10704 9.11351C2.17752 9.1622 2.26102 9.18859 2.34669 9.18924C2.43236 9.1899 2.51625 9.16478 2.58747 9.11717L4.91439 7.56589L7.24132 9.11717C7.31412 9.1655 7.39996 9.19038 7.48732 9.18846C7.57467 9.18655 7.65935 9.15793 7.72995 9.10645C7.80056 9.05498 7.85371 8.98312 7.88225 8.90053C7.91079 8.81795 7.91336 8.72861 7.88961 8.64452L7.10799 5.90948L9.04645 4.16503C9.17338 4.0505 9.21996 3.87187 9.16526 3.7099Z" fill="white"/>
</svg>
