<svg width="174" height="187" viewBox="0 0 174 187" fill="none" xmlns="http://www.w3.org/2000/svg">
<path d="M128.359 59.8828V39.9609C128.359 38.4492 127.137 37.2266 125.625 37.2266H120.098V26.5508L128.934 31.8438C132.23 34.0352 135.684 35.1289 138.898 35.1289C140.539 35.1515 142.168 34.8474 143.691 34.2345C145.213 33.6215 146.598 32.7119 147.766 31.5586C153.125 26.2539 153.172 17.6055 147.867 12.2461C145.453 9.80078 142.352 8.57422 138.957 8.57422C135.805 8.57422 132.402 9.63281 129.059 11.75L120.098 16.9688V3.63281C120.098 2.12109 118.875 0.898438 117.363 0.898438H93.3164C91.8086 0.898438 90.582 2.12109 90.582 3.63281V19.1211H85.0586C83.5469 19.1211 82.3242 20.3437 82.3242 21.8555C82.3242 23.3633 83.5469 24.5898 85.0586 24.5898H90.582V37.2227H85.0586C83.5469 37.2227 82.3242 38.4492 82.3242 39.957V59.918C76.3968 62.0064 70.7754 64.8782 65.6094 68.457C63.0547 67.4492 60.3359 66.9336 57.5898 66.9375H57.4023C51.4023 66.9609 45.6836 69.4805 41.6133 73.8906C38.4184 77.3395 36.414 81.7221 35.8945 86.3945C34.9001 85.8893 33.8445 85.5151 32.7539 85.2812C28.8945 84.4492 24.8711 85.5938 22.0234 88.3359C21.8828 88.4688 21.7422 88.6055 21.6055 88.7422C21.4687 88.8828 21.332 89.0234 21.207 89.168C19.8471 90.6351 18.867 92.4128 18.3523 94.3459C17.8375 96.279 17.8037 98.3087 18.2539 100.258C18.5 101.34 18.8828 102.391 19.3945 103.375C14.6473 103.93 10.2113 106.02 6.76171 109.328C-1.92189 117.68 -2.19142 131.492 6.16405 140.176C6.44139 140.465 6.72655 140.746 7.01952 141.02C10.5179 144.265 14.9791 146.281 19.7265 146.762C19.2378 147.754 18.8756 148.804 18.6484 149.887C18.2305 151.843 18.2975 153.871 18.8436 155.795C19.3897 157.72 20.3982 159.481 21.7812 160.926C21.914 161.066 22.0508 161.203 22.1875 161.34C22.3242 161.477 22.4687 161.613 22.6133 161.742C24.8086 163.781 27.6914 164.918 30.6875 164.926C31.5976 164.926 32.5039 164.824 33.3906 164.617C34.4844 164.367 35.5391 163.973 36.5273 163.445C37.1171 168.117 39.1948 172.475 42.4531 175.875C44.4796 178 46.9185 179.69 49.6207 180.84C52.3229 181.99 55.2313 182.576 58.168 182.562H58.3555C61.289 182.543 64.1875 181.938 66.8789 180.773C69.3945 182.652 72.0508 184.336 74.8242 185.816C75.2031 186.004 75.6211 186.102 76.043 186.105H134.75C135.172 186.105 135.59 186.004 135.969 185.816C159.234 174.219 173.937 150.461 173.93 124.469C173.93 95.4648 155.684 69.6055 128.359 59.8828ZM131.855 16.4492C131.887 16.4297 131.914 16.4102 131.945 16.3906C133.723 15.2617 139.836 11.9023 143.98 16.0898C147.16 19.3047 147.133 24.4922 143.918 27.6719C141.699 29.8672 137.379 30.9141 131.914 27.2578C131.875 27.2344 131.84 27.2109 131.801 27.1875L122.742 21.7578L131.855 16.4492ZM96.0508 6.36719H114.629V37.2227H96.0508V6.36719ZM87.793 42.6914H122.891V59.1211H87.793V42.6914ZM45.6172 77.6133C47.1263 75.9799 48.9557 74.6749 50.9914 73.7797C53.0271 72.8845 55.2254 72.4183 57.4492 72.4102H57.5898C59.7891 72.4006 61.9671 72.8398 63.9908 73.7008C66.0145 74.5619 67.8413 75.8267 69.3594 77.418C70.898 79.018 72.0955 80.9141 72.8791 82.991C73.6627 85.0679 74.0162 87.2823 73.918 89.5C73.8633 90.5664 73.6172 91.6094 73.1836 92.582C73.1758 92.6055 73.164 92.6328 73.1523 92.6562C73.0937 92.7852 73.0351 92.9141 72.9687 93.0469L72.0351 94.8906L70.8633 97.1758C70.8242 97.2539 70.7851 97.3359 70.7539 97.4141L63.3516 112.027C62.3446 111.593 61.2887 111.282 60.207 111.102L60.168 102.449C60.1601 100.945 58.9375 99.7266 57.4336 99.7266H57.4219C55.9101 99.7344 54.6914 100.965 54.6992 102.473L54.7422 111.262C53.8672 111.465 53.0156 111.754 52.1992 112.121L44.664 97.832C44.6133 97.6836 44.5508 97.5352 44.4765 97.3945L42.2851 93.2852C42.1484 92.9648 41.9961 92.6562 41.8398 92.3516C41.5156 91.5271 41.3206 90.6574 41.2617 89.7734C41.1261 87.5572 41.4423 85.3365 42.191 83.2462C42.9397 81.1559 44.1053 79.2395 45.6172 77.6133ZM80.1758 122.094H80.1445L71.4922 122.188C71.2928 121.112 70.9649 120.064 70.5156 119.066L85.0547 111.398C85.0781 111.387 85.1055 111.375 85.1328 111.363L86.5273 110.621L89.3359 109.141C90.4255 108.558 91.6266 108.215 92.8594 108.133C97.3359 107.859 101.73 109.434 105.016 112.488C111.625 118.645 111.992 128.988 105.836 135.594C105.637 135.812 105.426 136.027 105.211 136.23C103.612 137.77 101.716 138.968 99.6386 139.752C97.5615 140.536 95.3467 140.889 93.1289 140.789C92.1015 140.734 91.0859 140.5 90.1406 140.094L89.7539 139.918C89.6992 139.891 89.6406 139.867 89.5859 139.84L87.8555 138.965L85.332 137.676C85.2773 137.645 85.2187 137.625 85.164 137.598L70.6015 130.223C70.957 129.398 71.2305 128.539 71.4219 127.66L80.2031 127.562C80.5623 127.561 80.9175 127.488 81.2486 127.349C81.5797 127.21 81.8801 127.007 82.1326 126.751C82.3851 126.496 82.5848 126.193 82.7202 125.86C82.8557 125.528 82.9242 125.172 82.9219 124.812C82.9177 124.088 82.6262 123.395 82.1113 122.885C81.5964 122.375 80.9003 122.091 80.1758 122.094ZM85.4219 143.859L87.1406 144.734C87.207 144.77 87.2773 144.801 87.3437 144.832C87.3906 144.852 87.4375 144.871 87.4805 144.891C87.6211 144.957 87.7578 145.023 87.8984 145.082C90.0586 146.129 91.6367 148.094 92.1875 150.43C92.7109 152.645 92.0898 154.977 90.5312 156.633C90.4492 156.727 90.3594 156.816 90.2695 156.91C90.1797 157.004 90.0937 157.086 90 157.172C89.2424 157.916 88.3114 158.459 87.2912 158.753C86.2709 159.047 85.1935 159.082 84.1562 158.855C81.8125 158.316 79.8359 156.75 78.7773 154.59C78.6797 154.371 78.5781 154.156 78.4687 153.938C78.4375 153.871 78.4101 153.805 78.375 153.738L78.2461 153.496L68.6914 135.387L85.4219 143.859ZM79.8672 163.082C80.8633 163.594 81.9258 163.969 83.0234 164.203C83.8476 164.379 84.6914 164.469 85.539 164.469C88.6015 164.461 91.543 163.273 93.7539 161.148C93.8945 161.016 94.0351 160.879 94.168 160.742C94.3047 160.605 94.4414 160.461 94.5703 160.316C95.9296 158.85 96.9093 157.073 97.424 155.14C97.9388 153.208 97.9729 151.179 97.5234 149.23C97.2786 148.15 96.8979 147.106 96.3906 146.121C101.129 145.563 105.556 143.475 109 140.172C117.684 131.82 117.949 118.008 109.594 109.324C109.316 109.035 109.031 108.754 108.738 108.48C105.242 105.237 100.784 103.223 96.0391 102.742C96.5351 101.746 96.9023 100.691 97.1289 99.6016C97.5465 97.6462 97.4794 95.6183 96.9333 93.6948C96.3872 91.7713 95.3789 90.0107 93.9961 88.5664C93.8633 88.4258 93.7265 88.2852 93.5898 88.1484C93.4531 88.0156 93.3086 87.875 93.164 87.7461C91.7399 86.4205 90.0119 85.4651 88.132 84.9638C86.2521 84.4625 84.2779 84.4307 82.3828 84.8711C81.2845 85.125 80.2245 85.523 79.2305 86.0547C79.1735 85.6193 79.1045 85.1855 79.0234 84.7539C82.6719 82.3359 86.625 80.4141 90.7773 79.0391H120.82C145.664 87.3359 159.078 114.199 150.781 139.039C146.865 150.775 138.516 160.516 127.516 166.18H84.1015C82.6289 165.34 81.1992 164.422 79.8242 163.426C79.8398 163.312 79.8555 163.199 79.8672 163.082ZM83.6055 90.2031C85.707 89.707 87.914 90.3008 89.4765 91.7891C89.5703 91.8711 89.6601 91.9609 89.7539 92.0508C89.8476 92.1445 89.9297 92.2266 90.0195 92.3203C90.8004 93.1232 91.3697 94.1075 91.6765 95.1846C91.9833 96.2618 92.018 97.3983 91.7773 98.4922C91.5215 99.6621 91.0056 100.759 90.2678 101.703C89.5301 102.646 88.5894 103.411 87.5156 103.941C87.4531 103.969 87.3906 104 87.3281 104.031C87.2305 104.078 87.1289 104.125 87.0273 104.172C86.957 104.199 86.8906 104.234 86.8242 104.27L83.9219 105.812L68.5156 113.938L76.8984 97.3906L77.9101 95.4141C77.9492 95.3359 77.9844 95.2578 78.0156 95.1797C78.0469 95.1016 78.0859 95.0234 78.1172 94.9453C78.1562 94.8555 78.1953 94.7695 78.2344 94.6797C79.2461 92.4453 81.2226 90.793 83.6055 90.2031ZM66.2617 124.742C66.2617 129.375 62.5078 133.133 57.8789 133.133C53.25 133.133 49.4961 129.375 49.4961 124.742C49.4961 120.109 53.25 116.352 57.8789 116.352C62.5078 116.352 66.2617 120.109 66.2617 124.742ZM25.2461 92.8516C25.332 92.7617 25.418 92.668 25.5078 92.5781C25.5976 92.4883 25.6836 92.4023 25.7773 92.3164C27.3164 90.8047 29.5117 90.1719 31.6211 90.6328C32.7331 90.8875 33.7773 91.3782 34.6831 92.0717C35.5889 92.7652 36.3351 93.6453 36.8711 94.6523C37.043 95.0547 37.2266 95.457 37.4336 95.8477L47.0664 114.117L33.0976 107.039C33.043 107.008 32.9883 106.973 32.9336 106.945L28.6367 104.75C28.5703 104.715 28.5 104.684 28.4297 104.656C27.2329 104.179 26.1684 103.421 25.326 102.446C24.4837 101.471 23.8882 100.308 23.5898 99.0547C23.332 97.9644 23.3483 96.8272 23.6373 95.7447C23.9263 94.6622 24.4791 93.6682 25.2461 92.8516ZM10.7422 137.012C4.1367 130.859 3.76952 120.512 9.92186 113.906C10.125 113.687 10.3359 113.477 10.5469 113.27C12.1469 111.731 14.0429 110.533 16.1199 109.75C18.1968 108.966 20.4112 108.613 22.6289 108.711C23.8672 108.773 25.0742 109.098 26.1719 109.66L45.1562 119.277C44.7291 120.273 44.4197 121.315 44.2344 122.383L35.5625 122.461C34.0547 122.469 32.8359 123.699 32.8398 125.207C32.8415 125.566 32.914 125.922 33.0531 126.253C33.1923 126.585 33.3953 126.885 33.6507 127.138C33.9061 127.391 34.2088 127.591 34.5415 127.727C34.8742 127.863 35.2305 127.932 35.5898 127.93H35.6133L44.3789 127.852C44.582 128.738 44.8711 129.605 45.2422 130.434L30.8125 138.047C30.7578 138.07 30.6992 138.094 30.6445 138.125L28.2109 139.418L26.4258 140.359C26.3633 140.395 26.3008 140.422 26.2344 140.453C26.1172 140.508 26.0039 140.562 25.8867 140.621C24.9453 141.047 23.9336 141.301 22.8984 141.367C18.4219 141.641 14.0273 140.066 10.7422 137.012ZM37.8672 154.074C37.832 154.141 37.8047 154.207 37.7734 154.277C37.6719 154.492 37.5703 154.711 37.4805 154.93C36.974 156.004 36.2349 156.952 35.3168 157.705C34.3986 158.459 33.3244 158.998 32.1719 159.285C31.1385 159.529 30.0606 159.512 29.0356 159.235C28.0106 158.958 27.0706 158.43 26.3008 157.699C26.207 157.613 26.1172 157.527 26.0273 157.438C25.9375 157.348 25.8476 157.258 25.7617 157.168C24.9811 156.365 24.4118 155.381 24.105 154.304C23.7983 153.226 23.7635 152.09 24.0039 150.996C24.2573 149.837 24.7661 148.748 25.4932 147.811C26.2203 146.873 27.1474 146.109 28.207 145.574C28.3398 145.516 28.4687 145.453 28.5976 145.387C28.6484 145.363 28.6992 145.34 28.7539 145.316C28.8242 145.285 28.8906 145.254 28.957 145.219L30.8281 144.227L47.2461 135.562L37.9883 153.844L37.8672 154.074ZM58.3125 177.094H58.1719C55.9717 177.103 53.7928 176.664 51.7684 175.802C49.744 174.94 47.9168 173.674 46.3984 172.082C44.8603 170.482 43.6635 168.586 42.8805 166.509C42.0975 164.432 41.7448 162.217 41.8437 160C41.8906 159.055 42.0898 158.121 42.4414 157.242C42.5586 156.996 42.6719 156.742 42.7773 156.488C42.7809 156.477 42.7862 156.467 42.793 156.457L42.8555 156.332L44.914 152.316C44.9648 152.215 45.0078 152.113 45.0469 152.008L52.4062 137.48C53.25 137.844 54.125 138.121 55.0234 138.309L55.0664 147.059C55.0742 148.562 56.2969 149.781 57.8008 149.781H57.8164C58.5416 149.777 59.2354 149.485 59.7452 148.969C60.2551 148.454 60.5392 147.756 60.5351 147.031L60.4961 138.352C61.5508 138.148 62.582 137.82 63.5625 137.379L71.1641 151.789C71.2031 151.895 71.25 151.996 71.3008 152.098L73.4492 156.121L73.4922 156.203C73.4961 156.211 73.5 156.215 73.5039 156.223C73.6133 156.48 73.7305 156.734 73.8555 156.98C74.2187 157.855 74.4375 158.785 74.5 159.73C74.7734 164.207 73.1992 168.602 70.1445 171.883C68.6369 173.519 66.8079 174.826 64.772 175.722C62.7361 176.619 60.5371 177.086 58.3125 177.094ZM158.762 158.086C152.709 167.677 144.191 175.465 134.098 180.637H76.7109C75.0742 179.727 73.4883 178.734 71.9609 177.66C72.7356 177.027 73.4664 176.342 74.1484 175.609C75.9272 173.691 77.3481 171.47 78.3437 169.051C79.5859 169.898 80.875 170.672 82.207 171.363C82.5859 171.551 83.0078 171.652 83.4297 171.652H128.172C128.598 171.652 129.016 171.551 129.395 171.363C155.535 158.324 166.16 126.562 153.125 100.422C149.988 94.1315 145.629 88.5294 140.302 83.9431C134.976 79.3568 128.788 75.8783 122.102 73.7109C121.831 73.6219 121.547 73.5771 121.262 73.5781H90.3398C90.0547 73.5781 89.7695 73.6211 89.5 73.7109C85.207 75.0938 81.1016 77 77.2734 79.3867C75.8056 76.2973 73.6343 73.5949 70.9336 71.4961C75.5018 68.6021 80.41 66.2838 85.5469 64.5938H125.246C158.316 75.5664 176.227 111.273 165.25 144.344C163.648 149.168 161.473 153.781 158.762 158.086Z" fill="url(#paint0_linear_34_4129)"/>
<defs>
<linearGradient id="paint0_linear_34_4129" x1="-4.59049" y1="30.1127" x2="177.544" y2="37.2159" gradientUnits="userSpaceOnUse">
<stop stop-color="#C09E6C"/>
<stop offset="0.426246" stop-color="#FFEBCC"/>
<stop offset="1" stop-color="#BF936B"/>
</linearGradient>
</defs>
</svg>
