<svg xmlns="http://www.w3.org/2000/svg" width="48" height="49" fill="none"><path fill="url(#a)" fill-rule="evenodd" d="m19.485 40.725-5.697 1.353-1.872-5.55-5.611-1.676 1.153-5.742-4.02-4.258 3.87-4.395-1.354-5.698 5.549-1.872 1.677-5.61 5.742 1.152 4.258-4.02 4.395 3.87 5.698-1.354 1.872 5.55 5.61 1.677-1.152 5.741 4.02 4.258-3.87 4.396 1.353 5.697-5.548 1.872-1.678 5.611-5.741-1.153-4.258 4.02-4.396-3.87Z" clip-rule="evenodd"/><path stroke="#fff" d="m16.779 25.578 4.872 4.263 10.96-10.962"/><defs><linearGradient id="a" x1="54.047" x2="28.826" y1="26.6" y2="-1.756" gradientUnits="userSpaceOnUse"><stop stop-color="#CDCDD1"/><stop offset="1" stop-color="#E2E3E7"/></linearGradient></defs></svg>