<svg xmlns="http://www.w3.org/2000/svg" width="48" height="48" fill="none"><path fill="url(#a)" fill-rule="evenodd" d="m19.486 39.754-5.698 1.353-1.872-5.549-5.611-1.677 1.153-5.741-4.02-4.258 3.87-4.396-1.354-5.698 5.55-1.872 1.676-5.61 5.742 1.153 4.258-4.02 4.395 3.869 5.698-1.353 1.872 5.549 5.61 1.677-1.152 5.741 4.02 4.258-3.87 4.396 1.354 5.698-5.55 1.871-1.676 5.611-5.742-1.153-4.258 4.02-4.395-3.869Z" clip-rule="evenodd"/><path stroke="#fff" d="m16.779 24.607 4.871 4.263 10.962-10.961"/><defs><linearGradient id="a" x1="1.379" x2="17.357" y1="16.073" y2="46.488" gradientUnits="userSpaceOnUse"><stop stop-color="#F0D9D4"/><stop offset="1" stop-color="#E9C9C2"/></linearGradient></defs></svg>