<svg xmlns="http://www.w3.org/2000/svg" width="35" height="37" fill="none"><path fill="url(#a)" d="M23.394 13.453a7.203 7.203 0 0 0-5.027-2.043c-1.88 0-3.684.733-5.027 2.043a7.031 7.031 0 0 0-2.07 4.994 7.01 7.01 0 0 0 2.097 4.983 7.193 7.193 0 0 0 5.037 2.077 7.194 7.194 0 0 0 5.049-2.046c.05-.05.245-.262.59-.641l-3.355-3.32c-.345.398-.526.605-.549.623a2.434 2.434 0 0 1-3.427 0 2.376 2.376 0 0 1-.031-3.364 2.434 2.434 0 0 1 3.4.027l8.965 8.866a13.465 13.465 0 0 1-4.8 4.206 13.52 13.52 0 0 1-6.205 1.53 13.34 13.34 0 0 1-6.487-1.68 13.283 13.283 0 0 1-4.842-4.619 13.222 13.222 0 0 1 3.862-17.932A13.335 13.335 0 0 1 23.5 6.045c2.07.929 3.868 2.37 5.221 4.187-.393.458-1.404 1.598-3.032 3.42l3.322 3.256 5.476-6.12a17.977 17.977 0 0 0-6.074-7.353 18.083 18.083 0 0 0-18.376-1.417 18.006 18.006 0 0 0-7.137 6.334 17.91 17.91 0 0 0-.705 18.352 17.991 17.991 0 0 0 6.63 6.858 18.076 18.076 0 0 0 9.217 2.518c4.532 0 8.281-1.404 11.948-4.516a19.214 19.214 0 0 0 4.914-6.703l-11.51-11.409Z"/><defs><linearGradient id="a" x1="34.374" x2="-.507" y1="19.159" y2="19.159" gradientUnits="userSpaceOnUse"><stop stop-color="#fff"/><stop offset="1" stop-color="#fff"/></linearGradient></defs></svg>