<svg xmlns="http://www.w3.org/2000/svg" width="33" height="35" fill="none"><path fill="#fff" d="m27.772 21.31-6.76 6.528-10.793-10.357L20.992 7.14l6.781 6.547c1.203 1.157 3.145 1.157 4.337-.01a2.917 2.917 0 0 0-.01-4.208L23.185.864c-1.203-1.157-3.145-1.152-4.337.01-.005.004-.218.176-.313.267L6.133 13.043V5.93c0-1.642-1.374-2.975-3.066-2.975C1.375 2.955.005 4.288 0 5.93v23.119c0 1.642 1.375 2.975 3.067 2.975 1.692 0 3.066-1.334 3.066-2.975v-7.13l12.402 11.903.313.303c1.192 1.162 3.134 1.166 4.337.01l8.914-8.607a2.917 2.917 0 0 0 .01-4.208c-1.197-1.161-3.14-1.167-4.337-.01Z"/><path fill="#fff" d="M21.04 20.503c1.708 0 3.093-1.343 3.093-3s-1.385-3-3.093-3-3.093 1.343-3.093 3 1.385 3 3.093 3Z"/></svg>