<svg width="26" height="20" viewBox="0 0 26 20" fill="none" xmlns="http://www.w3.org/2000/svg">
<g clip-path="url(#clip0_6389_2844)">
<path d="M26 10.3601C26 6.81805 22.8 3.77906 18.371 3.05206C16.1811 1.49997 13.5549 0.683391 10.871 0.720055C4.878 0.720055 0 4.49106 0 9.12606C0.0175018 10.0833 0.223756 11.0277 0.606939 11.9051C0.990123 12.7825 1.5427 13.5756 2.233 14.2391L1.653 18.8761C1.62894 19.0688 1.66153 19.2644 1.74679 19.4389C1.83206 19.6134 1.9663 19.7593 2.13313 19.8588C2.29996 19.9583 2.49215 20.0071 2.68623 19.9991C2.88031 19.9912 3.06787 19.9269 3.226 19.8141L7.135 17.0221C8.35157 17.3634 9.60946 17.535 10.873 17.5321C11.5852 17.5313 12.2962 17.4762 13 17.3671C15.1559 17.9779 17.4372 17.991 19.6 17.4051L22.972 19.8131C23.1301 19.9258 23.3175 19.99 23.5115 19.998C23.7055 20.006 23.8975 19.9573 24.0643 19.858C24.2311 19.7586 24.3654 19.6129 24.4507 19.4385C24.5361 19.2642 24.5688 19.0687 24.545 18.8761L24.045 14.8761C25.2655 13.6866 25.9679 12.064 26 10.3601ZM7.264 14.9701C7.11519 14.9218 6.95716 14.9092 6.80258 14.9332C6.64801 14.9572 6.50122 15.017 6.374 15.1081L3.921 16.8601L4.28 13.9871C4.29997 13.8272 4.28104 13.6649 4.2248 13.514C4.16856 13.363 4.07669 13.2279 3.957 13.1201C3.36388 12.6332 2.88221 12.0247 2.54459 11.3357C2.20696 10.6466 2.02124 9.89309 2 9.12606C2 5.59406 5.98 2.72005 10.874 2.72005C13.1955 2.67656 15.4679 3.39175 17.346 4.75705C17.357 4.76605 17.363 4.77905 17.374 4.78805C18.2621 5.45026 18.9607 6.33406 19.4 7.35105C19.41 7.37705 19.418 7.40305 19.428 7.42905C19.4905 7.58845 19.5445 7.751 19.59 7.91606C19.61 7.99206 19.623 8.07105 19.639 8.14805C19.665 8.26805 19.694 8.38705 19.71 8.50705C19.7666 8.9084 19.7666 9.31571 19.71 9.71706C19.696 9.81706 19.674 9.91706 19.654 10.0241C19.638 10.1051 19.623 10.1871 19.602 10.2671C19.565 10.4101 19.522 10.5511 19.472 10.6901L19.445 10.7641C18.605 12.9951 16.103 14.8141 12.885 15.3571H12.879C12.2182 15.4693 11.5492 15.5265 10.879 15.5281C9.6522 15.5337 8.43219 15.3458 7.264 14.9711V14.9701ZM22.329 13.7621C22.2093 13.8699 22.1174 14.005 22.0612 14.156C22.005 14.3069 21.986 14.4692 22.006 14.6291L22.284 16.8591L20.37 15.4931C20.2006 15.3717 19.9974 15.3063 19.789 15.3061C19.6841 15.3063 19.5798 15.3228 19.48 15.3551C18.8564 15.5572 18.2143 15.6966 17.563 15.7711C18.9502 14.9692 20.0962 13.809 20.881 12.4121L20.901 12.3761C21.0192 12.1567 21.126 11.9314 21.221 11.7011C21.252 11.6261 21.28 11.5491 21.308 11.4731C21.377 11.2861 21.444 11.0981 21.497 10.9051C21.537 10.7611 21.565 10.6141 21.597 10.4681C21.629 10.3221 21.661 10.1871 21.681 10.0441C21.7252 9.74003 21.7479 9.43327 21.749 9.12606C21.7485 8.84517 21.7301 8.56461 21.694 8.28606C21.686 8.22706 21.671 8.16905 21.662 8.11005C21.628 7.89005 21.588 7.67106 21.532 7.45606C21.52 7.41006 21.502 7.36506 21.489 7.31906C21.4257 7.09065 21.3506 6.86568 21.264 6.64506C21.253 6.61806 21.24 6.59205 21.228 6.56505C21.15 6.37605 21.072 6.18706 20.978 6.00306C21.828 6.38905 22.5577 6.99785 23.0897 7.76491C23.6217 8.53198 23.9363 9.42872 24 10.3601C23.9775 11.0131 23.817 11.654 23.5289 12.2405C23.2409 12.827 22.832 13.3459 22.329 13.7631V13.7621Z" fill="#FFAD72"/>
</g>
<defs>
<clipPath id="clip0_6389_2844">
<rect width="26" height="20" fill="white"/>
</clipPath>
</defs>
</svg>
