<svg width="28" height="25" viewBox="0 0 28 25" fill="none" xmlns="http://www.w3.org/2000/svg">
<path d="M26.9996 24.0001C26.826 24 26.6555 23.9548 26.5047 23.8689C26.3539 23.783 26.2281 23.6593 26.1396 23.5101C23.3696 18.8901 17.9996 16.2401 10.9996 16.0001V21.0001C10.999 21.2015 10.9376 21.3981 10.8234 21.564C10.7092 21.73 10.5475 21.8575 10.3596 21.9301C10.1714 22.0027 9.96565 22.0168 9.76933 21.9704C9.57302 21.924 9.39533 21.8193 9.25959 21.6701L0.259592 11.6701C0.0937521 11.4863 0.00195312 11.2476 0.00195312 11.0001C0.00195312 10.7525 0.0937521 10.5138 0.259592 10.3301L9.25959 0.330067C9.39533 0.180837 9.57302 0.0761472 9.76933 0.0297453C9.96565 -0.0166567 10.1714 -0.00260045 10.3596 0.0700676C10.5475 0.142586 10.7092 0.270172 10.8234 0.436117C10.9376 0.602061 10.999 0.798626 10.9996 1.00007V6.00007C15.4646 6.13793 19.709 7.97326 22.8677 11.132C26.0264 14.2907 27.8617 18.5351 27.9996 23.0001C28.0079 23.2245 27.9404 23.4452 27.808 23.6266C27.6755 23.808 27.4859 23.9396 27.2696 24.0001C27.1802 24.0146 27.089 24.0146 26.9996 24.0001ZM9.99959 14.0001C16.4596 14.0001 21.9096 16.0001 25.4896 19.4901C24.5711 16.1147 22.5441 13.1464 19.7345 11.0624C16.925 8.97834 13.4962 7.89976 9.99959 8.00007C9.73438 8.00007 9.48002 7.89471 9.29249 7.70717C9.10495 7.51964 8.99959 7.26528 8.99959 7.00007V3.61007L2.34959 11.0001L8.99959 18.3901V15.0001C8.99959 14.7349 9.10495 14.4805 9.29249 14.293C9.48002 14.1054 9.73438 14.0001 9.99959 14.0001Z" fill="white"/>
</svg>
