<svg width="20" height="20" viewBox="0 0 20 20" fill="none" xmlns="http://www.w3.org/2000/svg">
<path d="M10 0C8.02219 0 6.08879 0.58649 4.4443 1.6853C2.79981 2.78412 1.51809 4.3459 0.761209 6.17317C0.00433284 8.00043 -0.193701 10.0111 0.192152 11.9509C0.578004 13.8907 1.53041 15.6725 2.92894 17.0711C4.32746 18.4696 6.10929 19.422 8.0491 19.8079C9.98891 20.1937 11.9996 19.9957 13.8268 19.2388C15.6541 18.4819 17.2159 17.2002 18.3147 15.5557C19.4135 13.9112 20 11.9778 20 10C20 8.68678 19.7413 7.38642 19.2388 6.17317C18.7363 4.95991 17.9997 3.85752 17.0711 2.92893C16.1425 2.00035 15.0401 1.26375 13.8268 0.761205C12.6136 0.258658 11.3132 0 10 0ZM10 18C8.41775 18 6.87104 17.5308 5.55544 16.6518C4.23985 15.7727 3.21447 14.5233 2.60897 13.0615C2.00347 11.5997 1.84504 9.99113 2.15372 8.43928C2.4624 6.88743 3.22433 5.46197 4.34315 4.34315C5.46197 3.22433 6.88743 2.4624 8.43928 2.15372C9.99113 1.84504 11.5997 2.00346 13.0615 2.60896C14.5233 3.21447 15.7727 4.23984 16.6518 5.55544C17.5308 6.87103 18 8.41775 18 10C18 12.1217 17.1572 14.1566 15.6569 15.6569C14.1566 17.1571 12.1217 18 10 18Z" fill="white"/>
<path d="M10.19 5H9.81C9.06474 5 8.35001 5.29605 7.82303 5.82303C7.29605 6.35001 7 7.06474 7 7.81V8C7 8.26522 7.10536 8.51957 7.29289 8.70711C7.48043 8.89464 7.73478 9 8 9C8.26522 9 8.51957 8.89464 8.70711 8.70711C8.89464 8.51957 9 8.26522 9 8V7.81C9 7.59518 9.08534 7.38915 9.23724 7.23724C9.38915 7.08534 9.59518 7 9.81 7H10.19C10.3021 7.00107 10.4128 7.0251 10.5152 7.07061C10.6176 7.11613 10.7096 7.18216 10.7855 7.26463C10.8614 7.3471 10.9196 7.44425 10.9565 7.55009C10.9934 7.65594 11.0082 7.76822 11 7.88C11.0008 8.0316 10.9591 8.18039 10.8795 8.30944C10.8 8.43849 10.6858 8.54262 10.55 8.61C10.0814 8.83985 9.6873 9.19742 9.41307 9.6415C9.13884 10.0856 8.99565 10.5981 9 11.12C9 11.3852 9.10536 11.6396 9.29289 11.8271C9.48043 12.0146 9.73478 12.12 10 12.12C10.2652 12.12 10.5196 12.0146 10.7071 11.8271C10.8946 11.6396 11 11.3852 11 11.12C10.9992 10.9684 11.0409 10.8196 11.1205 10.6906C11.2 10.5615 11.3142 10.4574 11.45 10.39C12.0182 10.1009 12.4732 9.62964 12.742 9.05154C13.0108 8.47344 13.078 7.82189 12.9329 7.20107C12.7878 6.58026 12.4387 6.02603 11.9414 5.62701C11.4442 5.22799 10.8275 5.00722 10.19 5ZM10.71 13.29L10.56 13.17L10.38 13.08C10.3205 13.0496 10.2562 13.0293 10.19 13.02C10.0617 12.9901 9.92828 12.9901 9.8 13.02L9.62 13.08L9.44 13.17L9.29 13.29C9.19896 13.3851 9.12759 13.4972 9.08 13.62C9.02709 13.7397 8.99977 13.8691 8.99977 14C8.99977 14.1309 9.02709 14.2603 9.08 14.38C9.13064 14.5012 9.20167 14.6128 9.29 14.71C9.38296 14.8037 9.49356 14.8781 9.61542 14.9289C9.73728 14.9797 9.86799 15.0058 10 15.0058C10.132 15.0058 10.2627 14.9797 10.3846 14.9289C10.5064 14.8781 10.617 14.8037 10.71 14.71C10.7983 14.6128 10.8694 14.5012 10.92 14.38C10.9729 14.2603 11.0002 14.1309 11.0002 14C11.0002 13.8691 10.9729 13.7397 10.92 13.62C10.8724 13.4972 10.801 13.3851 10.71 13.29Z" fill="white"/>
</svg>
