<svg width="30" height="18" viewBox="0 0 30 18" fill="none" xmlns="http://www.w3.org/2000/svg">
<path d="M19.0005 9C19.0008 9.79148 18.7663 10.5653 18.3267 11.2234C17.8872 11.8816 17.2623 12.3947 16.5311 12.6977C15.7999 13.0007 14.9953 13.08 14.219 12.9257C13.4427 12.7713 12.7296 12.3902 12.17 11.8306C11.6103 11.2709 11.2292 10.5578 11.0749 9.78155C10.9205 9.00527 10.9999 8.20064 11.3029 7.46946C11.6059 6.73828 12.1189 6.11338 12.7771 5.67381C13.4353 5.23424 14.2091 4.99975 15.0005 5C16.0614 5 17.0788 5.42143 17.829 6.17157C18.5791 6.92172 19.0005 7.93913 19.0005 9Z" stroke="#55FFC2" stroke-width="2" stroke-linecap="round" stroke-linejoin="round"/>
<path d="M1 9C8.73828 19.6667 21.2617 19.6667 29 9C21.2617 -1.66667 8.73828 -1.66667 1 9Z" stroke="#55FFC2" stroke-width="2" stroke-linecap="round" stroke-linejoin="round"/>
</svg>
