<svg width="217" height="43" fill="none" xmlns="http://www.w3.org/2000/svg"><path d="m13.273 18.068 8.429-8.348 8.432 8.355 4.902-4.86L21.702 0 8.367 13.211l4.905 4.857ZM-.002 21.5l4.904-4.858 4.903 4.859-4.903 4.858-4.904-4.858ZM13.273 24.932l8.429 8.351 8.432-8.355 4.906 4.854-.004.003L21.702 43 8.367 29.792l-.007-.007 4.913-4.853ZM33.59 21.502l4.904-4.858 4.904 4.858-4.904 4.858-4.903-4.858Z" fill="#fff"/><path d="m26.675 21.498-4.974-4.931-3.678 3.644-.425.418-.87.862-.007.007.007.01 4.973 4.925 4.974-4.931.004-.004h-.004ZM51.049 10.42h10.668c2.646 0 4.648.68 6.005 2.038a5.26 5.26 0 0 1 1.185 1.762c.27.66.403 1.37.389 2.082v.065a5.612 5.612 0 0 1-.244 1.725 5.277 5.277 0 0 1-1.6 2.418 6.15 6.15 0 0 1-1.163.781 7.774 7.774 0 0 1 3.144 2.038c.763.86 1.145 2.049 1.145 3.566v.065a5.878 5.878 0 0 1-.607 2.737 5.356 5.356 0 0 1-1.738 1.956c-.83.551-1.753.948-2.725 1.172-1.156.271-2.34.402-3.528.39H51.05V10.42Zm9.598 9.217a5.316 5.316 0 0 0 2.663-.57c.321-.186.583-.457.756-.782.173-.325.251-.692.225-1.06v-.064a1.998 1.998 0 0 0-.854-1.742c-.569-.4-1.39-.601-2.464-.601h-4.991v4.82h4.665Zm1.347 9.187a4.904 4.904 0 0 0 2.64-.601c.313-.2.567-.479.734-.808.168-.33.243-.698.219-1.067v-.064a2.128 2.128 0 0 0-.888-1.807c-.59-.453-1.543-.68-2.86-.68h-5.857v5.027h6.012ZM76.933 10.42h5.063v22.802h-5.063V10.42ZM89.657 10.42h4.669l10.791 14.033V10.42h4.998v22.802h-4.309L94.662 18.727v14.495h-5.005V10.42ZM125.445 10.257h4.662l9.862 22.965h-5.286l-2.105-5.115h-9.732l-2.104 5.115h-5.163l9.866-22.965Zm5.327 13.422-3.065-7.397-3.051 7.397h6.116ZM145.443 10.42h4.669l10.784 14.033V10.42h4.998v22.802h-4.309l-11.144-14.495v14.495h-4.998V10.42ZM184.117 33.623a12.07 12.07 0 0 1-4.703-.91 11.382 11.382 0 0 1-3.743-2.489 11.254 11.254 0 0 1-2.472-3.733 11.972 11.972 0 0 1-.888-4.595v-.065a11.773 11.773 0 0 1 3.356-8.324 11.395 11.395 0 0 1 3.771-2.54 12.405 12.405 0 0 1 4.864-.928c.986-.007 1.971.08 2.941.262.829.155 1.64.395 2.42.716.707.296 1.38.667 2.005 1.108.611.43 1.184.909 1.714 1.433l-3.219 3.681a12.231 12.231 0 0 0-2.742-1.891 7.069 7.069 0 0 0-3.14-.68 6.423 6.423 0 0 0-2.626.531c-.827.36-1.568.89-2.173 1.555a7.154 7.154 0 0 0-1.385 2.265 7.712 7.712 0 0 0-.49 2.754v.065c-.003.938.163 1.87.49 2.75.312.838.777 1.61 1.371 2.28.6.673 1.339 1.21 2.167 1.576.828.366 1.726.551 2.633.543a7.09 7.09 0 0 0 3.335-.716 12.887 12.887 0 0 0 2.711-1.957l3.223 3.227a16.424 16.424 0 0 1-1.841 1.698c-.645.505-1.345.937-2.088 1.287a10.88 10.88 0 0 1-2.482.812c-.99.197-1.999.292-3.009.285ZM199.512 10.42h17.321v4.463h-12.341v4.625h10.867v4.463H204.51v4.789h12.494v4.462h-17.482l-.01-22.802Z" fill="#fff"/></svg>