<svg width="212" height="58" fill="none" xmlns="http://www.w3.org/2000/svg"><path d="M16.095 3.996v7.25h4.552V8.549h27.345v27.378H20.68V21.229h-4.552V40.51H52.61V3.996H16.095ZM6.633 14.27v36.482h36.482v-7.544h-4.552v2.992H11.185V18.823H38.53v14.404h4.553V14.238H6.633v.033Z" fill="#0082D7"/><path d="M76.087 27.862h-5.69V18.92h5.917c3.122 0 5.105 1.821 5.105 4.585-.032 2.699-1.983 4.357-5.332 4.357Zm-5.69-19.77h4.974c3.122 0 4.878 1.529 4.878 4 0 2.861-1.821 4.65-4.585 4.65h-5.3l.032-8.65s-.032 0 0 0Zm8.68 9.495c2.602-.78 4-2.829 4-5.723 0-3.836-2.861-6.113-7.706-6.113h-7.706v24.354h8.421c5.105 0 8.13-2.47 8.13-6.665 0-2.862-1.92-5.073-5.138-5.853ZM151.716 20.383c3.252-.747 5.3-3.219 5.3-7.153 0-4.682-3.154-7.446-8.551-7.446h-7.024v24.354h2.732v-9.43h5.267l5.3 9.43h3.252l-5.56-9.04-.716-.715ZM176.949 19.018h-10.242v8.844h11.413v2.309h-14.145V5.784h14.047v2.309h-11.315v8.714h10.242v2.21Zm-86.62 11.12h2.73V5.751h-2.73v24.387Zm15.476-22.045h-6.86V5.784h16.42v2.309h-6.828v22.045h-2.732V8.093Zm13.494 0h6.894v22.045h2.731V8.093h6.828V5.784h-16.42l-.033 2.309c.033 0 0 0 0 0Zm74.948 9.624 7.251-11.9h-3.316l-5.431 9.657-.227.942-.228-.942-5.43-9.658h-3.284l7.251 11.901-7.446 12.454h3.349l5.593-10.015.227-.943.228.943 5.625 10.015h3.349l-7.511-12.454Z" fill="#fff"/><path d="M144.173 18.563h4.65c3.251 0 5.43-1.756 5.43-5.3 0-3.252-1.951-5.138-5.268-5.138h-4.844l.032 10.438Z" fill="#192335"/><path d="M76.054 41.584h3.934v5.397c-1.236.39-2.504.585-3.772.585-1.625 0-2.861-.487-3.771-1.43-.878-.976-1.334-2.309-1.334-4.065 0-1.723.488-3.089 1.496-4.064 1.008-.976 2.374-1.463 4.097-1.463 1.106 0 2.178.227 3.187.65l-.618 1.463a6.074 6.074 0 0 0-2.602-.585c-1.138 0-2.048.358-2.73 1.073-.651.715-1.009 1.69-1.009 2.959 0 1.3.293 2.308.91 2.991.586.683 1.464 1.008 2.602 1.008.553 0 1.17-.065 1.82-.227v-2.764h-2.21v-1.528Zm20.062 5.82v-10.73h1.755v9.234h4.553v1.496h-6.308Zm31.214-5.365c0 1.756-.422 3.089-1.3 4.064-.878.976-2.114 1.463-3.707 1.463-1.626 0-2.861-.487-3.739-1.43-.878-.976-1.301-2.341-1.301-4.097 0-1.756.423-3.122 1.301-4.065.878-.943 2.113-1.43 3.739-1.43 1.593 0 2.829.487 3.707 1.43.878.943 1.3 2.309 1.3 4.065Zm-8.194 0c0 1.333.261 2.308.813 3.024.521.682 1.334 1.008 2.374 1.008s1.821-.325 2.341-1.008c.52-.683.813-1.691.813-3.024 0-1.3-.26-2.309-.78-2.992-.521-.682-1.301-1.008-2.342-1.008-1.04 0-1.853.325-2.373 1.008-.585.683-.846 1.659-.846 2.992Zm24.029-5.365h3.187c1.463 0 2.536.227 3.186.65.651.423.976 1.106.976 2.049 0 .617-.163 1.138-.488 1.56-.325.423-.78.683-1.398.78v.066c.748.13 1.301.422 1.658.845.358.423.52.975.52 1.69 0 .976-.325 1.724-1.008 2.277-.682.553-1.593.813-2.796.813h-3.869c.032 0 .032-10.73.032-10.73Zm1.756 4.454h1.691c.748 0 1.268-.097 1.593-.357.325-.228.52-.618.52-1.203 0-.52-.195-.878-.552-1.106-.358-.228-.943-.325-1.724-.325h-1.528v2.991Zm0 1.398v3.415h1.854c.747 0 1.3-.13 1.658-.423.39-.293.553-.715.553-1.333 0-.553-.196-.976-.586-1.236-.39-.26-.975-.39-1.723-.39 0-.032-1.756-.032-1.756-.032Zm28.354 4.878-1.074-2.992h-4.096l-1.041 2.992h-1.886l4-10.763h1.918l3.999 10.763h-1.82Zm-1.529-4.487-1.008-2.927a20.64 20.64 0 0 1-.585-1.853 20.202 20.202 0 0 1-.585 1.983l-.976 2.797h3.154Zm18.339 4.487v-10.73h1.756v9.234h4.552v1.496h-6.308Z" fill="#fff"/></svg>