<svg width="179" height="49" fill="none" xmlns="http://www.w3.org/2000/svg"><path d="M31.953 18.106a9.837 9.837 0 0 0-6.866-2.79 9.837 9.837 0 0 0-6.866 2.79 9.603 9.603 0 0 0-2.827 6.821 9.574 9.574 0 0 0 2.864 6.806 9.825 9.825 0 0 0 6.88 2.837 9.825 9.825 0 0 0 6.896-2.794c.068-.068.334-.357.805-.876l-4.582-4.534c-.47.543-.718.827-.749.851a3.325 3.325 0 0 1-4.68 0 3.246 3.246 0 0 1-.044-4.595 3.325 3.325 0 0 1 4.643.037l12.247 12.11a18.394 18.394 0 0 1-6.557 5.744 18.467 18.467 0 0 1-8.476 2.09 18.223 18.223 0 0 1-8.86-2.295A18.142 18.142 0 0 1 9.168 34a18.051 18.051 0 0 1-.766-17.639 18.126 18.126 0 0 1 6.041-6.854 18.229 18.229 0 0 1 17.653-1.52 18.159 18.159 0 0 1 7.132 5.72c-.537.625-1.917 2.182-4.142 4.67l4.538 4.448 7.48-8.359a24.553 24.553 0 0 0-8.297-10.043 24.698 24.698 0 0 0-25.1-1.936A24.593 24.593 0 0 0 3.96 11.14a24.462 24.462 0 0 0-.963 25.066 24.574 24.574 0 0 0 9.055 9.368 24.69 24.69 0 0 0 12.59 3.44c6.19 0 11.31-1.92 16.32-6.17a26.242 26.242 0 0 0 6.71-9.154L31.954 18.106Z" fill="url(#a)"/><path d="M133.111 27.81v11.72h-4.86V27.558a6.006 6.006 0 0 0-2.107-3.511 6.047 6.047 0 0 0-7.721.08 6.002 6.002 0 0 0-2.034 3.554v11.875h-4.86V18.242l3.715 2.331a10.944 10.944 0 0 1 7.076-2.572 10.757 10.757 0 0 1 7.328 2.794 10.684 10.684 0 0 1 3.463 7.015ZM82.127 15.54a14.969 14.969 0 0 0-4.26 3.263 9.835 9.835 0 0 0-3.806-3.226 9.874 9.874 0 0 0-9.645.625 9.821 9.821 0 0 0-3.355 3.69 9.78 9.78 0 0 0 .325 9.625 9.828 9.828 0 0 0 3.597 3.457 9.872 9.872 0 0 0 4.836 1.251 9.935 9.935 0 0 0 4.878-1.233c.53 1.71 1.37 3.31 2.477 4.719a15.423 15.423 0 0 1-7.368 1.85c-2.01.041-4.008-.318-5.876-1.057a15.12 15.12 0 0 1-5.007-3.243 15.054 15.054 0 0 1-3.355-4.922 15.012 15.012 0 0 1 3.355-16.588 15.12 15.12 0 0 1 5.007-3.243 15.162 15.162 0 0 1 5.876-1.057c2.381-.005 4.73.543 6.862 1.6a15.298 15.298 0 0 1 5.415 4.495l.044-.006Zm7.225 24.015a10.693 10.693 0 0 1-5.892-1.85 10.636 10.636 0 0 1-3.875-4.796 10.593 10.593 0 0 1-.556-6.131 10.618 10.618 0 0 1 2.947-5.41 10.68 10.68 0 0 1 5.464-2.875c2.066-.4 4.204-.182 6.146.626 1.942.808 3.6 2.17 4.768 3.915a10.6 10.6 0 0 1 1.789 5.892 10.655 10.655 0 0 1-3.186 7.542 10.761 10.761 0 0 1-7.605 3.088Zm0-4.725a5.94 5.94 0 0 0 3.271-1.03 5.908 5.908 0 0 0 2.15-2.665 5.883 5.883 0 0 0-1.332-6.409 5.945 5.945 0 0 0-6.448-1.247 5.92 5.92 0 0 0-2.647 2.175 5.889 5.889 0 0 0-.993 3.272 5.918 5.918 0 0 0 1.77 4.192 5.96 5.96 0 0 0 4.229 1.712Zm13.794-16.527h4.798v21.252h-4.798V18.303Zm52.167-3.763h-13.72v7.724h13.324v4.793h-13.324v7.699h13.72v4.8h-18.889V9.74h18.889v4.8Zm10.092 14.343-7.386-10.58h6.104c.18.296.446.703.793 1.234l2.519 3.782c.403.617.688 1.048.855 1.338l.247.42 4.39-6.755h5.813l-7.243 10.382 7.522 10.851h-6.03l-4.65-6.946-.254.364c-.204.296-.507.759-.916 1.382-.408.623-.836 1.283-1.3 1.974l-1.306 1.986c-.347.53-.62.944-.787 1.234h-5.764l7.393-10.666Z" fill="#fff"/><path d="M102.242 12.659a3.076 3.076 0 0 1 .966-2.258 3.318 3.318 0 0 1 4.662 0c.314.29.563.644.731 1.037.167.394.249.818.241 1.245a3.27 3.27 0 0 1-.97 2.305 3.293 3.293 0 0 1-2.318.953 3.24 3.24 0 0 1-2.346-.95 3.158 3.158 0 0 1-.966-2.332Z" fill="url(#b)"/><defs><linearGradient id="a" x1="46.95" y1="25.901" x2="-.692" y2="25.901" gradientUnits="userSpaceOnUse"><stop stop-color="#22E6B8"/><stop offset="1" stop-color="#00C1CE"/></linearGradient><linearGradient id="b" x1="-12183.5" y1="-12401.4" x2="-12253.8" y2="-12401.4" gradientUnits="userSpaceOnUse"><stop stop-color="#22E6B8"/><stop offset="1" stop-color="#00C1CE"/></linearGradient></defs></svg>