<svg width="24" height="24" fill="none" xmlns="http://www.w3.org/2000/svg"><path fill-rule="evenodd" clip-rule="evenodd" d="M5 1.5a1 1 0 0 0-1 1v5H2.012A1.003 1.003 0 0 0 1 8.499V21.5a1 1 0 0 0 1 1h20a1 1 0 0 0 1-1V8.515a.996.996 0 0 0-.945-1.014 1.01 1.01 0 0 0-.067-.001H20v-5a1 1 0 0 0-1-1H5Zm-2 19v-10l8.4 6.3a1 1 0 0 0 1.2 0l8.4-6.3v10H3ZM13 6a1 1 0 1 0-2 0v3.086l-.793-.793a1 1 0 0 0-1.414 1.414l2.5 2.5.002.002a.997.997 0 0 0 1.41 0l.002-.002 2.5-2.5a1 1 0 0 0-1.414-1.414L13 9.086V6Z" fill="#fff"/></svg>